#usda 1.0
(
    defaultPrim = "root"
    doc = "Blender v5.2.0 LTS"
    metersPerUnit = 1
    upAxis = "Z"
)

def Xform "root" (
    prepend apiSchemas = ["ColorSpaceAPI"]
    customData = {
        dictionary Blender = {
            bool generated = 1
        }
    }
)
{
    uniform token colorSpace:name = "lin_rec709_scene"

    def Xform "fixed_finger_extension"
    {
        custom string userProperties:blender:object_name = "fixed_finger_extension"
        float3 xformOp:rotateXYZ = (0, -0, 0)
        float3 xformOp:scale = (1, 1, 1)
        double3 xformOp:translate = (-0.004999999888241291, 0, 0.027000000700354576)
        uniform token[] xformOpOrder = ["xformOp:translate", "xformOp:rotateXYZ", "xformOp:scale"]

        def Mesh "Cube_006" (
            active = true
            prepend apiSchemas = ["MaterialBindingAPI"]
        )
        {
            uniform bool doubleSided = 1
            float3[] extent = [(-0.005, -0.009, -0.027), (0.005, 0.009, 0.007)]
            int[] faceVertexCounts = [4, 4, 4, 4, 4, 4, 4, 4, 4, 4, 4, 4, 4, 4, 4, 4, 4, 4]
            int[] faceVertexIndices = [0, 1, 3, 2, 2, 3, 7, 6, 6, 7, 5, 4, 4, 5, 1, 0, 2, 6, 4, 0, 7, 3, 1, 5, 8, 9, 11, 10, 10, 11, 15, 14, 14, 15, 13, 12, 12, 13, 9, 8, 10, 14, 12, 8, 15, 11, 9, 13, 16, 17, 19, 18, 18, 19, 23, 22, 22, 23, 21, 20, 20, 21, 17, 16, 18, 22, 20, 16, 23, 19, 17, 21]
            rel material:binding = </root/_materials/tool>
            normal3f[] normals = [(-1, 0, 0), (-1, 0, 0), (-1, 0, 0), (-1, 0, 0), (0, 1, 0), (0, 1, 0), (0, 1, 0), (0, 1, 0), (1, 0, 0), (1, 0, 0), (1, 0, 0), (1, 0, 0), (0, -1, 0), (0, -1, 0), (0, -1, 0), (0, -1, 0), (0, 0, -1), (0, 0, -1), (0, 0, -1), (0, 0, -1), (0, 0, 1), (0, 0, 1), (0, 0, 1), (0, 0, 1), (-1, 0, 0), (-1, 0, 0), (-1, 0, 0), (-1, 0, 0), (0, 1, 0), (0, 1, 0), (0, 1, 0), (0, 1, 0), (1, 0, 0), (1, 0, 0), (1, 0, 0), (1, 0, 0), (0, -1, 0), (0, -1, 0), (0, -1, 0), (0, -1, 0), (0, 0, -1), (0, 0, -1), (0, 0, -1), (0, 0, -1), (0, 0, 1), (0, 0, 1), (0, 0, 1), (0, 0, 1), (-0.99999994, 0, 0), (-0.99999994, 0, 0), (-0.99999994, 0, 0), (-0.99999994, 0, 0), (0, 1, 0), (0, 1, 0), (0, 1, 0), (0, 1, 0), (0.99999994, 0, 0), (0.99999994, 0, 0), (0.99999994, 0, 0), (0.99999994, 0, 0), (0, -1, 0), (0, -1, 0), (0, -1, 0), (0, -1, 0), (0, 0, -1), (0, 0, -1), (0, 0, -1), (0, 0, -1), (0, 0, 1), (0, 0, 1), (0, 0, 1), (0, 0, 1)] (
                interpolation = "faceVarying"
            )
            point3f[] points = [(-0.005, -0.009, -0.007), (-0.005, -0.009, 0.007), (-0.005, 0.009, -0.007), (-0.005, 0.009, 0.007), (0.005, -0.009, -0.007), (0.005, -0.009, 0.007), (0.005, 0.009, -0.007), (0.005, 0.009, 0.007), (-0.0022500001, -0.002, -0.027), (-0.0022500001, -0.002, -0.007000001), (-0.0022500001, 0.002, -0.027), (-0.0022500001, 0.002, -0.007000001), (0.0002499998, -0.002, -0.027), (0.0002499998, -0.002, -0.007000001), (0.0002499998, 0.002, -0.027), (0.0002499998, 0.002, -0.007000001), (0.00049999985, -0.002, -0.023000002), (0.00049999985, -0.002, -0.011000001), (0.00049999985, 0.002, -0.023000002), (0.00049999985, 0.002, -0.011000001), (0.0012999999, -0.002, -0.023000002), (0.0012999999, -0.002, -0.011000001), (0.0012999999, 0.002, -0.023000002), (0.0012999999, 0.002, -0.011000001)]
            texCoord2f[] primvars:st = [(0.375, 0), (0.375, 1), (0.125, 0.75), (0.625, 0), (0.625, 1), (0.875, 0.75), (0.375, 0.25), (0.125, 0.5), (0.625, 0.25), (0.875, 0.5), (0.375, 0.75), (0.625, 0.75), (0.375, 0.5), (0.625, 0.5), (0.375, 0), (0.375, 1), (0.125, 0.75), (0.625, 0), (0.625, 1), (0.875, 0.75), (0.375, 0.25), (0.125, 0.5), (0.625, 0.25), (0.875, 0.5), (0.375, 0.75), (0.625, 0.75), (0.375, 0.5), (0.625, 0.5), (0.375, 0), (0.375, 1), (0.125, 0.75), (0.625, 0), (0.625, 1), (0.875, 0.75), (0.375, 0.25), (0.125, 0.5), (0.625, 0.25), (0.875, 0.5), (0.375, 0.75), (0.625, 0.75), (0.375, 0.5), (0.625, 0.5)] (
                interpolation = "faceVarying"
            )
            int[] primvars:st:indices = [0, 3, 8, 6, 6, 8, 13, 12, 12, 13, 11, 10, 10, 11, 4, 1, 7, 12, 10, 2, 13, 9, 5, 11, 14, 17, 22, 20, 20, 22, 27, 26, 26, 27, 25, 24, 24, 25, 18, 15, 21, 26, 24, 16, 27, 23, 19, 25, 28, 31, 36, 34, 34, 36, 41, 40, 40, 41, 39, 38, 38, 39, 32, 29, 35, 40, 38, 30, 41, 37, 33, 39]
            uniform token subdivisionScheme = "none"
            uniform token subsetFamily:materialBind:familyType = "nonOverlapping"
            custom string userProperties:blender:data_name = "Cube.006"

            def GeomSubset "tool" (
                prepend apiSchemas = ["MaterialBindingAPI"]
            )
            {
                uniform token elementType = "face"
                uniform token familyName = "materialBind"
                int[] indices = [0, 1, 2, 3, 4, 5, 6, 7, 8, 9, 10, 11]
                rel material:binding = </root/_materials/tool>
            }

            def GeomSubset "contact_pad" (
                prepend apiSchemas = ["MaterialBindingAPI"]
            )
            {
                uniform token elementType = "face"
                uniform token familyName = "materialBind"
                int[] indices = [12, 13, 14, 15, 16, 17]
                rel material:binding = </root/_materials/contact_pad>
            }
        }
    }

    def Scope "_materials"
    {
        def Material "tool" (
            prepend apiSchemas = ["ColorSpaceAPI"]
        )
        {
            uniform token colorSpace:name = "lin_rec709_scene"
            token outputs:surface.connect = </root/_materials/tool/Principled_BSDF.outputs:surface>
            custom string userProperties:blender:data_name = "tool"

            def Shader "Principled_BSDF"
            {
                uniform token info:id = "UsdPreviewSurface"
                float inputs:clearcoat = 0
                float inputs:clearcoatRoughness = 0.03
                color3f inputs:diffuseColor = (0.95, 0.36, 0.08)
                float inputs:ior = 1.5
                float inputs:metallic = 0
                float inputs:opacity = 1
                float inputs:roughness = 0.4
                float inputs:specular = 0.5
                token outputs:surface
            }
        }

        def Material "contact_pad" (
            prepend apiSchemas = ["ColorSpaceAPI"]
        )
        {
            uniform token colorSpace:name = "lin_rec709_scene"
            token outputs:surface.connect = </root/_materials/contact_pad/Principled_BSDF.outputs:surface>
            custom string userProperties:blender:data_name = "contact_pad"

            def Shader "Principled_BSDF"
            {
                uniform token info:id = "UsdPreviewSurface"
                float inputs:clearcoat = 0
                float inputs:clearcoatRoughness = 0.03
                color3f inputs:diffuseColor = (0.08, 0.08, 0.08)
                float inputs:ior = 1.5
                float inputs:metallic = 0
                float inputs:opacity = 1
                float inputs:roughness = 0.9
                float inputs:specular = 0.5
                token outputs:surface
            }
        }
    }

    def DomeLight "env_light" (
        prepend apiSchemas = ["ColorSpaceAPI"]
    )
    {
        uniform token colorSpace:name = "lin_rec709_scene"
        float inputs:intensity = 1
        asset inputs:texture:file = @./textures/color_0C0C0C.exr@
    }
}

