#usda 1.0
(
    defaultPrim = "root"
    doc = "Blender v5.2.0 LTS"
    metersPerUnit = 1
    upAxis = "Z"
)

def Xform "root" (
    prepend apiSchemas = ["ColorSpaceAPI"]
    customData = {
        dictionary Blender = {
            bool generated = 1
        }
    }
)
{
    uniform token colorSpace:name = "lin_rec709_scene"

    def Xform "white_rook"
    {
        custom string userProperties:blender:object_name = "white_rook"
        float3 xformOp:rotateXYZ = (0, -0, 0)
        float3 xformOp:scale = (1, 1, 1)
        double3 xformOp:translate = (0, 0, 0.0024999999441206455)
        uniform token[] xformOpOrder = ["xformOp:translate", "xformOp:rotateXYZ", "xformOp:scale"]

        def Mesh "Cylinder_003" (
            active = true
            prepend apiSchemas = ["MaterialBindingAPI"]
        )
        {
            uniform bool doubleSided = 1
            float3[] extent = [(-0.007, -0.007, -0.0025), (0.007, 0.007, 0.0215)]
            int[] faceVertexCounts = [4, 4, 4, 4, 4, 4, 4, 4, 4, 4, 4, 4, 4, 4, 4, 4, 4, 4, 4, 4, 4, 4, 4, 4, 4, 4, 4, 4, 4, 4, 4, 4, 4, 4, 4, 4, 4, 4, 4, 4, 4, 4, 4, 4, 4, 4, 48, 4, 4, 48, 4, 4, 4, 4, 4, 4, 4, 4, 4, 4, 4, 4, 4, 4, 4, 4, 4, 4, 4, 4, 4, 4, 4, 4, 4, 4, 4, 4, 4, 4, 4, 4, 4, 4, 4, 4, 4, 4, 40, 4, 4, 40, 4, 4, 4, 4, 4, 4, 4, 4, 4, 4, 4, 4, 4, 4, 4, 4, 4, 4, 4, 4, 4, 4, 4, 4, 4, 4, 4, 4, 4, 4, 4, 4, 4, 4, 4, 4, 4, 4, 4, 4, 4, 4, 4, 4, 4, 4, 48, 4, 4, 48, 4, 4, 4, 4, 4, 4, 4, 4, 4, 4, 4, 4]
            int[] faceVertexIndices = [0, 1, 3, 2, 2, 3, 5, 4, 4, 5, 7, 6, 6, 7, 9, 8, 8, 9, 11, 10, 10, 11, 13, 12, 12, 13, 15, 14, 14, 15, 17, 16, 16, 17, 19, 18, 18, 19, 21, 20, 20, 21, 23, 22, 22, 23, 25, 24, 24, 25, 27, 26, 26, 27, 29, 28, 28, 29, 31, 30, 30, 31, 33, 32, 32, 33, 35, 34, 34, 35, 37, 36, 36, 37, 39, 38, 38, 39, 41, 40, 40, 41, 43, 42, 42, 43, 45, 44, 44, 45, 47, 46, 46, 47, 49, 48, 48, 49, 51, 50, 50, 51, 53, 52, 52, 53, 55, 54, 54, 55, 57, 56, 56, 57, 59, 58, 58, 59, 61, 60, 60, 61, 63, 62, 62, 63, 65, 64, 64, 65, 67, 66, 66, 67, 69, 68, 68, 69, 71, 70, 70, 71, 73, 72, 72, 73, 75, 74, 74, 75, 77, 76, 76, 77, 79, 78, 78, 79, 81, 80, 80, 81, 83, 82, 82, 83, 85, 84, 84, 85, 87, 86, 86, 87, 89, 88, 88, 89, 91, 90, 90, 91, 93, 92, 3, 1, 95, 93, 91, 89, 87, 85, 83, 81, 79, 77, 75, 73, 71, 69, 67, 65, 63, 61, 59, 57, 55, 53, 51, 49, 47, 45, 43, 41, 39, 37, 35, 33, 31, 29, 27, 25, 23, 21, 19, 17, 15, 13, 11, 9, 7, 5, 92, 93, 95, 94, 94, 95, 1, 0, 0, 2, 4, 6, 8, 10, 12, 14, 16, 18, 20, 22, 24, 26, 28, 30, 32, 34, 36, 38, 40, 42, 44, 46, 48, 50, 52, 54, 56, 58, 60, 62, 64, 66, 68, 70, 72, 74, 76, 78, 80, 82, 84, 86, 88, 90, 92, 94, 96, 97, 99, 98, 98, 99, 101, 100, 100, 101, 103, 102, 102, 103, 105, 104, 104, 105, 107, 106, 106, 107, 109, 108, 108, 109, 111, 110, 110, 111, 113, 112, 112, 113, 115, 114, 114, 115, 117, 116, 116, 117, 119, 118, 118, 119, 121, 120, 120, 121, 123, 122, 122, 123, 125, 124, 124, 125, 127, 126, 126, 127, 129, 128, 128, 129, 131, 130, 130, 131, 133, 132, 132, 133, 135, 134, 134, 135, 137, 136, 136, 137, 139, 138, 138, 139, 141, 140, 140, 141, 143, 142, 142, 143, 145, 144, 144, 145, 147, 146, 146, 147, 149, 148, 148, 149, 151, 150, 150, 151, 153, 152, 152, 153, 155, 154, 154, 155, 157, 156, 156, 157, 159, 158, 158, 159, 161, 160, 160, 161, 163, 162, 162, 163, 165, 164, 164, 165, 167, 166, 166, 167, 169, 168, 168, 169, 171, 170, 170, 171, 173, 172, 99, 97, 175, 173, 171, 169, 167, 165, 163, 161, 159, 157, 155, 153, 151, 149, 147, 145, 143, 141, 139, 137, 135, 133, 131, 129, 127, 125, 123, 121, 119, 117, 115, 113, 111, 109, 107, 105, 103, 101, 172, 173, 175, 174, 174, 175, 97, 96, 96, 98, 100, 102, 104, 106, 108, 110, 112, 114, 116, 118, 120, 122, 124, 126, 128, 130, 132, 134, 136, 138, 140, 142, 144, 146, 148, 150, 152, 154, 156, 158, 160, 162, 164, 166, 168, 170, 172, 174, 176, 177, 179, 178, 178, 179, 181, 180, 180, 181, 183, 182, 182, 183, 185, 184, 184, 185, 187, 186, 186, 187, 189, 188, 188, 189, 191, 190, 190, 191, 193, 192, 192, 193, 195, 194, 194, 195, 197, 196, 196, 197, 199, 198, 198, 199, 201, 200, 200, 201, 203, 202, 202, 203, 205, 204, 204, 205, 207, 206, 206, 207, 209, 208, 208, 209, 211, 210, 210, 211, 213, 212, 212, 213, 215, 214, 214, 215, 217, 216, 216, 217, 219, 218, 218, 219, 221, 220, 220, 221, 223, 222, 222, 223, 225, 224, 224, 225, 227, 226, 226, 227, 229, 228, 228, 229, 231, 230, 230, 231, 233, 232, 232, 233, 235, 234, 234, 235, 237, 236, 236, 237, 239, 238, 238, 239, 241, 240, 240, 241, 243, 242, 242, 243, 245, 244, 244, 245, 247, 246, 246, 247, 249, 248, 248, 249, 251, 250, 250, 251, 253, 252, 252, 253, 255, 254, 254, 255, 257, 256, 256, 257, 259, 258, 258, 259, 261, 260, 260, 261, 263, 262, 262, 263, 265, 264, 264, 265, 267, 266, 266, 267, 269, 268, 179, 177, 271, 269, 267, 265, 263, 261, 259, 257, 255, 253, 251, 249, 247, 245, 243, 241, 239, 237, 235, 233, 231, 229, 227, 225, 223, 221, 219, 217, 215, 213, 211, 209, 207, 205, 203, 201, 199, 197, 195, 193, 191, 189, 187, 185, 183, 181, 268, 269, 271, 270, 270, 271, 177, 176, 176, 178, 180, 182, 184, 186, 188, 190, 192, 194, 196, 198, 200, 202, 204, 206, 208, 210, 212, 214, 216, 218, 220, 222, 224, 226, 228, 230, 232, 234, 236, 238, 240, 242, 244, 246, 248, 250, 252, 254, 256, 258, 260, 262, 264, 266, 268, 270, 272, 273, 275, 274, 274, 275, 277, 276, 275, 273, 279, 277, 276, 277, 279, 278, 278, 279, 273, 272, 272, 274, 276, 278, 280, 281, 283, 282, 282, 283, 287, 286, 286, 287, 285, 284, 284, 285, 281, 280, 282, 286, 284, 280, 287, 283, 281, 285]
            rel material:binding = </root/_materials/piece_white>
            normal3f[] normals = [(0.06540305, 0.99785894, 0), (0.06540305, 0.99785894, 0), (0.06540305, 0.99785894, 0), (0.06540305, 0.99785894, 0), (0.19509035, 0.9807853, 0), (0.19509035, 0.9807853, 0), (0.19509035, 0.9807853, 0), (0.19509035, 0.9807853, 0), (0.3214398, 0.94693005, 0), (0.3214398, 0.94693005, 0), (0.3214398, 0.94693005, 0), (0.3214398, 0.94693005, 0), (0.4422885, 0.8968728, 0), (0.4422885, 0.8968728, 0), (0.4422885, 0.8968728, 0), (0.4422885, 0.8968728, 0), (0.55557036, 0.8314694, 0), (0.55557036, 0.8314694, 0), (0.55557036, 0.8314694, 0), (0.55557036, 0.8314694, 0), (0.65934575, 0.7518398, 0), (0.65934575, 0.7518398, 0), (0.65934575, 0.7518398, 0), (0.65934575, 0.7518398, 0), (0.7518398, 0.65934587, 0), (0.7518398, 0.65934587, 0), (0.7518398, 0.65934587, 0), (0.7518398, 0.65934587, 0), (0.83146966, 0.5555701, 0), (0.83146966, 0.5555701, 0), (0.83146966, 0.5555701, 0), (0.83146966, 0.5555701, 0), (0.89687276, 0.4422886, 0), (0.89687276, 0.4422886, 0), (0.89687276, 0.4422886, 0), (0.89687276, 0.4422886, 0), (0.94692993, 0.3214402, 0), (0.94692993, 0.3214402, 0), (0.94692993, 0.3214402, 0), (0.94692993, 0.3214402, 0), (0.9807854, 0.19508983, 0), (0.9807854, 0.19508983, 0), (0.9807854, 0.19508983, 0), (0.9807854, 0.19508983, 0), (0.9978589, 0.0654034, 0), (0.9978589, 0.0654034, 0), (0.9978589, 0.0654034, 0), (0.9978589, 0.0654034, 0), (0.9978589, -0.0654034, 0), (0.9978589, -0.0654034, 0), (0.9978589, -0.0654034, 0), (0.9978589, -0.0654034, 0), (0.9807854, -0.19508983, 0), (0.9807854, -0.19508983, 0), (0.9807854, -0.19508983, 0), (0.9807854, -0.19508983, 0), (0.94692993, -0.3214402, 0), (0.94692993, -0.3214402, 0), (0.94692993, -0.3214402, 0), (0.94692993, -0.3214402, 0), (0.89687276, -0.4422886, 0), (0.89687276, -0.4422886, 0), (0.89687276, -0.4422886, 0), (0.89687276, -0.4422886, 0), (0.83146966, -0.5555701, 0), (0.83146966, -0.5555701, 0), (0.83146966, -0.5555701, 0), (0.83146966, -0.5555701, 0), (0.7518398, -0.65934587, 0), (0.7518398, -0.65934587, 0), (0.7518398, -0.65934587, 0), (0.7518398, -0.65934587, 0), (0.65934575, -0.7518398, 0), (0.65934575, -0.7518398, 0), (0.65934575, -0.7518398, 0), (0.65934575, -0.7518398, 0), (0.55557036, -0.8314694, 0), (0.55557036, -0.8314694, 0), (0.55557036, -0.8314694, 0), (0.55557036, -0.8314694, 0), (0.4422885, -0.8968728, 0), (0.4422885, -0.8968728, 0), (0.4422885, -0.8968728, 0), (0.4422885, -0.8968728, 0), (0.3214398, -0.94693005, 0), (0.3214398, -0.94693005, 0), (0.3214398, -0.94693005, 0), (0.3214398, -0.94693005, 0), (0.19509035, -0.9807853, 0), (0.19509035, -0.9807853, 0), (0.19509035, -0.9807853, 0), (0.19509035, -0.9807853, 0), (0.06540305, -0.99785894, 0), (0.06540305, -0.99785894, 0), (0.06540305, -0.99785894, 0), (0.06540305, -0.99785894, 0), (-0.06540305, -0.99785894, 0), (-0.06540305, -0.99785894, 0), (-0.06540305, -0.99785894, 0), (-0.06540305, -0.99785894, 0), (-0.19509035, -0.9807853, 0), (-0.19509035, -0.9807853, 0), (-0.19509035, -0.9807853, 0), (-0.19509035, -0.9807853, 0), (-0.3214398, -0.94693005, 0), (-0.3214398, -0.94693005, 0), (-0.3214398, -0.94693005, 0), (-0.3214398, -0.94693005, 0), (-0.4422885, -0.8968728, 0), (-0.4422885, -0.8968728, 0), (-0.4422885, -0.8968728, 0), (-0.4422885, -0.8968728, 0), (-0.55557036, -0.8314694, 0), (-0.55557036, -0.8314694, 0), (-0.55557036, -0.8314694, 0), (-0.55557036, -0.8314694, 0), (-0.65934575, -0.7518398, 0), (-0.65934575, -0.7518398, 0), (-0.65934575, -0.7518398, 0), (-0.65934575, -0.7518398, 0), (-0.7518398, -0.65934587, 0), (-0.7518398, -0.65934587, 0), (-0.7518398, -0.65934587, 0), (-0.7518398, -0.65934587, 0), (-0.83146966, -0.5555701, 0), (-0.83146966, -0.5555701, 0), (-0.83146966, -0.5555701, 0), (-0.83146966, -0.5555701, 0), (-0.89687276, -0.4422886, 0), (-0.89687276, -0.4422886, 0), (-0.89687276, -0.4422886, 0), (-0.89687276, -0.4422886, 0), (-0.94692993, -0.3214402, 0), (-0.94692993, -0.3214402, 0), (-0.94692993, -0.3214402, 0), (-0.94692993, -0.3214402, 0), (-0.9807854, -0.19508983, 0), (-0.9807854, -0.19508983, 0), (-0.9807854, -0.19508983, 0), (-0.9807854, -0.19508983, 0), (-0.9978589, -0.0654034, 0), (-0.9978589, -0.0654034, 0), (-0.9978589, -0.0654034, 0), (-0.9978589, -0.0654034, 0), (-0.9978589, 0.0654034, 0), (-0.9978589, 0.0654034, 0), (-0.9978589, 0.0654034, 0), (-0.9978589, 0.0654034, 0), (-0.9807854, 0.19508983, 0), (-0.9807854, 0.19508983, 0), (-0.9807854, 0.19508983, 0), (-0.9807854, 0.19508983, 0), (-0.94692993, 0.3214402, 0), (-0.94692993, 0.3214402, 0), (-0.94692993, 0.3214402, 0), (-0.94692993, 0.3214402, 0), (-0.89687276, 0.4422886, 0), (-0.89687276, 0.4422886, 0), (-0.89687276, 0.4422886, 0), (-0.89687276, 0.4422886, 0), (-0.83146966, 0.5555701, 0), (-0.83146966, 0.5555701, 0), (-0.83146966, 0.5555701, 0), (-0.83146966, 0.5555701, 0), (-0.7518398, 0.65934587, 0), (-0.7518398, 0.65934587, 0), (-0.7518398, 0.65934587, 0), (-0.7518398, 0.65934587, 0), (-0.65934575, 0.7518398, 0), (-0.65934575, 0.7518398, 0), (-0.65934575, 0.7518398, 0), (-0.65934575, 0.7518398, 0), (-0.55557036, 0.8314694, 0), (-0.55557036, 0.8314694, 0), (-0.55557036, 0.8314694, 0), (-0.55557036, 0.8314694, 0), (-0.4422885, 0.8968728, 0), (-0.4422885, 0.8968728, 0), (-0.4422885, 0.8968728, 0), (-0.4422885, 0.8968728, 0), (-0.3214398, 0.94693005, 0), (-0.3214398, 0.94693005, 0), (-0.3214398, 0.94693005, 0), (-0.3214398, 0.94693005, 0), (6.295411e-9, 0, 1), (6.295411e-9, 0, 1), (6.295411e-9, 0, 1), (6.295411e-9, 0, 1), (6.295411e-9, 0, 1), (6.295411e-9, 0, 1), (6.295411e-9, 0, 1), (6.295411e-9, 0, 1), (6.295411e-9, 0, 1), (6.295411e-9, 0, 1), (6.295411e-9, 0, 1), (6.295411e-9, 0, 1), (6.295411e-9, 0, 1), (6.295411e-9, 0, 1), (6.295411e-9, 0, 1), (6.295411e-9, 0, 1), (6.295411e-9, 0, 1), (6.295411e-9, 0, 1), (6.295411e-9, 0, 1), (6.295411e-9, 0, 1), (6.295411e-9, 0, 1), (6.295411e-9, 0, 1), (6.295411e-9, 0, 1), (6.295411e-9, 0, 1), (6.295411e-9, 0, 1), (6.295411e-9, 0, 1), (6.295411e-9, 0, 1), (6.295411e-9, 0, 1), (6.295411e-9, 0, 1), (6.295411e-9, 0, 1), (6.295411e-9, 0, 1), (6.295411e-9, 0, 1), (6.295411e-9, 0, 1), (6.295411e-9, 0, 1), (6.295411e-9, 0, 1), (6.295411e-9, 0, 1), (6.295411e-9, 0, 1), (6.295411e-9, 0, 1), (6.295411e-9, 0, 1), (6.295411e-9, 0, 1), (6.295411e-9, 0, 1), (6.295411e-9, 0, 1), (6.295411e-9, 0, 1), (6.295411e-9, 0, 1), (6.295411e-9, 0, 1), (6.295411e-9, 0, 1), (6.295411e-9, 0, 1), (6.295411e-9, 0, 1), (-0.19509035, 0.9807853, 0), (-0.19509035, 0.9807853, 0), (-0.19509035, 0.9807853, 0), (-0.19509035, 0.9807853, 0), (-0.06540305, 0.99785894, 0), (-0.06540305, 0.99785894, 0), (-0.06540305, 0.99785894, 0), (-0.06540305, 0.99785894, 0), (-1.01837525e-8, 0, -1), (-1.01837525e-8, 0, -1), (-1.01837525e-8, 0, -1), (-1.01837525e-8, 0, -1), (-1.01837525e-8, 0, -1), (-1.01837525e-8, 0, -1), (-1.01837525e-8, 0, -1), (-1.01837525e-8, 0, -1), (-1.01837525e-8, 0, -1), (-1.01837525e-8, 0, -1), (-1.01837525e-8, 0, -1), (-1.01837525e-8, 0, -1), (-1.01837525e-8, 0, -1), (-1.01837525e-8, 0, -1), (-1.01837525e-8, 0, -1), (-1.01837525e-8, 0, -1), (-1.01837525e-8, 0, -1), (-1.01837525e-8, 0, -1), (-1.01837525e-8, 0, -1), (-1.01837525e-8, 0, -1), (-1.01837525e-8, 0, -1), (-1.01837525e-8, 0, -1), (-1.01837525e-8, 0, -1), (-1.01837525e-8, 0, -1), (-1.01837525e-8, 0, -1), (-1.01837525e-8, 0, -1), (-1.01837525e-8, 0, -1), (-1.01837525e-8, 0, -1), (-1.01837525e-8, 0, -1), (-1.01837525e-8, 0, -1), (-1.01837525e-8, 0, -1), (-1.01837525e-8, 0, -1), (-1.01837525e-8, 0, -1), (-1.01837525e-8, 0, -1), (-1.01837525e-8, 0, -1), (-1.01837525e-8, 0, -1), (-1.01837525e-8, 0, -1), (-1.01837525e-8, 0, -1), (-1.01837525e-8, 0, -1), (-1.01837525e-8, 0, -1), (-1.01837525e-8, 0, -1), (-1.01837525e-8, 0, -1), (-1.01837525e-8, 0, -1), (-1.01837525e-8, 0, -1), (-1.01837525e-8, 0, -1), (-1.01837525e-8, 0, -1), (-1.01837525e-8, 0, -1), (-1.01837525e-8, 0, -1), (0.074306406, 0.9441554, 0.32101277), (0.074306406, 0.9441554, 0.32101277), (0.074306406, 0.9441554, 0.32101277), (0.074306406, 0.9441554, 0.32101277), (0.22108994, 0.9209071, 0.321013), (0.22108994, 0.9209071, 0.321013), (0.22108994, 0.9209071, 0.321013), (0.22108994, 0.9209071, 0.321013), (0.36242965, 0.8749831, 0.32101285), (0.36242965, 0.8749831, 0.32101285), (0.36242965, 0.8749831, 0.32101285), (0.36242965, 0.8749831, 0.32101285), (0.49484548, 0.8075139, 0.3210128), (0.49484548, 0.8075139, 0.3210128), (0.49484548, 0.8075139, 0.3210128), (0.49484548, 0.8075139, 0.3210128), (0.61507607, 0.72016126, 0.32101288), (0.61507607, 0.72016126, 0.32101288), (0.61507607, 0.72016126, 0.32101288), (0.61507607, 0.72016126, 0.32101288), (0.72016126, 0.615076, 0.321013), (0.72016126, 0.615076, 0.321013), (0.72016126, 0.615076, 0.321013), (0.72016126, 0.615076, 0.321013), (0.8075139, 0.49484542, 0.32101277), (0.8075139, 0.49484542, 0.32101277), (0.8075139, 0.49484542, 0.32101277), (0.8075139, 0.49484542, 0.32101277), (0.8749832, 0.36242965, 0.32101288), (0.8749832, 0.36242965, 0.32101288), (0.8749832, 0.36242965, 0.32101288), (0.8749832, 0.36242965, 0.32101288), (0.920907, 0.22109072, 0.32101282), (0.920907, 0.22109072, 0.32101282), (0.920907, 0.22109072, 0.32101282), (0.920907, 0.22109072, 0.32101282), (0.94415534, 0.0743064, 0.3210128), (0.94415534, 0.0743064, 0.3210128), (0.94415534, 0.0743064, 0.3210128), (0.94415534, 0.0743064, 0.3210128), (0.94415534, -0.0743064, 0.3210128), (0.94415534, -0.0743064, 0.3210128), (0.94415534, -0.0743064, 0.3210128), (0.94415534, -0.0743064, 0.3210128), (0.920907, -0.22109072, 0.32101277), (0.920907, -0.22109072, 0.32101277), (0.920907, -0.22109072, 0.32101277), (0.920907, -0.22109072, 0.32101277), (0.87498313, -0.3624296, 0.32101285), (0.87498313, -0.3624296, 0.32101285), (0.87498313, -0.3624296, 0.32101285), (0.87498313, -0.3624296, 0.32101285), (0.8075139, -0.49484542, 0.32101285), (0.8075139, -0.49484542, 0.32101285), (0.8075139, -0.49484542, 0.32101285), (0.8075139, -0.49484542, 0.32101285), (0.7201613, -0.615076, 0.32101288), (0.7201613, -0.615076, 0.32101288), (0.7201613, -0.615076, 0.32101288), (0.7201613, -0.615076, 0.32101288), (0.61507607, -0.72016126, 0.32101282), (0.61507607, -0.72016126, 0.32101282), (0.61507607, -0.72016126, 0.32101282), (0.61507607, -0.72016126, 0.32101282), (0.4948454, -0.80751395, 0.32101285), (0.4948454, -0.80751395, 0.32101285), (0.4948454, -0.80751395, 0.32101285), (0.4948454, -0.80751395, 0.32101285), (0.3624298, -0.8749831, 0.32101282), (0.3624298, -0.8749831, 0.32101282), (0.3624298, -0.8749831, 0.32101282), (0.3624298, -0.8749831, 0.32101282), (0.22108994, -0.9209071, 0.3210129), (0.22108994, -0.9209071, 0.3210129), (0.22108994, -0.9209071, 0.3210129), (0.22108994, -0.9209071, 0.3210129), (0.074306406, -0.9441554, 0.32101277), (0.074306406, -0.9441554, 0.32101277), (0.074306406, -0.9441554, 0.32101277), (0.074306406, -0.9441554, 0.32101277), (-0.074306406, -0.9441554, 0.32101277), (-0.074306406, -0.9441554, 0.32101277), (-0.074306406, -0.9441554, 0.32101277), (-0.074306406, -0.9441554, 0.32101277), (-0.22108994, -0.9209071, 0.321013), (-0.22108994, -0.9209071, 0.321013), (-0.22108994, -0.9209071, 0.321013), (-0.22108994, -0.9209071, 0.321013), (-0.36242965, -0.8749831, 0.32101285), (-0.36242965, -0.8749831, 0.32101285), (-0.36242965, -0.8749831, 0.32101285), (-0.36242965, -0.8749831, 0.32101285), (-0.49484548, -0.8075139, 0.3210128), (-0.49484548, -0.8075139, 0.3210128), (-0.49484548, -0.8075139, 0.3210128), (-0.49484548, -0.8075139, 0.3210128), (-0.61507607, -0.72016126, 0.32101288), (-0.61507607, -0.72016126, 0.32101288), (-0.61507607, -0.72016126, 0.32101288), (-0.61507607, -0.72016126, 0.32101288), (-0.72016126, -0.615076, 0.321013), (-0.72016126, -0.615076, 0.321013), (-0.72016126, -0.615076, 0.321013), (-0.72016126, -0.615076, 0.321013), (-0.8075139, -0.49484542, 0.32101277), (-0.8075139, -0.49484542, 0.32101277), (-0.8075139, -0.49484542, 0.32101277), (-0.8075139, -0.49484542, 0.32101277), (-0.8749832, -0.36242965, 0.32101288), (-0.8749832, -0.36242965, 0.32101288), (-0.8749832, -0.36242965, 0.32101288), (-0.8749832, -0.36242965, 0.32101288), (-0.920907, -0.22109072, 0.32101282), (-0.920907, -0.22109072, 0.32101282), (-0.920907, -0.22109072, 0.32101282), (-0.920907, -0.22109072, 0.32101282), (-0.94415534, -0.0743064, 0.3210128), (-0.94415534, -0.0743064, 0.3210128), (-0.94415534, -0.0743064, 0.3210128), (-0.94415534, -0.0743064, 0.3210128), (-0.94415534, 0.0743064, 0.3210128), (-0.94415534, 0.0743064, 0.3210128), (-0.94415534, 0.0743064, 0.3210128), (-0.94415534, 0.0743064, 0.3210128), (-0.920907, 0.22109072, 0.32101277), (-0.920907, 0.22109072, 0.32101277), (-0.920907, 0.22109072, 0.32101277), (-0.920907, 0.22109072, 0.32101277), (-0.87498313, 0.3624296, 0.32101285), (-0.87498313, 0.3624296, 0.32101285), (-0.87498313, 0.3624296, 0.32101285), (-0.87498313, 0.3624296, 0.32101285), (-0.8075139, 0.49484542, 0.32101285), (-0.8075139, 0.49484542, 0.32101285), (-0.8075139, 0.49484542, 0.32101285), (-0.8075139, 0.49484542, 0.32101285), (-0.7201613, 0.615076, 0.32101288), (-0.7201613, 0.615076, 0.32101288), (-0.7201613, 0.615076, 0.32101288), (-0.7201613, 0.615076, 0.32101288), (-0.61507607, 0.72016126, 0.32101282), (-0.61507607, 0.72016126, 0.32101282), (-0.61507607, 0.72016126, 0.32101282), (-0.61507607, 0.72016126, 0.32101282), (-0.4948454, 0.80751395, 0.32101285), (-0.4948454, 0.80751395, 0.32101285), (-0.4948454, 0.80751395, 0.32101285), (-0.4948454, 0.80751395, 0.32101285), (-0.3624298, 0.8749831, 0.32101282), (-0.3624298, 0.8749831, 0.32101282), (-0.3624298, 0.8749831, 0.32101282), (-0.3624298, 0.8749831, 0.32101282), (8.0081314e-8, 0, 1), (8.0081314e-8, 0, 1), (8.0081314e-8, 0, 1), (8.0081314e-8, 0, 1), (8.0081314e-8, 0, 1), (8.0081314e-8, 0, 1), (8.0081314e-8, 0, 1), (8.0081314e-8, 0, 1), (8.0081314e-8, 0, 1), (8.0081314e-8, 0, 1), (8.0081314e-8, 0, 1), (8.0081314e-8, 0, 1), (8.0081314e-8, 0, 1), (8.0081314e-8, 0, 1), (8.0081314e-8, 0, 1), (8.0081314e-8, 0, 1), (8.0081314e-8, 0, 1), (8.0081314e-8, 0, 1), (8.0081314e-8, 0, 1), (8.0081314e-8, 0, 1), (8.0081314e-8, 0, 1), (8.0081314e-8, 0, 1), (8.0081314e-8, 0, 1), (8.0081314e-8, 0, 1), (8.0081314e-8, 0, 1), (8.0081314e-8, 0, 1), (8.0081314e-8, 0, 1), (8.0081314e-8, 0, 1), (8.0081314e-8, 0, 1), (8.0081314e-8, 0, 1), (8.0081314e-8, 0, 1), (8.0081314e-8, 0, 1), (8.0081314e-8, 0, 1), (8.0081314e-8, 0, 1), (8.0081314e-8, 0, 1), (8.0081314e-8, 0, 1), (8.0081314e-8, 0, 1), (8.0081314e-8, 0, 1), (8.0081314e-8, 0, 1), (8.0081314e-8, 0, 1), (-0.22108994, 0.9209071, 0.3210129), (-0.22108994, 0.9209071, 0.3210129), (-0.22108994, 0.9209071, 0.3210129), (-0.22108994, 0.9209071, 0.3210129), (-0.074306406, 0.9441554, 0.32101277), (-0.074306406, 0.9441554, 0.32101277), (-0.074306406, 0.9441554, 0.32101277), (-0.074306406, 0.9441554, 0.32101277), (3.6336892e-10, 0, -1), (3.6336892e-10, 0, -1), (3.6336892e-10, 0, -1), (3.6336892e-10, 0, -1), (3.6336892e-10, 0, -1), (3.6336892e-10, 0, -1), (3.6336892e-10, 0, -1), (3.6336892e-10, 0, -1), (3.6336892e-10, 0, -1), (3.6336892e-10, 0, -1), (3.6336892e-10, 0, -1), (3.6336892e-10, 0, -1), (3.6336892e-10, 0, -1), (3.6336892e-10, 0, -1), (3.6336892e-10, 0, -1), (3.6336892e-10, 0, -1), (3.6336892e-10, 0, -1), (3.6336892e-10, 0, -1), (3.6336892e-10, 0, -1), (3.6336892e-10, 0, -1), (3.6336892e-10, 0, -1), (3.6336892e-10, 0, -1), (3.6336892e-10, 0, -1), (3.6336892e-10, 0, -1), (3.6336892e-10, 0, -1), (3.6336892e-10, 0, -1), (3.6336892e-10, 0, -1), (3.6336892e-10, 0, -1), (3.6336892e-10, 0, -1), (3.6336892e-10, 0, -1), (3.6336892e-10, 0, -1), (3.6336892e-10, 0, -1), (3.6336892e-10, 0, -1), (3.6336892e-10, 0, -1), (3.6336892e-10, 0, -1), (3.6336892e-10, 0, -1), (3.6336892e-10, 0, -1), (3.6336892e-10, 0, -1), (3.6336892e-10, 0, -1), (3.6336892e-10, 0, -1), (0.06540306, 0.997859, 0), (0.06540306, 0.997859, 0), (0.06540306, 0.997859, 0), (0.06540306, 0.997859, 0), (0.19509037, 0.98078525, 0), (0.19509037, 0.98078525, 0), (0.19509037, 0.98078525, 0), (0.19509037, 0.98078525, 0), (0.3214398, 0.94693, 0), (0.3214398, 0.94693, 0), (0.3214398, 0.94693, 0), (0.3214398, 0.94693, 0), (0.44228858, 0.8968728, 0), (0.44228858, 0.8968728, 0), (0.44228858, 0.8968728, 0), (0.44228858, 0.8968728, 0), (0.55557024, 0.8314696, 0), (0.55557024, 0.8314696, 0), (0.55557024, 0.8314696, 0), (0.55557024, 0.8314696, 0), (0.6593459, 0.75183976, 0), (0.6593459, 0.75183976, 0), (0.6593459, 0.75183976, 0), (0.6593459, 0.75183976, 0), (0.75183994, 0.6593456, 0), (0.75183994, 0.6593456, 0), (0.75183994, 0.6593456, 0), (0.75183994, 0.6593456, 0), (0.83146924, 0.5555707, 0), (0.83146924, 0.5555707, 0), (0.83146924, 0.5555707, 0), (0.83146924, 0.5555707, 0), (0.89687294, 0.44228852, 0), (0.89687294, 0.44228852, 0), (0.89687294, 0.44228852, 0), (0.89687294, 0.44228852, 0), (0.94693, 0.32143992, 0), (0.94693, 0.32143992, 0), (0.94693, 0.32143992, 0), (0.94693, 0.32143992, 0), (0.98078525, 0.1950903, 0), (0.98078525, 0.1950903, 0), (0.98078525, 0.1950903, 0), (0.98078525, 0.1950903, 0), (0.997859, 0.06540247, 0), (0.997859, 0.06540247, 0), (0.997859, 0.06540247, 0), (0.997859, 0.06540247, 0), (0.997859, -0.06540247, 0), (0.997859, -0.06540247, 0), (0.997859, -0.06540247, 0), (0.997859, -0.06540247, 0), (0.98078525, -0.1950903, 0), (0.98078525, -0.1950903, 0), (0.98078525, -0.1950903, 0), (0.98078525, -0.1950903, 0), (0.94693, -0.32143992, 0), (0.94693, -0.32143992, 0), (0.94693, -0.32143992, 0), (0.94693, -0.32143992, 0), (0.89687294, -0.44228852, 0), (0.89687294, -0.44228852, 0), (0.89687294, -0.44228852, 0), (0.89687294, -0.44228852, 0), (0.83146924, -0.5555707, 0), (0.83146924, -0.5555707, 0), (0.83146924, -0.5555707, 0), (0.83146924, -0.5555707, 0), (0.75183994, -0.6593456, 0), (0.75183994, -0.6593456, 0), (0.75183994, -0.6593456, 0), (0.75183994, -0.6593456, 0), (0.6593459, -0.75183976, 0), (0.6593459, -0.75183976, 0), (0.6593459, -0.75183976, 0), (0.6593459, -0.75183976, 0), (0.55557024, -0.8314696, 0), (0.55557024, -0.8314696, 0), (0.55557024, -0.8314696, 0), (0.55557024, -0.8314696, 0), (0.44228858, -0.8968728, 0), (0.44228858, -0.8968728, 0), (0.44228858, -0.8968728, 0), (0.44228858, -0.8968728, 0), (0.3214398, -0.94693, 0), (0.3214398, -0.94693, 0), (0.3214398, -0.94693, 0), (0.3214398, -0.94693, 0), (0.19509037, -0.98078525, 0), (0.19509037, -0.98078525, 0), (0.19509037, -0.98078525, 0), (0.19509037, -0.98078525, 0), (0.06540306, -0.997859, 0), (0.06540306, -0.997859, 0), (0.06540306, -0.997859, 0), (0.06540306, -0.997859, 0), (-0.06540306, -0.997859, 0), (-0.06540306, -0.997859, 0), (-0.06540306, -0.997859, 0), (-0.06540306, -0.997859, 0), (-0.19509037, -0.98078525, 0), (-0.19509037, -0.98078525, 0), (-0.19509037, -0.98078525, 0), (-0.19509037, -0.98078525, 0), (-0.3214398, -0.94693, 0), (-0.3214398, -0.94693, 0), (-0.3214398, -0.94693, 0), (-0.3214398, -0.94693, 0), (-0.44228858, -0.8968728, 0), (-0.44228858, -0.8968728, 0), (-0.44228858, -0.8968728, 0), (-0.44228858, -0.8968728, 0), (-0.55557024, -0.8314696, 0), (-0.55557024, -0.8314696, 0), (-0.55557024, -0.8314696, 0), (-0.55557024, -0.8314696, 0), (-0.6593459, -0.75183976, 0), (-0.6593459, -0.75183976, 0), (-0.6593459, -0.75183976, 0), (-0.6593459, -0.75183976, 0), (-0.75183994, -0.6593456, 0), (-0.75183994, -0.6593456, 0), (-0.75183994, -0.6593456, 0), (-0.75183994, -0.6593456, 0), (-0.83146924, -0.5555707, 0), (-0.83146924, -0.5555707, 0), (-0.83146924, -0.5555707, 0), (-0.83146924, -0.5555707, 0), (-0.89687294, -0.44228852, 0), (-0.89687294, -0.44228852, 0), (-0.89687294, -0.44228852, 0), (-0.89687294, -0.44228852, 0), (-0.94693, -0.32143992, 0), (-0.94693, -0.32143992, 0), (-0.94693, -0.32143992, 0), (-0.94693, -0.32143992, 0), (-0.98078525, -0.1950903, 0), (-0.98078525, -0.1950903, 0), (-0.98078525, -0.1950903, 0), (-0.98078525, -0.1950903, 0), (-0.997859, -0.06540247, 0), (-0.997859, -0.06540247, 0), (-0.997859, -0.06540247, 0), (-0.997859, -0.06540247, 0), (-0.997859, 0.06540247, 0), (-0.997859, 0.06540247, 0), (-0.997859, 0.06540247, 0), (-0.997859, 0.06540247, 0), (-0.98078525, 0.1950903, 0), (-0.98078525, 0.1950903, 0), (-0.98078525, 0.1950903, 0), (-0.98078525, 0.1950903, 0), (-0.94693, 0.32143992, 0), (-0.94693, 0.32143992, 0), (-0.94693, 0.32143992, 0), (-0.94693, 0.32143992, 0), (-0.89687294, 0.44228852, 0), (-0.89687294, 0.44228852, 0), (-0.89687294, 0.44228852, 0), (-0.89687294, 0.44228852, 0), (-0.83146924, 0.5555707, 0), (-0.83146924, 0.5555707, 0), (-0.83146924, 0.5555707, 0), (-0.83146924, 0.5555707, 0), (-0.75183994, 0.6593456, 0), (-0.75183994, 0.6593456, 0), (-0.75183994, 0.6593456, 0), (-0.75183994, 0.6593456, 0), (-0.6593459, 0.75183976, 0), (-0.6593459, 0.75183976, 0), (-0.6593459, 0.75183976, 0), (-0.6593459, 0.75183976, 0), (-0.55557024, 0.8314696, 0), (-0.55557024, 0.8314696, 0), (-0.55557024, 0.8314696, 0), (-0.55557024, 0.8314696, 0), (-0.44228858, 0.8968728, 0), (-0.44228858, 0.8968728, 0), (-0.44228858, 0.8968728, 0), (-0.44228858, 0.8968728, 0), (-0.3214398, 0.94693, 0), (-0.3214398, 0.94693, 0), (-0.3214398, 0.94693, 0), (-0.3214398, 0.94693, 0), (-1.540524e-7, 0, 1), (-1.540524e-7, 0, 1), (-1.540524e-7, 0, 1), (-1.540524e-7, 0, 1), (-1.540524e-7, 0, 1), (-1.540524e-7, 0, 1), (-1.540524e-7, 0, 1), (-1.540524e-7, 0, 1), (-1.540524e-7, 0, 1), (-1.540524e-7, 0, 1), (-1.540524e-7, 0, 1), (-1.540524e-7, 0, 1), (-1.540524e-7, 0, 1), (-1.540524e-7, 0, 1), (-1.540524e-7, 0, 1), (-1.540524e-7, 0, 1), (-1.540524e-7, 0, 1), (-1.540524e-7, 0, 1), (-1.540524e-7, 0, 1), (-1.540524e-7, 0, 1), (-1.540524e-7, 0, 1), (-1.540524e-7, 0, 1), (-1.540524e-7, 0, 1), (-1.540524e-7, 0, 1), (-1.540524e-7, 0, 1), (-1.540524e-7, 0, 1), (-1.540524e-7, 0, 1), (-1.540524e-7, 0, 1), (-1.540524e-7, 0, 1), (-1.540524e-7, 0, 1), (-1.540524e-7, 0, 1), (-1.540524e-7, 0, 1), (-1.540524e-7, 0, 1), (-1.540524e-7, 0, 1), (-1.540524e-7, 0, 1), (-1.540524e-7, 0, 1), (-1.540524e-7, 0, 1), (-1.540524e-7, 0, 1), (-1.540524e-7, 0, 1), (-1.540524e-7, 0, 1), (-1.540524e-7, 0, 1), (-1.540524e-7, 0, 1), (-1.540524e-7, 0, 1), (-1.540524e-7, 0, 1), (-1.540524e-7, 0, 1), (-1.540524e-7, 0, 1), (-1.540524e-7, 0, 1), (-1.540524e-7, 0, 1), (-0.19509037, 0.98078525, 0), (-0.19509037, 0.98078525, 0), (-0.19509037, 0.98078525, 0), (-0.19509037, 0.98078525, 0), (-0.06540306, 0.997859, 0), (-0.06540306, 0.997859, 0), (-0.06540306, 0.997859, 0), (-0.06540306, 0.997859, 0), (-4.888201e-8, 0, -1), (-4.888201e-8, 0, -1), (-4.888201e-8, 0, -1), (-4.888201e-8, 0, -1), (-4.888201e-8, 0, -1), (-4.888201e-8, 0, -1), (-4.888201e-8, 0, -1), (-4.888201e-8, 0, -1), (-4.888201e-8, 0, -1), (-4.888201e-8, 0, -1), (-4.888201e-8, 0, -1), (-4.888201e-8, 0, -1), (-4.888201e-8, 0, -1), (-4.888201e-8, 0, -1), (-4.888201e-8, 0, -1), (-4.888201e-8, 0, -1), (-4.888201e-8, 0, -1), (-4.888201e-8, 0, -1), (-4.888201e-8, 0, -1), (-4.888201e-8, 0, -1), (-4.888201e-8, 0, -1), (-4.888201e-8, 0, -1), (-4.888201e-8, 0, -1), (-4.888201e-8, 0, -1), (-4.888201e-8, 0, -1), (-4.888201e-8, 0, -1), (-4.888201e-8, 0, -1), (-4.888201e-8, 0, -1), (-4.888201e-8, 0, -1), (-4.888201e-8, 0, -1), (-4.888201e-8, 0, -1), (-4.888201e-8, 0, -1), (-4.888201e-8, 0, -1), (-4.888201e-8, 0, -1), (-4.888201e-8, 0, -1), (-4.888201e-8, 0, -1), (-4.888201e-8, 0, -1), (-4.888201e-8, 0, -1), (-4.888201e-8, 0, -1), (-4.888201e-8, 0, -1), (-4.888201e-8, 0, -1), (-4.888201e-8, 0, -1), (-4.888201e-8, 0, -1), (-4.888201e-8, 0, -1), (-4.888201e-8, 0, -1), (-4.888201e-8, 0, -1), (-4.888201e-8, 0, -1), (-4.888201e-8, 0, -1), (0.70710677, 0.70710677, 0), (0.70710677, 0.70710677, 0), (0.70710677, 0.70710677, 0), (0.70710677, 0.70710677, 0), (0.70710677, -0.70710677, 0), (0.70710677, -0.70710677, 0), (0.70710677, -0.70710677, 0), (0.70710677, -0.70710677, 0), (0, 0, 1), (0, 0, 1), (0, 0, 1), (0, 0, 1), (-0.70710677, -0.70710677, 0), (-0.70710677, -0.70710677, 0), (-0.70710677, -0.70710677, 0), (-0.70710677, -0.70710677, 0), (-0.70710677, 0.70710677, 0), (-0.70710677, 0.70710677, 0), (-0.70710677, 0.70710677, 0), (-0.70710677, 0.70710677, 0), (0, 0, -1), (0, 0, -1), (0, 0, -1), (0, 0, -1), (-1, 0, 0), (-1, 0, 0), (-1, 0, 0), (-1, 0, 0), (0, 1, 0), (0, 1, 0), (0, 1, 0), (0, 1, 0), (1, 0, 0), (1, 0, 0), (1, 0, 0), (1, 0, 0), (0, -1, 0), (0, -1, 0), (0, -1, 0), (0, -1, 0), (0, 0, -1), (0, 0, -1), (0, 0, -1), (0, 0, -1), (0, 0, 1), (0, 0, 1), (0, 0, 1), (0, 0, 1)] (
                interpolation = "faceVarying"
            )
            point3f[] points = [(0, 0.007, -0.0025), (0, 0.007, 0.0025), (0.00091368344, 0.0069401143, -0.0025), (0.00091368344, 0.0069401143, 0.0025), (0.0018117334, 0.006761481, -0.0025), (0.0018117334, 0.006761481, 0.0025), (0.0026787843, 0.0064671566, -0.0025), (0.0026787843, 0.0064671566, 0.0025), (0.0035, 0.006062178, -0.0025), (0.0035, 0.006062178, 0.0025), (0.0042613302, 0.0055534733, -0.0025), (0.0042613302, 0.0055534733, 0.0025), (0.0049497476, 0.0049497476, -0.0025), (0.0049497476, 0.0049497476, 0.0025), (0.0055534733, 0.0042613302, -0.0025), (0.0055534733, 0.0042613302, 0.0025), (0.006062178, 0.0035, -0.0025), (0.006062178, 0.0035, 0.0025), (0.0064671566, 0.0026787843, -0.0025), (0.0064671566, 0.0026787843, 0.0025), (0.006761481, 0.0018117334, -0.0025), (0.006761481, 0.0018117334, 0.0025), (0.0069401143, 0.00091368344, -0.0025), (0.0069401143, 0.00091368344, 0.0025), (0.007, 0, -0.0025), (0.007, 0, 0.0025), (0.0069401143, -0.00091368344, -0.0025), (0.0069401143, -0.00091368344, 0.0025), (0.006761481, -0.0018117334, -0.0025), (0.006761481, -0.0018117334, 0.0025), (0.0064671566, -0.0026787843, -0.0025), (0.0064671566, -0.0026787843, 0.0025), (0.006062178, -0.0035, -0.0025), (0.006062178, -0.0035, 0.0025), (0.0055534733, -0.0042613302, -0.0025), (0.0055534733, -0.0042613302, 0.0025), (0.0049497476, -0.0049497476, -0.0025), (0.0049497476, -0.0049497476, 0.0025), (0.0042613302, -0.0055534733, -0.0025), (0.0042613302, -0.0055534733, 0.0025), (0.0035, -0.006062178, -0.0025), (0.0035, -0.006062178, 0.0025), (0.0026787843, -0.0064671566, -0.0025), (0.0026787843, -0.0064671566, 0.0025), (0.0018117334, -0.006761481, -0.0025), (0.0018117334, -0.006761481, 0.0025), (0.00091368344, -0.0069401143, -0.0025), (0.00091368344, -0.0069401143, 0.0025), (0, -0.007, -0.0025), (0, -0.007, 0.0025), (-0.00091368344, -0.0069401143, -0.0025), (-0.00091368344, -0.0069401143, 0.0025), (-0.0018117334, -0.006761481, -0.0025), (-0.0018117334, -0.006761481, 0.0025), (-0.0026787843, -0.0064671566, -0.0025), (-0.0026787843, -0.0064671566, 0.0025), (-0.0035, -0.006062178, -0.0025), (-0.0035, -0.006062178, 0.0025), (-0.0042613302, -0.0055534733, -0.0025), (-0.0042613302, -0.0055534733, 0.0025), (-0.0049497476, -0.0049497476, -0.0025), (-0.0049497476, -0.0049497476, 0.0025), (-0.0055534733, -0.0042613302, -0.0025), (-0.0055534733, -0.0042613302, 0.0025), (-0.006062178, -0.0035, -0.0025), (-0.006062178, -0.0035, 0.0025), (-0.0064671566, -0.0026787843, -0.0025), (-0.0064671566, -0.0026787843, 0.0025), (-0.006761481, -0.0018117334, -0.0025), (-0.006761481, -0.0018117334, 0.0025), (-0.0069401143, -0.00091368344, -0.0025), (-0.0069401143, -0.00091368344, 0.0025), (-0.007, 0, -0.0025), (-0.007, 0, 0.0025), (-0.0069401143, 0.00091368344, -0.0025), (-0.0069401143, 0.00091368344, 0.0025), (-0.006761481, 0.0018117334, -0.0025), (-0.006761481, 0.0018117334, 0.0025), (-0.0064671566, 0.0026787843, -0.0025), (-0.0064671566, 0.0026787843, 0.0025), (-0.006062178, 0.0035, -0.0025), (-0.006062178, 0.0035, 0.0025), (-0.0055534733, 0.0042613302, -0.0025), (-0.0055534733, 0.0042613302, 0.0025), (-0.0049497476, 0.0049497476, -0.0025), (-0.0049497476, 0.0049497476, 0.0025), (-0.0042613302, 0.0055534733, -0.0025), (-0.0042613302, 0.0055534733, 0.0025), (-0.0035, 0.006062178, -0.0025), (-0.0035, 0.006062178, 0.0025), (-0.0026787843, 0.0064671566, -0.0025), (-0.0026787843, 0.0064671566, 0.0025), (-0.0018117334, 0.006761481, -0.0025), (-0.0018117334, 0.006761481, 0.0025), (-0.00091368344, 0.0069401143, -0.0025), (-0.00091368344, 0.0069401143, 0.0025), (0, 0.005, 0.0025), (0, 0.0033, 0.0075), (0.00078217237, 0.004938442, 0.0025), (0.0005162338, 0.0032593715, 0.0075), (0.001545085, 0.004755283, 0.0025), (0.0010197561, 0.0031384865, 0.0075), (0.0022699528, 0.0044550328, 0.0025), (0.0014981688, 0.0029403216, 0.0075), (0.0029389262, 0.004045085, 0.0025), (0.0019396913, 0.002669756, 0.0075), (0.0035355338, 0.0035355338, 0.0025), (0.0023334522, 0.0023334522, 0.0075), (0.004045085, 0.0029389262, 0.0025), (0.002669756, 0.0019396913, 0.0075), (0.0044550328, 0.0022699528, 0.0025), (0.0029403216, 0.0014981688, 0.0075), (0.004755283, 0.001545085, 0.0025), (0.0031384865, 0.0010197561, 0.0075), (0.004938442, 0.00078217237, 0.0025), (0.0032593715, 0.0005162338, 0.0075), (0.005, 0, 0.0025), (0.0033, 0, 0.0075), (0.004938442, -0.00078217237, 0.0025), (0.0032593715, -0.0005162338, 0.0075), (0.004755283, -0.001545085, 0.0025), (0.0031384865, -0.0010197561, 0.0075), (0.0044550328, -0.0022699528, 0.0025), (0.0029403216, -0.0014981688, 0.0075), (0.004045085, -0.0029389262, 0.0025), (0.002669756, -0.0019396913, 0.0075), (0.0035355338, -0.0035355338, 0.0025), (0.0023334522, -0.0023334522, 0.0075), (0.0029389262, -0.004045085, 0.0025), (0.0019396913, -0.002669756, 0.0075), (0.0022699528, -0.0044550328, 0.0025), (0.0014981688, -0.0029403216, 0.0075), (0.001545085, -0.004755283, 0.0025), (0.0010197561, -0.0031384865, 0.0075), (0.00078217237, -0.004938442, 0.0025), (0.0005162338, -0.0032593715, 0.0075), (0, -0.005, 0.0025), (0, -0.0033, 0.0075), (-0.00078217237, -0.004938442, 0.0025), (-0.0005162338, -0.0032593715, 0.0075), (-0.001545085, -0.004755283, 0.0025), (-0.0010197561, -0.0031384865, 0.0075), (-0.0022699528, -0.0044550328, 0.0025), (-0.0014981688, -0.0029403216, 0.0075), (-0.0029389262, -0.004045085, 0.0025), (-0.0019396913, -0.002669756, 0.0075), (-0.0035355338, -0.0035355338, 0.0025), (-0.0023334522, -0.0023334522, 0.0075), (-0.004045085, -0.0029389262, 0.0025), (-0.002669756, -0.0019396913, 0.0075), (-0.0044550328, -0.0022699528, 0.0025), (-0.0029403216, -0.0014981688, 0.0075), (-0.004755283, -0.001545085, 0.0025), (-0.0031384865, -0.0010197561, 0.0075), (-0.004938442, -0.00078217237, 0.0025), (-0.0032593715, -0.0005162338, 0.0075), (-0.005, 0, 0.0025), (-0.0033, 0, 0.0075), (-0.004938442, 0.00078217237, 0.0025), (-0.0032593715, 0.0005162338, 0.0075), (-0.004755283, 0.001545085, 0.0025), (-0.0031384865, 0.0010197561, 0.0075), (-0.0044550328, 0.0022699528, 0.0025), (-0.0029403216, 0.0014981688, 0.0075), (-0.004045085, 0.0029389262, 0.0025), (-0.002669756, 0.0019396913, 0.0075), (-0.0035355338, 0.0035355338, 0.0025), (-0.0023334522, 0.0023334522, 0.0075), (-0.0029389262, 0.004045085, 0.0025), (-0.0019396913, 0.002669756, 0.0075), (-0.0022699528, 0.0044550328, 0.0025), (-0.0014981688, 0.0029403216, 0.0075), (-0.001545085, 0.004755283, 0.0025), (-0.0010197561, 0.0031384865, 0.0075), (-0.00078217237, 0.004938442, 0.0025), (-0.0005162338, 0.0032593715, 0.0075), (0, 0.0035, 0.005500001), (0, 0.0035, 0.017500002), (0.00045684172, 0.0034700572, 0.005500001), (0.00045684172, 0.0034700572, 0.017500002), (0.0009058667, 0.0033807405, 0.005500001), (0.0009058667, 0.0033807405, 0.017500002), (0.0013393922, 0.0032335783, 0.005500001), (0.0013393922, 0.0032335783, 0.017500002), (0.00175, 0.003031089, 0.005500001), (0.00175, 0.003031089, 0.017500002), (0.0021306651, 0.0027767366, 0.005500001), (0.0021306651, 0.0027767366, 0.017500002), (0.0024748738, 0.0024748738, 0.005500001), (0.0024748738, 0.0024748738, 0.017500002), (0.0027767366, 0.0021306651, 0.005500001), (0.0027767366, 0.0021306651, 0.017500002), (0.003031089, 0.00175, 0.005500001), (0.003031089, 0.00175, 0.017500002), (0.0032335783, 0.0013393922, 0.005500001), (0.0032335783, 0.0013393922, 0.017500002), (0.0033807405, 0.0009058667, 0.005500001), (0.0033807405, 0.0009058667, 0.017500002), (0.0034700572, 0.00045684172, 0.005500001), (0.0034700572, 0.00045684172, 0.017500002), (0.0035, 0, 0.005500001), (0.0035, 0, 0.017500002), (0.0034700572, -0.00045684172, 0.005500001), (0.0034700572, -0.00045684172, 0.017500002), (0.0033807405, -0.0009058667, 0.005500001), (0.0033807405, -0.0009058667, 0.017500002), (0.0032335783, -0.0013393922, 0.005500001), (0.0032335783, -0.0013393922, 0.017500002), (0.003031089, -0.00175, 0.005500001), (0.003031089, -0.00175, 0.017500002), (0.0027767366, -0.0021306651, 0.005500001), (0.0027767366, -0.0021306651, 0.017500002), (0.0024748738, -0.0024748738, 0.005500001), (0.0024748738, -0.0024748738, 0.017500002), (0.0021306651, -0.0027767366, 0.005500001), (0.0021306651, -0.0027767366, 0.017500002), (0.00175, -0.003031089, 0.005500001), (0.00175, -0.003031089, 0.017500002), (0.0013393922, -0.0032335783, 0.005500001), (0.0013393922, -0.0032335783, 0.017500002), (0.0009058667, -0.0033807405, 0.005500001), (0.0009058667, -0.0033807405, 0.017500002), (0.00045684172, -0.0034700572, 0.005500001), (0.00045684172, -0.0034700572, 0.017500002), (0, -0.0035, 0.005500001), (0, -0.0035, 0.017500002), (-0.00045684172, -0.0034700572, 0.005500001), (-0.00045684172, -0.0034700572, 0.017500002), (-0.0009058667, -0.0033807405, 0.005500001), (-0.0009058667, -0.0033807405, 0.017500002), (-0.0013393922, -0.0032335783, 0.005500001), (-0.0013393922, -0.0032335783, 0.017500002), (-0.00175, -0.003031089, 0.005500001), (-0.00175, -0.003031089, 0.017500002), (-0.0021306651, -0.0027767366, 0.005500001), (-0.0021306651, -0.0027767366, 0.017500002), (-0.0024748738, -0.0024748738, 0.005500001), (-0.0024748738, -0.0024748738, 0.017500002), (-0.0027767366, -0.0021306651, 0.005500001), (-0.0027767366, -0.0021306651, 0.017500002), (-0.003031089, -0.00175, 0.005500001), (-0.003031089, -0.00175, 0.017500002), (-0.0032335783, -0.0013393922, 0.005500001), (-0.0032335783, -0.0013393922, 0.017500002), (-0.0033807405, -0.0009058667, 0.005500001), (-0.0033807405, -0.0009058667, 0.017500002), (-0.0034700572, -0.00045684172, 0.005500001), (-0.0034700572, -0.00045684172, 0.017500002), (-0.0035, 0, 0.005500001), (-0.0035, 0, 0.017500002), (-0.0034700572, 0.00045684172, 0.005500001), (-0.0034700572, 0.00045684172, 0.017500002), (-0.0033807405, 0.0009058667, 0.005500001), (-0.0033807405, 0.0009058667, 0.017500002), (-0.0032335783, 0.0013393922, 0.005500001), (-0.0032335783, 0.0013393922, 0.017500002), (-0.003031089, 0.00175, 0.005500001), (-0.003031089, 0.00175, 0.017500002), (-0.0027767366, 0.0021306651, 0.005500001), (-0.0027767366, 0.0021306651, 0.017500002), (-0.0024748738, 0.0024748738, 0.005500001), (-0.0024748738, 0.0024748738, 0.017500002), (-0.0021306651, 0.0027767366, 0.005500001), (-0.0021306651, 0.0027767366, 0.017500002), (-0.00175, 0.003031089, 0.005500001), (-0.00175, 0.003031089, 0.017500002), (-0.0013393922, 0.0032335783, 0.005500001), (-0.0013393922, 0.0032335783, 0.017500002), (-0.0009058667, 0.0033807405, 0.005500001), (-0.0009058667, 0.0033807405, 0.017500002), (-0.00045684172, 0.0034700572, 0.005500001), (-0.00045684172, 0.0034700572, 0.017500002), (0, 0.005, 0.0054999995), (0, 0.005, 0.0075), (0.005, 0, 0.0054999995), (0.005, 0, 0.0075), (0, -0.005, 0.0054999995), (0, -0.005, 0.0075), (-0.005, 0, 0.0054999995), (-0.005, 0, 0.0075), (-0.003, -0.003, 0.0195), (-0.003, -0.003, 0.0215), (-0.003, 0.003, 0.0195), (-0.003, 0.003, 0.0215), (0.003, -0.003, 0.0195), (0.003, -0.003, 0.0215), (0.003, 0.003, 0.0195), (0.003, 0.003, 0.0215)]
            texCoord2f[] primvars:st = [(1, 0.5), (3.7625432e-7, 0.5), (0.75, 0.49), (1, 1), (0.25, 0.49), (3.7625432e-7, 1), (0.9791667, 0.5), (0.7813263, 0.48794675), (0.9791667, 1), (0.2813263, 0.48794675), (0.9583334, 0.5), (0.81211656, 0.4818222), (0.9583334, 1), (0.31211656, 0.4818222), (0.93750006, 0.5), (0.841844, 0.47173107), (0.93750006, 1), (0.34184402, 0.47173107), (0.91666675, 0.5), (0.87, 0.4578461), (0.91666675, 1), (0.37, 0.4578461), (0.89583343, 0.5), (0.8961027, 0.44040477), (0.89583343, 1), (0.39610273, 0.44040477), (0.8750001, 0.5), (0.9197056, 0.41970563), (0.8750001, 1), (0.41970563, 0.41970563), (0.8541668, 0.5), (0.9404048, 0.39610273), (0.8541668, 1), (0.44040477, 0.39610273), (0.8333335, 0.5), (0.9578461, 0.37), (0.8333335, 1), (0.4578461, 0.37), (0.8125002, 0.5), (0.97173107, 0.34184402), (0.8125002, 1), (0.47173107, 0.34184402), (0.79166687, 0.5), (0.9818222, 0.31211656), (0.79166687, 1), (0.4818222, 0.31211656), (0.77083355, 0.5), (0.98794675, 0.2813263), (0.77083355, 1), (0.48794675, 0.2813263), (0.75000024, 0.5), (0.99, 0.25), (0.75000024, 1), (0.49, 0.25), (0.7291669, 0.5), (0.98794675, 0.2186737), (0.7291669, 1), (0.48794675, 0.2186737), (0.7083336, 0.5), (0.9818222, 0.18788344), (0.7083336, 1), (0.4818222, 0.18788344), (0.6875003, 0.5), (0.97173107, 0.15815598), (0.6875003, 1), (0.47173107, 0.15815598), (0.666667, 0.5), (0.9578461, 0.13), (0.666667, 1), (0.4578461, 0.13), (0.6458337, 0.5), (0.9404048, 0.10389726), (0.6458337, 1), (0.44040477, 0.10389726), (0.62500036, 0.5), (0.9197056, 0.08029437), (0.62500036, 1), (0.41970563, 0.08029437), (0.60416704, 0.5), (0.8961027, 0.059595212), (0.60416704, 1), (0.39610273, 0.059595212), (0.58333373, 0.5), (0.87, 0.04215391), (0.58333373, 1), (0.37, 0.04215391), (0.5625004, 0.5), (0.841844, 0.028268918), (0.5625004, 1), (0.34184402, 0.028268918), (0.5416671, 0.5), (0.81211656, 0.018177792), (0.5416671, 1), (0.31211656, 0.018177792), (0.5208338, 0.5), (0.7813263, 0.012053236), (0.5208338, 1), (0.2813263, 0.012053236), (0.5000005, 0.5), (0.75, 0.010000005), (0.5000005, 1), (0.25, 0.010000005), (0.47916713, 0.5), (0.7186737, 0.012053236), (0.47916713, 1), (0.2186737, 0.012053236), (0.4583338, 0.5), (0.68788344, 0.018177792), (0.4583338, 1), (0.18788344, 0.018177792), (0.43750045, 0.5), (0.658156, 0.028268918), (0.43750045, 1), (0.15815598, 0.028268918), (0.4166671, 0.5), (0.63, 0.04215391), (0.4166671, 1), (0.13, 0.04215391), (0.39583376, 0.5), (0.6038973, 0.059595212), (0.39583376, 1), (0.10389726, 0.059595212), (0.37500042, 0.5), (0.5802944, 0.08029437), (0.37500042, 1), (0.08029437, 0.08029437), (0.35416707, 0.5), (0.5595952, 0.10389726), (0.35416707, 1), (0.059595212, 0.10389726), (0.33333373, 0.5), (0.5421539, 0.13), (0.33333373, 1), (0.04215391, 0.13), (0.3125004, 0.5), (0.52826893, 0.15815598), (0.3125004, 1), (0.028268918, 0.15815598), (0.29166704, 0.5), (0.5181778, 0.18788344), (0.29166704, 1), (0.018177792, 0.18788344), (0.2708337, 0.5), (0.51205325, 0.2186737), (0.2708337, 1), (0.012053236, 0.2186737), (0.25000036, 0.5), (0.51, 0.25), (0.25000036, 1), (0.010000005, 0.25), (0.22916703, 0.5), (0.51205325, 0.2813263), (0.22916703, 1), (0.012053236, 0.2813263), (0.2083337, 0.5), (0.5181778, 0.31211656), (0.2083337, 1), (0.018177792, 0.31211656), (0.18750037, 0.5), (0.52826893, 0.34184402), (0.18750037, 1), (0.028268918, 0.34184402), (0.16666704, 0.5), (0.5421539, 0.37), (0.16666704, 1), (0.04215391, 0.37), (0.14583372, 0.5), (0.5595952, 0.39610273), (0.14583372, 1), (0.059595212, 0.39610273), (0.12500039, 0.5), (0.5802944, 0.41970563), (0.12500039, 1), (0.08029437, 0.41970563), (0.10416705, 0.5), (0.6038973, 0.44040477), (0.10416705, 1), (0.10389726, 0.44040477), (0.083333716, 0.5), (0.63, 0.4578461), (0.083333716, 1), (0.13, 0.4578461), (0.06250038, 0.5), (0.658156, 0.47173107), (0.06250038, 1), (0.15815598, 0.47173107), (0.041667044, 0.5), (0.68788344, 0.4818222), (0.18788344, 0.4818222), (0.041667044, 1), (0.02083371, 0.5), (0.7186737, 0.48794675), (0.2186737, 0.48794675), (0.02083371, 1), (1, 0.5), (3.9115548e-7, 0.5), (0.75, 0.49), (1, 1), (0.25, 0.49), (3.9115548e-7, 1), (0.975, 0.5), (0.78754425, 0.4870452), (0.975, 1), (0.28754428, 0.4870452), (0.95000005, 0.5), (0.8241641, 0.47825357), (0.95000005, 1), (0.3241641, 0.47825354), (0.9250001, 0.5), (0.85895777, 0.46384156), (0.9250001, 1), (0.35895774, 0.46384156), (0.9000001, 0.5), (0.89106846, 0.4441641), (0.9000001, 1), (0.39106846, 0.4441641), (0.8750001, 0.5), (0.9197056, 0.41970563), (0.8750001, 1), (0.41970563, 0.41970563), (0.85000014, 0.5), (0.9441641, 0.39106846), (0.85000014, 1), (0.4441641, 0.39106846), (0.82500017, 0.5), (0.96384156, 0.35895774), (0.82500017, 1), (0.46384156, 0.35895774), (0.8000002, 0.5), (0.9782536, 0.3241641), (0.8000002, 1), (0.47825354, 0.3241641), (0.7750002, 0.5), (0.98704517, 0.28754428), (0.7750002, 1), (0.4870452, 0.28754428), (0.75000024, 0.5), (0.99, 0.25), (0.75000024, 1), (0.49, 0.25), (0.72500026, 0.5), (0.98704517, 0.21245572), (0.72500026, 1), (0.4870452, 0.21245572), (0.7000003, 0.5), (0.9782536, 0.17583592), (0.7000003, 1), (0.47825354, 0.17583592), (0.6750003, 0.5), (0.96384156, 0.14104226), (0.6750003, 1), (0.46384156, 0.14104226), (0.65000033, 0.5), (0.9441641, 0.10893154), (0.65000033, 1), (0.4441641, 0.10893154), (0.62500036, 0.5), (0.9197056, 0.08029437), (0.62500036, 1), (0.41970563, 0.080294386), (0.6000004, 0.5), (0.89106846, 0.055835918), (0.6000004, 1), (0.39106846, 0.055835918), (0.5750004, 0.5), (0.85895777, 0.036158428), (0.5750004, 1), (0.35895774, 0.036158428), (0.5500004, 0.5), (0.8241641, 0.021746427), (0.5500004, 1), (0.3241641, 0.021746442), (0.52500045, 0.5), (0.78754425, 0.012954801), (0.52500045, 1), (0.28754428, 0.012954801), (0.5000005, 0.5), (0.75, 0.010000005), (0.5000005, 1), (0.25, 0.010000005), (0.47500047, 0.5), (0.71245575, 0.012954801), (0.47500047, 1), (0.21245572, 0.012954801), (0.45000046, 0.5), (0.6758359, 0.021746427), (0.45000046, 1), (0.17583592, 0.021746442), (0.42500046, 0.5), (0.64104223, 0.036158428), (0.42500046, 1), (0.14104226, 0.036158428), (0.40000045, 0.5), (0.60893154, 0.055835918), (0.40000045, 1), (0.10893154, 0.055835918), (0.37500045, 0.5), (0.5802944, 0.08029437), (0.37500045, 1), (0.080294386, 0.080294386), (0.35000044, 0.5), (0.5558359, 0.10893154), (0.35000044, 1), (0.055835918, 0.10893154), (0.32500044, 0.5), (0.53615844, 0.14104226), (0.32500044, 1), (0.036158428, 0.14104226), (0.30000043, 0.5), (0.5217464, 0.17583592), (0.30000043, 1), (0.021746442, 0.17583592), (0.27500042, 0.5), (0.51295483, 0.21245572), (0.27500042, 1), (0.012954801, 0.21245572), (0.25000042, 0.5), (0.51, 0.25), (0.25000042, 1), (0.010000005, 0.25), (0.22500041, 0.5), (0.51295483, 0.28754428), (0.22500041, 1), (0.012954801, 0.28754428), (0.2000004, 0.5), (0.5217464, 0.3241641), (0.2000004, 1), (0.021746442, 0.3241641), (0.1750004, 0.5), (0.53615844, 0.35895774), (0.1750004, 1), (0.036158428, 0.35895774), (0.1500004, 0.5), (0.5558359, 0.39106846), (0.1500004, 1), (0.055835918, 0.39106846), (0.12500039, 0.5), (0.5802944, 0.41970563), (0.12500039, 1), (0.080294386, 0.41970563), (0.10000039, 0.5), (0.60893154, 0.4441641), (0.10000039, 1), (0.10893154, 0.4441641), (0.07500039, 0.5), (0.64104223, 0.46384156), (0.07500039, 1), (0.14104226, 0.46384156), (0.050000392, 0.5), (0.6758359, 0.47825357), (0.17583592, 0.47825354), (0.050000392, 1), (0.025000392, 0.5), (0.71245575, 0.4870452), (0.21245572, 0.4870452), (0.025000392, 1), (1, 0.5), (3.7625432e-7, 0.5), (0.75, 0.49), (1, 1), (0.25, 0.49), (3.7625432e-7, 1), (0.9791667, 0.5), (0.7813263, 0.48794675), (0.9791667, 1), (0.2813263, 0.48794675), (0.9583334, 0.5), (0.81211656, 0.4818222), (0.9583334, 1), (0.31211656, 0.4818222), (0.93750006, 0.5), (0.841844, 0.47173107), (0.93750006, 1), (0.34184402, 0.47173107), (0.91666675, 0.5), (0.87, 0.4578461), (0.91666675, 1), (0.37, 0.4578461), (0.89583343, 0.5), (0.8961027, 0.44040477), (0.89583343, 1), (0.39610273, 0.44040477), (0.8750001, 0.5), (0.9197056, 0.41970563), (0.8750001, 1), (0.41970563, 0.41970563), (0.8541668, 0.5), (0.9404048, 0.39610273), (0.8541668, 1), (0.44040477, 0.39610273), (0.8333335, 0.5), (0.9578461, 0.37), (0.8333335, 1), (0.4578461, 0.37), (0.8125002, 0.5), (0.97173107, 0.34184402), (0.8125002, 1), (0.47173107, 0.34184402), (0.79166687, 0.5), (0.9818222, 0.31211656), (0.79166687, 1), (0.4818222, 0.31211656), (0.77083355, 0.5), (0.98794675, 0.2813263), (0.77083355, 1), (0.48794675, 0.2813263), (0.75000024, 0.5), (0.99, 0.25), (0.75000024, 1), (0.49, 0.25), (0.7291669, 0.5), (0.98794675, 0.2186737), (0.7291669, 1), (0.48794675, 0.2186737), (0.7083336, 0.5), (0.9818222, 0.18788344), (0.7083336, 1), (0.4818222, 0.18788344), (0.6875003, 0.5), (0.97173107, 0.15815598), (0.6875003, 1), (0.47173107, 0.15815598), (0.666667, 0.5), (0.9578461, 0.13), (0.666667, 1), (0.4578461, 0.13), (0.6458337, 0.5), (0.9404048, 0.10389726), (0.6458337, 1), (0.44040477, 0.10389726), (0.62500036, 0.5), (0.9197056, 0.08029437), (0.62500036, 1), (0.41970563, 0.08029437), (0.60416704, 0.5), (0.8961027, 0.059595212), (0.60416704, 1), (0.39610273, 0.059595212), (0.58333373, 0.5), (0.87, 0.04215391), (0.58333373, 1), (0.37, 0.04215391), (0.5625004, 0.5), (0.841844, 0.028268918), (0.5625004, 1), (0.34184402, 0.028268918), (0.5416671, 0.5), (0.81211656, 0.018177792), (0.5416671, 1), (0.31211656, 0.018177792), (0.5208338, 0.5), (0.7813263, 0.012053236), (0.5208338, 1), (0.2813263, 0.012053236), (0.5000005, 0.5), (0.75, 0.010000005), (0.5000005, 1), (0.25, 0.010000005), (0.47916713, 0.5), (0.7186737, 0.012053236), (0.47916713, 1), (0.2186737, 0.012053236), (0.4583338, 0.5), (0.68788344, 0.018177792), (0.4583338, 1), (0.18788344, 0.018177792), (0.43750045, 0.5), (0.658156, 0.028268918), (0.43750045, 1), (0.15815598, 0.028268918), (0.4166671, 0.5), (0.63, 0.04215391), (0.4166671, 1), (0.13, 0.04215391), (0.39583376, 0.5), (0.6038973, 0.059595212), (0.39583376, 1), (0.10389726, 0.059595212), (0.37500042, 0.5), (0.5802944, 0.08029437), (0.37500042, 1), (0.08029437, 0.08029437), (0.35416707, 0.5), (0.5595952, 0.10389726), (0.35416707, 1), (0.059595212, 0.10389726), (0.33333373, 0.5), (0.5421539, 0.13), (0.33333373, 1), (0.04215391, 0.13), (0.3125004, 0.5), (0.52826893, 0.15815598), (0.3125004, 1), (0.028268918, 0.15815598), (0.29166704, 0.5), (0.5181778, 0.18788344), (0.29166704, 1), (0.018177792, 0.18788344), (0.2708337, 0.5), (0.51205325, 0.2186737), (0.2708337, 1), (0.012053236, 0.2186737), (0.25000036, 0.5), (0.51, 0.25), (0.25000036, 1), (0.010000005, 0.25), (0.22916703, 0.5), (0.51205325, 0.2813263), (0.22916703, 1), (0.012053236, 0.2813263), (0.2083337, 0.5), (0.5181778, 0.31211656), (0.2083337, 1), (0.018177792, 0.31211656), (0.18750037, 0.5), (0.52826893, 0.34184402), (0.18750037, 1), (0.028268918, 0.34184402), (0.16666704, 0.5), (0.5421539, 0.37), (0.16666704, 1), (0.04215391, 0.37), (0.14583372, 0.5), (0.5595952, 0.39610273), (0.14583372, 1), (0.059595212, 0.39610273), (0.12500039, 0.5), (0.5802944, 0.41970563), (0.12500039, 1), (0.08029437, 0.41970563), (0.10416705, 0.5), (0.6038973, 0.44040477), (0.10416705, 1), (0.10389726, 0.44040477), (0.083333716, 0.5), (0.63, 0.4578461), (0.083333716, 1), (0.13, 0.4578461), (0.06250038, 0.5), (0.658156, 0.47173107), (0.06250038, 1), (0.15815598, 0.47173107), (0.041667044, 0.5), (0.68788344, 0.4818222), (0.18788344, 0.4818222), (0.041667044, 1), (0.02083371, 0.5), (0.7186737, 0.48794675), (0.2186737, 0.48794675), (0.02083371, 1), (1, 0.5), (0, 0.5), (0.75, 0.49), (1, 1), (0.25, 0.49), (0, 1), (0.75, 0.5), (0.99, 0.25), (0.75, 1), (0.49, 0.25), (0.5, 0.5), (0.75, 0.010000005), (0.25, 0.010000005), (0.5, 1), (0.25, 0.5), (0.51, 0.25), (0.010000005, 0.25), (0.25, 1), (0.375, 0), (0.375, 1), (0.125, 0.75), (0.625, 0), (0.625, 1), (0.875, 0.75), (0.375, 0.25), (0.125, 0.5), (0.625, 0.25), (0.875, 0.5), (0.375, 0.75), (0.625, 0.75), (0.375, 0.5), (0.625, 0.5)] (
                interpolation = "faceVarying"
            )
            int[] primvars:st:indices = [0, 3, 8, 6, 6, 8, 12, 10, 10, 12, 16, 14, 14, 16, 20, 18, 18, 20, 24, 22, 22, 24, 28, 26, 26, 28, 32, 30, 30, 32, 36, 34, 34, 36, 40, 38, 38, 40, 44, 42, 42, 44, 48, 46, 46, 48, 52, 50, 50, 52, 56, 54, 54, 56, 60, 58, 58, 60, 64, 62, 62, 64, 68, 66, 66, 68, 72, 70, 70, 72, 76, 74, 74, 76, 80, 78, 78, 80, 84, 82, 82, 84, 88, 86, 86, 88, 92, 90, 90, 92, 96, 94, 94, 96, 100, 98, 98, 100, 104, 102, 102, 104, 108, 106, 106, 108, 112, 110, 110, 112, 116, 114, 114, 116, 120, 118, 118, 120, 124, 122, 122, 124, 128, 126, 126, 128, 132, 130, 130, 132, 136, 134, 134, 136, 140, 138, 138, 140, 144, 142, 142, 144, 148, 146, 146, 148, 152, 150, 150, 152, 156, 154, 154, 156, 160, 158, 158, 160, 164, 162, 162, 164, 168, 166, 166, 168, 172, 170, 170, 172, 176, 174, 174, 176, 180, 178, 178, 180, 184, 182, 182, 184, 189, 186, 9, 4, 192, 188, 185, 181, 177, 173, 169, 165, 161, 157, 153, 149, 145, 141, 137, 133, 129, 125, 121, 117, 113, 109, 105, 101, 97, 93, 89, 85, 81, 77, 73, 69, 65, 61, 57, 53, 49, 45, 41, 37, 33, 29, 25, 21, 17, 13, 186, 189, 193, 190, 190, 193, 5, 1, 2, 7, 11, 15, 19, 23, 27, 31, 35, 39, 43, 47, 51, 55, 59, 63, 67, 71, 75, 79, 83, 87, 91, 95, 99, 103, 107, 111, 115, 119, 123, 127, 131, 135, 139, 143, 147, 151, 155, 159, 163, 167, 171, 175, 179, 183, 187, 191, 194, 197, 202, 200, 200, 202, 206, 204, 204, 206, 210, 208, 208, 210, 214, 212, 212, 214, 218, 216, 216, 218, 222, 220, 220, 222, 226, 224, 224, 226, 230, 228, 228, 230, 234, 232, 232, 234, 238, 236, 236, 238, 242, 240, 240, 242, 246, 244, 244, 246, 250, 248, 248, 250, 254, 252, 252, 254, 258, 256, 256, 258, 262, 260, 260, 262, 266, 264, 264, 266, 270, 268, 268, 270, 274, 272, 272, 274, 278, 276, 276, 278, 282, 280, 280, 282, 286, 284, 284, 286, 290, 288, 288, 290, 294, 292, 292, 294, 298, 296, 296, 298, 302, 300, 300, 302, 306, 304, 304, 306, 310, 308, 308, 310, 314, 312, 312, 314, 318, 316, 316, 318, 322, 320, 320, 322, 326, 324, 324, 326, 330, 328, 328, 330, 334, 332, 332, 334, 338, 336, 336, 338, 342, 340, 340, 342, 346, 344, 344, 346, 351, 348, 203, 198, 354, 350, 347, 343, 339, 335, 331, 327, 323, 319, 315, 311, 307, 303, 299, 295, 291, 287, 283, 279, 275, 271, 267, 263, 259, 255, 251, 247, 243, 239, 235, 231, 227, 223, 219, 215, 211, 207, 348, 351, 355, 352, 352, 355, 199, 195, 196, 201, 205, 209, 213, 217, 221, 225, 229, 233, 237, 241, 245, 249, 253, 257, 261, 265, 269, 273, 277, 281, 285, 289, 293, 297, 301, 305, 309, 313, 317, 321, 325, 329, 333, 337, 341, 345, 349, 353, 356, 359, 364, 362, 362, 364, 368, 366, 366, 368, 372, 370, 370, 372, 376, 374, 374, 376, 380, 378, 378, 380, 384, 382, 382, 384, 388, 386, 386, 388, 392, 390, 390, 392, 396, 394, 394, 396, 400, 398, 398, 400, 404, 402, 402, 404, 408, 406, 406, 408, 412, 410, 410, 412, 416, 414, 414, 416, 420, 418, 418, 420, 424, 422, 422, 424, 428, 426, 426, 428, 432, 430, 430, 432, 436, 434, 434, 436, 440, 438, 438, 440, 444, 442, 442, 444, 448, 446, 446, 448, 452, 450, 450, 452, 456, 454, 454, 456, 460, 458, 458, 460, 464, 462, 462, 464, 468, 466, 466, 468, 472, 470, 470, 472, 476, 474, 474, 476, 480, 478, 478, 480, 484, 482, 482, 484, 488, 486, 486, 488, 492, 490, 490, 492, 496, 494, 494, 496, 500, 498, 498, 500, 504, 502, 502, 504, 508, 506, 506, 508, 512, 510, 510, 512, 516, 514, 514, 516, 520, 518, 518, 520, 524, 522, 522, 524, 528, 526, 526, 528, 532, 530, 530, 532, 536, 534, 534, 536, 540, 538, 538, 540, 545, 542, 365, 360, 548, 544, 541, 537, 533, 529, 525, 521, 517, 513, 509, 505, 501, 497, 493, 489, 485, 481, 477, 473, 469, 465, 461, 457, 453, 449, 445, 441, 437, 433, 429, 425, 421, 417, 413, 409, 405, 401, 397, 393, 389, 385, 381, 377, 373, 369, 542, 545, 549, 546, 546, 549, 361, 357, 358, 363, 367, 371, 375, 379, 383, 387, 391, 395, 399, 403, 407, 411, 415, 419, 423, 427, 431, 435, 439, 443, 447, 451, 455, 459, 463, 467, 471, 475, 479, 483, 487, 491, 495, 499, 503, 507, 511, 515, 519, 523, 527, 531, 535, 539, 543, 547, 550, 553, 558, 556, 556, 558, 563, 560, 559, 554, 566, 562, 560, 563, 567, 564, 564, 567, 555, 551, 552, 557, 561, 565, 568, 571, 576, 574, 574, 576, 581, 580, 580, 581, 579, 578, 578, 579, 572, 569, 575, 580, 578, 570, 581, 577, 573, 579]
            uniform token subdivisionScheme = "none"
            custom string userProperties:blender:data_name = "Cylinder.003"
        }
    }

    def Scope "_materials"
    {
        def Material "piece_white" (
            prepend apiSchemas = ["ColorSpaceAPI"]
        )
        {
            uniform token colorSpace:name = "lin_rec709_scene"
            token outputs:surface.connect = </root/_materials/piece_white/Principled_BSDF.outputs:surface>
            custom string userProperties:blender:data_name = "piece_white"

            def Shader "Principled_BSDF"
            {
                uniform token info:id = "UsdPreviewSurface"
                float inputs:clearcoat = 0
                float inputs:clearcoatRoughness = 0.03
                color3f inputs:diffuseColor = (0.88, 0.89, 0.84)
                float inputs:ior = 1.5
                float inputs:metallic = 0
                float inputs:opacity = 1
                float inputs:roughness = 0.35
                float inputs:specular = 0.5
                token outputs:surface
            }
        }
    }

    def DomeLight "env_light" (
        prepend apiSchemas = ["ColorSpaceAPI"]
    )
    {
        uniform token colorSpace:name = "lin_rec709_scene"
        float inputs:intensity = 1
        asset inputs:texture:file = @./textures/color_0C0C0C.exr@
    }
}

