# Blender 5.2.0 LTS
# www.blender.org
mtllib black_pawn.mtl
o black_pawn
v 0.000000 0.000000 -0.007000
v 0.000000 0.005000 -0.007000
v 0.000914 0.000000 -0.006940
v 0.000914 0.005000 -0.006940
v 0.001812 0.000000 -0.006761
v 0.001812 0.005000 -0.006761
v 0.002679 0.000000 -0.006467
v 0.002679 0.005000 -0.006467
v 0.003500 0.000000 -0.006062
v 0.003500 0.005000 -0.006062
v 0.004261 0.000000 -0.005553
v 0.004261 0.005000 -0.005553
v 0.004950 0.000000 -0.004950
v 0.004950 0.005000 -0.004950
v 0.005553 0.000000 -0.004261
v 0.005553 0.005000 -0.004261
v 0.006062 0.000000 -0.003500
v 0.006062 0.005000 -0.003500
v 0.006467 0.000000 -0.002679
v 0.006467 0.005000 -0.002679
v 0.006761 0.000000 -0.001812
v 0.006761 0.005000 -0.001812
v 0.006940 0.000000 -0.000914
v 0.006940 0.005000 -0.000914
v 0.007000 0.000000 0.000000
v 0.007000 0.005000 0.000000
v 0.006940 0.000000 0.000914
v 0.006940 0.005000 0.000914
v 0.006761 0.000000 0.001812
v 0.006761 0.005000 0.001812
v 0.006467 0.000000 0.002679
v 0.006467 0.005000 0.002679
v 0.006062 0.000000 0.003500
v 0.006062 0.005000 0.003500
v 0.005553 0.000000 0.004261
v 0.005553 0.005000 0.004261
v 0.004950 0.000000 0.004950
v 0.004950 0.005000 0.004950
v 0.004261 0.000000 0.005553
v 0.004261 0.005000 0.005553
v 0.003500 0.000000 0.006062
v 0.003500 0.005000 0.006062
v 0.002679 0.000000 0.006467
v 0.002679 0.005000 0.006467
v 0.001812 0.000000 0.006761
v 0.001812 0.005000 0.006761
v 0.000914 0.000000 0.006940
v 0.000914 0.005000 0.006940
v 0.000000 0.000000 0.007000
v 0.000000 0.005000 0.007000
v -0.000914 0.000000 0.006940
v -0.000914 0.005000 0.006940
v -0.001812 0.000000 0.006761
v -0.001812 0.005000 0.006761
v -0.002679 0.000000 0.006467
v -0.002679 0.005000 0.006467
v -0.003500 0.000000 0.006062
v -0.003500 0.005000 0.006062
v -0.004261 0.000000 0.005553
v -0.004261 0.005000 0.005553
v -0.004950 0.000000 0.004950
v -0.004950 0.005000 0.004950
v -0.005553 0.000000 0.004261
v -0.005553 0.005000 0.004261
v -0.006062 0.000000 0.003500
v -0.006062 0.005000 0.003500
v -0.006467 0.000000 0.002679
v -0.006467 0.005000 0.002679
v -0.006761 0.000000 0.001812
v -0.006761 0.005000 0.001812
v -0.006940 0.000000 0.000914
v -0.006940 0.005000 0.000914
v -0.007000 0.000000 0.000000
v -0.007000 0.005000 0.000000
v -0.006940 0.000000 -0.000914
v -0.006940 0.005000 -0.000914
v -0.006761 0.000000 -0.001812
v -0.006761 0.005000 -0.001812
v -0.006467 0.000000 -0.002679
v -0.006467 0.005000 -0.002679
v -0.006062 0.000000 -0.003500
v -0.006062 0.005000 -0.003500
v -0.005553 0.000000 -0.004261
v -0.005553 0.005000 -0.004261
v -0.004950 0.000000 -0.004950
v -0.004950 0.005000 -0.004950
v -0.004261 0.000000 -0.005553
v -0.004261 0.005000 -0.005553
v -0.003500 0.000000 -0.006062
v -0.003500 0.005000 -0.006062
v -0.002679 0.000000 -0.006467
v -0.002679 0.005000 -0.006467
v -0.001812 0.000000 -0.006761
v -0.001812 0.005000 -0.006761
v -0.000914 0.000000 -0.006940
v -0.000914 0.005000 -0.006940
v 0.000000 0.005000 -0.005000
v 0.000000 0.010000 -0.003300
v 0.000782 0.005000 -0.004938
v 0.000516 0.010000 -0.003259
v 0.001545 0.005000 -0.004755
v 0.001020 0.010000 -0.003138
v 0.002270 0.005000 -0.004455
v 0.001498 0.010000 -0.002940
v 0.002939 0.005000 -0.004045
v 0.001940 0.010000 -0.002670
v 0.003536 0.005000 -0.003536
v 0.002333 0.010000 -0.002333
v 0.004045 0.005000 -0.002939
v 0.002670 0.010000 -0.001940
v 0.004455 0.005000 -0.002270
v 0.002940 0.010000 -0.001498
v 0.004755 0.005000 -0.001545
v 0.003138 0.010000 -0.001020
v 0.004938 0.005000 -0.000782
v 0.003259 0.010000 -0.000516
v 0.005000 0.005000 0.000000
v 0.003300 0.010000 0.000000
v 0.004938 0.005000 0.000782
v 0.003259 0.010000 0.000516
v 0.004755 0.005000 0.001545
v 0.003138 0.010000 0.001020
v 0.004455 0.005000 0.002270
v 0.002940 0.010000 0.001498
v 0.004045 0.005000 0.002939
v 0.002670 0.010000 0.001940
v 0.003536 0.005000 0.003536
v 0.002333 0.010000 0.002333
v 0.002939 0.005000 0.004045
v 0.001940 0.010000 0.002670
v 0.002270 0.005000 0.004455
v 0.001498 0.010000 0.002940
v 0.001545 0.005000 0.004755
v 0.001020 0.010000 0.003138
v 0.000782 0.005000 0.004938
v 0.000516 0.010000 0.003259
v 0.000000 0.005000 0.005000
v 0.000000 0.010000 0.003300
v -0.000782 0.005000 0.004938
v -0.000516 0.010000 0.003259
v -0.001545 0.005000 0.004755
v -0.001020 0.010000 0.003138
v -0.002270 0.005000 0.004455
v -0.001498 0.010000 0.002940
v -0.002939 0.005000 0.004045
v -0.001940 0.010000 0.002670
v -0.003536 0.005000 0.003536
v -0.002333 0.010000 0.002333
v -0.004045 0.005000 0.002939
v -0.002670 0.010000 0.001940
v -0.004455 0.005000 0.002270
v -0.002940 0.010000 0.001498
v -0.004755 0.005000 0.001545
v -0.003138 0.010000 0.001020
v -0.004938 0.005000 0.000782
v -0.003259 0.010000 0.000516
v -0.005000 0.005000 0.000000
v -0.003300 0.010000 0.000000
v -0.004938 0.005000 -0.000782
v -0.003259 0.010000 -0.000516
v -0.004755 0.005000 -0.001545
v -0.003138 0.010000 -0.001020
v -0.004455 0.005000 -0.002270
v -0.002940 0.010000 -0.001498
v -0.004045 0.005000 -0.002939
v -0.002670 0.010000 -0.001940
v -0.003536 0.005000 -0.003536
v -0.002333 0.010000 -0.002333
v -0.002939 0.005000 -0.004045
v -0.001940 0.010000 -0.002670
v -0.002270 0.005000 -0.004455
v -0.001498 0.010000 -0.002940
v -0.001545 0.005000 -0.004755
v -0.001020 0.010000 -0.003138
v -0.000782 0.005000 -0.004938
v -0.000516 0.010000 -0.003259
v 0.000000 0.008000 -0.003500
v 0.000000 0.020000 -0.003500
v 0.000457 0.008000 -0.003470
v 0.000457 0.020000 -0.003470
v 0.000906 0.008000 -0.003381
v 0.000906 0.020000 -0.003381
v 0.001339 0.008000 -0.003234
v 0.001339 0.020000 -0.003234
v 0.001750 0.008000 -0.003031
v 0.001750 0.020000 -0.003031
v 0.002131 0.008000 -0.002777
v 0.002131 0.020000 -0.002777
v 0.002475 0.008000 -0.002475
v 0.002475 0.020000 -0.002475
v 0.002777 0.008000 -0.002131
v 0.002777 0.020000 -0.002131
v 0.003031 0.008000 -0.001750
v 0.003031 0.020000 -0.001750
v 0.003234 0.008000 -0.001339
v 0.003234 0.020000 -0.001339
v 0.003381 0.008000 -0.000906
v 0.003381 0.020000 -0.000906
v 0.003470 0.008000 -0.000457
v 0.003470 0.020000 -0.000457
v 0.003500 0.008000 0.000000
v 0.003500 0.020000 0.000000
v 0.003470 0.008000 0.000457
v 0.003470 0.020000 0.000457
v 0.003381 0.008000 0.000906
v 0.003381 0.020000 0.000906
v 0.003234 0.008000 0.001339
v 0.003234 0.020000 0.001339
v 0.003031 0.008000 0.001750
v 0.003031 0.020000 0.001750
v 0.002777 0.008000 0.002131
v 0.002777 0.020000 0.002131
v 0.002475 0.008000 0.002475
v 0.002475 0.020000 0.002475
v 0.002131 0.008000 0.002777
v 0.002131 0.020000 0.002777
v 0.001750 0.008000 0.003031
v 0.001750 0.020000 0.003031
v 0.001339 0.008000 0.003234
v 0.001339 0.020000 0.003234
v 0.000906 0.008000 0.003381
v 0.000906 0.020000 0.003381
v 0.000457 0.008000 0.003470
v 0.000457 0.020000 0.003470
v 0.000000 0.008000 0.003500
v 0.000000 0.020000 0.003500
v -0.000457 0.008000 0.003470
v -0.000457 0.020000 0.003470
v -0.000906 0.008000 0.003381
v -0.000906 0.020000 0.003381
v -0.001339 0.008000 0.003234
v -0.001339 0.020000 0.003234
v -0.001750 0.008000 0.003031
v -0.001750 0.020000 0.003031
v -0.002131 0.008000 0.002777
v -0.002131 0.020000 0.002777
v -0.002475 0.008000 0.002475
v -0.002475 0.020000 0.002475
v -0.002777 0.008000 0.002131
v -0.002777 0.020000 0.002131
v -0.003031 0.008000 0.001750
v -0.003031 0.020000 0.001750
v -0.003234 0.008000 0.001339
v -0.003234 0.020000 0.001339
v -0.003381 0.008000 0.000906
v -0.003381 0.020000 0.000906
v -0.003470 0.008000 0.000457
v -0.003470 0.020000 0.000457
v -0.003500 0.008000 0.000000
v -0.003500 0.020000 0.000000
v -0.003470 0.008000 -0.000457
v -0.003470 0.020000 -0.000457
v -0.003381 0.008000 -0.000906
v -0.003381 0.020000 -0.000906
v -0.003234 0.008000 -0.001339
v -0.003234 0.020000 -0.001339
v -0.003031 0.008000 -0.001750
v -0.003031 0.020000 -0.001750
v -0.002777 0.008000 -0.002131
v -0.002777 0.020000 -0.002131
v -0.002475 0.008000 -0.002475
v -0.002475 0.020000 -0.002475
v -0.002131 0.008000 -0.002777
v -0.002131 0.020000 -0.002777
v -0.001750 0.008000 -0.003031
v -0.001750 0.020000 -0.003031
v -0.001339 0.008000 -0.003234
v -0.001339 0.020000 -0.003234
v -0.000906 0.008000 -0.003381
v -0.000906 0.020000 -0.003381
v -0.000457 0.008000 -0.003470
v -0.000457 0.020000 -0.003470
v 0.000000 0.008000 -0.005000
v 0.000000 0.010000 -0.005000
v 0.000975 0.008000 -0.004904
v 0.000975 0.010000 -0.004904
v 0.001913 0.008000 -0.004619
v 0.001913 0.010000 -0.004619
v 0.002778 0.008000 -0.004157
v 0.002778 0.010000 -0.004157
v 0.003536 0.008000 -0.003536
v 0.003536 0.010000 -0.003536
v 0.004157 0.008000 -0.002778
v 0.004157 0.010000 -0.002778
v 0.004619 0.008000 -0.001913
v 0.004619 0.010000 -0.001913
v 0.004904 0.008000 -0.000975
v 0.004904 0.010000 -0.000975
v 0.005000 0.008000 0.000000
v 0.005000 0.010000 0.000000
v 0.004904 0.008000 0.000975
v 0.004904 0.010000 0.000975
v 0.004619 0.008000 0.001913
v 0.004619 0.010000 0.001913
v 0.004157 0.008000 0.002778
v 0.004157 0.010000 0.002778
v 0.003536 0.008000 0.003536
v 0.003536 0.010000 0.003536
v 0.002778 0.008000 0.004157
v 0.002778 0.010000 0.004157
v 0.001913 0.008000 0.004619
v 0.001913 0.010000 0.004619
v 0.000975 0.008000 0.004904
v 0.000975 0.010000 0.004904
v 0.000000 0.008000 0.005000
v 0.000000 0.010000 0.005000
v -0.000975 0.008000 0.004904
v -0.000975 0.010000 0.004904
v -0.001913 0.008000 0.004619
v -0.001913 0.010000 0.004619
v -0.002778 0.008000 0.004157
v -0.002778 0.010000 0.004157
v -0.003536 0.008000 0.003536
v -0.003536 0.010000 0.003536
v -0.004157 0.008000 0.002778
v -0.004157 0.010000 0.002778
v -0.004619 0.008000 0.001913
v -0.004619 0.010000 0.001913
v -0.004904 0.008000 0.000975
v -0.004904 0.010000 0.000975
v -0.005000 0.008000 0.000000
v -0.005000 0.010000 0.000000
v -0.004904 0.008000 -0.000975
v -0.004904 0.010000 -0.000975
v -0.004619 0.008000 -0.001913
v -0.004619 0.010000 -0.001913
v -0.004157 0.008000 -0.002778
v -0.004157 0.010000 -0.002778
v -0.003536 0.008000 -0.003536
v -0.003536 0.010000 -0.003536
v -0.002778 0.008000 -0.004157
v -0.002778 0.010000 -0.004157
v -0.001913 0.008000 -0.004619
v -0.001913 0.010000 -0.004619
v -0.000975 0.008000 -0.004904
v -0.000975 0.010000 -0.004904
v 0.000000 0.024000 0.000000
v 0.000000 0.023962 -0.000390
v 0.000000 0.023663 -0.001111
v 0.000000 0.023414 -0.001414
v 0.000000 0.022765 -0.001848
v 0.000000 0.022000 -0.002000
v 0.000000 0.021610 -0.001962
v 0.000000 0.020889 -0.001663
v 0.000000 0.020337 -0.001111
v 0.000000 0.020038 -0.000390
v 0.000000 0.020000 0.000000
v 0.000076 0.023962 -0.000383
v 0.000149 0.023848 -0.000751
v 0.000217 0.023663 -0.001090
v 0.000276 0.023414 -0.001387
v 0.000324 0.023111 -0.001631
v 0.000360 0.022765 -0.001812
v 0.000383 0.022390 -0.001924
v 0.000390 0.022000 -0.001962
v 0.000383 0.021610 -0.001924
v 0.000360 0.021235 -0.001812
v 0.000324 0.020889 -0.001631
v 0.000276 0.020586 -0.001387
v 0.000217 0.020337 -0.001090
v 0.000149 0.020152 -0.000751
v 0.000076 0.020038 -0.000383
v 0.000149 0.023962 -0.000360
v 0.000293 0.023848 -0.000707
v 0.000425 0.023663 -0.001027
v 0.000541 0.023414 -0.001307
v 0.000636 0.023111 -0.001536
v 0.000707 0.022765 -0.001707
v 0.000751 0.022390 -0.001812
v 0.000765 0.022000 -0.001848
v 0.000751 0.021610 -0.001812
v 0.000707 0.021235 -0.001707
v 0.000636 0.020889 -0.001536
v 0.000541 0.020586 -0.001307
v 0.000425 0.020337 -0.001027
v 0.000293 0.020152 -0.000707
v 0.000149 0.020038 -0.000360
v 0.000217 0.023962 -0.000324
v 0.000425 0.023848 -0.000636
v 0.000617 0.023663 -0.000924
v 0.000786 0.023414 -0.001176
v 0.000924 0.023111 -0.001383
v 0.001027 0.022765 -0.001536
v 0.001090 0.022390 -0.001631
v 0.001111 0.022000 -0.001663
v 0.001090 0.021610 -0.001631
v 0.001027 0.021235 -0.001536
v 0.000924 0.020889 -0.001383
v 0.000786 0.020586 -0.001176
v 0.000617 0.020337 -0.000924
v 0.000425 0.020152 -0.000636
v 0.000217 0.020038 -0.000324
v 0.000276 0.023962 -0.000276
v 0.000541 0.023848 -0.000541
v 0.000786 0.023663 -0.000786
v 0.001000 0.023414 -0.001000
v 0.001176 0.023111 -0.001176
v 0.001307 0.022765 -0.001307
v 0.001387 0.022390 -0.001387
v 0.001414 0.022000 -0.001414
v 0.001387 0.021610 -0.001387
v 0.001307 0.021235 -0.001307
v 0.001176 0.020889 -0.001176
v 0.001000 0.020586 -0.001000
v 0.000786 0.020337 -0.000786
v 0.000541 0.020152 -0.000541
v 0.000276 0.020038 -0.000276
v 0.000324 0.023962 -0.000217
v 0.000636 0.023848 -0.000425
v 0.000924 0.023663 -0.000617
v 0.001176 0.023414 -0.000786
v 0.001383 0.023111 -0.000924
v 0.001536 0.022765 -0.001027
v 0.001631 0.022390 -0.001090
v 0.001663 0.022000 -0.001111
v 0.001631 0.021610 -0.001090
v 0.001536 0.021235 -0.001027
v 0.001383 0.020889 -0.000924
v 0.001176 0.020586 -0.000786
v 0.000924 0.020337 -0.000617
v 0.000636 0.020152 -0.000425
v 0.000324 0.020038 -0.000217
v 0.000360 0.023962 -0.000149
v 0.000707 0.023848 -0.000293
v 0.001027 0.023663 -0.000425
v 0.001307 0.023414 -0.000541
v 0.001536 0.023111 -0.000636
v 0.001707 0.022765 -0.000707
v 0.001812 0.022390 -0.000751
v 0.001848 0.022000 -0.000765
v 0.001812 0.021610 -0.000751
v 0.001707 0.021235 -0.000707
v 0.001536 0.020889 -0.000636
v 0.001307 0.020586 -0.000541
v 0.001027 0.020337 -0.000425
v 0.000707 0.020152 -0.000293
v 0.000360 0.020038 -0.000149
v 0.000383 0.023962 -0.000076
v 0.000751 0.023848 -0.000149
v 0.001090 0.023663 -0.000217
v 0.001387 0.023414 -0.000276
v 0.001631 0.023111 -0.000324
v 0.001812 0.022765 -0.000360
v 0.001924 0.022390 -0.000383
v 0.001962 0.022000 -0.000390
v 0.001924 0.021610 -0.000383
v 0.001812 0.021235 -0.000360
v 0.001631 0.020889 -0.000324
v 0.001387 0.020586 -0.000276
v 0.001090 0.020337 -0.000217
v 0.000751 0.020152 -0.000149
v 0.000383 0.020038 -0.000076
v 0.000390 0.023962 0.000000
v 0.000765 0.023848 0.000000
v 0.001111 0.023663 0.000000
v 0.001414 0.023414 0.000000
v 0.001663 0.023111 0.000000
v 0.001848 0.022765 0.000000
v 0.001962 0.022390 0.000000
v 0.002000 0.022000 0.000000
v 0.001962 0.021610 0.000000
v 0.001848 0.021235 0.000000
v 0.001663 0.020889 0.000000
v 0.001414 0.020586 0.000000
v 0.001111 0.020337 0.000000
v 0.000765 0.020152 0.000000
v 0.000390 0.020038 0.000000
v 0.000383 0.023962 0.000076
v 0.000751 0.023848 0.000149
v 0.001090 0.023663 0.000217
v 0.001387 0.023414 0.000276
v 0.001631 0.023111 0.000324
v 0.001812 0.022765 0.000360
v 0.001924 0.022390 0.000383
v 0.001962 0.022000 0.000390
v 0.001924 0.021610 0.000383
v 0.001812 0.021235 0.000360
v 0.001631 0.020889 0.000324
v 0.001387 0.020586 0.000276
v 0.001090 0.020337 0.000217
v 0.000751 0.020152 0.000149
v 0.000383 0.020038 0.000076
v 0.000360 0.023962 0.000149
v 0.000707 0.023848 0.000293
v 0.001027 0.023663 0.000425
v 0.001307 0.023414 0.000541
v 0.001536 0.023111 0.000636
v 0.001707 0.022765 0.000707
v 0.001812 0.022390 0.000751
v 0.001848 0.022000 0.000765
v 0.001812 0.021610 0.000751
v 0.001707 0.021235 0.000707
v 0.001536 0.020889 0.000636
v 0.001307 0.020586 0.000541
v 0.001027 0.020337 0.000425
v 0.000707 0.020152 0.000293
v 0.000360 0.020038 0.000149
v 0.000324 0.023962 0.000217
v 0.000636 0.023848 0.000425
v 0.000924 0.023663 0.000617
v 0.001176 0.023414 0.000786
v 0.001383 0.023111 0.000924
v 0.001536 0.022765 0.001027
v 0.001631 0.022390 0.001090
v 0.001663 0.022000 0.001111
v 0.001631 0.021610 0.001090
v 0.001536 0.021235 0.001027
v 0.001383 0.020889 0.000924
v 0.001176 0.020586 0.000786
v 0.000924 0.020337 0.000617
v 0.000636 0.020152 0.000425
v 0.000324 0.020038 0.000217
v 0.000276 0.023962 0.000276
v 0.000541 0.023848 0.000541
v 0.000786 0.023663 0.000786
v 0.001000 0.023414 0.001000
v 0.001176 0.023111 0.001176
v 0.001307 0.022765 0.001307
v 0.001387 0.022390 0.001387
v 0.001414 0.022000 0.001414
v 0.001387 0.021610 0.001387
v 0.001307 0.021235 0.001307
v 0.001176 0.020889 0.001176
v 0.001000 0.020586 0.001000
v 0.000786 0.020337 0.000786
v 0.000541 0.020152 0.000541
v 0.000276 0.020038 0.000276
v 0.000217 0.023962 0.000324
v 0.000425 0.023848 0.000636
v 0.000617 0.023663 0.000924
v 0.000786 0.023414 0.001176
v 0.000924 0.023111 0.001383
v 0.001027 0.022765 0.001536
v 0.001090 0.022390 0.001631
v 0.001111 0.022000 0.001663
v 0.001090 0.021610 0.001631
v 0.001027 0.021235 0.001536
v 0.000924 0.020889 0.001383
v 0.000786 0.020586 0.001176
v 0.000617 0.020337 0.000924
v 0.000425 0.020152 0.000636
v 0.000217 0.020038 0.000324
v 0.000149 0.023962 0.000360
v 0.000293 0.023848 0.000707
v 0.000425 0.023663 0.001027
v 0.000541 0.023414 0.001307
v 0.000636 0.023111 0.001536
v 0.000707 0.022765 0.001707
v 0.000751 0.022390 0.001812
v 0.000765 0.022000 0.001848
v 0.000751 0.021610 0.001812
v 0.000707 0.021235 0.001707
v 0.000636 0.020889 0.001536
v 0.000541 0.020586 0.001307
v 0.000425 0.020337 0.001027
v 0.000293 0.020152 0.000707
v 0.000149 0.020038 0.000360
v 0.000076 0.023962 0.000383
v 0.000149 0.023848 0.000751
v 0.000217 0.023663 0.001090
v 0.000276 0.023414 0.001387
v 0.000324 0.023111 0.001631
v 0.000360 0.022765 0.001812
v 0.000383 0.022390 0.001924
v 0.000390 0.022000 0.001962
v 0.000383 0.021610 0.001924
v 0.000360 0.021235 0.001812
v 0.000324 0.020889 0.001631
v 0.000276 0.020586 0.001387
v 0.000217 0.020337 0.001090
v 0.000149 0.020152 0.000751
v 0.000076 0.020038 0.000383
v -0.000000 0.023962 0.000390
v -0.000000 0.023848 0.000765
v -0.000000 0.023663 0.001111
v 0.000000 0.023414 0.001414
v -0.000000 0.023111 0.001663
v -0.000000 0.022765 0.001848
v -0.000000 0.022390 0.001962
v -0.000000 0.022000 0.002000
v -0.000000 0.021610 0.001962
v -0.000000 0.021235 0.001848
v -0.000000 0.020889 0.001663
v 0.000000 0.020586 0.001414
v -0.000000 0.020337 0.001111
v -0.000000 0.020152 0.000765
v -0.000000 0.020038 0.000390
v -0.000076 0.023962 0.000383
v -0.000149 0.023848 0.000751
v -0.000217 0.023663 0.001090
v -0.000276 0.023414 0.001387
v -0.000324 0.023111 0.001631
v -0.000360 0.022765 0.001812
v -0.000383 0.022390 0.001924
v -0.000390 0.022000 0.001962
v -0.000383 0.021610 0.001924
v -0.000360 0.021235 0.001812
v -0.000324 0.020889 0.001631
v -0.000276 0.020586 0.001387
v -0.000217 0.020337 0.001090
v -0.000149 0.020152 0.000751
v -0.000076 0.020038 0.000383
v -0.000149 0.023962 0.000360
v -0.000293 0.023848 0.000707
v -0.000425 0.023663 0.001027
v -0.000541 0.023414 0.001307
v -0.000636 0.023111 0.001536
v -0.000707 0.022765 0.001707
v -0.000751 0.022390 0.001812
v -0.000765 0.022000 0.001848
v -0.000751 0.021610 0.001812
v -0.000707 0.021235 0.001707
v -0.000636 0.020889 0.001536
v -0.000541 0.020586 0.001307
v -0.000425 0.020337 0.001027
v -0.000293 0.020152 0.000707
v -0.000149 0.020038 0.000360
v -0.000217 0.023962 0.000324
v -0.000425 0.023848 0.000636
v -0.000617 0.023663 0.000924
v -0.000786 0.023414 0.001176
v -0.000924 0.023111 0.001383
v -0.001027 0.022765 0.001536
v -0.001090 0.022390 0.001631
v -0.001111 0.022000 0.001663
v -0.001090 0.021610 0.001631
v -0.001027 0.021235 0.001536
v -0.000924 0.020889 0.001383
v -0.000786 0.020586 0.001176
v -0.000617 0.020337 0.000924
v -0.000425 0.020152 0.000636
v -0.000217 0.020038 0.000324
v -0.000276 0.023962 0.000276
v -0.000541 0.023848 0.000541
v -0.000786 0.023663 0.000786
v -0.001000 0.023414 0.001000
v -0.001176 0.023111 0.001176
v -0.001307 0.022765 0.001307
v -0.001387 0.022390 0.001387
v -0.001414 0.022000 0.001414
v -0.001387 0.021610 0.001387
v -0.001307 0.021235 0.001307
v -0.001176 0.020889 0.001176
v -0.001000 0.020586 0.001000
v -0.000786 0.020337 0.000786
v -0.000541 0.020152 0.000541
v -0.000276 0.020038 0.000276
v -0.000324 0.023962 0.000217
v -0.000636 0.023848 0.000425
v -0.000924 0.023663 0.000617
v -0.001176 0.023414 0.000786
v -0.001383 0.023111 0.000924
v -0.001536 0.022765 0.001027
v -0.001631 0.022390 0.001090
v -0.001663 0.022000 0.001111
v -0.001631 0.021610 0.001090
v -0.001536 0.021235 0.001027
v -0.001383 0.020889 0.000924
v -0.001176 0.020586 0.000786
v -0.000924 0.020337 0.000617
v -0.000636 0.020152 0.000425
v -0.000324 0.020038 0.000217
v -0.000360 0.023962 0.000149
v -0.000707 0.023848 0.000293
v -0.001027 0.023663 0.000425
v -0.001307 0.023414 0.000541
v -0.001536 0.023111 0.000636
v -0.001707 0.022765 0.000707
v -0.001812 0.022390 0.000751
v -0.001848 0.022000 0.000765
v -0.001812 0.021610 0.000751
v -0.001707 0.021235 0.000707
v -0.001536 0.020889 0.000636
v -0.001307 0.020586 0.000541
v -0.001027 0.020337 0.000425
v -0.000707 0.020152 0.000293
v -0.000360 0.020038 0.000149
v -0.000383 0.023962 0.000076
v -0.000751 0.023848 0.000149
v -0.001090 0.023663 0.000217
v -0.001387 0.023414 0.000276
v -0.001631 0.023111 0.000324
v -0.001812 0.022765 0.000360
v -0.001924 0.022390 0.000383
v -0.001962 0.022000 0.000390
v -0.001924 0.021610 0.000383
v -0.001812 0.021235 0.000360
v -0.001631 0.020889 0.000324
v -0.001387 0.020586 0.000276
v -0.001090 0.020337 0.000217
v -0.000751 0.020152 0.000149
v -0.000383 0.020038 0.000076
v -0.000390 0.023962 -0.000000
v -0.000765 0.023848 -0.000000
v -0.001111 0.023663 -0.000000
v -0.001414 0.023414 -0.000000
v -0.001663 0.023111 -0.000000
v -0.001848 0.022765 -0.000000
v -0.001962 0.022390 -0.000000
v -0.002000 0.022000 -0.000000
v -0.001962 0.021610 -0.000000
v -0.001848 0.021235 -0.000000
v -0.001663 0.020889 -0.000000
v -0.001414 0.020586 -0.000000
v -0.001111 0.020337 -0.000000
v -0.000765 0.020152 -0.000000
v -0.000390 0.020038 -0.000000
v -0.000383 0.023962 -0.000076
v -0.000751 0.023848 -0.000149
v -0.001090 0.023663 -0.000217
v -0.001387 0.023414 -0.000276
v -0.001631 0.023111 -0.000324
v -0.001812 0.022765 -0.000360
v -0.001924 0.022390 -0.000383
v -0.001962 0.022000 -0.000390
v -0.001924 0.021610 -0.000383
v -0.001812 0.021235 -0.000360
v -0.001631 0.020889 -0.000324
v -0.001387 0.020586 -0.000276
v -0.001090 0.020337 -0.000217
v -0.000751 0.020152 -0.000149
v -0.000383 0.020038 -0.000076
v -0.000360 0.023962 -0.000149
v -0.000707 0.023848 -0.000293
v -0.001027 0.023663 -0.000425
v -0.001307 0.023414 -0.000541
v -0.001536 0.023111 -0.000636
v -0.001707 0.022765 -0.000707
v -0.001812 0.022390 -0.000751
v -0.001848 0.022000 -0.000765
v -0.001812 0.021610 -0.000751
v -0.001707 0.021235 -0.000707
v -0.001536 0.020889 -0.000636
v -0.001307 0.020586 -0.000541
v -0.001027 0.020337 -0.000425
v -0.000707 0.020152 -0.000293
v -0.000360 0.020038 -0.000149
v -0.000324 0.023962 -0.000217
v -0.000636 0.023848 -0.000425
v -0.000924 0.023663 -0.000617
v -0.001176 0.023414 -0.000786
v -0.001383 0.023111 -0.000924
v -0.001536 0.022765 -0.001027
v -0.001631 0.022390 -0.001090
v -0.001663 0.022000 -0.001111
v -0.001631 0.021610 -0.001090
v -0.001536 0.021235 -0.001027
v -0.001383 0.020889 -0.000924
v -0.001176 0.020586 -0.000786
v -0.000924 0.020337 -0.000617
v -0.000636 0.020152 -0.000425
v -0.000324 0.020038 -0.000217
v -0.000276 0.023962 -0.000276
v -0.000541 0.023848 -0.000541
v -0.000786 0.023663 -0.000786
v -0.001000 0.023414 -0.001000
v -0.001176 0.023111 -0.001176
v -0.001307 0.022765 -0.001307
v -0.001387 0.022390 -0.001387
v -0.001414 0.022000 -0.001414
v -0.001387 0.021610 -0.001387
v -0.001307 0.021235 -0.001307
v -0.001176 0.020889 -0.001176
v -0.001000 0.020586 -0.001000
v -0.000786 0.020337 -0.000786
v -0.000541 0.020152 -0.000541
v -0.000276 0.020038 -0.000276
v -0.000217 0.023962 -0.000324
v -0.000425 0.023848 -0.000636
v -0.000617 0.023663 -0.000924
v -0.000786 0.023414 -0.001176
v -0.000924 0.023111 -0.001383
v -0.001027 0.022765 -0.001536
v -0.001090 0.022390 -0.001631
v -0.001111 0.022000 -0.001663
v -0.001090 0.021610 -0.001631
v -0.001027 0.021235 -0.001536
v -0.000924 0.020889 -0.001383
v -0.000786 0.020586 -0.001176
v -0.000617 0.020337 -0.000924
v -0.000425 0.020152 -0.000636
v -0.000217 0.020038 -0.000324
v -0.000149 0.023962 -0.000360
v -0.000293 0.023848 -0.000707
v -0.000425 0.023663 -0.001027
v -0.000541 0.023414 -0.001307
v -0.000636 0.023111 -0.001536
v -0.000707 0.022765 -0.001707
v -0.000751 0.022390 -0.001812
v -0.000765 0.022000 -0.001848
v -0.000751 0.021610 -0.001812
v -0.000707 0.021235 -0.001707
v -0.000636 0.020889 -0.001536
v -0.000541 0.020586 -0.001307
v -0.000425 0.020337 -0.001027
v -0.000293 0.020152 -0.000707
v -0.000149 0.020038 -0.000360
v -0.000076 0.023962 -0.000383
v -0.000149 0.023848 -0.000751
v -0.000217 0.023663 -0.001090
v -0.000276 0.023414 -0.001387
v -0.000324 0.023111 -0.001631
v -0.000360 0.022765 -0.001812
v -0.000383 0.022390 -0.001924
v -0.000390 0.022000 -0.001962
v -0.000383 0.021610 -0.001924
v -0.000360 0.021235 -0.001812
v -0.000324 0.020889 -0.001631
v -0.000276 0.020586 -0.001387
v -0.000217 0.020337 -0.001090
v -0.000149 0.020152 -0.000751
v -0.000076 0.020038 -0.000383
v 0.000000 0.023848 -0.000765
v 0.000000 0.023111 -0.001663
v 0.000000 0.022390 -0.001962
v 0.000000 0.021235 -0.001848
v 0.000000 0.020586 -0.001414
v 0.000000 0.020152 -0.000765
vn 0.0654 -0.0000 -0.9979
vn 0.1951 -0.0000 -0.9808
vn 0.3214 -0.0000 -0.9469
vn 0.4423 -0.0000 -0.8969
vn 0.5556 -0.0000 -0.8315
vn 0.6593 -0.0000 -0.7518
vn 0.7518 -0.0000 -0.6593
vn 0.8315 -0.0000 -0.5556
vn 0.8969 -0.0000 -0.4423
vn 0.9469 -0.0000 -0.3214
vn 0.9808 -0.0000 -0.1951
vn 0.9979 -0.0000 -0.0654
vn 0.9979 -0.0000 0.0654
vn 0.9808 -0.0000 0.1951
vn 0.9469 -0.0000 0.3214
vn 0.8969 -0.0000 0.4423
vn 0.8315 -0.0000 0.5556
vn 0.7518 -0.0000 0.6593
vn 0.6593 -0.0000 0.7518
vn 0.5556 -0.0000 0.8315
vn 0.4423 -0.0000 0.8969
vn 0.3214 -0.0000 0.9469
vn 0.1951 -0.0000 0.9808
vn 0.0654 -0.0000 0.9979
vn -0.0654 -0.0000 0.9979
vn -0.1951 -0.0000 0.9808
vn -0.3214 -0.0000 0.9469
vn -0.4423 -0.0000 0.8969
vn -0.5556 -0.0000 0.8315
vn -0.6593 -0.0000 0.7518
vn -0.7518 -0.0000 0.6593
vn -0.8315 -0.0000 0.5556
vn -0.8969 -0.0000 0.4423
vn -0.9469 -0.0000 0.3214
vn -0.9808 -0.0000 0.1951
vn -0.9979 -0.0000 0.0654
vn -0.9979 -0.0000 -0.0654
vn -0.9808 -0.0000 -0.1951
vn -0.9469 -0.0000 -0.3214
vn -0.8969 -0.0000 -0.4423
vn -0.8315 -0.0000 -0.5556
vn -0.7518 -0.0000 -0.6593
vn -0.6593 -0.0000 -0.7518
vn -0.5556 -0.0000 -0.8315
vn -0.4423 -0.0000 -0.8969
vn -0.3214 -0.0000 -0.9469
vn -0.0000 1.0000 -0.0000
vn -0.1951 -0.0000 -0.9808
vn -0.0654 -0.0000 -0.9979
vn -0.0000 -1.0000 -0.0000
vn 0.0743 0.3210 -0.9442
vn 0.2211 0.3210 -0.9209
vn 0.3624 0.3210 -0.8750
vn 0.4948 0.3210 -0.8075
vn 0.6151 0.3210 -0.7202
vn 0.7202 0.3210 -0.6151
vn 0.8075 0.3210 -0.4948
vn 0.8750 0.3210 -0.3624
vn 0.9209 0.3210 -0.2211
vn 0.9442 0.3210 -0.0743
vn 0.9442 0.3210 0.0743
vn 0.9209 0.3210 0.2211
vn 0.8750 0.3210 0.3624
vn 0.8075 0.3210 0.4948
vn 0.7202 0.3210 0.6151
vn 0.6151 0.3210 0.7202
vn 0.4948 0.3210 0.8075
vn 0.3624 0.3210 0.8750
vn 0.2211 0.3210 0.9209
vn 0.0743 0.3210 0.9442
vn -0.0743 0.3210 0.9442
vn -0.2211 0.3210 0.9209
vn -0.3624 0.3210 0.8750
vn -0.4948 0.3210 0.8075
vn -0.6151 0.3210 0.7202
vn -0.7202 0.3210 0.6151
vn -0.8075 0.3210 0.4948
vn -0.8750 0.3210 0.3624
vn -0.9209 0.3210 0.2211
vn -0.9442 0.3210 0.0743
vn -0.9442 0.3210 -0.0743
vn -0.9209 0.3210 -0.2211
vn -0.8750 0.3210 -0.3624
vn -0.8075 0.3210 -0.4948
vn -0.7202 0.3210 -0.6151
vn -0.6151 0.3210 -0.7202
vn -0.4948 0.3210 -0.8075
vn -0.3624 0.3210 -0.8750
vn -0.2211 0.3210 -0.9209
vn -0.0743 0.3210 -0.9442
vn 0.0980 -0.0000 -0.9952
vn 0.2903 -0.0000 -0.9569
vn 0.4714 -0.0000 -0.8819
vn 0.6344 -0.0000 -0.7730
vn 0.7730 -0.0000 -0.6344
vn 0.8819 -0.0000 -0.4714
vn 0.9569 -0.0000 -0.2903
vn 0.9952 -0.0000 -0.0980
vn 0.9952 -0.0000 0.0980
vn 0.9569 -0.0000 0.2903
vn 0.8819 -0.0000 0.4714
vn 0.7730 -0.0000 0.6344
vn 0.6344 -0.0000 0.7730
vn 0.4714 -0.0000 0.8819
vn 0.2903 -0.0000 0.9569
vn 0.0980 -0.0000 0.9952
vn -0.0980 -0.0000 0.9952
vn -0.2903 -0.0000 0.9569
vn -0.4714 -0.0000 0.8819
vn -0.6344 -0.0000 0.7730
vn -0.7730 -0.0000 0.6344
vn -0.8819 -0.0000 0.4714
vn -0.9569 -0.0000 0.2903
vn -0.9952 -0.0000 0.0980
vn -0.9952 -0.0000 -0.0980
vn -0.9569 -0.0000 -0.2903
vn -0.8819 -0.0000 -0.4714
vn -0.7730 -0.0000 -0.6344
vn -0.6344 -0.0000 -0.7730
vn -0.4714 -0.0000 -0.8819
vn -0.2903 -0.0000 -0.9569
vn -0.0980 -0.0000 -0.9952
vn 0.0624 -0.7715 -0.6332
vn 0.0865 0.4696 -0.8786
vn 0.0464 -0.8810 -0.4709
vn 0.0938 0.2890 -0.9527
vn 0.0286 -0.9565 -0.2902
vn 0.0975 0.0976 -0.9904
vn 0.0096 0.9951 -0.0980
vn 0.0096 -0.9951 -0.0980
vn 0.0975 -0.0975 -0.9904
vn 0.0286 0.9565 -0.2902
vn 0.0938 -0.2890 -0.9527
vn 0.0464 0.8810 -0.4709
vn 0.0865 -0.4696 -0.8786
vn 0.0624 0.7715 -0.6332
vn 0.0759 -0.6326 -0.7708
vn 0.0759 0.6326 -0.7708
vn 0.2248 -0.6326 -0.7412
vn 0.2248 0.6326 -0.7412
vn 0.1847 -0.7715 -0.6088
vn 0.2563 0.4696 -0.8448
vn 0.1373 -0.8810 -0.4528
vn 0.2779 0.2890 -0.9161
vn 0.0846 -0.9565 -0.2790
vn 0.2889 0.0975 -0.9524
vn 0.0286 0.9951 -0.0942
vn 0.0286 -0.9951 -0.0942
vn 0.2889 -0.0975 -0.9524
vn 0.0846 0.9566 -0.2790
vn 0.2779 -0.2890 -0.9161
vn 0.1374 0.8810 -0.4528
vn 0.2563 -0.4696 -0.8448
vn 0.1847 0.7715 -0.6088
vn 0.0464 0.9951 -0.0869
vn 0.0464 -0.9951 -0.0869
vn 0.4691 -0.0975 -0.8777
vn 0.1374 0.9565 -0.2571
vn 0.4513 -0.2890 -0.8443
vn 0.2231 0.8810 -0.4173
vn 0.4162 -0.4696 -0.7786
vn 0.2999 0.7715 -0.5611
vn 0.3651 -0.6326 -0.6831
vn 0.3651 0.6326 -0.6831
vn 0.2999 -0.7715 -0.5611
vn 0.4162 0.4696 -0.7786
vn 0.2231 -0.8810 -0.4173
vn 0.4513 0.2890 -0.8443
vn 0.1374 -0.9565 -0.2571
vn 0.4691 0.0975 -0.8777
vn 0.4913 0.6326 -0.5987
vn 0.4036 -0.7715 -0.4918
vn 0.5601 0.4696 -0.6825
vn 0.3002 -0.8810 -0.3658
vn 0.6073 0.2890 -0.7400
vn 0.1850 -0.9565 -0.2254
vn 0.6314 0.0975 -0.7693
vn 0.0625 0.9951 -0.0761
vn 0.0625 -0.9951 -0.0761
vn 0.6314 -0.0975 -0.7693
vn 0.1850 0.9565 -0.2254
vn 0.6073 -0.2890 -0.7400
vn 0.3002 0.8810 -0.3658
vn 0.5601 -0.4696 -0.6825
vn 0.4036 0.7715 -0.4918
vn 0.4913 -0.6326 -0.5987
vn 0.7693 -0.0975 -0.6314
vn 0.2254 0.9565 -0.1850
vn 0.7400 -0.2890 -0.6073
vn 0.3658 0.8810 -0.3002
vn 0.6825 -0.4696 -0.5601
vn 0.4918 0.7715 -0.4036
vn 0.5987 -0.6326 -0.4913
vn 0.5987 0.6326 -0.4913
vn 0.4918 -0.7715 -0.4036
vn 0.6825 0.4696 -0.5601
vn 0.3658 -0.8810 -0.3002
vn 0.7400 0.2890 -0.6073
vn 0.2254 -0.9566 -0.1850
vn 0.7693 0.0975 -0.6314
vn 0.0761 0.9951 -0.0625
vn 0.0761 -0.9951 -0.0625
vn 0.5611 -0.7715 -0.2999
vn 0.7786 0.4696 -0.4162
vn 0.4173 -0.8810 -0.2230
vn 0.8443 0.2890 -0.4513
vn 0.2571 -0.9566 -0.1374
vn 0.8777 0.0975 -0.4691
vn 0.0869 0.9951 -0.0464
vn 0.0869 -0.9951 -0.0464
vn 0.8777 -0.0975 -0.4691
vn 0.2571 0.9565 -0.1374
vn 0.8443 -0.2890 -0.4513
vn 0.4173 0.8810 -0.2230
vn 0.7786 -0.4696 -0.4162
vn 0.5611 0.7715 -0.2999
vn 0.6831 -0.6326 -0.3651
vn 0.6831 0.6326 -0.3651
vn 0.9161 -0.2890 -0.2779
vn 0.4528 0.8810 -0.1374
vn 0.8448 -0.4696 -0.2563
vn 0.6088 0.7715 -0.1847
vn 0.7412 -0.6326 -0.2248
vn 0.7412 0.6326 -0.2248
vn 0.6088 -0.7715 -0.1847
vn 0.8448 0.4696 -0.2563
vn 0.4528 -0.8810 -0.1374
vn 0.9161 0.2890 -0.2779
vn 0.2790 -0.9565 -0.0846
vn 0.9524 0.0975 -0.2889
vn 0.0943 0.9951 -0.0286
vn 0.0942 -0.9951 -0.0286
vn 0.9524 -0.0975 -0.2889
vn 0.2790 0.9566 -0.0846
vn 0.4709 -0.8810 -0.0464
vn 0.9527 0.2890 -0.0938
vn 0.2902 -0.9565 -0.0286
vn 0.9904 0.0975 -0.0975
vn 0.0980 0.9951 -0.0097
vn 0.0980 -0.9951 -0.0097
vn 0.9904 -0.0975 -0.0975
vn 0.2902 0.9566 -0.0286
vn 0.9527 -0.2890 -0.0938
vn 0.4709 0.8810 -0.0464
vn 0.8786 -0.4696 -0.0865
vn 0.6332 0.7715 -0.0624
vn 0.7708 -0.6326 -0.0759
vn 0.7708 0.6326 -0.0759
vn 0.6332 -0.7715 -0.0624
vn 0.8786 0.4696 -0.0865
vn 0.4709 0.8810 0.0464
vn 0.8786 -0.4696 0.0865
vn 0.6332 0.7715 0.0624
vn 0.7708 -0.6326 0.0759
vn 0.7708 0.6326 0.0759
vn 0.6332 -0.7715 0.0624
vn 0.8786 0.4696 0.0865
vn 0.4709 -0.8810 0.0464
vn 0.9527 0.2890 0.0938
vn 0.2902 -0.9565 0.0286
vn 0.9904 0.0976 0.0975
vn 0.0980 0.9951 0.0097
vn 0.0980 -0.9951 0.0097
vn 0.9904 -0.0975 0.0975
vn 0.2902 0.9565 0.0286
vn 0.9527 -0.2890 0.0938
vn 0.9161 0.2890 0.2779
vn 0.2790 -0.9566 0.0846
vn 0.9524 0.0976 0.2889
vn 0.0943 0.9951 0.0286
vn 0.0942 -0.9951 0.0286
vn 0.9524 -0.0976 0.2889
vn 0.2790 0.9565 0.0846
vn 0.9161 -0.2890 0.2779
vn 0.4528 0.8810 0.1374
vn 0.8448 -0.4696 0.2563
vn 0.6088 0.7715 0.1847
vn 0.7412 -0.6326 0.2248
vn 0.7412 0.6326 0.2248
vn 0.6088 -0.7715 0.1847
vn 0.8448 0.4696 0.2563
vn 0.4528 -0.8810 0.1374
vn 0.7786 -0.4696 0.4162
vn 0.5611 0.7715 0.2999
vn 0.6831 -0.6326 0.3651
vn 0.6831 0.6326 0.3651
vn 0.5611 -0.7715 0.2999
vn 0.7786 0.4696 0.4162
vn 0.4173 -0.8810 0.2230
vn 0.8443 0.2890 0.4513
vn 0.2571 -0.9565 0.1374
vn 0.8777 0.0976 0.4691
vn 0.0868 0.9951 0.0464
vn 0.0869 -0.9951 0.0464
vn 0.8777 -0.0976 0.4691
vn 0.2571 0.9565 0.1374
vn 0.8443 -0.2890 0.4513
vn 0.4173 0.8810 0.2230
vn 0.2254 -0.9566 0.1850
vn 0.7693 0.0975 0.6314
vn 0.0761 0.9951 0.0625
vn 0.0761 -0.9951 0.0625
vn 0.7693 -0.0976 0.6314
vn 0.2254 0.9565 0.1850
vn 0.7400 -0.2890 0.6073
vn 0.3658 0.8810 0.3002
vn 0.6825 -0.4696 0.5601
vn 0.4918 0.7715 0.4036
vn 0.5987 -0.6326 0.4913
vn 0.5987 0.6326 0.4913
vn 0.4918 -0.7715 0.4036
vn 0.6825 0.4696 0.5601
vn 0.3658 -0.8810 0.3002
vn 0.7400 0.2890 0.6073
vn 0.4036 0.7715 0.4918
vn 0.4913 -0.6326 0.5987
vn 0.4913 0.6326 0.5987
vn 0.4036 -0.7715 0.4918
vn 0.5601 0.4696 0.6825
vn 0.3002 -0.8810 0.3658
vn 0.6073 0.2890 0.7400
vn 0.1850 -0.9566 0.2254
vn 0.6314 0.0976 0.7693
vn 0.0625 0.9951 0.0761
vn 0.0625 -0.9951 0.0761
vn 0.6314 -0.0976 0.7693
vn 0.1850 0.9565 0.2254
vn 0.6073 -0.2890 0.7400
vn 0.3002 0.8810 0.3658
vn 0.5601 -0.4696 0.6825
vn 0.4691 0.0976 0.8777
vn 0.0464 0.9951 0.0869
vn 0.0464 -0.9951 0.0869
vn 0.4691 -0.0976 0.8777
vn 0.1374 0.9565 0.2571
vn 0.4513 -0.2890 0.8443
vn 0.2230 0.8810 0.4173
vn 0.4162 -0.4696 0.7786
vn 0.2999 0.7715 0.5611
vn 0.3651 -0.6326 0.6831
vn 0.3651 0.6326 0.6831
vn 0.2999 -0.7715 0.5611
vn 0.4162 0.4696 0.7786
vn 0.2231 -0.8810 0.4173
vn 0.4513 0.2890 0.8443
vn 0.1375 -0.9565 0.2571
vn 0.2248 -0.6326 0.7412
vn 0.2248 0.6326 0.7412
vn 0.1847 -0.7715 0.6088
vn 0.2563 0.4696 0.8448
vn 0.1374 -0.8810 0.4528
vn 0.2779 0.2890 0.9161
vn 0.0846 -0.9566 0.2790
vn 0.2889 0.0975 0.9524
vn 0.0286 0.9951 0.0942
vn 0.0286 -0.9951 0.0942
vn 0.2889 -0.0975 0.9524
vn 0.0846 0.9566 0.2790
vn 0.2779 -0.2890 0.9161
vn 0.1374 0.8810 0.4528
vn 0.2563 -0.4696 0.8448
vn 0.1847 0.7715 0.6088
vn 0.0097 -0.9951 0.0980
vn 0.0975 -0.0975 0.9904
vn 0.0286 0.9565 0.2902
vn 0.0938 -0.2890 0.9527
vn 0.0464 0.8810 0.4709
vn 0.0865 -0.4696 0.8786
vn 0.0624 0.7715 0.6332
vn 0.0759 -0.6326 0.7708
vn 0.0759 0.6326 0.7708
vn 0.0624 -0.7715 0.6332
vn 0.0865 0.4696 0.8786
vn 0.0464 -0.8810 0.4709
vn 0.0938 0.2890 0.9527
vn 0.0286 -0.9565 0.2902
vn 0.0975 0.0975 0.9904
vn 0.0096 0.9951 0.0980
vn -0.0624 -0.7715 0.6332
vn -0.0865 0.4696 0.8786
vn -0.0464 -0.8810 0.4709
vn -0.0938 0.2890 0.9527
vn -0.0286 -0.9565 0.2902
vn -0.0975 0.0975 0.9904
vn -0.0097 0.9951 0.0980
vn -0.0097 -0.9951 0.0980
vn -0.0975 -0.0975 0.9904
vn -0.0286 0.9565 0.2902
vn -0.0938 -0.2890 0.9527
vn -0.0464 0.8810 0.4709
vn -0.0865 -0.4696 0.8786
vn -0.0624 0.7715 0.6332
vn -0.0759 -0.6326 0.7708
vn -0.0759 0.6326 0.7708
vn -0.0846 0.9566 0.2790
vn -0.2779 -0.2890 0.9161
vn -0.1373 0.8810 0.4528
vn -0.2563 -0.4696 0.8448
vn -0.1847 0.7715 0.6088
vn -0.2248 -0.6326 0.7412
vn -0.2248 0.6326 0.7412
vn -0.1847 -0.7715 0.6088
vn -0.2563 0.4696 0.8448
vn -0.1373 -0.8810 0.4528
vn -0.2779 0.2890 0.9161
vn -0.0846 -0.9565 0.2790
vn -0.2889 0.0976 0.9524
vn -0.0285 0.9951 0.0942
vn -0.0286 -0.9951 0.0942
vn -0.2889 -0.0976 0.9524
vn -0.4162 0.4696 0.7786
vn -0.2230 -0.8810 0.4173
vn -0.4513 0.2890 0.8443
vn -0.1375 -0.9565 0.2571
vn -0.4691 0.0976 0.8777
vn -0.0464 0.9951 0.0869
vn -0.0464 -0.9951 0.0869
vn -0.4691 -0.0975 0.8777
vn -0.1374 0.9566 0.2571
vn -0.4513 -0.2890 0.8443
vn -0.2231 0.8810 0.4173
vn -0.4162 -0.4696 0.7786
vn -0.2999 0.7715 0.5611
vn -0.3651 -0.6326 0.6831
vn -0.3651 0.6326 0.6831
vn -0.2999 -0.7715 0.5611
vn -0.6073 -0.2890 0.7400
vn -0.3002 0.8810 0.3658
vn -0.5601 -0.4696 0.6825
vn -0.4036 0.7715 0.4918
vn -0.4913 -0.6326 0.5987
vn -0.4913 0.6326 0.5987
vn -0.4036 -0.7715 0.4918
vn -0.5601 0.4696 0.6825
vn -0.3002 -0.8810 0.3658
vn -0.6073 0.2890 0.7400
vn -0.1850 -0.9565 0.2254
vn -0.6314 0.0975 0.7693
vn -0.0625 0.9951 0.0761
vn -0.0625 -0.9951 0.0761
vn -0.6314 -0.0976 0.7693
vn -0.1850 0.9566 0.2254
vn -0.3658 -0.8810 0.3002
vn -0.7400 0.2890 0.6073
vn -0.2254 -0.9565 0.1850
vn -0.7693 0.0975 0.6314
vn -0.0761 0.9951 0.0625
vn -0.0761 -0.9951 0.0625
vn -0.7693 -0.0976 0.6314
vn -0.2254 0.9565 0.1850
vn -0.7400 -0.2890 0.6073
vn -0.3658 0.8810 0.3002
vn -0.6825 -0.4696 0.5601
vn -0.4918 0.7715 0.4036
vn -0.5987 -0.6326 0.4913
vn -0.5987 0.6326 0.4913
vn -0.4918 -0.7715 0.4036
vn -0.6825 0.4696 0.5601
vn -0.4173 0.8810 0.2230
vn -0.7786 -0.4696 0.4162
vn -0.5611 0.7715 0.2999
vn -0.6831 -0.6326 0.3651
vn -0.6831 0.6326 0.3651
vn -0.5611 -0.7715 0.2999
vn -0.7786 0.4696 0.4162
vn -0.4173 -0.8810 0.2230
vn -0.8443 0.2890 0.4513
vn -0.2571 -0.9566 0.1374
vn -0.8777 0.0976 0.4691
vn -0.0869 0.9951 0.0464
vn -0.0869 -0.9951 0.0464
vn -0.8777 -0.0975 0.4691
vn -0.2571 0.9566 0.1374
vn -0.8443 -0.2890 0.4513
vn -0.9161 0.2890 0.2779
vn -0.2790 -0.9565 0.0846
vn -0.9524 0.0975 0.2889
vn -0.0943 0.9951 0.0286
vn -0.0942 -0.9951 0.0286
vn -0.9524 -0.0976 0.2889
vn -0.2790 0.9565 0.0846
vn -0.9161 -0.2890 0.2779
vn -0.4528 0.8810 0.1374
vn -0.8448 -0.4696 0.2563
vn -0.6088 0.7715 0.1847
vn -0.7412 -0.6326 0.2248
vn -0.7412 0.6326 0.2248
vn -0.6088 -0.7715 0.1847
vn -0.8448 0.4696 0.2563
vn -0.4528 -0.8810 0.1374
vn -0.8786 -0.4696 0.0865
vn -0.6332 0.7715 0.0624
vn -0.7708 -0.6326 0.0759
vn -0.7708 0.6326 0.0759
vn -0.6332 -0.7715 0.0624
vn -0.8786 0.4696 0.0865
vn -0.4709 -0.8810 0.0464
vn -0.9527 0.2890 0.0938
vn -0.2902 -0.9566 0.0286
vn -0.9904 0.0975 0.0975
vn -0.0980 0.9951 0.0097
vn -0.0980 -0.9951 0.0097
vn -0.9904 -0.0976 0.0975
vn -0.2902 0.9565 0.0286
vn -0.9527 -0.2890 0.0938
vn -0.4709 0.8810 0.0464
vn -0.2902 -0.9565 -0.0286
vn -0.9904 0.0976 -0.0976
vn -0.0980 0.9951 -0.0097
vn -0.0980 -0.9951 -0.0097
vn -0.9904 -0.0976 -0.0976
vn -0.2902 0.9565 -0.0286
vn -0.9527 -0.2890 -0.0938
vn -0.4709 0.8810 -0.0464
vn -0.8786 -0.4696 -0.0865
vn -0.6332 0.7715 -0.0624
vn -0.7708 -0.6326 -0.0759
vn -0.7708 0.6326 -0.0759
vn -0.6332 -0.7715 -0.0624
vn -0.8786 0.4696 -0.0865
vn -0.4709 -0.8810 -0.0464
vn -0.9527 0.2890 -0.0938
vn -0.7412 -0.6326 -0.2248
vn -0.7412 0.6326 -0.2248
vn -0.6088 -0.7715 -0.1847
vn -0.8448 0.4696 -0.2563
vn -0.4528 -0.8810 -0.1374
vn -0.9161 0.2890 -0.2779
vn -0.2790 -0.9565 -0.0846
vn -0.9524 0.0976 -0.2889
vn -0.0942 0.9951 -0.0286
vn -0.0942 -0.9951 -0.0286
vn -0.9524 -0.0976 -0.2889
vn -0.2790 0.9565 -0.0846
vn -0.9161 -0.2890 -0.2779
vn -0.4528 0.8810 -0.1374
vn -0.8448 -0.4696 -0.2563
vn -0.6088 0.7715 -0.1847
vn -0.0868 0.9951 -0.0464
vn -0.0869 -0.9951 -0.0464
vn -0.8777 -0.0976 -0.4691
vn -0.2571 0.9566 -0.1374
vn -0.8443 -0.2890 -0.4513
vn -0.4173 0.8810 -0.2230
vn -0.7786 -0.4696 -0.4162
vn -0.5611 0.7715 -0.2999
vn -0.6831 -0.6326 -0.3651
vn -0.6831 0.6326 -0.3651
vn -0.5611 -0.7715 -0.2999
vn -0.7786 0.4696 -0.4162
vn -0.4173 -0.8810 -0.2230
vn -0.8443 0.2890 -0.4513
vn -0.2571 -0.9566 -0.1374
vn -0.8777 0.0976 -0.4691
vn -0.5987 0.6326 -0.4913
vn -0.4918 -0.7715 -0.4036
vn -0.6825 0.4696 -0.5601
vn -0.3658 -0.8810 -0.3002
vn -0.7400 0.2890 -0.6073
vn -0.2254 -0.9565 -0.1850
vn -0.7693 0.0976 -0.6314
vn -0.0761 0.9951 -0.0625
vn -0.0761 -0.9951 -0.0625
vn -0.7693 -0.0976 -0.6314
vn -0.2254 0.9565 -0.1850
vn -0.7400 -0.2890 -0.6073
vn -0.3658 0.8810 -0.3002
vn -0.6825 -0.4696 -0.5601
vn -0.4918 0.7715 -0.4036
vn -0.5987 -0.6326 -0.4913
vn -0.6314 -0.0976 -0.7693
vn -0.1850 0.9565 -0.2254
vn -0.6073 -0.2890 -0.7400
vn -0.3002 0.8810 -0.3658
vn -0.5601 -0.4696 -0.6825
vn -0.4036 0.7715 -0.4918
vn -0.4913 -0.6326 -0.5987
vn -0.4913 0.6326 -0.5987
vn -0.4036 -0.7715 -0.4918
vn -0.5601 0.4696 -0.6825
vn -0.3002 -0.8810 -0.3658
vn -0.6073 0.2890 -0.7400
vn -0.1850 -0.9565 -0.2254
vn -0.6314 0.0976 -0.7693
vn -0.0625 0.9951 -0.0761
vn -0.0625 -0.9951 -0.0761
vn -0.2999 -0.7715 -0.5611
vn -0.4162 0.4696 -0.7786
vn -0.2231 -0.8810 -0.4173
vn -0.4513 0.2890 -0.8443
vn -0.1374 -0.9566 -0.2571
vn -0.4691 0.0976 -0.8777
vn -0.0464 0.9951 -0.0869
vn -0.0464 -0.9951 -0.0869
vn -0.4691 -0.0976 -0.8777
vn -0.1374 0.9566 -0.2571
vn -0.4513 -0.2890 -0.8443
vn -0.2230 0.8810 -0.4173
vn -0.4162 -0.4696 -0.7786
vn -0.2999 0.7715 -0.5611
vn -0.3651 -0.6326 -0.6831
vn -0.3651 0.6326 -0.6831
vn -0.0846 0.9566 -0.2790
vn -0.2779 -0.2890 -0.9161
vn -0.1374 0.8810 -0.4528
vn -0.2563 -0.4696 -0.8448
vn -0.1847 0.7715 -0.6088
vn -0.2248 -0.6326 -0.7412
vn -0.2248 0.6326 -0.7412
vn -0.1847 -0.7715 -0.6088
vn -0.2563 0.4696 -0.8448
vn -0.1373 -0.8810 -0.4528
vn -0.2779 0.2890 -0.9161
vn -0.0846 -0.9565 -0.2790
vn -0.2889 0.0976 -0.9524
vn -0.0286 0.9951 -0.0942
vn -0.0286 -0.9951 -0.0942
vn -0.2889 -0.0976 -0.9524
vn -0.0865 0.4696 -0.8786
vn -0.0464 -0.8810 -0.4709
vn -0.0938 0.2890 -0.9527
vn -0.0286 -0.9565 -0.2902
vn -0.0976 0.0976 -0.9904
vn -0.0096 0.9951 -0.0980
vn -0.0096 -0.9951 -0.0980
vn -0.0976 -0.0975 -0.9904
vn -0.0286 0.9565 -0.2902
vn -0.0938 -0.2890 -0.9527
vn -0.0464 0.8810 -0.4709
vn -0.0865 -0.4696 -0.8786
vn -0.0624 0.7715 -0.6332
vn -0.0759 -0.6326 -0.7708
vn -0.0759 0.6326 -0.7708
vn -0.0624 -0.7715 -0.6332
vt 1.000000 0.500000
vt 1.000000 1.000000
vt 0.979167 1.000000
vt 0.979167 0.500000
vt 0.958333 1.000000
vt 0.958333 0.500000
vt 0.937500 1.000000
vt 0.937500 0.500000
vt 0.916667 1.000000
vt 0.916667 0.500000
vt 0.895833 1.000000
vt 0.895833 0.500000
vt 0.875000 1.000000
vt 0.875000 0.500000
vt 0.854167 1.000000
vt 0.854167 0.500000
vt 0.833333 1.000000
vt 0.833333 0.500000
vt 0.812500 1.000000
vt 0.812500 0.500000
vt 0.791667 1.000000
vt 0.791667 0.500000
vt 0.770834 1.000000
vt 0.770834 0.500000
vt 0.750000 1.000000
vt 0.750000 0.500000
vt 0.729167 1.000000
vt 0.729167 0.500000
vt 0.708334 1.000000
vt 0.708334 0.500000
vt 0.687500 1.000000
vt 0.687500 0.500000
vt 0.666667 1.000000
vt 0.666667 0.500000
vt 0.645834 1.000000
vt 0.645834 0.500000
vt 0.625000 1.000000
vt 0.625000 0.500000
vt 0.604167 1.000000
vt 0.604167 0.500000
vt 0.583334 1.000000
vt 0.583334 0.500000
vt 0.562500 1.000000
vt 0.562500 0.500000
vt 0.541667 1.000000
vt 0.541667 0.500000
vt 0.520834 1.000000
vt 0.520834 0.500000
vt 0.500000 1.000000
vt 0.500000 0.500000
vt 0.479167 1.000000
vt 0.479167 0.500000
vt 0.458334 1.000000
vt 0.458334 0.500000
vt 0.437500 1.000000
vt 0.437500 0.500000
vt 0.416667 1.000000
vt 0.416667 0.500000
vt 0.395834 1.000000
vt 0.395834 0.500000
vt 0.375000 1.000000
vt 0.375000 0.500000
vt 0.354167 1.000000
vt 0.354167 0.500000
vt 0.333334 1.000000
vt 0.333334 0.500000
vt 0.312500 1.000000
vt 0.312500 0.500000
vt 0.291667 1.000000
vt 0.291667 0.500000
vt 0.270834 1.000000
vt 0.270834 0.500000
vt 0.250000 1.000000
vt 0.250000 0.500000
vt 0.229167 1.000000
vt 0.229167 0.500000
vt 0.208334 1.000000
vt 0.208334 0.500000
vt 0.187500 1.000000
vt 0.187500 0.500000
vt 0.166667 1.000000
vt 0.166667 0.500000
vt 0.145834 1.000000
vt 0.145834 0.500000
vt 0.125000 1.000000
vt 0.125000 0.500000
vt 0.104167 1.000000
vt 0.104167 0.500000
vt 0.083334 1.000000
vt 0.083334 0.500000
vt 0.062500 1.000000
vt 0.062500 0.500000
vt 0.041667 1.000000
vt 0.041667 0.500000
vt 0.281326 0.487947
vt 0.250000 0.490000
vt 0.218674 0.487947
vt 0.187883 0.481822
vt 0.158156 0.471731
vt 0.130000 0.457846
vt 0.103897 0.440405
vt 0.080294 0.419706
vt 0.059595 0.396103
vt 0.042154 0.370000
vt 0.028269 0.341844
vt 0.018178 0.312117
vt 0.012053 0.281326
vt 0.010000 0.250000
vt 0.012053 0.218674
vt 0.018178 0.187883
vt 0.028269 0.158156
vt 0.042154 0.130000
vt 0.059595 0.103897
vt 0.080294 0.080294
vt 0.103897 0.059595
vt 0.130000 0.042154
vt 0.158156 0.028269
vt 0.187883 0.018178
vt 0.218674 0.012053
vt 0.250000 0.010000
vt 0.281326 0.012053
vt 0.312117 0.018178
vt 0.341844 0.028269
vt 0.370000 0.042154
vt 0.396103 0.059595
vt 0.419706 0.080294
vt 0.440405 0.103897
vt 0.457846 0.130000
vt 0.471731 0.158156
vt 0.481822 0.187883
vt 0.487947 0.218674
vt 0.490000 0.250000
vt 0.487947 0.281326
vt 0.481822 0.312117
vt 0.471731 0.341844
vt 0.457846 0.370000
vt 0.440405 0.396103
vt 0.419706 0.419706
vt 0.396103 0.440405
vt 0.370000 0.457846
vt 0.341844 0.471731
vt 0.312117 0.481822
vt 0.020834 1.000000
vt 0.020834 0.500000
vt 0.000000 1.000000
vt 0.000000 0.500000
vt 0.750000 0.490000
vt 0.781326 0.487947
vt 0.812117 0.481822
vt 0.841844 0.471731
vt 0.870000 0.457846
vt 0.896103 0.440405
vt 0.919706 0.419706
vt 0.940405 0.396103
vt 0.957846 0.370000
vt 0.971731 0.341844
vt 0.981822 0.312117
vt 0.987947 0.281326
vt 0.990000 0.250000
vt 0.987947 0.218674
vt 0.981822 0.187883
vt 0.971731 0.158156
vt 0.957846 0.130000
vt 0.940405 0.103897
vt 0.919706 0.080294
vt 0.896103 0.059595
vt 0.870000 0.042154
vt 0.841844 0.028269
vt 0.812117 0.018178
vt 0.781326 0.012053
vt 0.750000 0.010000
vt 0.718674 0.012053
vt 0.687883 0.018178
vt 0.658156 0.028269
vt 0.630000 0.042154
vt 0.603897 0.059595
vt 0.580294 0.080294
vt 0.559595 0.103897
vt 0.542154 0.130000
vt 0.528269 0.158156
vt 0.518178 0.187883
vt 0.512053 0.218674
vt 0.510000 0.250000
vt 0.512053 0.281326
vt 0.518178 0.312117
vt 0.528269 0.341844
vt 0.542154 0.370000
vt 0.559595 0.396103
vt 0.580294 0.419706
vt 0.603897 0.440405
vt 0.630000 0.457846
vt 0.658156 0.471731
vt 0.687883 0.481822
vt 0.718674 0.487947
vt 0.975000 1.000000
vt 0.975000 0.500000
vt 0.950000 1.000000
vt 0.950000 0.500000
vt 0.925000 1.000000
vt 0.925000 0.500000
vt 0.900000 1.000000
vt 0.900000 0.500000
vt 0.850000 1.000000
vt 0.850000 0.500000
vt 0.825000 1.000000
vt 0.825000 0.500000
vt 0.800000 1.000000
vt 0.800000 0.500000
vt 0.775000 1.000000
vt 0.775000 0.500000
vt 0.725000 1.000000
vt 0.725000 0.500000
vt 0.700000 1.000000
vt 0.700000 0.500000
vt 0.675000 1.000000
vt 0.675000 0.500000
vt 0.650000 1.000000
vt 0.650000 0.500000
vt 0.600000 1.000000
vt 0.600000 0.500000
vt 0.575000 1.000000
vt 0.575000 0.500000
vt 0.550000 1.000000
vt 0.550000 0.500000
vt 0.525000 1.000000
vt 0.525000 0.500000
vt 0.475000 1.000000
vt 0.475000 0.500000
vt 0.450000 1.000000
vt 0.450000 0.500000
vt 0.425000 1.000000
vt 0.425000 0.500000
vt 0.400000 1.000000
vt 0.400000 0.500000
vt 0.375000 1.000000
vt 0.375000 0.500000
vt 0.350000 1.000000
vt 0.350000 0.500000
vt 0.325000 1.000000
vt 0.325000 0.500000
vt 0.300000 1.000000
vt 0.300000 0.500000
vt 0.275000 1.000000
vt 0.275000 0.500000
vt 0.250000 1.000000
vt 0.250000 0.500000
vt 0.225000 1.000000
vt 0.225000 0.500000
vt 0.200000 1.000000
vt 0.200000 0.500000
vt 0.175000 1.000000
vt 0.175000 0.500000
vt 0.150000 1.000000
vt 0.150000 0.500000
vt 0.100000 1.000000
vt 0.100000 0.500000
vt 0.075000 1.000000
vt 0.075000 0.500000
vt 0.050000 1.000000
vt 0.050000 0.500000
vt 0.287544 0.487045
vt 0.212456 0.487045
vt 0.175836 0.478254
vt 0.141042 0.463842
vt 0.108932 0.444164
vt 0.080294 0.419706
vt 0.055836 0.391068
vt 0.036158 0.358958
vt 0.021746 0.324164
vt 0.012955 0.287544
vt 0.012955 0.212456
vt 0.021746 0.175836
vt 0.036158 0.141042
vt 0.055836 0.108932
vt 0.080294 0.080294
vt 0.108932 0.055836
vt 0.141042 0.036158
vt 0.175836 0.021746
vt 0.212456 0.012955
vt 0.287544 0.012955
vt 0.324164 0.021746
vt 0.358958 0.036158
vt 0.391068 0.055836
vt 0.419706 0.080294
vt 0.444164 0.108932
vt 0.463842 0.141042
vt 0.478254 0.175836
vt 0.487045 0.212456
vt 0.487045 0.287544
vt 0.478254 0.324164
vt 0.463842 0.358958
vt 0.444164 0.391068
vt 0.391068 0.444164
vt 0.358958 0.463842
vt 0.324164 0.478254
vt 0.025000 1.000000
vt 0.025000 0.500000
vt 0.000000 1.000000
vt 0.000000 0.500000
vt 0.787544 0.487045
vt 0.824164 0.478254
vt 0.858958 0.463842
vt 0.891068 0.444164
vt 0.944164 0.391068
vt 0.963842 0.358958
vt 0.978254 0.324164
vt 0.987045 0.287544
vt 0.987045 0.212456
vt 0.978254 0.175836
vt 0.963842 0.141042
vt 0.944164 0.108932
vt 0.891068 0.055836
vt 0.858958 0.036158
vt 0.824164 0.021746
vt 0.787544 0.012955
vt 0.712456 0.012955
vt 0.675836 0.021746
vt 0.641042 0.036158
vt 0.608932 0.055836
vt 0.555836 0.108932
vt 0.536158 0.141042
vt 0.521746 0.175836
vt 0.512955 0.212456
vt 0.512955 0.287544
vt 0.521746 0.324164
vt 0.536158 0.358958
vt 0.555836 0.391068
vt 0.608932 0.444164
vt 0.641042 0.463842
vt 0.675836 0.478254
vt 0.712456 0.487045
vt 0.968750 1.000000
vt 0.968750 0.500000
vt 0.937500 1.000000
vt 0.937500 0.500000
vt 0.906250 1.000000
vt 0.906250 0.500000
vt 0.875000 1.000000
vt 0.875000 0.500000
vt 0.843750 1.000000
vt 0.843750 0.500000
vt 0.812500 1.000000
vt 0.812500 0.500000
vt 0.781250 1.000000
vt 0.781250 0.500000
vt 0.750000 1.000000
vt 0.750000 0.500000
vt 0.718750 1.000000
vt 0.718750 0.500000
vt 0.687500 1.000000
vt 0.687500 0.500000
vt 0.656250 1.000000
vt 0.656250 0.500000
vt 0.625000 1.000000
vt 0.625000 0.500000
vt 0.593750 1.000000
vt 0.593750 0.500000
vt 0.562500 1.000000
vt 0.562500 0.500000
vt 0.531250 1.000000
vt 0.531250 0.500000
vt 0.500000 1.000000
vt 0.500000 0.500000
vt 0.468750 1.000000
vt 0.468750 0.500000
vt 0.437500 1.000000
vt 0.437500 0.500000
vt 0.406250 1.000000
vt 0.406250 0.500000
vt 0.375000 1.000000
vt 0.375000 0.500000
vt 0.343750 1.000000
vt 0.343750 0.500000
vt 0.312500 1.000000
vt 0.312500 0.500000
vt 0.281250 1.000000
vt 0.281250 0.500000
vt 0.250000 1.000000
vt 0.250000 0.500000
vt 0.218750 1.000000
vt 0.218750 0.500000
vt 0.187500 1.000000
vt 0.187500 0.500000
vt 0.156250 1.000000
vt 0.156250 0.500000
vt 0.125000 1.000000
vt 0.125000 0.500000
vt 0.093750 1.000000
vt 0.093750 0.500000
vt 0.062500 1.000000
vt 0.062500 0.500000
vt 0.296822 0.485388
vt 0.203178 0.485388
vt 0.116663 0.449553
vt 0.050447 0.383337
vt 0.028269 0.341844
vt 0.014612 0.296822
vt 0.014612 0.203178
vt 0.028269 0.158156
vt 0.050447 0.116663
vt 0.116663 0.050447
vt 0.158156 0.028269
vt 0.203178 0.014612
vt 0.296822 0.014612
vt 0.341844 0.028269
vt 0.383337 0.050447
vt 0.449553 0.116663
vt 0.485388 0.203178
vt 0.485388 0.296822
vt 0.449553 0.383337
vt 0.383337 0.449553
vt 0.031250 1.000000
vt 0.031250 0.500000
vt 0.000000 1.000000
vt 0.000000 0.500000
vt 0.796822 0.485388
vt 0.883337 0.449553
vt 0.949553 0.383337
vt 0.985388 0.296822
vt 0.985388 0.203178
vt 0.949553 0.116663
vt 0.883337 0.050447
vt 0.841844 0.028269
vt 0.796822 0.014612
vt 0.703178 0.014612
vt 0.658156 0.028269
vt 0.616663 0.050447
vt 0.550447 0.116663
vt 0.514612 0.203178
vt 0.514612 0.296822
vt 0.550447 0.383337
vt 0.616663 0.449553
vt 0.703178 0.485388
vt 0.750000 0.187500
vt 0.750000 0.250000
vt 0.718750 0.250000
vt 0.718750 0.187500
vt 0.750000 0.625000
vt 0.750000 0.687500
vt 0.718750 0.687500
vt 0.718750 0.625000
vt 0.750000 0.125000
vt 0.718750 0.125000
vt 0.750000 0.562500
vt 0.718750 0.562500
vt 0.750000 0.062500
vt 0.718750 0.062500
vt 0.750000 0.937500
vt 0.734375 1.000000
vt 0.718750 0.937500
vt 0.734375 0.000000
vt 0.750000 0.437500
vt 0.718750 0.437500
vt 0.750000 0.875000
vt 0.718750 0.875000
vt 0.750000 0.375000
vt 0.718750 0.375000
vt 0.750000 0.812500
vt 0.718750 0.812500
vt 0.750000 0.312500
vt 0.718750 0.312500
vt 0.750000 0.750000
vt 0.718750 0.750000
vt 0.687500 0.312500
vt 0.687500 0.250000
vt 0.687500 0.750000
vt 0.687500 0.687500
vt 0.687500 0.187500
vt 0.687500 0.625000
vt 0.687500 0.125000
vt 0.687500 0.562500
vt 0.687500 0.062500
vt 0.703125 1.000000
vt 0.687500 0.937500
vt 0.703125 0.000000
vt 0.687500 0.437500
vt 0.687500 0.875000
vt 0.687500 0.375000
vt 0.687500 0.812500
vt 0.671875 1.000000
vt 0.656250 0.937500
vt 0.671875 0.000000
vt 0.656250 0.062500
vt 0.656250 0.437500
vt 0.656250 0.875000
vt 0.656250 0.375000
vt 0.656250 0.812500
vt 0.656250 0.312500
vt 0.656250 0.750000
vt 0.656250 0.250000
vt 0.656250 0.687500
vt 0.656250 0.187500
vt 0.656250 0.625000
vt 0.656250 0.125000
vt 0.656250 0.562500
vt 0.625000 0.750000
vt 0.625000 0.687500
vt 0.625000 0.250000
vt 0.625000 0.187500
vt 0.625000 0.625000
vt 0.625000 0.125000
vt 0.625000 0.562500
vt 0.625000 0.062500
vt 0.640625 1.000000
vt 0.625000 0.937500
vt 0.640625 0.000000
vt 0.625000 0.437500
vt 0.625000 0.875000
vt 0.625000 0.375000
vt 0.625000 0.812500
vt 0.625000 0.312500
vt 0.593750 0.437500
vt 0.593750 0.937500
vt 0.593750 0.875000
vt 0.593750 0.375000
vt 0.593750 0.812500
vt 0.593750 0.312500
vt 0.593750 0.750000
vt 0.593750 0.250000
vt 0.593750 0.687500
vt 0.593750 0.187500
vt 0.593750 0.625000
vt 0.593750 0.125000
vt 0.593750 0.562500
vt 0.593750 0.062500
vt 0.609375 1.000000
vt 0.609375 0.000000
vt 0.562500 0.250000
vt 0.562500 0.187500
vt 0.562500 0.687500
vt 0.562500 0.625000
vt 0.562500 0.125000
vt 0.562500 0.562500
vt 0.562500 0.062500
vt 0.578125 1.000000
vt 0.562500 0.937500
vt 0.578125 0.000000
vt 0.562500 0.437500
vt 0.562500 0.875000
vt 0.562500 0.375000
vt 0.562500 0.812500
vt 0.562500 0.312500
vt 0.562500 0.750000
vt 0.531250 0.437500
vt 0.531250 0.375000
vt 0.531250 0.875000
vt 0.531250 0.812500
vt 0.531250 0.312500
vt 0.531250 0.750000
vt 0.531250 0.250000
vt 0.531250 0.687500
vt 0.531250 0.187500
vt 0.531250 0.625000
vt 0.531250 0.125000
vt 0.531250 0.562500
vt 0.531250 0.062500
vt 0.546875 1.000000
vt 0.531250 0.937500
vt 0.546875 0.000000
vt 0.500000 0.187500
vt 0.500000 0.125000
vt 0.500000 0.625000
vt 0.500000 0.562500
vt 0.500000 0.062500
vt 0.500000 0.500000
vt 0.515625 1.000000
vt 0.500000 0.937500
vt 0.515625 0.000000
vt 0.500000 0.437500
vt 0.500000 0.875000
vt 0.500000 0.375000
vt 0.500000 0.812500
vt 0.500000 0.312500
vt 0.500000 0.750000
vt 0.500000 0.250000
vt 0.500000 0.687500
vt 0.468750 0.875000
vt 0.468750 0.812500
vt 0.468750 0.375000
vt 0.468750 0.312500
vt 0.468750 0.750000
vt 0.468750 0.250000
vt 0.468750 0.687500
vt 0.468750 0.187500
vt 0.468750 0.625000
vt 0.468750 0.125000
vt 0.468750 0.562500
vt 0.468750 0.062500
vt 0.484375 1.000000
vt 0.468750 0.937500
vt 0.484375 0.000000
vt 0.468750 0.437500
vt 0.437500 0.625000
vt 0.437500 0.562500
vt 0.437500 0.125000
vt 0.437500 0.062500
vt 0.437500 0.500000
vt 0.453125 1.000000
vt 0.437500 0.937500
vt 0.453125 0.000000
vt 0.437500 0.437500
vt 0.437500 0.875000
vt 0.437500 0.375000
vt 0.437500 0.812500
vt 0.437500 0.312500
vt 0.437500 0.750000
vt 0.437500 0.250000
vt 0.437500 0.687500
vt 0.437500 0.187500
vt 0.406250 0.375000
vt 0.406250 0.312500
vt 0.406250 0.812500
vt 0.406250 0.750000
vt 0.406250 0.250000
vt 0.406250 0.687500
vt 0.406250 0.187500
vt 0.406250 0.625000
vt 0.406250 0.125000
vt 0.406250 0.562500
vt 0.406250 0.062500
vt 0.421875 1.000000
vt 0.406250 0.937500
vt 0.421875 0.000000
vt 0.406250 0.437500
vt 0.406250 0.875000
vt 0.375000 0.125000
vt 0.375000 0.062500
vt 0.375000 0.562500
vt 0.390625 1.000000
vt 0.375000 0.937500
vt 0.390625 0.000000
vt 0.375000 0.437500
vt 0.375000 0.875000
vt 0.375000 0.375000
vt 0.375000 0.812500
vt 0.375000 0.312500
vt 0.375000 0.750000
vt 0.375000 0.250000
vt 0.375000 0.687500
vt 0.375000 0.187500
vt 0.375000 0.625000
vt 0.343750 0.812500
vt 0.343750 0.750000
vt 0.343750 0.312500
vt 0.343750 0.250000
vt 0.343750 0.687500
vt 0.343750 0.187500
vt 0.343750 0.625000
vt 0.343750 0.125000
vt 0.343750 0.562500
vt 0.343750 0.062500
vt 0.359375 1.000000
vt 0.343750 0.937500
vt 0.359375 0.000000
vt 0.343750 0.437500
vt 0.343750 0.875000
vt 0.343750 0.375000
vt 0.312500 0.562500
vt 0.328125 1.000000
vt 0.312500 0.937500
vt 0.328125 0.000000
vt 0.312500 0.062500
vt 0.312500 0.437500
vt 0.312500 0.875000
vt 0.312500 0.375000
vt 0.312500 0.812500
vt 0.312500 0.312500
vt 0.312500 0.750000
vt 0.312500 0.250000
vt 0.312500 0.687500
vt 0.312500 0.187500
vt 0.312500 0.625000
vt 0.312500 0.125000
vt 0.281250 0.312500
vt 0.281250 0.250000
vt 0.281250 0.750000
vt 0.281250 0.687500
vt 0.281250 0.187500
vt 0.281250 0.625000
vt 0.281250 0.125000
vt 0.281250 0.562500
vt 0.281250 0.062500
vt 0.296875 1.000000
vt 0.281250 0.937500
vt 0.296875 0.000000
vt 0.281250 0.437500
vt 0.281250 0.875000
vt 0.281250 0.375000
vt 0.281250 0.812500
vt 0.265625 0.000000
vt 0.250000 0.062500
vt 0.250000 0.500000
vt 0.250000 0.437500
vt 0.250000 0.937500
vt 0.250000 0.875000
vt 0.250000 0.375000
vt 0.250000 0.812500
vt 0.250000 0.312500
vt 0.250000 0.750000
vt 0.250000 0.250000
vt 0.250000 0.687500
vt 0.250000 0.187500
vt 0.250000 0.625000
vt 0.250000 0.125000
vt 0.250000 0.562500
vt 0.265625 1.000000
vt 0.218750 0.250000
vt 0.218750 0.187500
vt 0.218750 0.687500
vt 0.218750 0.625000
vt 0.218750 0.125000
vt 0.218750 0.562500
vt 0.218750 0.062500
vt 0.234375 1.000000
vt 0.218750 0.937500
vt 0.234375 0.000000
vt 0.218750 0.437500
vt 0.218750 0.875000
vt 0.218750 0.375000
vt 0.218750 0.812500
vt 0.218750 0.312500
vt 0.218750 0.750000
vt 0.187500 0.937500
vt 0.187500 0.875000
vt 0.187500 0.437500
vt 0.187500 0.375000
vt 0.187500 0.812500
vt 0.187500 0.312500
vt 0.187500 0.750000
vt 0.187500 0.250000
vt 0.187500 0.687500
vt 0.187500 0.187500
vt 0.187500 0.625000
vt 0.187500 0.125000
vt 0.187500 0.562500
vt 0.187500 0.062500
vt 0.203125 1.000000
vt 0.203125 0.000000
vt 0.156250 0.687500
vt 0.156250 0.625000
vt 0.156250 0.187500
vt 0.156250 0.125000
vt 0.156250 0.562500
vt 0.156250 0.062500
vt 0.156250 0.500000
vt 0.171875 1.000000
vt 0.156250 0.937500
vt 0.171875 0.000000
vt 0.156250 0.437500
vt 0.156250 0.875000
vt 0.156250 0.375000
vt 0.156250 0.812500
vt 0.156250 0.312500
vt 0.156250 0.750000
vt 0.156250 0.250000
vt 0.125000 0.437500
vt 0.125000 0.375000
vt 0.125000 0.875000
vt 0.125000 0.812500
vt 0.125000 0.312500
vt 0.125000 0.750000
vt 0.125000 0.250000
vt 0.125000 0.687500
vt 0.125000 0.187500
vt 0.125000 0.625000
vt 0.125000 0.125000
vt 0.125000 0.562500
vt 0.125000 0.062500
vt 0.125000 0.500000
vt 0.140625 1.000000
vt 0.125000 0.937500
vt 0.140625 0.000000
vt 0.093750 0.187500
vt 0.093750 0.125000
vt 0.093750 0.625000
vt 0.093750 0.562500
vt 0.093750 0.062500
vt 0.109375 1.000000
vt 0.093750 0.937500
vt 0.109375 0.000000
vt 0.093750 0.437500
vt 0.093750 0.875000
vt 0.093750 0.375000
vt 0.093750 0.812500
vt 0.093750 0.312500
vt 0.093750 0.750000
vt 0.093750 0.250000
vt 0.093750 0.687500
vt 0.062500 0.875000
vt 0.062500 0.812500
vt 0.062500 0.375000
vt 0.062500 0.312500
vt 0.062500 0.750000
vt 0.062500 0.250000
vt 0.062500 0.687500
vt 0.062500 0.187500
vt 0.062500 0.625000
vt 0.062500 0.125000
vt 0.062500 0.562500
vt 0.062500 0.062500
vt 0.078125 1.000000
vt 0.062500 0.937500
vt 0.078125 0.000000
vt 0.062500 0.437500
vt 0.031250 0.625000
vt 0.031250 0.562500
vt 0.031250 0.125000
vt 0.031250 0.062500
vt 0.031250 0.500000
vt 0.046875 1.000000
vt 0.031250 0.937500
vt 0.046875 0.000000
vt 0.031250 0.437500
vt 0.031250 0.875000
vt 0.031250 0.375000
vt 0.031250 0.812500
vt 0.031250 0.312500
vt 0.031250 0.750000
vt 0.031250 0.250000
vt 0.031250 0.687500
vt 0.031250 0.187500
vt 0.000000 0.375000
vt 0.000000 0.312500
vt 0.000000 0.812500
vt 0.000000 0.750000
vt 0.000000 0.250000
vt 0.000000 0.687500
vt 0.000000 0.187500
vt 0.000000 0.625000
vt 0.000000 0.125000
vt 0.000000 0.562500
vt 0.000000 0.062500
vt 0.015625 1.000000
vt 0.000000 0.937500
vt 0.015625 0.000000
vt 0.000000 0.437500
vt 0.000000 0.875000
vt 1.000000 0.062500
vt 1.000000 0.125000
vt 0.968750 0.125000
vt 0.968750 0.062500
vt 1.000000 0.562500
vt 0.968750 0.562500
vt 0.968750 0.500000
vt 1.000000 0.937500
vt 0.984375 1.000000
vt 0.968750 0.937500
vt 0.984375 0.000000
vt 1.000000 0.437500
vt 0.968750 0.437500
vt 1.000000 0.875000
vt 0.968750 0.875000
vt 1.000000 0.375000
vt 0.968750 0.375000
vt 1.000000 0.812500
vt 0.968750 0.812500
vt 1.000000 0.312500
vt 0.968750 0.312500
vt 1.000000 0.750000
vt 0.968750 0.750000
vt 1.000000 0.250000
vt 0.968750 0.250000
vt 1.000000 0.687500
vt 0.968750 0.687500
vt 1.000000 0.187500
vt 0.968750 0.187500
vt 1.000000 0.625000
vt 0.968750 0.625000
vt 0.937500 0.312500
vt 0.937500 0.250000
vt 0.937500 0.750000
vt 0.937500 0.687500
vt 0.937500 0.187500
vt 0.937500 0.625000
vt 0.937500 0.125000
vt 0.937500 0.562500
vt 0.937500 0.062500
vt 0.953125 1.000000
vt 0.937500 0.937500
vt 0.953125 0.000000
vt 0.937500 0.437500
vt 0.937500 0.875000
vt 0.937500 0.375000
vt 0.937500 0.812500
vt 0.921875 1.000000
vt 0.906250 0.937500
vt 0.921875 0.000000
vt 0.906250 0.062500
vt 0.906250 0.437500
vt 0.906250 0.875000
vt 0.906250 0.375000
vt 0.906250 0.812500
vt 0.906250 0.312500
vt 0.906250 0.750000
vt 0.906250 0.250000
vt 0.906250 0.687500
vt 0.906250 0.187500
vt 0.906250 0.625000
vt 0.906250 0.125000
vt 0.906250 0.562500
vt 0.875000 0.750000
vt 0.875000 0.687500
vt 0.875000 0.250000
vt 0.875000 0.187500
vt 0.875000 0.625000
vt 0.875000 0.125000
vt 0.875000 0.562500
vt 0.875000 0.062500
vt 0.875000 0.500000
vt 0.890625 1.000000
vt 0.875000 0.937500
vt 0.890625 0.000000
vt 0.875000 0.437500
vt 0.875000 0.875000
vt 0.875000 0.375000
vt 0.875000 0.812500
vt 0.875000 0.312500
vt 0.843750 0.500000
vt 0.843750 0.437500
vt 0.843750 0.937500
vt 0.843750 0.875000
vt 0.843750 0.375000
vt 0.843750 0.812500
vt 0.843750 0.312500
vt 0.843750 0.750000
vt 0.843750 0.250000
vt 0.843750 0.687500
vt 0.843750 0.187500
vt 0.843750 0.625000
vt 0.843750 0.125000
vt 0.843750 0.562500
vt 0.843750 0.062500
vt 0.859375 1.000000
vt 0.859375 0.000000
vt 0.812500 0.250000
vt 0.812500 0.187500
vt 0.812500 0.687500
vt 0.812500 0.625000
vt 0.812500 0.125000
vt 0.812500 0.562500
vt 0.812500 0.062500
vt 0.812500 0.500000
vt 0.828125 1.000000
vt 0.812500 0.937500
vt 0.828125 0.000000
vt 0.812500 0.437500
vt 0.812500 0.875000
vt 0.812500 0.375000
vt 0.812500 0.812500
vt 0.812500 0.312500
vt 0.812500 0.750000
vt 0.781250 0.937500
vt 0.781250 0.875000
vt 0.781250 0.437500
vt 0.781250 0.375000
vt 0.781250 0.812500
vt 0.781250 0.312500
vt 0.781250 0.750000
vt 0.781250 0.250000
vt 0.781250 0.687500
vt 0.781250 0.187500
vt 0.781250 0.625000
vt 0.781250 0.125000
vt 0.781250 0.562500
vt 0.781250 0.062500
vt 0.781250 0.500000
vt 0.796875 1.000000
vt 0.796875 0.000000
vt 0.765625 1.000000
vt 0.765625 0.000000
s 0
usemtl piece_black
f 1/1/1 2/2/1 4/3/1 3/4/1
f 3/4/2 4/3/2 6/5/2 5/6/2
f 5/6/3 6/5/3 8/7/3 7/8/3
f 7/8/4 8/7/4 10/9/4 9/10/4
f 9/10/5 10/9/5 12/11/5 11/12/5
f 11/12/6 12/11/6 14/13/6 13/14/6
f 13/14/7 14/13/7 16/15/7 15/16/7
f 15/16/8 16/15/8 18/17/8 17/18/8
f 17/18/9 18/17/9 20/19/9 19/20/9
f 19/20/10 20/19/10 22/21/10 21/22/10
f 21/22/11 22/21/11 24/23/11 23/24/11
f 23/24/12 24/23/12 26/25/12 25/26/12
f 25/26/13 26/25/13 28/27/13 27/28/13
f 27/28/14 28/27/14 30/29/14 29/30/14
f 29/30/15 30/29/15 32/31/15 31/32/15
f 31/32/16 32/31/16 34/33/16 33/34/16
f 33/34/17 34/33/17 36/35/17 35/36/17
f 35/36/18 36/35/18 38/37/18 37/38/18
f 37/38/19 38/37/19 40/39/19 39/40/19
f 39/40/20 40/39/20 42/41/20 41/42/20
f 41/42/21 42/41/21 44/43/21 43/44/21
f 43/44/22 44/43/22 46/45/22 45/46/22
f 45/46/23 46/45/23 48/47/23 47/48/23
f 47/48/24 48/47/24 50/49/24 49/50/24
f 49/50/25 50/49/25 52/51/25 51/52/25
f 51/52/26 52/51/26 54/53/26 53/54/26
f 53/54/27 54/53/27 56/55/27 55/56/27
f 55/56/28 56/55/28 58/57/28 57/58/28
f 57/58/29 58/57/29 60/59/29 59/60/29
f 59/60/30 60/59/30 62/61/30 61/62/30
f 61/62/31 62/61/31 64/63/31 63/64/31
f 63/64/32 64/63/32 66/65/32 65/66/32
f 65/66/33 66/65/33 68/67/33 67/68/33
f 67/68/34 68/67/34 70/69/34 69/70/34
f 69/70/35 70/69/35 72/71/35 71/72/35
f 71/72/36 72/71/36 74/73/36 73/74/36
f 73/74/37 74/73/37 76/75/37 75/76/37
f 75/76/38 76/75/38 78/77/38 77/78/38
f 77/78/39 78/77/39 80/79/39 79/80/39
f 79/80/40 80/79/40 82/81/40 81/82/40
f 81/82/41 82/81/41 84/83/41 83/84/41
f 83/84/42 84/83/42 86/85/42 85/86/42
f 85/86/43 86/85/43 88/87/43 87/88/43
f 87/88/44 88/87/44 90/89/44 89/90/44
f 89/90/45 90/89/45 92/91/45 91/92/45
f 91/92/46 92/91/46 94/93/46 93/94/46
f 4/95/47 2/96/47 96/97/47 94/98/47 92/99/47 90/100/47 88/101/47 86/102/47 84/103/47 82/104/47 80/105/47 78/106/47 76/107/47 74/108/47 72/109/47 70/110/47 68/111/47 66/112/47 64/113/47 62/114/47 60/115/47 58/116/47 56/117/47 54/118/47 52/119/47 50/120/47 48/121/47 46/122/47 44/123/47 42/124/47 40/125/47 38/126/47 36/127/47 34/128/47 32/129/47 30/130/47 28/131/47 26/132/47 24/133/47 22/134/47 20/135/47 18/136/47 16/137/47 14/138/47 12/139/47 10/140/47 8/141/47 6/142/47
f 93/94/48 94/93/48 96/143/48 95/144/48
f 95/144/49 96/143/49 2/145/49 1/146/49
f 1/147/50 3/148/50 5/149/50 7/150/50 9/151/50 11/152/50 13/153/50 15/154/50 17/155/50 19/156/50 21/157/50 23/158/50 25/159/50 27/160/50 29/161/50 31/162/50 33/163/50 35/164/50 37/165/50 39/166/50 41/167/50 43/168/50 45/169/50 47/170/50 49/171/50 51/172/50 53/173/50 55/174/50 57/175/50 59/176/50 61/177/50 63/178/50 65/179/50 67/180/50 69/181/50 71/182/50 73/183/50 75/184/50 77/185/50 79/186/50 81/187/50 83/188/50 85/189/50 87/190/50 89/191/50 91/192/50 93/193/50 95/194/50
f 97/1/51 98/2/51 100/195/51 99/196/51
f 99/196/52 100/195/52 102/197/52 101/198/52
f 101/198/53 102/197/53 104/199/53 103/200/53
f 103/200/54 104/199/54 106/201/54 105/202/54
f 105/202/55 106/201/55 108/13/55 107/14/55
f 107/14/56 108/13/56 110/203/56 109/204/56
f 109/204/57 110/203/57 112/205/57 111/206/57
f 111/206/58 112/205/58 114/207/58 113/208/58
f 113/208/59 114/207/59 116/209/59 115/210/59
f 115/210/60 116/209/60 118/25/60 117/26/60
f 117/26/61 118/25/61 120/211/61 119/212/61
f 119/212/62 120/211/62 122/213/62 121/214/62
f 121/214/63 122/213/63 124/215/63 123/216/63
f 123/216/64 124/215/64 126/217/64 125/218/64
f 125/218/65 126/217/65 128/37/65 127/38/65
f 127/38/66 128/37/66 130/219/66 129/220/66
f 129/220/67 130/219/67 132/221/67 131/222/67
f 131/222/68 132/221/68 134/223/68 133/224/68
f 133/224/69 134/223/69 136/225/69 135/226/69
f 135/226/70 136/225/70 138/49/70 137/50/70
f 137/50/71 138/49/71 140/227/71 139/228/71
f 139/228/72 140/227/72 142/229/72 141/230/72
f 141/230/73 142/229/73 144/231/73 143/232/73
f 143/232/74 144/231/74 146/233/74 145/234/74
f 145/234/75 146/233/75 148/235/75 147/236/75
f 147/236/76 148/235/76 150/237/76 149/238/76
f 149/238/77 150/237/77 152/239/77 151/240/77
f 151/240/78 152/239/78 154/241/78 153/242/78
f 153/242/79 154/241/79 156/243/79 155/244/79
f 155/244/80 156/243/80 158/245/80 157/246/80
f 157/246/81 158/245/81 160/247/81 159/248/81
f 159/248/82 160/247/82 162/249/82 161/250/82
f 161/250/83 162/249/83 164/251/83 163/252/83
f 163/252/84 164/251/84 166/253/84 165/254/84
f 165/254/85 166/253/85 168/85/85 167/86/85
f 167/86/86 168/85/86 170/255/86 169/256/86
f 169/256/87 170/255/87 172/257/87 171/258/87
f 171/258/88 172/257/88 174/259/88 173/260/88
f 100/261/47 98/96/47 176/262/47 174/263/47 172/264/47 170/265/47 168/266/47 166/267/47 164/268/47 162/269/47 160/270/47 158/108/47 156/271/47 154/272/47 152/273/47 150/274/47 148/275/47 146/276/47 144/277/47 142/278/47 140/279/47 138/120/47 136/280/47 134/281/47 132/282/47 130/283/47 128/284/47 126/285/47 124/286/47 122/287/47 120/288/47 118/132/47 116/289/47 114/290/47 112/291/47 110/292/47 108/138/47 106/293/47 104/294/47 102/295/47
f 173/260/89 174/259/89 176/296/89 175/297/89
f 175/297/90 176/296/90 98/298/90 97/299/90
f 97/147/50 99/300/50 101/301/50 103/302/50 105/303/50 107/153/50 109/304/50 111/305/50 113/306/50 115/307/50 117/159/50 119/308/50 121/309/50 123/310/50 125/311/50 127/165/50 129/312/50 131/313/50 133/314/50 135/315/50 137/171/50 139/316/50 141/317/50 143/318/50 145/319/50 147/177/50 149/320/50 151/321/50 153/322/50 155/323/50 157/183/50 159/324/50 161/325/50 163/326/50 165/327/50 167/189/50 169/328/50 171/329/50 173/330/50 175/331/50
f 177/1/1 178/2/1 180/3/1 179/4/1
f 179/4/2 180/3/2 182/5/2 181/6/2
f 181/6/3 182/5/3 184/7/3 183/8/3
f 183/8/4 184/7/4 186/9/4 185/10/4
f 185/10/5 186/9/5 188/11/5 187/12/5
f 187/12/6 188/11/6 190/13/6 189/14/6
f 189/14/7 190/13/7 192/15/7 191/16/7
f 191/16/8 192/15/8 194/17/8 193/18/8
f 193/18/9 194/17/9 196/19/9 195/20/9
f 195/20/10 196/19/10 198/21/10 197/22/10
f 197/22/11 198/21/11 200/23/11 199/24/11
f 199/24/12 200/23/12 202/25/12 201/26/12
f 201/26/13 202/25/13 204/27/13 203/28/13
f 203/28/14 204/27/14 206/29/14 205/30/14
f 205/30/15 206/29/15 208/31/15 207/32/15
f 207/32/16 208/31/16 210/33/16 209/34/16
f 209/34/17 210/33/17 212/35/17 211/36/17
f 211/36/18 212/35/18 214/37/18 213/38/18
f 213/38/19 214/37/19 216/39/19 215/40/19
f 215/40/20 216/39/20 218/41/20 217/42/20
f 217/42/21 218/41/21 220/43/21 219/44/21
f 219/44/22 220/43/22 222/45/22 221/46/22
f 221/46/23 222/45/23 224/47/23 223/48/23
f 223/48/24 224/47/24 226/49/24 225/50/24
f 225/50/25 226/49/25 228/51/25 227/52/25
f 227/52/26 228/51/26 230/53/26 229/54/26
f 229/54/27 230/53/27 232/55/27 231/56/27
f 231/56/28 232/55/28 234/57/28 233/58/28
f 233/58/29 234/57/29 236/59/29 235/60/29
f 235/60/30 236/59/30 238/61/30 237/62/30
f 237/62/31 238/61/31 240/63/31 239/64/31
f 239/64/32 240/63/32 242/65/32 241/66/32
f 241/66/33 242/65/33 244/67/33 243/68/33
f 243/68/34 244/67/34 246/69/34 245/70/34
f 245/70/35 246/69/35 248/71/35 247/72/35
f 247/72/36 248/71/36 250/73/36 249/74/36
f 249/74/37 250/73/37 252/75/37 251/76/37
f 251/76/38 252/75/38 254/77/38 253/78/38
f 253/78/39 254/77/39 256/79/39 255/80/39
f 255/80/40 256/79/40 258/81/40 257/82/40
f 257/82/41 258/81/41 260/83/41 259/84/41
f 259/84/42 260/83/42 262/85/42 261/86/42
f 261/86/43 262/85/43 264/87/43 263/88/43
f 263/88/44 264/87/44 266/89/44 265/90/44
f 265/90/45 266/89/45 268/91/45 267/92/45
f 267/92/46 268/91/46 270/93/46 269/94/46
f 180/95/47 178/96/47 272/97/47 270/98/47 268/99/47 266/100/47 264/101/47 262/102/47 260/103/47 258/104/47 256/105/47 254/106/47 252/107/47 250/108/47 248/109/47 246/110/47 244/111/47 242/112/47 240/113/47 238/114/47 236/115/47 234/116/47 232/117/47 230/118/47 228/119/47 226/120/47 224/121/47 222/122/47 220/123/47 218/124/47 216/125/47 214/126/47 212/127/47 210/128/47 208/129/47 206/130/47 204/131/47 202/132/47 200/133/47 198/134/47 196/135/47 194/136/47 192/137/47 190/138/47 188/139/47 186/140/47 184/141/47 182/142/47
f 269/94/48 270/93/48 272/143/48 271/144/48
f 271/144/49 272/143/49 178/145/49 177/146/49
f 177/147/50 179/148/50 181/149/50 183/150/50 185/151/50 187/152/50 189/153/50 191/154/50 193/155/50 195/156/50 197/157/50 199/158/50 201/159/50 203/160/50 205/161/50 207/162/50 209/163/50 211/164/50 213/165/50 215/166/50 217/167/50 219/168/50 221/169/50 223/170/50 225/171/50 227/172/50 229/173/50 231/174/50 233/175/50 235/176/50 237/177/50 239/178/50 241/179/50 243/180/50 245/181/50 247/182/50 249/183/50 251/184/50 253/185/50 255/186/50 257/187/50 259/188/50 261/189/50 263/190/50 265/191/50 267/192/50 269/193/50 271/194/50
f 273/1/91 274/2/91 276/332/91 275/333/91
f 275/333/92 276/332/92 278/334/92 277/335/92
f 277/335/93 278/334/93 280/336/93 279/337/93
f 279/337/94 280/336/94 282/338/94 281/339/94
f 281/339/95 282/338/95 284/340/95 283/341/95
f 283/341/96 284/340/96 286/342/96 285/343/96
f 285/343/97 286/342/97 288/344/97 287/345/97
f 287/345/98 288/344/98 290/346/98 289/347/98
f 289/347/99 290/346/99 292/348/99 291/349/99
f 291/349/100 292/348/100 294/350/100 293/351/100
f 293/351/101 294/350/101 296/352/101 295/353/101
f 295/353/102 296/352/102 298/354/102 297/355/102
f 297/355/103 298/354/103 300/356/103 299/357/103
f 299/357/104 300/356/104 302/358/104 301/359/104
f 301/359/105 302/358/105 304/360/105 303/361/105
f 303/361/106 304/360/106 306/362/106 305/363/106
f 305/363/107 306/362/107 308/364/107 307/365/107
f 307/365/108 308/364/108 310/366/108 309/367/108
f 309/367/109 310/366/109 312/368/109 311/369/109
f 311/369/110 312/368/110 314/370/110 313/371/110
f 313/371/111 314/370/111 316/372/111 315/373/111
f 315/373/112 316/372/112 318/374/112 317/375/112
f 317/375/113 318/374/113 320/376/113 319/377/113
f 319/377/114 320/376/114 322/378/114 321/379/114
f 321/379/115 322/378/115 324/380/115 323/381/115
f 323/381/116 324/380/116 326/382/116 325/383/116
f 325/383/117 326/382/117 328/384/117 327/385/117
f 327/385/118 328/384/118 330/386/118 329/387/118
f 329/387/119 330/386/119 332/388/119 331/389/119
f 331/389/120 332/388/120 334/390/120 333/391/120
f 276/392/47 274/96/47 336/393/47 334/99/47 332/394/47 330/102/47 328/395/47 326/396/47 324/397/47 322/108/47 320/398/47 318/399/47 316/400/47 314/114/47 312/401/47 310/402/47 308/403/47 306/120/47 304/404/47 302/405/47 300/406/47 298/126/47 296/407/47 294/129/47 292/408/47 290/132/47 288/409/47 286/135/47 284/410/47 282/138/47 280/411/47 278/141/47
f 333/391/121 334/390/121 336/412/121 335/413/121
f 335/413/122 336/412/122 274/414/122 273/415/122
f 273/147/50 275/416/50 277/150/50 279/417/50 281/153/50 283/418/50 285/156/50 287/419/50 289/159/50 291/420/50 293/162/50 295/421/50 297/165/50 299/422/50 301/423/50 303/424/50 305/171/50 307/425/50 309/426/50 311/427/50 313/177/50 315/428/50 317/180/50 319/429/50 321/183/50 323/430/50 325/186/50 327/431/50 329/189/50 331/432/50 333/192/50 335/433/50
f 345/434/123 817/435/123 359/436/123 360/437/123
f 341/438/124 814/439/124 352/440/124 353/441/124
f 818/442/125 345/434/125 360/437/125 361/443/125
f 815/444/126 341/438/126 353/441/126 354/445/126
f 346/446/127 818/442/127 361/443/127 362/447/127
f 342/347/128 815/444/128 354/445/128 355/349/128
f 338/448/129 337/449/129 348/450/129
f 347/451/130 346/446/130 362/447/130
f 343/452/131 342/347/131 355/349/131 356/453/131
f 813/454/132 338/448/132 348/450/132 349/455/132
f 816/456/133 343/452/133 356/453/133 357/457/133
f 339/458/134 813/454/134 349/455/134 350/459/134
f 344/460/135 816/456/135 357/457/135 358/461/135
f 340/462/136 339/458/136 350/459/136 351/463/136
f 817/435/137 344/460/137 358/461/137 359/436/137
f 814/439/138 340/462/138 351/463/138 352/440/138
f 359/436/139 358/461/139 373/464/139 374/465/139
f 352/440/140 351/463/140 366/466/140 367/467/140
f 360/437/141 359/436/141 374/465/141 375/468/141
f 353/441/142 352/440/142 367/467/142 368/469/142
f 361/443/143 360/437/143 375/468/143 376/470/143
f 354/445/144 353/441/144 368/469/144 369/471/144
f 362/447/145 361/443/145 376/470/145 377/472/145
f 355/349/146 354/445/146 369/471/146 370/351/146
f 348/450/147 337/473/147 363/474/147
f 347/475/148 362/447/148 377/472/148
f 356/453/149 355/349/149 370/351/149 371/476/149
f 349/455/150 348/450/150 363/474/150 364/477/150
f 357/457/151 356/453/151 371/476/151 372/478/151
f 350/459/152 349/455/152 364/477/152 365/479/152
f 358/461/153 357/457/153 372/478/153 373/464/153
f 351/463/154 350/459/154 365/479/154 366/466/154
f 363/474/155 337/480/155 378/481/155
f 347/482/156 377/472/156 392/483/156
f 371/476/157 370/351/157 385/353/157 386/484/157
f 364/477/158 363/474/158 378/481/158 379/485/158
f 372/478/159 371/476/159 386/484/159 387/486/159
f 365/479/160 364/477/160 379/485/160 380/487/160
f 373/464/161 372/478/161 387/486/161 388/488/161
f 366/466/162 365/479/162 380/487/162 381/489/162
f 374/465/163 373/464/163 388/488/163 389/490/163
f 367/467/164 366/466/164 381/489/164 382/491/164
f 375/468/165 374/465/165 389/490/165 390/492/165
f 368/469/166 367/467/166 382/491/166 383/493/166
f 376/470/167 375/468/167 390/492/167 391/494/167
f 369/471/168 368/469/168 383/493/168 384/495/168
f 377/472/169 376/470/169 391/494/169 392/483/169
f 370/351/170 369/471/170 384/495/170 385/353/170
f 382/491/171 381/489/171 396/496/171 397/497/171
f 390/492/172 389/490/172 404/498/172 405/499/172
f 383/493/173 382/491/173 397/497/173 398/500/173
f 391/494/174 390/492/174 405/499/174 406/501/174
f 384/495/175 383/493/175 398/500/175 399/502/175
f 392/483/176 391/494/176 406/501/176 407/503/176
f 385/353/177 384/495/177 399/502/177 400/355/177
f 378/481/178 337/504/178 393/505/178
f 347/506/179 392/483/179 407/503/179
f 386/484/180 385/353/180 400/355/180 401/507/180
f 379/485/181 378/481/181 393/505/181 394/508/181
f 387/486/182 386/484/182 401/507/182 402/509/182
f 380/487/183 379/485/183 394/508/183 395/510/183
f 388/488/184 387/486/184 402/509/184 403/511/184
f 381/489/185 380/487/185 395/510/185 396/496/185
f 389/490/186 388/488/186 403/511/186 404/498/186
f 401/507/187 400/355/187 415/357/187 416/512/187
f 394/508/188 393/505/188 408/513/188 409/514/188
f 402/509/189 401/507/189 416/512/189 417/515/189
f 395/510/190 394/508/190 409/514/190 410/516/190
f 403/511/191 402/509/191 417/515/191 418/517/191
f 396/496/192 395/510/192 410/516/192 411/518/192
f 404/498/193 403/511/193 418/517/193 419/519/193
f 397/497/194 396/496/194 411/518/194 412/520/194
f 405/499/195 404/498/195 419/519/195 420/521/195
f 398/500/196 397/497/196 412/520/196 413/522/196
f 406/501/197 405/499/197 420/521/197 421/523/197
f 399/502/198 398/500/198 413/522/198 414/524/198
f 407/503/199 406/501/199 421/523/199 422/525/199
f 400/355/200 399/502/200 414/524/200 415/357/200
f 393/505/201 337/526/201 408/513/201
f 347/527/202 407/503/202 422/525/202
f 420/521/203 419/519/203 434/528/203 435/529/203
f 413/522/204 412/520/204 427/530/204 428/531/204
f 421/523/205 420/521/205 435/529/205 436/532/205
f 414/524/206 413/522/206 428/531/206 429/533/206
f 422/525/207 421/523/207 436/532/207 437/534/207
f 415/357/208 414/524/208 429/533/208 430/359/208
f 408/513/209 337/535/209 423/536/209
f 347/537/210 422/525/210 437/534/210
f 416/512/211 415/357/211 430/359/211 431/538/211
f 409/514/212 408/513/212 423/536/212 424/539/212
f 417/515/213 416/512/213 431/538/213 432/540/213
f 410/516/214 409/514/214 424/539/214 425/541/214
f 418/517/215 417/515/215 432/540/215 433/542/215
f 411/518/216 410/516/216 425/541/216 426/543/216
f 419/519/217 418/517/217 433/542/217 434/528/217
f 412/520/218 411/518/218 426/543/218 427/530/218
f 432/540/219 431/538/219 446/544/219 447/545/219
f 425/541/220 424/539/220 439/546/220 440/547/220
f 433/542/221 432/540/221 447/545/221 448/548/221
f 426/543/222 425/541/222 440/547/222 441/549/222
f 434/528/223 433/542/223 448/548/223 449/550/223
f 427/530/224 426/543/224 441/549/224 442/551/224
f 435/529/225 434/528/225 449/550/225 450/552/225
f 428/531/226 427/530/226 442/551/226 443/553/226
f 436/532/227 435/529/227 450/552/227 451/554/227
f 429/533/228 428/531/228 443/553/228 444/555/228
f 437/534/229 436/532/229 451/554/229 452/556/229
f 430/359/230 429/533/230 444/555/230 445/361/230
f 423/536/231 337/557/231 438/558/231
f 347/559/232 437/534/232 452/556/232
f 431/538/233 430/359/233 445/361/233 446/544/233
f 424/539/234 423/536/234 438/558/234 439/546/234
f 451/554/235 450/552/235 465/560/235 466/561/235
f 444/555/236 443/553/236 458/562/236 459/563/236
f 452/556/237 451/554/237 466/561/237 467/564/237
f 445/361/238 444/555/238 459/563/238 460/565/238
f 438/558/239 337/566/239 453/567/239
f 347/568/240 452/556/240 467/564/240
f 446/544/241 445/361/241 460/565/241 461/569/241
f 439/546/242 438/558/242 453/567/242 454/570/242
f 447/545/243 446/544/243 461/569/243 462/571/243
f 440/547/244 439/546/244 454/570/244 455/572/244
f 448/548/245 447/545/245 462/571/245 463/573/245
f 441/549/246 440/547/246 455/572/246 456/574/246
f 449/550/247 448/548/247 463/573/247 464/575/247
f 442/551/248 441/549/248 456/574/248 457/576/248
f 450/552/249 449/550/249 464/575/249 465/560/249
f 443/553/250 442/551/250 457/576/250 458/562/250
f 455/572/251 454/570/251 469/577/251 470/578/251
f 463/573/252 462/571/252 477/579/252 478/580/252
f 456/574/253 455/572/253 470/578/253 471/581/253
f 464/575/254 463/573/254 478/580/254 479/582/254
f 457/576/255 456/574/255 471/581/255 472/583/255
f 465/560/256 464/575/256 479/582/256 480/584/256
f 458/562/257 457/576/257 472/583/257 473/585/257
f 466/561/258 465/560/258 480/584/258 481/586/258
f 459/563/259 458/562/259 473/585/259 474/587/259
f 467/564/260 466/561/260 481/586/260 482/588/260
f 460/565/261 459/563/261 474/587/261 475/365/261
f 453/567/262 337/589/262 468/590/262
f 347/591/263 467/564/263 482/588/263
f 461/569/264 460/565/264 475/365/264 476/592/264
f 454/570/265 453/567/265 468/590/265 469/577/265
f 462/571/266 461/569/266 476/592/266 477/579/266
f 474/587/267 473/585/267 488/593/267 489/594/267
f 482/588/268 481/586/268 496/595/268 497/596/268
f 475/365/269 474/587/269 489/594/269 490/597/269
f 468/590/270 337/598/270 483/599/270
f 347/600/271 482/588/271 497/596/271
f 476/592/272 475/365/272 490/597/272 491/601/272
f 469/577/273 468/590/273 483/599/273 484/602/273
f 477/579/274 476/592/274 491/601/274 492/603/274
f 470/578/275 469/577/275 484/602/275 485/604/275
f 478/580/276 477/579/276 492/603/276 493/605/276
f 471/581/277 470/578/277 485/604/277 486/606/277
f 479/582/278 478/580/278 493/605/278 494/607/278
f 472/583/279 471/581/279 486/606/279 487/608/279
f 480/584/280 479/582/280 494/607/280 495/609/280
f 473/585/281 472/583/281 487/608/281 488/593/281
f 481/586/282 480/584/282 495/609/282 496/595/282
f 493/605/283 492/603/283 507/610/283 508/611/283
f 486/606/284 485/604/284 500/612/284 501/613/284
f 494/607/285 493/605/285 508/611/285 509/614/285
f 487/608/286 486/606/286 501/613/286 502/615/286
f 495/609/287 494/607/287 509/614/287 510/616/287
f 488/593/288 487/608/288 502/615/288 503/617/288
f 496/595/289 495/609/289 510/616/289 511/618/289
f 489/594/290 488/593/290 503/617/290 504/619/290
f 497/596/291 496/595/291 511/618/291 512/620/291
f 490/597/292 489/594/292 504/619/292 505/369/292
f 483/599/293 337/621/293 498/622/293
f 347/623/294 497/596/294 512/620/294
f 491/601/295 490/597/295 505/369/295 506/624/295
f 484/602/296 483/599/296 498/622/296 499/625/296
f 492/603/297 491/601/297 506/624/297 507/610/297
f 485/604/298 484/602/298 499/625/298 500/612/298
f 512/620/299 511/618/299 526/626/299 527/627/299
f 505/369/300 504/619/300 519/628/300 520/371/300
f 498/622/301 337/629/301 513/630/301
f 347/631/302 512/620/302 527/627/302
f 506/624/303 505/369/303 520/371/303 521/632/303
f 499/625/304 498/622/304 513/630/304 514/633/304
f 507/610/305 506/624/305 521/632/305 522/634/305
f 500/612/306 499/625/306 514/633/306 515/635/306
f 508/611/307 507/610/307 522/634/307 523/636/307
f 501/613/308 500/612/308 515/635/308 516/637/308
f 509/614/309 508/611/309 523/636/309 524/638/309
f 502/615/310 501/613/310 516/637/310 517/639/310
f 510/616/311 509/614/311 524/638/311 525/640/311
f 503/617/312 502/615/312 517/639/312 518/641/312
f 511/618/313 510/616/313 525/640/313 526/626/313
f 504/619/314 503/617/314 518/641/314 519/628/314
f 516/637/315 515/635/315 530/642/315 531/643/315
f 524/638/316 523/636/316 538/644/316 539/645/316
f 517/639/317 516/637/317 531/643/317 532/646/317
f 525/640/318 524/638/318 539/645/318 540/647/318
f 518/641/319 517/639/319 532/646/319 533/648/319
f 526/626/320 525/640/320 540/647/320 541/649/320
f 519/628/321 518/641/321 533/648/321 534/650/321
f 527/627/322 526/626/322 541/649/322 542/651/322
f 520/371/323 519/628/323 534/650/323 535/373/323
f 513/630/324 337/652/324 528/653/324
f 347/654/325 527/627/325 542/651/325
f 521/632/326 520/371/326 535/373/326 536/655/326
f 514/633/327 513/630/327 528/653/327 529/656/327
f 522/634/328 521/632/328 536/655/328 537/657/328
f 515/635/329 514/633/329 529/656/329 530/642/329
f 523/636/330 522/634/330 537/657/330 538/644/330
f 535/373/331 534/650/331 549/658/331 550/375/331
f 528/653/332 337/659/332 543/660/332
f 347/661/333 542/651/333 557/662/333
f 536/655/334 535/373/334 550/375/334 551/663/334
f 529/656/335 528/653/335 543/660/335 544/664/335
f 537/657/336 536/655/336 551/663/336 552/665/336
f 530/642/337 529/656/337 544/664/337 545/666/337
f 538/644/338 537/657/338 552/665/338 553/667/338
f 531/643/339 530/642/339 545/666/339 546/668/339
f 539/645/340 538/644/340 553/667/340 554/669/340
f 532/646/341 531/643/341 546/668/341 547/670/341
f 540/647/342 539/645/342 554/669/342 555/671/342
f 533/648/343 532/646/343 547/670/343 548/672/343
f 541/649/344 540/647/344 555/671/344 556/673/344
f 534/650/345 533/648/345 548/672/345 549/658/345
f 542/651/346 541/649/346 556/673/346 557/662/346
f 554/669/347 553/667/347 568/674/347 569/675/347
f 547/670/348 546/668/348 561/676/348 562/677/348
f 555/671/349 554/669/349 569/675/349 570/678/349
f 548/672/350 547/670/350 562/677/350 563/679/350
f 556/673/351 555/671/351 570/678/351 571/680/351
f 549/658/352 548/672/352 563/679/352 564/681/352
f 557/662/353 556/673/353 571/680/353 572/682/353
f 550/375/354 549/658/354 564/681/354 565/377/354
f 543/660/355 337/683/355 558/684/355
f 347/685/356 557/662/356 572/682/356
f 551/663/357 550/375/357 565/377/357 566/686/357
f 544/664/358 543/660/358 558/684/358 559/687/358
f 552/665/359 551/663/359 566/686/359 567/688/359
f 545/666/360 544/664/360 559/687/360 560/689/360
f 553/667/361 552/665/361 567/688/361 568/674/361
f 546/668/362 545/666/362 560/689/362 561/676/362
f 347/690/363 572/682/363 587/691/363
f 566/686/364 565/377/364 580/692/364 581/693/364
f 559/687/365 558/684/365 573/694/365 574/695/365
f 567/688/366 566/686/366 581/693/366 582/696/366
f 560/689/367 559/687/367 574/695/367 575/697/367
f 568/674/368 567/688/368 582/696/368 583/698/368
f 561/676/369 560/689/369 575/697/369 576/699/369
f 569/675/370 568/674/370 583/698/370 584/700/370
f 562/677/371 561/676/371 576/699/371 577/701/371
f 570/678/372 569/675/372 584/700/372 585/702/372
f 563/679/373 562/677/373 577/701/373 578/703/373
f 571/680/374 570/678/374 585/702/374 586/704/374
f 564/681/375 563/679/375 578/703/375 579/705/375
f 572/682/376 571/680/376 586/704/376 587/691/376
f 565/377/377 564/681/377 579/705/377 580/692/377
f 558/684/378 337/706/378 573/694/378
f 585/702/379 584/700/379 599/707/379 600/708/379
f 578/703/380 577/701/380 592/709/380 593/710/380
f 586/704/381 585/702/381 600/708/381 601/711/381
f 579/705/382 578/703/382 593/710/382 594/712/382
f 587/691/383 586/704/383 601/711/383 602/713/383
f 580/692/384 579/705/384 594/712/384 595/381/384
f 573/694/385 337/714/385 588/715/385
f 347/716/386 587/691/386 602/713/386
f 581/693/387 580/692/387 595/381/387 596/717/387
f 574/695/388 573/694/388 588/715/388 589/718/388
f 582/696/389 581/693/389 596/717/389 597/719/389
f 575/697/390 574/695/390 589/718/390 590/720/390
f 583/698/391 582/696/391 597/719/391 598/721/391
f 576/699/392 575/697/392 590/720/392 591/722/392
f 584/700/393 583/698/393 598/721/393 599/707/393
f 577/701/394 576/699/394 591/722/394 592/709/394
f 589/718/395 588/715/395 603/723/395 604/724/395
f 597/719/396 596/717/396 611/725/396 612/726/396
f 590/720/397 589/718/397 604/724/397 605/727/397
f 598/721/398 597/719/398 612/726/398 613/728/398
f 591/722/399 590/720/399 605/727/399 606/729/399
f 599/707/400 598/721/400 613/728/400 614/730/400
f 592/709/401 591/722/401 606/729/401 607/731/401
f 600/708/402 599/707/402 614/730/402 615/732/402
f 593/710/403 592/709/403 607/731/403 608/733/403
f 601/711/404 600/708/404 615/732/404 616/734/404
f 594/712/405 593/710/405 608/733/405 609/735/405
f 602/713/406 601/711/406 616/734/406 617/736/406
f 595/381/407 594/712/407 609/735/407 610/383/407
f 588/715/408 337/737/408 603/723/408
f 347/738/409 602/713/409 617/736/409
f 596/717/410 595/381/410 610/383/410 611/725/410
f 608/733/411 607/731/411 622/739/411 623/740/411
f 616/734/412 615/732/412 630/741/412 631/742/412
f 609/735/413 608/733/413 623/740/413 624/743/413
f 617/736/414 616/734/414 631/742/414 632/744/414
f 610/383/415 609/735/415 624/743/415 625/745/415
f 603/723/416 337/746/416 618/747/416
f 347/748/417 617/736/417 632/744/417
f 611/725/418 610/383/418 625/745/418 626/749/418
f 604/724/419 603/723/419 618/747/419 619/750/419
f 612/726/420 611/725/420 626/749/420 627/751/420
f 605/727/421 604/724/421 619/750/421 620/752/421
f 613/728/422 612/726/422 627/751/422 628/753/422
f 606/729/423 605/727/423 620/752/423 621/754/423
f 614/730/424 613/728/424 628/753/424 629/755/424
f 607/731/425 606/729/425 621/754/425 622/739/425
f 615/732/426 614/730/426 629/755/426 630/741/426
f 627/751/427 626/749/427 641/756/427 642/757/427
f 620/752/428 619/750/428 634/758/428 635/759/428
f 628/753/429 627/751/429 642/757/429 643/760/429
f 621/754/430 620/752/430 635/759/430 636/761/430
f 629/755/431 628/753/431 643/760/431 644/762/431
f 622/739/432 621/754/432 636/761/432 637/763/432
f 630/741/433 629/755/433 644/762/433 645/764/433
f 623/740/434 622/739/434 637/763/434 638/765/434
f 631/742/435 630/741/435 645/764/435 646/766/435
f 624/743/436 623/740/436 638/765/436 639/767/436
f 632/744/437 631/742/437 646/766/437 647/768/437
f 625/745/438 624/743/438 639/767/438 640/769/438
f 618/747/439 337/770/439 633/771/439
f 347/772/440 632/744/440 647/768/440
f 626/749/441 625/745/441 640/769/441 641/756/441
f 619/750/442 618/747/442 633/771/442 634/758/442
f 646/766/443 645/764/443 660/773/443 661/774/443
f 639/767/444 638/765/444 653/775/444 654/776/444
f 647/768/445 646/766/445 661/774/445 662/777/445
f 640/769/446 639/767/446 654/776/446 655/389/446
f 633/771/447 337/778/447 648/779/447
f 347/780/448 647/768/448 662/777/448
f 641/756/449 640/769/449 655/389/449 656/781/449
f 634/758/450 633/771/450 648/779/450 649/782/450
f 642/757/451 641/756/451 656/781/451 657/783/451
f 635/759/452 634/758/452 649/782/452 650/784/452
f 643/760/453 642/757/453 657/783/453 658/785/453
f 636/761/454 635/759/454 650/784/454 651/786/454
f 644/762/455 643/760/455 658/785/455 659/787/455
f 637/763/456 636/761/456 651/786/456 652/788/456
f 645/764/457 644/762/457 659/787/457 660/773/457
f 638/765/458 637/763/458 652/788/458 653/775/458
f 650/784/459 649/782/459 664/789/459 665/790/459
f 658/785/460 657/783/460 672/791/460 673/792/460
f 651/786/461 650/784/461 665/790/461 666/793/461
f 659/787/462 658/785/462 673/792/462 674/794/462
f 652/788/463 651/786/463 666/793/463 667/795/463
f 660/773/464 659/787/464 674/794/464 675/796/464
f 653/775/465 652/788/465 667/795/465 668/797/465
f 661/774/466 660/773/466 675/796/466 676/798/466
f 654/776/467 653/775/467 668/797/467 669/799/467
f 662/777/468 661/774/468 676/798/468 677/800/468
f 655/389/469 654/776/469 669/799/469 670/391/469
f 648/779/470 337/801/470 663/802/470
f 347/803/471 662/777/471 677/800/471
f 656/781/472 655/389/472 670/391/472 671/804/472
f 649/782/473 648/779/473 663/802/473 664/789/473
f 657/783/474 656/781/474 671/804/474 672/791/474
f 669/799/475 668/797/475 683/805/475 684/806/475
f 677/800/476 676/798/476 691/807/476 692/808/476
f 670/391/477 669/799/477 684/806/477 685/809/477
f 663/802/478 337/810/478 678/811/478
f 347/812/479 677/800/479 692/808/479
f 671/804/480 670/391/480 685/809/480 686/813/480
f 664/789/481 663/802/481 678/811/481 679/814/481
f 672/791/482 671/804/482 686/813/482 687/815/482
f 665/790/483 664/789/483 679/814/483 680/816/483
f 673/792/484 672/791/484 687/815/484 688/817/484
f 666/793/485 665/790/485 680/816/485 681/818/485
f 674/794/486 673/792/486 688/817/486 689/819/486
f 667/795/487 666/793/487 681/818/487 682/820/487
f 675/796/488 674/794/488 689/819/488 690/821/488
f 668/797/489 667/795/489 682/820/489 683/805/489
f 676/798/490 675/796/490 690/821/490 691/807/490
f 688/817/491 687/815/491 702/822/491 703/823/491
f 681/818/492 680/816/492 695/824/492 696/825/492
f 689/819/493 688/817/493 703/823/493 704/826/493
f 682/820/494 681/818/494 696/825/494 697/827/494
f 690/821/495 689/819/495 704/826/495 705/828/495
f 683/805/496 682/820/496 697/827/496 698/829/496
f 691/807/497 690/821/497 705/828/497 706/830/497
f 684/806/498 683/805/498 698/829/498 699/831/498
f 692/808/499 691/807/499 706/830/499 707/832/499
f 685/809/500 684/806/500 699/831/500 700/415/500
f 678/811/501 337/833/501 693/834/501
f 347/835/502 692/808/502 707/832/502
f 686/813/503 685/809/503 700/415/503 701/836/503
f 679/814/504 678/811/504 693/834/504 694/837/504
f 687/815/505 686/813/505 701/836/505 702/822/505
f 680/816/506 679/814/506 694/837/506 695/824/506
f 707/838/507 706/839/507 721/840/507 722/841/507
f 700/1/508 699/842/508 714/843/508 715/844/508
f 693/845/509 337/846/509 708/847/509
f 347/848/510 707/838/510 722/841/510
f 701/849/511 700/1/511 715/844/511 716/850/511
f 694/851/512 693/845/512 708/847/512 709/852/512
f 702/853/513 701/849/513 716/850/513 717/854/513
f 695/855/514 694/851/514 709/852/514 710/856/514
f 703/857/515 702/853/515 717/854/515 718/858/515
f 696/859/516 695/855/516 710/856/516 711/860/516
f 704/861/517 703/857/517 718/858/517 719/862/517
f 697/863/518 696/859/518 711/860/518 712/864/518
f 705/865/519 704/861/519 719/862/519 720/866/519
f 698/867/520 697/863/520 712/864/520 713/868/520
f 706/839/521 705/865/521 720/866/521 721/840/521
f 699/842/522 698/867/522 713/868/522 714/843/522
f 719/862/523 718/858/523 733/869/523 734/870/523
f 712/864/524 711/860/524 726/871/524 727/872/524
f 720/866/525 719/862/525 734/870/525 735/873/525
f 713/868/526 712/864/526 727/872/526 728/874/526
f 721/840/527 720/866/527 735/873/527 736/875/527
f 714/843/528 713/868/528 728/874/528 729/876/528
f 722/841/529 721/840/529 736/875/529 737/877/529
f 715/844/530 714/843/530 729/876/530 730/335/530
f 708/847/531 337/878/531 723/879/531
f 347/880/532 722/841/532 737/877/532
f 716/850/533 715/844/533 730/335/533 731/881/533
f 709/852/534 708/847/534 723/879/534 724/882/534
f 717/854/535 716/850/535 731/881/535 732/883/535
f 710/856/536 709/852/536 724/882/536 725/884/536
f 718/858/537 717/854/537 732/883/537 733/869/537
f 711/860/538 710/856/538 725/884/538 726/871/538
f 723/879/539 337/885/539 738/886/539
f 347/887/540 737/877/540 752/888/540
f 731/881/541 730/335/541 745/337/541 746/889/541
f 724/882/542 723/879/542 738/886/542 739/890/542
f 732/883/543 731/881/543 746/889/543 747/891/543
f 725/884/544 724/882/544 739/890/544 740/892/544
f 733/869/545 732/883/545 747/891/545 748/893/545
f 726/871/546 725/884/546 740/892/546 741/894/546
f 734/870/547 733/869/547 748/893/547 749/895/547
f 727/872/548 726/871/548 741/894/548 742/896/548
f 735/873/549 734/870/549 749/895/549 750/897/549
f 728/874/550 727/872/550 742/896/550 743/898/550
f 736/875/551 735/873/551 750/897/551 751/899/551
f 729/876/552 728/874/552 743/898/552 744/900/552
f 737/877/553 736/875/553 751/899/553 752/888/553
f 730/335/554 729/876/554 744/900/554 745/337/554
f 742/896/555 741/894/555 756/901/555 757/902/555
f 750/897/556 749/895/556 764/903/556 765/904/556
f 743/898/557 742/896/557 757/902/557 758/905/557
f 751/899/558 750/897/558 765/904/558 766/906/558
f 744/900/559 743/898/559 758/905/559 759/907/559
f 752/888/560 751/899/560 766/906/560 767/908/560
f 745/337/561 744/900/561 759/907/561 760/909/561
f 738/886/562 337/910/562 753/911/562
f 347/912/563 752/888/563 767/908/563
f 746/889/564 745/337/564 760/909/564 761/913/564
f 739/890/565 738/886/565 753/911/565 754/914/565
f 747/891/566 746/889/566 761/913/566 762/915/566
f 740/892/567 739/890/567 754/914/567 755/916/567
f 748/893/568 747/891/568 762/915/568 763/917/568
f 741/894/569 740/892/569 755/916/569 756/901/569
f 749/895/570 748/893/570 763/917/570 764/903/570
f 761/913/571 760/909/571 775/918/571 776/919/571
f 754/914/572 753/911/572 768/920/572 769/921/572
f 762/915/573 761/913/573 776/919/573 777/922/573
f 755/916/574 754/914/574 769/921/574 770/923/574
f 763/917/575 762/915/575 777/922/575 778/924/575
f 756/901/576 755/916/576 770/923/576 771/925/576
f 764/903/577 763/917/577 778/924/577 779/926/577
f 757/902/578 756/901/578 771/925/578 772/927/578
f 765/904/579 764/903/579 779/926/579 780/928/579
f 758/905/580 757/902/580 772/927/580 773/929/580
f 766/906/581 765/904/581 780/928/581 781/930/581
f 759/907/582 758/905/582 773/929/582 774/931/582
f 767/908/583 766/906/583 781/930/583 782/932/583
f 760/909/584 759/907/584 774/931/584 775/918/584
f 753/911/585 337/933/585 768/920/585
f 347/934/586 767/908/586 782/932/586
f 780/928/587 779/926/587 794/935/587 795/936/587
f 773/929/588 772/927/588 787/937/588 788/938/588
f 781/930/589 780/928/589 795/936/589 796/939/589
f 774/931/590 773/929/590 788/938/590 789/940/590
f 782/932/591 781/930/591 796/939/591 797/941/591
f 775/918/592 774/931/592 789/940/592 790/942/592
f 768/920/593 337/943/593 783/944/593
f 347/945/594 782/932/594 797/941/594
f 776/919/595 775/918/595 790/942/595 791/946/595
f 769/921/596 768/920/596 783/944/596 784/947/596
f 777/922/597 776/919/597 791/946/597 792/948/597
f 770/923/598 769/921/598 784/947/598 785/949/598
f 778/924/599 777/922/599 792/948/599 793/950/599
f 771/925/600 770/923/600 785/949/600 786/951/600
f 779/926/601 778/924/601 793/950/601 794/935/601
f 772/927/602 771/925/602 786/951/602 787/937/602
f 784/947/603 783/944/603 798/952/603 799/953/603
f 792/948/604 791/946/604 806/954/604 807/955/604
f 785/949/605 784/947/605 799/953/605 800/956/605
f 793/950/606 792/948/606 807/955/606 808/957/606
f 786/951/607 785/949/607 800/956/607 801/958/607
f 794/935/608 793/950/608 808/957/608 809/959/608
f 787/937/609 786/951/609 801/958/609 802/960/609
f 795/936/610 794/935/610 809/959/610 810/961/610
f 788/938/611 787/937/611 802/960/611 803/962/611
f 796/939/612 795/936/612 810/961/612 811/963/612
f 789/940/613 788/938/613 803/962/613 804/964/613
f 797/941/614 796/939/614 811/963/614 812/965/614
f 790/942/615 789/940/615 804/964/615 805/966/615
f 783/944/616 337/967/616 798/952/616
f 347/968/617 797/941/617 812/965/617
f 791/946/618 790/942/618 805/966/618 806/954/618
f 803/962/619 802/960/619 814/439/619 341/438/619
f 811/963/620 810/961/620 345/434/620 818/442/620
f 804/964/621 803/962/621 341/438/621 815/444/621
f 812/965/622 811/963/622 818/442/622 346/446/622
f 805/966/623 804/964/623 815/444/623 342/347/623
f 798/952/624 337/969/624 338/448/624
f 347/970/625 812/965/625 346/446/625
f 806/954/626 805/966/626 342/347/626 343/452/626
f 799/953/627 798/952/627 338/448/627 813/454/627
f 807/955/628 806/954/628 343/452/628 816/456/628
f 800/956/629 799/953/629 813/454/629 339/458/629
f 808/957/630 807/955/630 816/456/630 344/460/630
f 801/958/631 800/956/631 339/458/631 340/462/631
f 809/959/632 808/957/632 344/460/632 817/435/632
f 802/960/633 801/958/633 340/462/633 814/439/633
f 810/961/634 809/959/634 817/435/634 345/434/634
