# Blender 5.2.0 LTS
# www.blender.org
mtllib white_bishop.mtl
o white_bishop
v 0.000000 0.000000 -0.007000
v 0.000000 0.005000 -0.007000
v 0.000914 0.000000 -0.006940
v 0.000914 0.005000 -0.006940
v 0.001812 0.000000 -0.006761
v 0.001812 0.005000 -0.006761
v 0.002679 0.000000 -0.006467
v 0.002679 0.005000 -0.006467
v 0.003500 0.000000 -0.006062
v 0.003500 0.005000 -0.006062
v 0.004261 0.000000 -0.005553
v 0.004261 0.005000 -0.005553
v 0.004950 0.000000 -0.004950
v 0.004950 0.005000 -0.004950
v 0.005553 0.000000 -0.004261
v 0.005553 0.005000 -0.004261
v 0.006062 0.000000 -0.003500
v 0.006062 0.005000 -0.003500
v 0.006467 0.000000 -0.002679
v 0.006467 0.005000 -0.002679
v 0.006761 0.000000 -0.001812
v 0.006761 0.005000 -0.001812
v 0.006940 0.000000 -0.000914
v 0.006940 0.005000 -0.000914
v 0.007000 0.000000 0.000000
v 0.007000 0.005000 0.000000
v 0.006940 0.000000 0.000914
v 0.006940 0.005000 0.000914
v 0.006761 0.000000 0.001812
v 0.006761 0.005000 0.001812
v 0.006467 0.000000 0.002679
v 0.006467 0.005000 0.002679
v 0.006062 0.000000 0.003500
v 0.006062 0.005000 0.003500
v 0.005553 0.000000 0.004261
v 0.005553 0.005000 0.004261
v 0.004950 0.000000 0.004950
v 0.004950 0.005000 0.004950
v 0.004261 0.000000 0.005553
v 0.004261 0.005000 0.005553
v 0.003500 0.000000 0.006062
v 0.003500 0.005000 0.006062
v 0.002679 0.000000 0.006467
v 0.002679 0.005000 0.006467
v 0.001812 0.000000 0.006761
v 0.001812 0.005000 0.006761
v 0.000914 0.000000 0.006940
v 0.000914 0.005000 0.006940
v 0.000000 0.000000 0.007000
v 0.000000 0.005000 0.007000
v -0.000914 0.000000 0.006940
v -0.000914 0.005000 0.006940
v -0.001812 0.000000 0.006761
v -0.001812 0.005000 0.006761
v -0.002679 0.000000 0.006467
v -0.002679 0.005000 0.006467
v -0.003500 0.000000 0.006062
v -0.003500 0.005000 0.006062
v -0.004261 0.000000 0.005553
v -0.004261 0.005000 0.005553
v -0.004950 0.000000 0.004950
v -0.004950 0.005000 0.004950
v -0.005553 0.000000 0.004261
v -0.005553 0.005000 0.004261
v -0.006062 0.000000 0.003500
v -0.006062 0.005000 0.003500
v -0.006467 0.000000 0.002679
v -0.006467 0.005000 0.002679
v -0.006761 0.000000 0.001812
v -0.006761 0.005000 0.001812
v -0.006940 0.000000 0.000914
v -0.006940 0.005000 0.000914
v -0.007000 0.000000 0.000000
v -0.007000 0.005000 0.000000
v -0.006940 0.000000 -0.000914
v -0.006940 0.005000 -0.000914
v -0.006761 0.000000 -0.001812
v -0.006761 0.005000 -0.001812
v -0.006467 0.000000 -0.002679
v -0.006467 0.005000 -0.002679
v -0.006062 0.000000 -0.003500
v -0.006062 0.005000 -0.003500
v -0.005553 0.000000 -0.004261
v -0.005553 0.005000 -0.004261
v -0.004950 0.000000 -0.004950
v -0.004950 0.005000 -0.004950
v -0.004261 0.000000 -0.005553
v -0.004261 0.005000 -0.005553
v -0.003500 0.000000 -0.006062
v -0.003500 0.005000 -0.006062
v -0.002679 0.000000 -0.006467
v -0.002679 0.005000 -0.006467
v -0.001812 0.000000 -0.006761
v -0.001812 0.005000 -0.006761
v -0.000914 0.000000 -0.006940
v -0.000914 0.005000 -0.006940
v 0.000000 0.005000 -0.005000
v 0.000000 0.010000 -0.003300
v 0.000782 0.005000 -0.004938
v 0.000516 0.010000 -0.003259
v 0.001545 0.005000 -0.004755
v 0.001020 0.010000 -0.003138
v 0.002270 0.005000 -0.004455
v 0.001498 0.010000 -0.002940
v 0.002939 0.005000 -0.004045
v 0.001940 0.010000 -0.002670
v 0.003536 0.005000 -0.003536
v 0.002333 0.010000 -0.002333
v 0.004045 0.005000 -0.002939
v 0.002670 0.010000 -0.001940
v 0.004455 0.005000 -0.002270
v 0.002940 0.010000 -0.001498
v 0.004755 0.005000 -0.001545
v 0.003138 0.010000 -0.001020
v 0.004938 0.005000 -0.000782
v 0.003259 0.010000 -0.000516
v 0.005000 0.005000 0.000000
v 0.003300 0.010000 0.000000
v 0.004938 0.005000 0.000782
v 0.003259 0.010000 0.000516
v 0.004755 0.005000 0.001545
v 0.003138 0.010000 0.001020
v 0.004455 0.005000 0.002270
v 0.002940 0.010000 0.001498
v 0.004045 0.005000 0.002939
v 0.002670 0.010000 0.001940
v 0.003536 0.005000 0.003536
v 0.002333 0.010000 0.002333
v 0.002939 0.005000 0.004045
v 0.001940 0.010000 0.002670
v 0.002270 0.005000 0.004455
v 0.001498 0.010000 0.002940
v 0.001545 0.005000 0.004755
v 0.001020 0.010000 0.003138
v 0.000782 0.005000 0.004938
v 0.000516 0.010000 0.003259
v 0.000000 0.005000 0.005000
v 0.000000 0.010000 0.003300
v -0.000782 0.005000 0.004938
v -0.000516 0.010000 0.003259
v -0.001545 0.005000 0.004755
v -0.001020 0.010000 0.003138
v -0.002270 0.005000 0.004455
v -0.001498 0.010000 0.002940
v -0.002939 0.005000 0.004045
v -0.001940 0.010000 0.002670
v -0.003536 0.005000 0.003536
v -0.002333 0.010000 0.002333
v -0.004045 0.005000 0.002939
v -0.002670 0.010000 0.001940
v -0.004455 0.005000 0.002270
v -0.002940 0.010000 0.001498
v -0.004755 0.005000 0.001545
v -0.003138 0.010000 0.001020
v -0.004938 0.005000 0.000782
v -0.003259 0.010000 0.000516
v -0.005000 0.005000 0.000000
v -0.003300 0.010000 0.000000
v -0.004938 0.005000 -0.000782
v -0.003259 0.010000 -0.000516
v -0.004755 0.005000 -0.001545
v -0.003138 0.010000 -0.001020
v -0.004455 0.005000 -0.002270
v -0.002940 0.010000 -0.001498
v -0.004045 0.005000 -0.002939
v -0.002670 0.010000 -0.001940
v -0.003536 0.005000 -0.003536
v -0.002333 0.010000 -0.002333
v -0.002939 0.005000 -0.004045
v -0.001940 0.010000 -0.002670
v -0.002270 0.005000 -0.004455
v -0.001498 0.010000 -0.002940
v -0.001545 0.005000 -0.004755
v -0.001020 0.010000 -0.003138
v -0.000782 0.005000 -0.004938
v -0.000516 0.010000 -0.003259
v 0.000000 0.008000 -0.003500
v 0.000000 0.020000 -0.003500
v 0.000457 0.008000 -0.003470
v 0.000457 0.020000 -0.003470
v 0.000906 0.008000 -0.003381
v 0.000906 0.020000 -0.003381
v 0.001339 0.008000 -0.003234
v 0.001339 0.020000 -0.003234
v 0.001750 0.008000 -0.003031
v 0.001750 0.020000 -0.003031
v 0.002131 0.008000 -0.002777
v 0.002131 0.020000 -0.002777
v 0.002475 0.008000 -0.002475
v 0.002475 0.020000 -0.002475
v 0.002777 0.008000 -0.002131
v 0.002777 0.020000 -0.002131
v 0.003031 0.008000 -0.001750
v 0.003031 0.020000 -0.001750
v 0.003234 0.008000 -0.001339
v 0.003234 0.020000 -0.001339
v 0.003381 0.008000 -0.000906
v 0.003381 0.020000 -0.000906
v 0.003470 0.008000 -0.000457
v 0.003470 0.020000 -0.000457
v 0.003500 0.008000 0.000000
v 0.003500 0.020000 0.000000
v 0.003470 0.008000 0.000457
v 0.003470 0.020000 0.000457
v 0.003381 0.008000 0.000906
v 0.003381 0.020000 0.000906
v 0.003234 0.008000 0.001339
v 0.003234 0.020000 0.001339
v 0.003031 0.008000 0.001750
v 0.003031 0.020000 0.001750
v 0.002777 0.008000 0.002131
v 0.002777 0.020000 0.002131
v 0.002475 0.008000 0.002475
v 0.002475 0.020000 0.002475
v 0.002131 0.008000 0.002777
v 0.002131 0.020000 0.002777
v 0.001750 0.008000 0.003031
v 0.001750 0.020000 0.003031
v 0.001339 0.008000 0.003234
v 0.001339 0.020000 0.003234
v 0.000906 0.008000 0.003381
v 0.000906 0.020000 0.003381
v 0.000457 0.008000 0.003470
v 0.000457 0.020000 0.003470
v 0.000000 0.008000 0.003500
v 0.000000 0.020000 0.003500
v -0.000457 0.008000 0.003470
v -0.000457 0.020000 0.003470
v -0.000906 0.008000 0.003381
v -0.000906 0.020000 0.003381
v -0.001339 0.008000 0.003234
v -0.001339 0.020000 0.003234
v -0.001750 0.008000 0.003031
v -0.001750 0.020000 0.003031
v -0.002131 0.008000 0.002777
v -0.002131 0.020000 0.002777
v -0.002475 0.008000 0.002475
v -0.002475 0.020000 0.002475
v -0.002777 0.008000 0.002131
v -0.002777 0.020000 0.002131
v -0.003031 0.008000 0.001750
v -0.003031 0.020000 0.001750
v -0.003234 0.008000 0.001339
v -0.003234 0.020000 0.001339
v -0.003381 0.008000 0.000906
v -0.003381 0.020000 0.000906
v -0.003470 0.008000 0.000457
v -0.003470 0.020000 0.000457
v -0.003500 0.008000 0.000000
v -0.003500 0.020000 0.000000
v -0.003470 0.008000 -0.000457
v -0.003470 0.020000 -0.000457
v -0.003381 0.008000 -0.000906
v -0.003381 0.020000 -0.000906
v -0.003234 0.008000 -0.001339
v -0.003234 0.020000 -0.001339
v -0.003031 0.008000 -0.001750
v -0.003031 0.020000 -0.001750
v -0.002777 0.008000 -0.002131
v -0.002777 0.020000 -0.002131
v -0.002475 0.008000 -0.002475
v -0.002475 0.020000 -0.002475
v -0.002131 0.008000 -0.002777
v -0.002131 0.020000 -0.002777
v -0.001750 0.008000 -0.003031
v -0.001750 0.020000 -0.003031
v -0.001339 0.008000 -0.003234
v -0.001339 0.020000 -0.003234
v -0.000906 0.008000 -0.003381
v -0.000906 0.020000 -0.003381
v -0.000457 0.008000 -0.003470
v -0.000457 0.020000 -0.003470
v 0.000000 0.008000 -0.005000
v 0.000000 0.010000 -0.005000
v 0.001294 0.008000 -0.004830
v 0.001294 0.010000 -0.004830
v 0.002500 0.008000 -0.004330
v 0.002500 0.010000 -0.004330
v 0.003536 0.008000 -0.003536
v 0.003536 0.010000 -0.003536
v 0.004330 0.008000 -0.002500
v 0.004330 0.010000 -0.002500
v 0.004830 0.008000 -0.001294
v 0.004830 0.010000 -0.001294
v 0.005000 0.008000 0.000000
v 0.005000 0.010000 0.000000
v 0.004830 0.008000 0.001294
v 0.004830 0.010000 0.001294
v 0.004330 0.008000 0.002500
v 0.004330 0.010000 0.002500
v 0.003536 0.008000 0.003536
v 0.003536 0.010000 0.003536
v 0.002500 0.008000 0.004330
v 0.002500 0.010000 0.004330
v 0.001294 0.008000 0.004830
v 0.001294 0.010000 0.004830
v 0.000000 0.008000 0.005000
v 0.000000 0.010000 0.005000
v -0.001294 0.008000 0.004830
v -0.001294 0.010000 0.004830
v -0.002500 0.008000 0.004330
v -0.002500 0.010000 0.004330
v -0.003536 0.008000 0.003536
v -0.003536 0.010000 0.003536
v -0.004330 0.008000 0.002500
v -0.004330 0.010000 0.002500
v -0.004830 0.008000 0.001294
v -0.004830 0.010000 0.001294
v -0.005000 0.008000 0.000000
v -0.005000 0.010000 0.000000
v -0.004830 0.008000 -0.001294
v -0.004830 0.010000 -0.001294
v -0.004330 0.008000 -0.002500
v -0.004330 0.010000 -0.002500
v -0.003536 0.008000 -0.003536
v -0.003536 0.010000 -0.003536
v -0.002500 0.008000 -0.004330
v -0.002500 0.010000 -0.004330
v -0.001294 0.008000 -0.004830
v -0.001294 0.010000 -0.004830
v 0.000000 0.020000 -0.004000
v 0.001035 0.020000 -0.003864
v 0.002000 0.020000 -0.003464
v 0.002828 0.020000 -0.002828
v 0.003464 0.020000 -0.002000
v 0.003864 0.020000 -0.001035
v 0.004000 0.020000 0.000000
v 0.003864 0.020000 0.001035
v 0.003464 0.020000 0.002000
v 0.002828 0.020000 0.002828
v 0.002000 0.020000 0.003464
v 0.001035 0.020000 0.003864
v 0.000000 0.020000 0.004000
v -0.001035 0.020000 0.003864
v -0.002000 0.020000 0.003464
v -0.002828 0.020000 0.002828
v -0.003464 0.020000 0.002000
v -0.003864 0.020000 0.001035
v -0.004000 0.020000 0.000000
v -0.003864 0.020000 -0.001035
v -0.003464 0.020000 -0.002000
v -0.002828 0.020000 -0.002828
v -0.002000 0.020000 -0.003464
v -0.001035 0.020000 -0.003864
v 0.000000 0.024000 0.000000
vn 0.0654 -0.0000 -0.9979
vn 0.1951 -0.0000 -0.9808
vn 0.3214 -0.0000 -0.9469
vn 0.4423 -0.0000 -0.8969
vn 0.5556 -0.0000 -0.8315
vn 0.6593 -0.0000 -0.7518
vn 0.7518 -0.0000 -0.6593
vn 0.8315 -0.0000 -0.5556
vn 0.8969 -0.0000 -0.4423
vn 0.9469 -0.0000 -0.3214
vn 0.9808 -0.0000 -0.1951
vn 0.9979 -0.0000 -0.0654
vn 0.9979 -0.0000 0.0654
vn 0.9808 -0.0000 0.1951
vn 0.9469 -0.0000 0.3214
vn 0.8969 -0.0000 0.4423
vn 0.8315 -0.0000 0.5556
vn 0.7518 -0.0000 0.6593
vn 0.6593 -0.0000 0.7518
vn 0.5556 -0.0000 0.8315
vn 0.4423 -0.0000 0.8969
vn 0.3214 -0.0000 0.9469
vn 0.1951 -0.0000 0.9808
vn 0.0654 -0.0000 0.9979
vn -0.0654 -0.0000 0.9979
vn -0.1951 -0.0000 0.9808
vn -0.3214 -0.0000 0.9469
vn -0.4423 -0.0000 0.8969
vn -0.5556 -0.0000 0.8315
vn -0.6593 -0.0000 0.7518
vn -0.7518 -0.0000 0.6593
vn -0.8315 -0.0000 0.5556
vn -0.8969 -0.0000 0.4423
vn -0.9469 -0.0000 0.3214
vn -0.9808 -0.0000 0.1951
vn -0.9979 -0.0000 0.0654
vn -0.9979 -0.0000 -0.0654
vn -0.9808 -0.0000 -0.1951
vn -0.9469 -0.0000 -0.3214
vn -0.8969 -0.0000 -0.4423
vn -0.8315 -0.0000 -0.5556
vn -0.7518 -0.0000 -0.6593
vn -0.6593 -0.0000 -0.7518
vn -0.5556 -0.0000 -0.8315
vn -0.4423 -0.0000 -0.8969
vn -0.3214 -0.0000 -0.9469
vn -0.0000 1.0000 -0.0000
vn -0.1951 -0.0000 -0.9808
vn -0.0654 -0.0000 -0.9979
vn -0.0000 -1.0000 -0.0000
vn 0.0743 0.3210 -0.9442
vn 0.2211 0.3210 -0.9209
vn 0.3624 0.3210 -0.8750
vn 0.4948 0.3210 -0.8075
vn 0.6151 0.3210 -0.7202
vn 0.7202 0.3210 -0.6151
vn 0.8075 0.3210 -0.4948
vn 0.8750 0.3210 -0.3624
vn 0.9209 0.3210 -0.2211
vn 0.9442 0.3210 -0.0743
vn 0.9442 0.3210 0.0743
vn 0.9209 0.3210 0.2211
vn 0.8750 0.3210 0.3624
vn 0.8075 0.3210 0.4948
vn 0.7202 0.3210 0.6151
vn 0.6151 0.3210 0.7202
vn 0.4948 0.3210 0.8075
vn 0.3624 0.3210 0.8750
vn 0.2211 0.3210 0.9209
vn 0.0743 0.3210 0.9442
vn -0.0743 0.3210 0.9442
vn -0.2211 0.3210 0.9209
vn -0.3624 0.3210 0.8750
vn -0.4948 0.3210 0.8075
vn -0.6151 0.3210 0.7202
vn -0.7202 0.3210 0.6151
vn -0.8075 0.3210 0.4948
vn -0.8750 0.3210 0.3624
vn -0.9209 0.3210 0.2211
vn -0.9442 0.3210 0.0743
vn -0.9442 0.3210 -0.0743
vn -0.9209 0.3210 -0.2211
vn -0.8750 0.3210 -0.3624
vn -0.8075 0.3210 -0.4948
vn -0.7202 0.3210 -0.6151
vn -0.6151 0.3210 -0.7202
vn -0.4948 0.3210 -0.8075
vn -0.3624 0.3210 -0.8750
vn -0.2211 0.3210 -0.9209
vn -0.0743 0.3210 -0.9442
vn 0.1305 -0.0000 -0.9914
vn 0.3827 -0.0000 -0.9239
vn 0.6088 -0.0000 -0.7934
vn 0.7934 -0.0000 -0.6088
vn 0.9239 -0.0000 -0.3827
vn 0.9914 -0.0000 -0.1305
vn 0.9914 -0.0000 0.1305
vn 0.9239 -0.0000 0.3827
vn 0.7934 -0.0000 0.6088
vn 0.6088 -0.0000 0.7934
vn 0.3827 -0.0000 0.9239
vn 0.1305 -0.0000 0.9914
vn -0.1305 -0.0000 0.9914
vn -0.3827 -0.0000 0.9239
vn -0.6088 -0.0000 0.7934
vn -0.7934 -0.0000 0.6088
vn -0.9239 -0.0000 0.3827
vn -0.9914 -0.0000 0.1305
vn -0.9914 -0.0000 -0.1305
vn -0.9239 -0.0000 -0.3827
vn -0.7934 -0.0000 -0.6088
vn -0.6088 -0.0000 -0.7934
vn -0.3827 -0.0000 -0.9239
vn -0.1305 -0.0000 -0.9914
vn 0.0927 0.7041 -0.7041
vn 0.2718 0.7041 -0.6561
vn 0.4323 0.7041 -0.5634
vn 0.5634 0.7041 -0.4323
vn 0.6561 0.7041 -0.2718
vn 0.7041 0.7041 -0.0927
vn 0.7041 0.7041 0.0927
vn 0.6561 0.7041 0.2718
vn 0.5634 0.7041 0.4323
vn 0.4323 0.7041 0.5634
vn 0.2718 0.7041 0.6561
vn 0.0927 0.7041 0.7041
vn -0.0927 0.7041 0.7041
vn -0.2718 0.7041 0.6561
vn -0.4323 0.7041 0.5634
vn -0.5634 0.7041 0.4323
vn -0.6561 0.7041 0.2718
vn -0.7041 0.7041 0.0927
vn -0.7041 0.7041 -0.0927
vn -0.6561 0.7041 -0.2718
vn -0.5634 0.7041 -0.4323
vn -0.4323 0.7041 -0.5634
vn -0.2718 0.7041 -0.6561
vn -0.0927 0.7041 -0.7041
vt 1.000000 0.500000
vt 1.000000 1.000000
vt 0.979167 1.000000
vt 0.979167 0.500000
vt 0.958333 1.000000
vt 0.958333 0.500000
vt 0.937500 1.000000
vt 0.937500 0.500000
vt 0.916667 1.000000
vt 0.916667 0.500000
vt 0.895833 1.000000
vt 0.895833 0.500000
vt 0.875000 1.000000
vt 0.875000 0.500000
vt 0.854167 1.000000
vt 0.854167 0.500000
vt 0.833333 1.000000
vt 0.833333 0.500000
vt 0.812500 1.000000
vt 0.812500 0.500000
vt 0.791667 1.000000
vt 0.791667 0.500000
vt 0.770834 1.000000
vt 0.770834 0.500000
vt 0.750000 1.000000
vt 0.750000 0.500000
vt 0.729167 1.000000
vt 0.729167 0.500000
vt 0.708334 1.000000
vt 0.708334 0.500000
vt 0.687500 1.000000
vt 0.687500 0.500000
vt 0.666667 1.000000
vt 0.666667 0.500000
vt 0.645834 1.000000
vt 0.645834 0.500000
vt 0.625000 1.000000
vt 0.625000 0.500000
vt 0.604167 1.000000
vt 0.604167 0.500000
vt 0.583334 1.000000
vt 0.583334 0.500000
vt 0.562500 1.000000
vt 0.562500 0.500000
vt 0.541667 1.000000
vt 0.541667 0.500000
vt 0.520834 1.000000
vt 0.520834 0.500000
vt 0.500000 1.000000
vt 0.500000 0.500000
vt 0.479167 1.000000
vt 0.479167 0.500000
vt 0.458334 1.000000
vt 0.458334 0.500000
vt 0.437500 1.000000
vt 0.437500 0.500000
vt 0.416667 1.000000
vt 0.416667 0.500000
vt 0.395834 1.000000
vt 0.395834 0.500000
vt 0.375000 1.000000
vt 0.375000 0.500000
vt 0.354167 1.000000
vt 0.354167 0.500000
vt 0.333334 1.000000
vt 0.333334 0.500000
vt 0.312500 1.000000
vt 0.312500 0.500000
vt 0.291667 1.000000
vt 0.291667 0.500000
vt 0.270834 1.000000
vt 0.270834 0.500000
vt 0.250000 1.000000
vt 0.250000 0.500000
vt 0.229167 1.000000
vt 0.229167 0.500000
vt 0.208334 1.000000
vt 0.208334 0.500000
vt 0.187500 1.000000
vt 0.187500 0.500000
vt 0.166667 1.000000
vt 0.166667 0.500000
vt 0.145834 1.000000
vt 0.145834 0.500000
vt 0.125000 1.000000
vt 0.125000 0.500000
vt 0.104167 1.000000
vt 0.104167 0.500000
vt 0.083334 1.000000
vt 0.083334 0.500000
vt 0.062500 1.000000
vt 0.062500 0.500000
vt 0.041667 1.000000
vt 0.041667 0.500000
vt 0.281326 0.487947
vt 0.250000 0.490000
vt 0.218674 0.487947
vt 0.187883 0.481822
vt 0.158156 0.471731
vt 0.130000 0.457846
vt 0.103897 0.440405
vt 0.080294 0.419706
vt 0.059595 0.396103
vt 0.042154 0.370000
vt 0.028269 0.341844
vt 0.018178 0.312117
vt 0.012053 0.281326
vt 0.010000 0.250000
vt 0.012053 0.218674
vt 0.018178 0.187883
vt 0.028269 0.158156
vt 0.042154 0.130000
vt 0.059595 0.103897
vt 0.080294 0.080294
vt 0.103897 0.059595
vt 0.130000 0.042154
vt 0.158156 0.028269
vt 0.187883 0.018178
vt 0.218674 0.012053
vt 0.250000 0.010000
vt 0.281326 0.012053
vt 0.312117 0.018178
vt 0.341844 0.028269
vt 0.370000 0.042154
vt 0.396103 0.059595
vt 0.419706 0.080294
vt 0.440405 0.103897
vt 0.457846 0.130000
vt 0.471731 0.158156
vt 0.481822 0.187883
vt 0.487947 0.218674
vt 0.490000 0.250000
vt 0.487947 0.281326
vt 0.481822 0.312117
vt 0.471731 0.341844
vt 0.457846 0.370000
vt 0.440405 0.396103
vt 0.419706 0.419706
vt 0.396103 0.440405
vt 0.370000 0.457846
vt 0.341844 0.471731
vt 0.312117 0.481822
vt 0.020834 1.000000
vt 0.020834 0.500000
vt 0.000000 1.000000
vt 0.000000 0.500000
vt 0.750000 0.490000
vt 0.781326 0.487947
vt 0.812117 0.481822
vt 0.841844 0.471731
vt 0.870000 0.457846
vt 0.896103 0.440405
vt 0.919706 0.419706
vt 0.940405 0.396103
vt 0.957846 0.370000
vt 0.971731 0.341844
vt 0.981822 0.312117
vt 0.987947 0.281326
vt 0.990000 0.250000
vt 0.987947 0.218674
vt 0.981822 0.187883
vt 0.971731 0.158156
vt 0.957846 0.130000
vt 0.940405 0.103897
vt 0.919706 0.080294
vt 0.896103 0.059595
vt 0.870000 0.042154
vt 0.841844 0.028269
vt 0.812117 0.018178
vt 0.781326 0.012053
vt 0.750000 0.010000
vt 0.718674 0.012053
vt 0.687883 0.018178
vt 0.658156 0.028269
vt 0.630000 0.042154
vt 0.603897 0.059595
vt 0.580294 0.080294
vt 0.559595 0.103897
vt 0.542154 0.130000
vt 0.528269 0.158156
vt 0.518178 0.187883
vt 0.512053 0.218674
vt 0.510000 0.250000
vt 0.512053 0.281326
vt 0.518178 0.312117
vt 0.528269 0.341844
vt 0.542154 0.370000
vt 0.559595 0.396103
vt 0.580294 0.419706
vt 0.603897 0.440405
vt 0.630000 0.457846
vt 0.658156 0.471731
vt 0.687883 0.481822
vt 0.718674 0.487947
vt 0.975000 1.000000
vt 0.975000 0.500000
vt 0.950000 1.000000
vt 0.950000 0.500000
vt 0.925000 1.000000
vt 0.925000 0.500000
vt 0.900000 1.000000
vt 0.900000 0.500000
vt 0.850000 1.000000
vt 0.850000 0.500000
vt 0.825000 1.000000
vt 0.825000 0.500000
vt 0.800000 1.000000
vt 0.800000 0.500000
vt 0.775000 1.000000
vt 0.775000 0.500000
vt 0.725000 1.000000
vt 0.725000 0.500000
vt 0.700000 1.000000
vt 0.700000 0.500000
vt 0.675000 1.000000
vt 0.675000 0.500000
vt 0.650000 1.000000
vt 0.650000 0.500000
vt 0.600000 1.000000
vt 0.600000 0.500000
vt 0.575000 1.000000
vt 0.575000 0.500000
vt 0.550000 1.000000
vt 0.550000 0.500000
vt 0.525000 1.000000
vt 0.525000 0.500000
vt 0.475000 1.000000
vt 0.475000 0.500000
vt 0.450000 1.000000
vt 0.450000 0.500000
vt 0.425000 1.000000
vt 0.425000 0.500000
vt 0.400000 1.000000
vt 0.400000 0.500000
vt 0.375000 1.000000
vt 0.375000 0.500000
vt 0.350000 1.000000
vt 0.350000 0.500000
vt 0.325000 1.000000
vt 0.325000 0.500000
vt 0.300000 1.000000
vt 0.300000 0.500000
vt 0.275000 1.000000
vt 0.275000 0.500000
vt 0.250000 1.000000
vt 0.250000 0.500000
vt 0.225000 1.000000
vt 0.225000 0.500000
vt 0.200000 1.000000
vt 0.200000 0.500000
vt 0.175000 1.000000
vt 0.175000 0.500000
vt 0.150000 1.000000
vt 0.150000 0.500000
vt 0.100000 1.000000
vt 0.100000 0.500000
vt 0.075000 1.000000
vt 0.075000 0.500000
vt 0.050000 1.000000
vt 0.050000 0.500000
vt 0.287544 0.487045
vt 0.212456 0.487045
vt 0.175836 0.478254
vt 0.141042 0.463842
vt 0.108932 0.444164
vt 0.080294 0.419706
vt 0.055836 0.391068
vt 0.036158 0.358958
vt 0.021746 0.324164
vt 0.012955 0.287544
vt 0.012955 0.212456
vt 0.021746 0.175836
vt 0.036158 0.141042
vt 0.055836 0.108932
vt 0.080294 0.080294
vt 0.108932 0.055836
vt 0.141042 0.036158
vt 0.175836 0.021746
vt 0.212456 0.012955
vt 0.287544 0.012955
vt 0.324164 0.021746
vt 0.358958 0.036158
vt 0.391068 0.055836
vt 0.419706 0.080294
vt 0.444164 0.108932
vt 0.463842 0.141042
vt 0.478254 0.175836
vt 0.487045 0.212456
vt 0.487045 0.287544
vt 0.478254 0.324164
vt 0.463842 0.358958
vt 0.444164 0.391068
vt 0.391068 0.444164
vt 0.358958 0.463842
vt 0.324164 0.478254
vt 0.025000 1.000000
vt 0.025000 0.500000
vt 0.000000 1.000000
vt 0.000000 0.500000
vt 0.787544 0.487045
vt 0.824164 0.478254
vt 0.858958 0.463842
vt 0.891068 0.444164
vt 0.944164 0.391068
vt 0.963842 0.358958
vt 0.978254 0.324164
vt 0.987045 0.287544
vt 0.987045 0.212456
vt 0.978254 0.175836
vt 0.963842 0.141042
vt 0.944164 0.108932
vt 0.891068 0.055836
vt 0.858958 0.036158
vt 0.824164 0.021746
vt 0.787544 0.012955
vt 0.712456 0.012955
vt 0.675836 0.021746
vt 0.641042 0.036158
vt 0.608932 0.055836
vt 0.555836 0.108932
vt 0.536158 0.141042
vt 0.521746 0.175836
vt 0.512955 0.212456
vt 0.512955 0.287544
vt 0.521746 0.324164
vt 0.536158 0.358958
vt 0.555836 0.391068
vt 0.608932 0.444164
vt 0.641042 0.463842
vt 0.675836 0.478254
vt 0.712456 0.487045
vt 0.958333 1.000000
vt 0.958333 0.500000
vt 0.916667 1.000000
vt 0.916667 0.500000
vt 0.875000 1.000000
vt 0.875000 0.500000
vt 0.833333 1.000000
vt 0.833333 0.500000
vt 0.791667 1.000000
vt 0.791667 0.500000
vt 0.750000 1.000000
vt 0.750000 0.500000
vt 0.708333 1.000000
vt 0.708333 0.500000
vt 0.666667 1.000000
vt 0.666667 0.500000
vt 0.625000 1.000000
vt 0.625000 0.500000
vt 0.583333 1.000000
vt 0.583333 0.500000
vt 0.541666 1.000000
vt 0.541666 0.500000
vt 0.500000 1.000000
vt 0.500000 0.500000
vt 0.458333 1.000000
vt 0.458333 0.500000
vt 0.416666 1.000000
vt 0.416666 0.500000
vt 0.375000 1.000000
vt 0.375000 0.500000
vt 0.333333 1.000000
vt 0.333333 0.500000
vt 0.291667 1.000000
vt 0.291667 0.500000
vt 0.250000 1.000000
vt 0.250000 0.500000
vt 0.208333 1.000000
vt 0.208333 0.500000
vt 0.166666 1.000000
vt 0.166666 0.500000
vt 0.125000 1.000000
vt 0.125000 0.500000
vt 0.083333 1.000000
vt 0.083333 0.500000
vt 0.042154 0.370000
vt 0.018178 0.312117
vt 0.018178 0.187883
vt 0.042154 0.130000
vt 0.130000 0.042154
vt 0.187883 0.018178
vt 0.312117 0.018178
vt 0.370000 0.042154
vt 0.041666 1.000000
vt 0.041666 0.500000
vt -0.000000 1.000000
vt -0.000000 0.500000
vt 0.870000 0.042154
vt 0.812117 0.018178
vt 0.687883 0.018178
vt 0.630000 0.042154
vt 0.250000 0.250000
vt 0.919706 0.080294
vt 0.580294 0.080294
s 0
usemtl piece_white
f 1/1/1 2/2/1 4/3/1 3/4/1
f 3/4/2 4/3/2 6/5/2 5/6/2
f 5/6/3 6/5/3 8/7/3 7/8/3
f 7/8/4 8/7/4 10/9/4 9/10/4
f 9/10/5 10/9/5 12/11/5 11/12/5
f 11/12/6 12/11/6 14/13/6 13/14/6
f 13/14/7 14/13/7 16/15/7 15/16/7
f 15/16/8 16/15/8 18/17/8 17/18/8
f 17/18/9 18/17/9 20/19/9 19/20/9
f 19/20/10 20/19/10 22/21/10 21/22/10
f 21/22/11 22/21/11 24/23/11 23/24/11
f 23/24/12 24/23/12 26/25/12 25/26/12
f 25/26/13 26/25/13 28/27/13 27/28/13
f 27/28/14 28/27/14 30/29/14 29/30/14
f 29/30/15 30/29/15 32/31/15 31/32/15
f 31/32/16 32/31/16 34/33/16 33/34/16
f 33/34/17 34/33/17 36/35/17 35/36/17
f 35/36/18 36/35/18 38/37/18 37/38/18
f 37/38/19 38/37/19 40/39/19 39/40/19
f 39/40/20 40/39/20 42/41/20 41/42/20
f 41/42/21 42/41/21 44/43/21 43/44/21
f 43/44/22 44/43/22 46/45/22 45/46/22
f 45/46/23 46/45/23 48/47/23 47/48/23
f 47/48/24 48/47/24 50/49/24 49/50/24
f 49/50/25 50/49/25 52/51/25 51/52/25
f 51/52/26 52/51/26 54/53/26 53/54/26
f 53/54/27 54/53/27 56/55/27 55/56/27
f 55/56/28 56/55/28 58/57/28 57/58/28
f 57/58/29 58/57/29 60/59/29 59/60/29
f 59/60/30 60/59/30 62/61/30 61/62/30
f 61/62/31 62/61/31 64/63/31 63/64/31
f 63/64/32 64/63/32 66/65/32 65/66/32
f 65/66/33 66/65/33 68/67/33 67/68/33
f 67/68/34 68/67/34 70/69/34 69/70/34
f 69/70/35 70/69/35 72/71/35 71/72/35
f 71/72/36 72/71/36 74/73/36 73/74/36
f 73/74/37 74/73/37 76/75/37 75/76/37
f 75/76/38 76/75/38 78/77/38 77/78/38
f 77/78/39 78/77/39 80/79/39 79/80/39
f 79/80/40 80/79/40 82/81/40 81/82/40
f 81/82/41 82/81/41 84/83/41 83/84/41
f 83/84/42 84/83/42 86/85/42 85/86/42
f 85/86/43 86/85/43 88/87/43 87/88/43
f 87/88/44 88/87/44 90/89/44 89/90/44
f 89/90/45 90/89/45 92/91/45 91/92/45
f 91/92/46 92/91/46 94/93/46 93/94/46
f 4/95/47 2/96/47 96/97/47 94/98/47 92/99/47 90/100/47 88/101/47 86/102/47 84/103/47 82/104/47 80/105/47 78/106/47 76/107/47 74/108/47 72/109/47 70/110/47 68/111/47 66/112/47 64/113/47 62/114/47 60/115/47 58/116/47 56/117/47 54/118/47 52/119/47 50/120/47 48/121/47 46/122/47 44/123/47 42/124/47 40/125/47 38/126/47 36/127/47 34/128/47 32/129/47 30/130/47 28/131/47 26/132/47 24/133/47 22/134/47 20/135/47 18/136/47 16/137/47 14/138/47 12/139/47 10/140/47 8/141/47 6/142/47
f 93/94/48 94/93/48 96/143/48 95/144/48
f 95/144/49 96/143/49 2/145/49 1/146/49
f 1/147/50 3/148/50 5/149/50 7/150/50 9/151/50 11/152/50 13/153/50 15/154/50 17/155/50 19/156/50 21/157/50 23/158/50 25/159/50 27/160/50 29/161/50 31/162/50 33/163/50 35/164/50 37/165/50 39/166/50 41/167/50 43/168/50 45/169/50 47/170/50 49/171/50 51/172/50 53/173/50 55/174/50 57/175/50 59/176/50 61/177/50 63/178/50 65/179/50 67/180/50 69/181/50 71/182/50 73/183/50 75/184/50 77/185/50 79/186/50 81/187/50 83/188/50 85/189/50 87/190/50 89/191/50 91/192/50 93/193/50 95/194/50
f 97/1/51 98/2/51 100/195/51 99/196/51
f 99/196/52 100/195/52 102/197/52 101/198/52
f 101/198/53 102/197/53 104/199/53 103/200/53
f 103/200/54 104/199/54 106/201/54 105/202/54
f 105/202/55 106/201/55 108/13/55 107/14/55
f 107/14/56 108/13/56 110/203/56 109/204/56
f 109/204/57 110/203/57 112/205/57 111/206/57
f 111/206/58 112/205/58 114/207/58 113/208/58
f 113/208/59 114/207/59 116/209/59 115/210/59
f 115/210/60 116/209/60 118/25/60 117/26/60
f 117/26/61 118/25/61 120/211/61 119/212/61
f 119/212/62 120/211/62 122/213/62 121/214/62
f 121/214/63 122/213/63 124/215/63 123/216/63
f 123/216/64 124/215/64 126/217/64 125/218/64
f 125/218/65 126/217/65 128/37/65 127/38/65
f 127/38/66 128/37/66 130/219/66 129/220/66
f 129/220/67 130/219/67 132/221/67 131/222/67
f 131/222/68 132/221/68 134/223/68 133/224/68
f 133/224/69 134/223/69 136/225/69 135/226/69
f 135/226/70 136/225/70 138/49/70 137/50/70
f 137/50/71 138/49/71 140/227/71 139/228/71
f 139/228/72 140/227/72 142/229/72 141/230/72
f 141/230/73 142/229/73 144/231/73 143/232/73
f 143/232/74 144/231/74 146/233/74 145/234/74
f 145/234/75 146/233/75 148/235/75 147/236/75
f 147/236/76 148/235/76 150/237/76 149/238/76
f 149/238/77 150/237/77 152/239/77 151/240/77
f 151/240/78 152/239/78 154/241/78 153/242/78
f 153/242/79 154/241/79 156/243/79 155/244/79
f 155/244/80 156/243/80 158/245/80 157/246/80
f 157/246/81 158/245/81 160/247/81 159/248/81
f 159/248/82 160/247/82 162/249/82 161/250/82
f 161/250/83 162/249/83 164/251/83 163/252/83
f 163/252/84 164/251/84 166/253/84 165/254/84
f 165/254/85 166/253/85 168/85/85 167/86/85
f 167/86/86 168/85/86 170/255/86 169/256/86
f 169/256/87 170/255/87 172/257/87 171/258/87
f 171/258/88 172/257/88 174/259/88 173/260/88
f 100/261/47 98/96/47 176/262/47 174/263/47 172/264/47 170/265/47 168/266/47 166/267/47 164/268/47 162/269/47 160/270/47 158/108/47 156/271/47 154/272/47 152/273/47 150/274/47 148/275/47 146/276/47 144/277/47 142/278/47 140/279/47 138/120/47 136/280/47 134/281/47 132/282/47 130/283/47 128/284/47 126/285/47 124/286/47 122/287/47 120/288/47 118/132/47 116/289/47 114/290/47 112/291/47 110/292/47 108/138/47 106/293/47 104/294/47 102/295/47
f 173/260/89 174/259/89 176/296/89 175/297/89
f 175/297/90 176/296/90 98/298/90 97/299/90
f 97/147/50 99/300/50 101/301/50 103/302/50 105/303/50 107/153/50 109/304/50 111/305/50 113/306/50 115/307/50 117/159/50 119/308/50 121/309/50 123/310/50 125/311/50 127/165/50 129/312/50 131/313/50 133/314/50 135/315/50 137/171/50 139/316/50 141/317/50 143/318/50 145/319/50 147/177/50 149/320/50 151/321/50 153/322/50 155/323/50 157/183/50 159/324/50 161/325/50 163/326/50 165/327/50 167/189/50 169/328/50 171/329/50 173/330/50 175/331/50
f 177/1/1 178/2/1 180/3/1 179/4/1
f 179/4/2 180/3/2 182/5/2 181/6/2
f 181/6/3 182/5/3 184/7/3 183/8/3
f 183/8/4 184/7/4 186/9/4 185/10/4
f 185/10/5 186/9/5 188/11/5 187/12/5
f 187/12/6 188/11/6 190/13/6 189/14/6
f 189/14/7 190/13/7 192/15/7 191/16/7
f 191/16/8 192/15/8 194/17/8 193/18/8
f 193/18/9 194/17/9 196/19/9 195/20/9
f 195/20/10 196/19/10 198/21/10 197/22/10
f 197/22/11 198/21/11 200/23/11 199/24/11
f 199/24/12 200/23/12 202/25/12 201/26/12
f 201/26/13 202/25/13 204/27/13 203/28/13
f 203/28/14 204/27/14 206/29/14 205/30/14
f 205/30/15 206/29/15 208/31/15 207/32/15
f 207/32/16 208/31/16 210/33/16 209/34/16
f 209/34/17 210/33/17 212/35/17 211/36/17
f 211/36/18 212/35/18 214/37/18 213/38/18
f 213/38/19 214/37/19 216/39/19 215/40/19
f 215/40/20 216/39/20 218/41/20 217/42/20
f 217/42/21 218/41/21 220/43/21 219/44/21
f 219/44/22 220/43/22 222/45/22 221/46/22
f 221/46/23 222/45/23 224/47/23 223/48/23
f 223/48/24 224/47/24 226/49/24 225/50/24
f 225/50/25 226/49/25 228/51/25 227/52/25
f 227/52/26 228/51/26 230/53/26 229/54/26
f 229/54/27 230/53/27 232/55/27 231/56/27
f 231/56/28 232/55/28 234/57/28 233/58/28
f 233/58/29 234/57/29 236/59/29 235/60/29
f 235/60/30 236/59/30 238/61/30 237/62/30
f 237/62/31 238/61/31 240/63/31 239/64/31
f 239/64/32 240/63/32 242/65/32 241/66/32
f 241/66/33 242/65/33 244/67/33 243/68/33
f 243/68/34 244/67/34 246/69/34 245/70/34
f 245/70/35 246/69/35 248/71/35 247/72/35
f 247/72/36 248/71/36 250/73/36 249/74/36
f 249/74/37 250/73/37 252/75/37 251/76/37
f 251/76/38 252/75/38 254/77/38 253/78/38
f 253/78/39 254/77/39 256/79/39 255/80/39
f 255/80/40 256/79/40 258/81/40 257/82/40
f 257/82/41 258/81/41 260/83/41 259/84/41
f 259/84/42 260/83/42 262/85/42 261/86/42
f 261/86/43 262/85/43 264/87/43 263/88/43
f 263/88/44 264/87/44 266/89/44 265/90/44
f 265/90/45 266/89/45 268/91/45 267/92/45
f 267/92/46 268/91/46 270/93/46 269/94/46
f 180/95/47 178/96/47 272/97/47 270/98/47 268/99/47 266/100/47 264/101/47 262/102/47 260/103/47 258/104/47 256/105/47 254/106/47 252/107/47 250/108/47 248/109/47 246/110/47 244/111/47 242/112/47 240/113/47 238/114/47 236/115/47 234/116/47 232/117/47 230/118/47 228/119/47 226/120/47 224/121/47 222/122/47 220/123/47 218/124/47 216/125/47 214/126/47 212/127/47 210/128/47 208/129/47 206/130/47 204/131/47 202/132/47 200/133/47 198/134/47 196/135/47 194/136/47 192/137/47 190/138/47 188/139/47 186/140/47 184/141/47 182/142/47
f 269/94/48 270/93/48 272/143/48 271/144/48
f 271/144/49 272/143/49 178/145/49 177/146/49
f 177/147/50 179/148/50 181/149/50 183/150/50 185/151/50 187/152/50 189/153/50 191/154/50 193/155/50 195/156/50 197/157/50 199/158/50 201/159/50 203/160/50 205/161/50 207/162/50 209/163/50 211/164/50 213/165/50 215/166/50 217/167/50 219/168/50 221/169/50 223/170/50 225/171/50 227/172/50 229/173/50 231/174/50 233/175/50 235/176/50 237/177/50 239/178/50 241/179/50 243/180/50 245/181/50 247/182/50 249/183/50 251/184/50 253/185/50 255/186/50 257/187/50 259/188/50 261/189/50 263/190/50 265/191/50 267/192/50 269/193/50 271/194/50
f 273/1/91 274/2/91 276/332/91 275/333/91
f 275/333/92 276/332/92 278/334/92 277/335/92
f 277/335/93 278/334/93 280/336/93 279/337/93
f 279/337/94 280/336/94 282/338/94 281/339/94
f 281/339/95 282/338/95 284/340/95 283/341/95
f 283/341/96 284/340/96 286/342/96 285/343/96
f 285/343/97 286/342/97 288/344/97 287/345/97
f 287/345/98 288/344/98 290/346/98 289/347/98
f 289/347/99 290/346/99 292/348/99 291/349/99
f 291/349/100 292/348/100 294/350/100 293/351/100
f 293/351/101 294/350/101 296/352/101 295/353/101
f 295/353/102 296/352/102 298/354/102 297/355/102
f 297/355/103 298/354/103 300/356/103 299/357/103
f 299/357/104 300/356/104 302/358/104 301/359/104
f 301/359/105 302/358/105 304/360/105 303/361/105
f 303/361/106 304/360/106 306/362/106 305/363/106
f 305/363/107 306/362/107 308/364/107 307/365/107
f 307/365/108 308/364/108 310/366/108 309/367/108
f 309/367/109 310/366/109 312/368/109 311/369/109
f 311/369/110 312/368/110 314/370/110 313/371/110
f 313/371/111 314/370/111 316/372/111 315/373/111
f 315/373/112 316/372/112 318/374/112 317/375/112
f 276/142/47 274/96/47 320/98/47 318/100/47 316/102/47 314/376/47 312/377/47 310/108/47 308/378/47 306/379/47 304/114/47 302/380/47 300/381/47 298/120/47 296/382/47 294/383/47 292/126/47 290/128/47 288/130/47 286/132/47 284/134/47 282/136/47 280/138/47 278/140/47
f 317/375/113 318/374/113 320/384/113 319/385/113
f 319/385/114 320/384/114 274/386/114 273/387/114
f 273/147/50 275/149/50 277/151/50 279/153/50 281/155/50 283/157/50 285/159/50 287/161/50 289/163/50 291/165/50 293/388/50 295/389/50 297/171/50 299/390/50 301/391/50 303/177/50 305/179/50 307/181/50 309/183/50 311/185/50 313/187/50 315/189/50 317/191/50 319/193/50
f 321/96/115 345/392/115 322/142/115
f 322/142/116 345/392/116 323/140/116
f 323/140/117 345/392/117 324/138/117
f 324/138/118 345/392/118 325/136/118
f 325/136/119 345/392/119 326/134/119
f 326/134/120 345/392/120 327/132/120
f 327/132/121 345/392/121 328/130/121
f 328/130/122 345/392/122 329/128/122
f 329/128/123 345/392/123 330/284/123
f 330/284/124 345/392/124 331/124/124
f 331/124/125 345/392/125 332/382/125
f 332/382/126 345/392/126 333/120/126
f 333/120/127 345/392/127 334/381/127
f 334/381/128 345/392/128 335/116/128
f 335/116/129 345/392/129 336/275/129
f 336/275/130 345/392/130 337/112/130
f 337/112/131 345/392/131 338/378/131
f 338/378/132 345/392/132 339/108/132
f 339/108/133 345/392/133 340/377/133
f 340/377/134 345/392/134 341/104/134
f 341/104/135 345/392/135 342/266/135
f 342/266/136 345/392/136 343/100/136
f 321/147/50 322/149/50 323/151/50 324/153/50 325/155/50 326/157/50 327/159/50 328/161/50 329/163/50 330/393/50 331/167/50 332/389/50 333/171/50 334/390/50 335/175/50 336/394/50 337/179/50 338/181/50 339/183/50 340/185/50 341/187/50 342/189/50 343/191/50 344/193/50
f 343/100/137 345/392/137 344/98/137
f 344/98/138 345/392/138 321/96/138
