# Blender 5.2.0 LTS
# www.blender.org
mtllib white_knight.mtl
o white_knight
v 0.000000 0.000000 -0.007000
v 0.000000 0.008000 -0.007000
v 0.000914 0.000000 -0.006940
v 0.000914 0.008000 -0.006940
v 0.001812 0.000000 -0.006761
v 0.001812 0.008000 -0.006761
v 0.002679 0.000000 -0.006467
v 0.002679 0.008000 -0.006467
v 0.003500 0.000000 -0.006062
v 0.003500 0.008000 -0.006062
v 0.004261 0.000000 -0.005553
v 0.004261 0.008000 -0.005553
v 0.004950 0.000000 -0.004950
v 0.004950 0.008000 -0.004950
v 0.005553 0.000000 -0.004261
v 0.005553 0.008000 -0.004261
v 0.006062 0.000000 -0.003500
v 0.006062 0.008000 -0.003500
v 0.006467 0.000000 -0.002679
v 0.006467 0.008000 -0.002679
v 0.006761 0.000000 -0.001812
v 0.006761 0.008000 -0.001812
v 0.006940 0.000000 -0.000914
v 0.006940 0.008000 -0.000914
v 0.007000 0.000000 0.000000
v 0.007000 0.008000 0.000000
v 0.006940 0.000000 0.000914
v 0.006940 0.008000 0.000914
v 0.006761 0.000000 0.001812
v 0.006761 0.008000 0.001812
v 0.006467 0.000000 0.002679
v 0.006467 0.008000 0.002679
v 0.006062 0.000000 0.003500
v 0.006062 0.008000 0.003500
v 0.005553 0.000000 0.004261
v 0.005553 0.008000 0.004261
v 0.004950 0.000000 0.004950
v 0.004950 0.008000 0.004950
v 0.004261 0.000000 0.005553
v 0.004261 0.008000 0.005553
v 0.003500 0.000000 0.006062
v 0.003500 0.008000 0.006062
v 0.002679 0.000000 0.006467
v 0.002679 0.008000 0.006467
v 0.001812 0.000000 0.006761
v 0.001812 0.008000 0.006761
v 0.000914 0.000000 0.006940
v 0.000914 0.008000 0.006940
v 0.000000 0.000000 0.007000
v 0.000000 0.008000 0.007000
v -0.000914 0.000000 0.006940
v -0.000914 0.008000 0.006940
v -0.001812 0.000000 0.006761
v -0.001812 0.008000 0.006761
v -0.002679 0.000000 0.006467
v -0.002679 0.008000 0.006467
v -0.003500 0.000000 0.006062
v -0.003500 0.008000 0.006062
v -0.004261 0.000000 0.005553
v -0.004261 0.008000 0.005553
v -0.004950 0.000000 0.004950
v -0.004950 0.008000 0.004950
v -0.005553 0.000000 0.004261
v -0.005553 0.008000 0.004261
v -0.006062 0.000000 0.003500
v -0.006062 0.008000 0.003500
v -0.006467 0.000000 0.002679
v -0.006467 0.008000 0.002679
v -0.006761 0.000000 0.001812
v -0.006761 0.008000 0.001812
v -0.006940 0.000000 0.000914
v -0.006940 0.008000 0.000914
v -0.007000 0.000000 0.000000
v -0.007000 0.008000 0.000000
v -0.006940 0.000000 -0.000914
v -0.006940 0.008000 -0.000914
v -0.006761 0.000000 -0.001812
v -0.006761 0.008000 -0.001812
v -0.006467 0.000000 -0.002679
v -0.006467 0.008000 -0.002679
v -0.006062 0.000000 -0.003500
v -0.006062 0.008000 -0.003500
v -0.005553 0.000000 -0.004261
v -0.005553 0.008000 -0.004261
v -0.004950 0.000000 -0.004950
v -0.004950 0.008000 -0.004950
v -0.004261 0.000000 -0.005553
v -0.004261 0.008000 -0.005553
v -0.003500 0.000000 -0.006062
v -0.003500 0.008000 -0.006062
v -0.002679 0.000000 -0.006467
v -0.002679 0.008000 -0.006467
v -0.001812 0.000000 -0.006761
v -0.001812 0.008000 -0.006761
v -0.000914 0.000000 -0.006940
v -0.000914 0.008000 -0.006940
v 0.000000 0.010000 -0.003500
v 0.000000 0.028000 -0.003500
v 0.000457 0.010000 -0.003470
v 0.000457 0.028000 -0.003470
v 0.000906 0.010000 -0.003381
v 0.000906 0.028000 -0.003381
v 0.001339 0.010000 -0.003234
v 0.001339 0.028000 -0.003234
v 0.001750 0.010000 -0.003031
v 0.001750 0.028000 -0.003031
v 0.002131 0.010000 -0.002777
v 0.002131 0.028000 -0.002777
v 0.002475 0.010000 -0.002475
v 0.002475 0.028000 -0.002475
v 0.002777 0.010000 -0.002131
v 0.002777 0.028000 -0.002131
v 0.003031 0.010000 -0.001750
v 0.003031 0.028000 -0.001750
v 0.003234 0.010000 -0.001339
v 0.003234 0.028000 -0.001339
v 0.003381 0.010000 -0.000906
v 0.003381 0.028000 -0.000906
v 0.003470 0.010000 -0.000457
v 0.003470 0.028000 -0.000457
v 0.003500 0.010000 0.000000
v 0.003500 0.028000 0.000000
v 0.003470 0.010000 0.000457
v 0.003470 0.028000 0.000457
v 0.003381 0.010000 0.000906
v 0.003381 0.028000 0.000906
v 0.003234 0.010000 0.001339
v 0.003234 0.028000 0.001339
v 0.003031 0.010000 0.001750
v 0.003031 0.028000 0.001750
v 0.002777 0.010000 0.002131
v 0.002777 0.028000 0.002131
v 0.002475 0.010000 0.002475
v 0.002475 0.028000 0.002475
v 0.002131 0.010000 0.002777
v 0.002131 0.028000 0.002777
v 0.001750 0.010000 0.003031
v 0.001750 0.028000 0.003031
v 0.001339 0.010000 0.003234
v 0.001339 0.028000 0.003234
v 0.000906 0.010000 0.003381
v 0.000906 0.028000 0.003381
v 0.000457 0.010000 0.003470
v 0.000457 0.028000 0.003470
v 0.000000 0.010000 0.003500
v 0.000000 0.028000 0.003500
v -0.000457 0.010000 0.003470
v -0.000457 0.028000 0.003470
v -0.000906 0.010000 0.003381
v -0.000906 0.028000 0.003381
v -0.001339 0.010000 0.003234
v -0.001339 0.028000 0.003234
v -0.001750 0.010000 0.003031
v -0.001750 0.028000 0.003031
v -0.002131 0.010000 0.002777
v -0.002131 0.028000 0.002777
v -0.002475 0.010000 0.002475
v -0.002475 0.028000 0.002475
v -0.002777 0.010000 0.002131
v -0.002777 0.028000 0.002131
v -0.003031 0.010000 0.001750
v -0.003031 0.028000 0.001750
v -0.003234 0.010000 0.001339
v -0.003234 0.028000 0.001339
v -0.003381 0.010000 0.000906
v -0.003381 0.028000 0.000906
v -0.003470 0.010000 0.000457
v -0.003470 0.028000 0.000457
v -0.003500 0.010000 0.000000
v -0.003500 0.028000 0.000000
v -0.003470 0.010000 -0.000457
v -0.003470 0.028000 -0.000457
v -0.003381 0.010000 -0.000906
v -0.003381 0.028000 -0.000906
v -0.003234 0.010000 -0.001339
v -0.003234 0.028000 -0.001339
v -0.003031 0.010000 -0.001750
v -0.003031 0.028000 -0.001750
v -0.002777 0.010000 -0.002131
v -0.002777 0.028000 -0.002131
v -0.002475 0.010000 -0.002475
v -0.002475 0.028000 -0.002475
v -0.002131 0.010000 -0.002777
v -0.002131 0.028000 -0.002777
v -0.001750 0.010000 -0.003031
v -0.001750 0.028000 -0.003031
v -0.001339 0.010000 -0.003234
v -0.001339 0.028000 -0.003234
v -0.000906 0.010000 -0.003381
v -0.000906 0.028000 -0.003381
v -0.000457 0.010000 -0.003470
v -0.000457 0.028000 -0.003470
v 0.000000 0.006000 -0.003500
v 0.000000 0.008000 -0.003500
v 0.003031 0.006000 0.001750
v 0.003031 0.008000 0.001750
v -0.003031 0.006000 0.001750
v -0.003031 0.008000 0.001750
v -0.003500 0.026000 0.000000
v 0.001750 0.026000 -0.003031
v 0.001750 0.026000 0.003031
v 0.000000 0.030000 0.000000
vn 0.0654 -0.0000 -0.9979
vn 0.1951 -0.0000 -0.9808
vn 0.3214 -0.0000 -0.9469
vn 0.4423 -0.0000 -0.8969
vn 0.5556 -0.0000 -0.8315
vn 0.6593 -0.0000 -0.7518
vn 0.7518 -0.0000 -0.6593
vn 0.8315 -0.0000 -0.5556
vn 0.8969 -0.0000 -0.4423
vn 0.9469 -0.0000 -0.3214
vn 0.9808 -0.0000 -0.1951
vn 0.9979 -0.0000 -0.0654
vn 0.9979 -0.0000 0.0654
vn 0.9808 -0.0000 0.1951
vn 0.9469 -0.0000 0.3214
vn 0.8969 -0.0000 0.4423
vn 0.8315 -0.0000 0.5556
vn 0.7518 -0.0000 0.6593
vn 0.6593 -0.0000 0.7518
vn 0.5556 -0.0000 0.8315
vn 0.4423 -0.0000 0.8969
vn 0.3214 -0.0000 0.9469
vn 0.1951 -0.0000 0.9808
vn 0.0654 -0.0000 0.9979
vn -0.0654 -0.0000 0.9979
vn -0.1951 -0.0000 0.9808
vn -0.3214 -0.0000 0.9469
vn -0.4423 -0.0000 0.8969
vn -0.5556 -0.0000 0.8315
vn -0.6593 -0.0000 0.7518
vn -0.7518 -0.0000 0.6593
vn -0.8315 -0.0000 0.5556
vn -0.8969 -0.0000 0.4423
vn -0.9469 -0.0000 0.3214
vn -0.9808 -0.0000 0.1951
vn -0.9979 -0.0000 0.0654
vn -0.9979 -0.0000 -0.0654
vn -0.9808 -0.0000 -0.1951
vn -0.9469 -0.0000 -0.3214
vn -0.8969 -0.0000 -0.4423
vn -0.8315 -0.0000 -0.5556
vn -0.7518 -0.0000 -0.6593
vn -0.6593 -0.0000 -0.7518
vn -0.5556 -0.0000 -0.8315
vn -0.4423 -0.0000 -0.8969
vn -0.3214 -0.0000 -0.9469
vn -0.0000 1.0000 -0.0000
vn -0.1951 -0.0000 -0.9808
vn -0.0654 -0.0000 -0.9979
vn -0.0000 -1.0000 -0.0000
vn 0.8660 -0.0000 -0.5000
vn -0.0000 -0.0000 1.0000
vn -0.8660 -0.0000 -0.5000
vn -0.4581 0.4008 -0.7934
vn 0.9162 0.4008 -0.0000
vn -0.4581 0.4008 0.7934
vt 1.000000 0.500000
vt 1.000000 1.000000
vt 0.979167 1.000000
vt 0.979167 0.500000
vt 0.958333 1.000000
vt 0.958333 0.500000
vt 0.937500 1.000000
vt 0.937500 0.500000
vt 0.916667 1.000000
vt 0.916667 0.500000
vt 0.895833 1.000000
vt 0.895833 0.500000
vt 0.875000 1.000000
vt 0.875000 0.500000
vt 0.854167 1.000000
vt 0.854167 0.500000
vt 0.833333 1.000000
vt 0.833333 0.500000
vt 0.812500 1.000000
vt 0.812500 0.500000
vt 0.791667 1.000000
vt 0.791667 0.500000
vt 0.770834 1.000000
vt 0.770834 0.500000
vt 0.750000 1.000000
vt 0.750000 0.500000
vt 0.729167 1.000000
vt 0.729167 0.500000
vt 0.708334 1.000000
vt 0.708334 0.500000
vt 0.687500 1.000000
vt 0.687500 0.500000
vt 0.666667 1.000000
vt 0.666667 0.500000
vt 0.645834 1.000000
vt 0.645834 0.500000
vt 0.625000 1.000000
vt 0.625000 0.500000
vt 0.604167 1.000000
vt 0.604167 0.500000
vt 0.583334 1.000000
vt 0.583334 0.500000
vt 0.562500 1.000000
vt 0.562500 0.500000
vt 0.541667 1.000000
vt 0.541667 0.500000
vt 0.520834 1.000000
vt 0.520834 0.500000
vt 0.500000 1.000000
vt 0.500000 0.500000
vt 0.479167 1.000000
vt 0.479167 0.500000
vt 0.458334 1.000000
vt 0.458334 0.500000
vt 0.437500 1.000000
vt 0.437500 0.500000
vt 0.416667 1.000000
vt 0.416667 0.500000
vt 0.395834 1.000000
vt 0.395834 0.500000
vt 0.375000 1.000000
vt 0.375000 0.500000
vt 0.354167 1.000000
vt 0.354167 0.500000
vt 0.333334 1.000000
vt 0.333334 0.500000
vt 0.312500 1.000000
vt 0.312500 0.500000
vt 0.291667 1.000000
vt 0.291667 0.500000
vt 0.270834 1.000000
vt 0.270834 0.500000
vt 0.250000 1.000000
vt 0.250000 0.500000
vt 0.229167 1.000000
vt 0.229167 0.500000
vt 0.208334 1.000000
vt 0.208334 0.500000
vt 0.187500 1.000000
vt 0.187500 0.500000
vt 0.166667 1.000000
vt 0.166667 0.500000
vt 0.145834 1.000000
vt 0.145834 0.500000
vt 0.125000 1.000000
vt 0.125000 0.500000
vt 0.104167 1.000000
vt 0.104167 0.500000
vt 0.083334 1.000000
vt 0.083334 0.500000
vt 0.062500 1.000000
vt 0.062500 0.500000
vt 0.041667 1.000000
vt 0.041667 0.500000
vt 0.281326 0.487947
vt 0.250000 0.490000
vt 0.218674 0.487947
vt 0.187883 0.481822
vt 0.158156 0.471731
vt 0.130000 0.457846
vt 0.103897 0.440405
vt 0.080294 0.419706
vt 0.059595 0.396103
vt 0.042154 0.370000
vt 0.028269 0.341844
vt 0.018178 0.312117
vt 0.012053 0.281326
vt 0.010000 0.250000
vt 0.012053 0.218674
vt 0.018178 0.187883
vt 0.028269 0.158156
vt 0.042154 0.130000
vt 0.059595 0.103897
vt 0.080294 0.080294
vt 0.103897 0.059595
vt 0.130000 0.042154
vt 0.158156 0.028269
vt 0.187883 0.018178
vt 0.218674 0.012053
vt 0.250000 0.010000
vt 0.281326 0.012053
vt 0.312117 0.018178
vt 0.341844 0.028269
vt 0.370000 0.042154
vt 0.396103 0.059595
vt 0.419706 0.080294
vt 0.440405 0.103897
vt 0.457846 0.130000
vt 0.471731 0.158156
vt 0.481822 0.187883
vt 0.487947 0.218674
vt 0.490000 0.250000
vt 0.487947 0.281326
vt 0.481822 0.312117
vt 0.471731 0.341844
vt 0.457846 0.370000
vt 0.440405 0.396103
vt 0.419706 0.419706
vt 0.396103 0.440405
vt 0.370000 0.457846
vt 0.341844 0.471731
vt 0.312117 0.481822
vt 0.020834 1.000000
vt 0.020834 0.500000
vt 0.000000 1.000000
vt 0.000000 0.500000
vt 0.750000 0.490000
vt 0.781326 0.487947
vt 0.812117 0.481822
vt 0.841844 0.471731
vt 0.870000 0.457846
vt 0.896103 0.440405
vt 0.919706 0.419706
vt 0.940405 0.396103
vt 0.957846 0.370000
vt 0.971731 0.341844
vt 0.981822 0.312117
vt 0.987947 0.281326
vt 0.990000 0.250000
vt 0.987947 0.218674
vt 0.981822 0.187883
vt 0.971731 0.158156
vt 0.957846 0.130000
vt 0.940405 0.103897
vt 0.919706 0.080294
vt 0.896103 0.059595
vt 0.870000 0.042154
vt 0.841844 0.028269
vt 0.812117 0.018178
vt 0.781326 0.012053
vt 0.750000 0.010000
vt 0.718674 0.012053
vt 0.687883 0.018178
vt 0.658156 0.028269
vt 0.630000 0.042154
vt 0.603897 0.059595
vt 0.580294 0.080294
vt 0.559595 0.103897
vt 0.542154 0.130000
vt 0.528269 0.158156
vt 0.518178 0.187883
vt 0.512053 0.218674
vt 0.510000 0.250000
vt 0.512053 0.281326
vt 0.518178 0.312117
vt 0.528269 0.341844
vt 0.542154 0.370000
vt 0.559595 0.396103
vt 0.580294 0.419706
vt 0.603897 0.440405
vt 0.630000 0.457846
vt 0.658156 0.471731
vt 0.687883 0.481822
vt 0.718674 0.487947
vt 0.666667 1.000000
vt 0.666667 0.500000
vt 0.333333 1.000000
vt 0.333333 0.500000
vt -0.000000 1.000000
vt -0.000000 0.500000
vt 0.250000 0.250000
s 0
usemtl piece_white
f 1/1/1 2/2/1 4/3/1 3/4/1
f 3/4/2 4/3/2 6/5/2 5/6/2
f 5/6/3 6/5/3 8/7/3 7/8/3
f 7/8/4 8/7/4 10/9/4 9/10/4
f 9/10/5 10/9/5 12/11/5 11/12/5
f 11/12/6 12/11/6 14/13/6 13/14/6
f 13/14/7 14/13/7 16/15/7 15/16/7
f 15/16/8 16/15/8 18/17/8 17/18/8
f 17/18/9 18/17/9 20/19/9 19/20/9
f 19/20/10 20/19/10 22/21/10 21/22/10
f 21/22/11 22/21/11 24/23/11 23/24/11
f 23/24/12 24/23/12 26/25/12 25/26/12
f 25/26/13 26/25/13 28/27/13 27/28/13
f 27/28/14 28/27/14 30/29/14 29/30/14
f 29/30/15 30/29/15 32/31/15 31/32/15
f 31/32/16 32/31/16 34/33/16 33/34/16
f 33/34/17 34/33/17 36/35/17 35/36/17
f 35/36/18 36/35/18 38/37/18 37/38/18
f 37/38/19 38/37/19 40/39/19 39/40/19
f 39/40/20 40/39/20 42/41/20 41/42/20
f 41/42/21 42/41/21 44/43/21 43/44/21
f 43/44/22 44/43/22 46/45/22 45/46/22
f 45/46/23 46/45/23 48/47/23 47/48/23
f 47/48/24 48/47/24 50/49/24 49/50/24
f 49/50/25 50/49/25 52/51/25 51/52/25
f 51/52/26 52/51/26 54/53/26 53/54/26
f 53/54/27 54/53/27 56/55/27 55/56/27
f 55/56/28 56/55/28 58/57/28 57/58/28
f 57/58/29 58/57/29 60/59/29 59/60/29
f 59/60/30 60/59/30 62/61/30 61/62/30
f 61/62/31 62/61/31 64/63/31 63/64/31
f 63/64/32 64/63/32 66/65/32 65/66/32
f 65/66/33 66/65/33 68/67/33 67/68/33
f 67/68/34 68/67/34 70/69/34 69/70/34
f 69/70/35 70/69/35 72/71/35 71/72/35
f 71/72/36 72/71/36 74/73/36 73/74/36
f 73/74/37 74/73/37 76/75/37 75/76/37
f 75/76/38 76/75/38 78/77/38 77/78/38
f 77/78/39 78/77/39 80/79/39 79/80/39
f 79/80/40 80/79/40 82/81/40 81/82/40
f 81/82/41 82/81/41 84/83/41 83/84/41
f 83/84/42 84/83/42 86/85/42 85/86/42
f 85/86/43 86/85/43 88/87/43 87/88/43
f 87/88/44 88/87/44 90/89/44 89/90/44
f 89/90/45 90/89/45 92/91/45 91/92/45
f 91/92/46 92/91/46 94/93/46 93/94/46
f 4/95/47 2/96/47 96/97/47 94/98/47 92/99/47 90/100/47 88/101/47 86/102/47 84/103/47 82/104/47 80/105/47 78/106/47 76/107/47 74/108/47 72/109/47 70/110/47 68/111/47 66/112/47 64/113/47 62/114/47 60/115/47 58/116/47 56/117/47 54/118/47 52/119/47 50/120/47 48/121/47 46/122/47 44/123/47 42/124/47 40/125/47 38/126/47 36/127/47 34/128/47 32/129/47 30/130/47 28/131/47 26/132/47 24/133/47 22/134/47 20/135/47 18/136/47 16/137/47 14/138/47 12/139/47 10/140/47 8/141/47 6/142/47
f 93/94/48 94/93/48 96/143/48 95/144/48
f 95/144/49 96/143/49 2/145/49 1/146/49
f 1/147/50 3/148/50 5/149/50 7/150/50 9/151/50 11/152/50 13/153/50 15/154/50 17/155/50 19/156/50 21/157/50 23/158/50 25/159/50 27/160/50 29/161/50 31/162/50 33/163/50 35/164/50 37/165/50 39/166/50 41/167/50 43/168/50 45/169/50 47/170/50 49/171/50 51/172/50 53/173/50 55/174/50 57/175/50 59/176/50 61/177/50 63/178/50 65/179/50 67/180/50 69/181/50 71/182/50 73/183/50 75/184/50 77/185/50 79/186/50 81/187/50 83/188/50 85/189/50 87/190/50 89/191/50 91/192/50 93/193/50 95/194/50
f 97/1/1 98/2/1 100/3/1 99/4/1
f 99/4/2 100/3/2 102/5/2 101/6/2
f 101/6/3 102/5/3 104/7/3 103/8/3
f 103/8/4 104/7/4 106/9/4 105/10/4
f 105/10/5 106/9/5 108/11/5 107/12/5
f 107/12/6 108/11/6 110/13/6 109/14/6
f 109/14/7 110/13/7 112/15/7 111/16/7
f 111/16/8 112/15/8 114/17/8 113/18/8
f 113/18/9 114/17/9 116/19/9 115/20/9
f 115/20/10 116/19/10 118/21/10 117/22/10
f 117/22/11 118/21/11 120/23/11 119/24/11
f 119/24/12 120/23/12 122/25/12 121/26/12
f 121/26/13 122/25/13 124/27/13 123/28/13
f 123/28/14 124/27/14 126/29/14 125/30/14
f 125/30/15 126/29/15 128/31/15 127/32/15
f 127/32/16 128/31/16 130/33/16 129/34/16
f 129/34/17 130/33/17 132/35/17 131/36/17
f 131/36/18 132/35/18 134/37/18 133/38/18
f 133/38/19 134/37/19 136/39/19 135/40/19
f 135/40/20 136/39/20 138/41/20 137/42/20
f 137/42/21 138/41/21 140/43/21 139/44/21
f 139/44/22 140/43/22 142/45/22 141/46/22
f 141/46/23 142/45/23 144/47/23 143/48/23
f 143/48/24 144/47/24 146/49/24 145/50/24
f 145/50/25 146/49/25 148/51/25 147/52/25
f 147/52/26 148/51/26 150/53/26 149/54/26
f 149/54/27 150/53/27 152/55/27 151/56/27
f 151/56/28 152/55/28 154/57/28 153/58/28
f 153/58/29 154/57/29 156/59/29 155/60/29
f 155/60/30 156/59/30 158/61/30 157/62/30
f 157/62/31 158/61/31 160/63/31 159/64/31
f 159/64/32 160/63/32 162/65/32 161/66/32
f 161/66/33 162/65/33 164/67/33 163/68/33
f 163/68/34 164/67/34 166/69/34 165/70/34
f 165/70/35 166/69/35 168/71/35 167/72/35
f 167/72/36 168/71/36 170/73/36 169/74/36
f 169/74/37 170/73/37 172/75/37 171/76/37
f 171/76/38 172/75/38 174/77/38 173/78/38
f 173/78/39 174/77/39 176/79/39 175/80/39
f 175/80/40 176/79/40 178/81/40 177/82/40
f 177/82/41 178/81/41 180/83/41 179/84/41
f 179/84/42 180/83/42 182/85/42 181/86/42
f 181/86/43 182/85/43 184/87/43 183/88/43
f 183/88/44 184/87/44 186/89/44 185/90/44
f 185/90/45 186/89/45 188/91/45 187/92/45
f 187/92/46 188/91/46 190/93/46 189/94/46
f 100/95/47 98/96/47 192/97/47 190/98/47 188/99/47 186/100/47 184/101/47 182/102/47 180/103/47 178/104/47 176/105/47 174/106/47 172/107/47 170/108/47 168/109/47 166/110/47 164/111/47 162/112/47 160/113/47 158/114/47 156/115/47 154/116/47 152/117/47 150/118/47 148/119/47 146/120/47 144/121/47 142/122/47 140/123/47 138/124/47 136/125/47 134/126/47 132/127/47 130/128/47 128/129/47 126/130/47 124/131/47 122/132/47 120/133/47 118/134/47 116/135/47 114/136/47 112/137/47 110/138/47 108/139/47 106/140/47 104/141/47 102/142/47
f 189/94/48 190/93/48 192/143/48 191/144/48
f 191/144/49 192/143/49 98/145/49 97/146/49
f 97/147/50 99/148/50 101/149/50 103/150/50 105/151/50 107/152/50 109/153/50 111/154/50 113/155/50 115/156/50 117/157/50 119/158/50 121/159/50 123/160/50 125/161/50 127/162/50 129/163/50 131/164/50 133/165/50 135/166/50 137/167/50 139/168/50 141/169/50 143/170/50 145/171/50 147/172/50 149/173/50 151/174/50 153/175/50 155/176/50 157/177/50 159/178/50 161/179/50 163/180/50 165/181/50 167/182/50 169/183/50 171/184/50 173/185/50 175/186/50 177/187/50 179/188/50 181/189/50 183/190/50 185/191/50 187/192/50 189/193/50 191/194/50
f 193/1/51 194/2/51 196/195/51 195/196/51
f 195/196/52 196/195/52 198/197/52 197/198/52
f 196/128/47 194/96/47 198/112/47
f 197/198/53 198/197/53 194/199/53 193/200/53
f 193/147/50 195/163/50 197/179/50
f 199/96/54 202/201/54 200/128/54
f 199/147/50 200/163/50 201/179/50
f 200/128/55 202/201/55 201/112/55
f 201/112/56 202/201/56 199/96/56
