# Blender 5.2.0 LTS
# www.blender.org
mtllib white_pawn.mtl
o white_pawn
v 0.000000 0.000000 -0.007000
v 0.000000 0.005000 -0.007000
v 0.000914 0.000000 -0.006940
v 0.000914 0.005000 -0.006940
v 0.001812 0.000000 -0.006761
v 0.001812 0.005000 -0.006761
v 0.002679 0.000000 -0.006467
v 0.002679 0.005000 -0.006467
v 0.003500 0.000000 -0.006062
v 0.003500 0.005000 -0.006062
v 0.004261 0.000000 -0.005553
v 0.004261 0.005000 -0.005553
v 0.004950 0.000000 -0.004950
v 0.004950 0.005000 -0.004950
v 0.005553 0.000000 -0.004261
v 0.005553 0.005000 -0.004261
v 0.006062 0.000000 -0.003500
v 0.006062 0.005000 -0.003500
v 0.006467 0.000000 -0.002679
v 0.006467 0.005000 -0.002679
v 0.006761 0.000000 -0.001812
v 0.006761 0.005000 -0.001812
v 0.006940 0.000000 -0.000914
v 0.006940 0.005000 -0.000914
v 0.007000 0.000000 0.000000
v 0.007000 0.005000 0.000000
v 0.006940 0.000000 0.000914
v 0.006940 0.005000 0.000914
v 0.006761 0.000000 0.001812
v 0.006761 0.005000 0.001812
v 0.006467 0.000000 0.002679
v 0.006467 0.005000 0.002679
v 0.006062 0.000000 0.003500
v 0.006062 0.005000 0.003500
v 0.005553 0.000000 0.004261
v 0.005553 0.005000 0.004261
v 0.004950 0.000000 0.004950
v 0.004950 0.005000 0.004950
v 0.004261 0.000000 0.005553
v 0.004261 0.005000 0.005553
v 0.003500 0.000000 0.006062
v 0.003500 0.005000 0.006062
v 0.002679 0.000000 0.006467
v 0.002679 0.005000 0.006467
v 0.001812 0.000000 0.006761
v 0.001812 0.005000 0.006761
v 0.000914 0.000000 0.006940
v 0.000914 0.005000 0.006940
v 0.000000 0.000000 0.007000
v 0.000000 0.005000 0.007000
v -0.000914 0.000000 0.006940
v -0.000914 0.005000 0.006940
v -0.001812 0.000000 0.006761
v -0.001812 0.005000 0.006761
v -0.002679 0.000000 0.006467
v -0.002679 0.005000 0.006467
v -0.003500 0.000000 0.006062
v -0.003500 0.005000 0.006062
v -0.004261 0.000000 0.005553
v -0.004261 0.005000 0.005553
v -0.004950 0.000000 0.004950
v -0.004950 0.005000 0.004950
v -0.005553 0.000000 0.004261
v -0.005553 0.005000 0.004261
v -0.006062 0.000000 0.003500
v -0.006062 0.005000 0.003500
v -0.006467 0.000000 0.002679
v -0.006467 0.005000 0.002679
v -0.006761 0.000000 0.001812
v -0.006761 0.005000 0.001812
v -0.006940 0.000000 0.000914
v -0.006940 0.005000 0.000914
v -0.007000 0.000000 0.000000
v -0.007000 0.005000 0.000000
v -0.006940 0.000000 -0.000914
v -0.006940 0.005000 -0.000914
v -0.006761 0.000000 -0.001812
v -0.006761 0.005000 -0.001812
v -0.006467 0.000000 -0.002679
v -0.006467 0.005000 -0.002679
v -0.006062 0.000000 -0.003500
v -0.006062 0.005000 -0.003500
v -0.005553 0.000000 -0.004261
v -0.005553 0.005000 -0.004261
v -0.004950 0.000000 -0.004950
v -0.004950 0.005000 -0.004950
v -0.004261 0.000000 -0.005553
v -0.004261 0.005000 -0.005553
v -0.003500 0.000000 -0.006062
v -0.003500 0.005000 -0.006062
v -0.002679 0.000000 -0.006467
v -0.002679 0.005000 -0.006467
v -0.001812 0.000000 -0.006761
v -0.001812 0.005000 -0.006761
v -0.000914 0.000000 -0.006940
v -0.000914 0.005000 -0.006940
v 0.000000 0.005000 -0.005000
v 0.000000 0.010000 -0.003300
v 0.000782 0.005000 -0.004938
v 0.000516 0.010000 -0.003259
v 0.001545 0.005000 -0.004755
v 0.001020 0.010000 -0.003138
v 0.002270 0.005000 -0.004455
v 0.001498 0.010000 -0.002940
v 0.002939 0.005000 -0.004045
v 0.001940 0.010000 -0.002670
v 0.003536 0.005000 -0.003536
v 0.002333 0.010000 -0.002333
v 0.004045 0.005000 -0.002939
v 0.002670 0.010000 -0.001940
v 0.004455 0.005000 -0.002270
v 0.002940 0.010000 -0.001498
v 0.004755 0.005000 -0.001545
v 0.003138 0.010000 -0.001020
v 0.004938 0.005000 -0.000782
v 0.003259 0.010000 -0.000516
v 0.005000 0.005000 0.000000
v 0.003300 0.010000 0.000000
v 0.004938 0.005000 0.000782
v 0.003259 0.010000 0.000516
v 0.004755 0.005000 0.001545
v 0.003138 0.010000 0.001020
v 0.004455 0.005000 0.002270
v 0.002940 0.010000 0.001498
v 0.004045 0.005000 0.002939
v 0.002670 0.010000 0.001940
v 0.003536 0.005000 0.003536
v 0.002333 0.010000 0.002333
v 0.002939 0.005000 0.004045
v 0.001940 0.010000 0.002670
v 0.002270 0.005000 0.004455
v 0.001498 0.010000 0.002940
v 0.001545 0.005000 0.004755
v 0.001020 0.010000 0.003138
v 0.000782 0.005000 0.004938
v 0.000516 0.010000 0.003259
v 0.000000 0.005000 0.005000
v 0.000000 0.010000 0.003300
v -0.000782 0.005000 0.004938
v -0.000516 0.010000 0.003259
v -0.001545 0.005000 0.004755
v -0.001020 0.010000 0.003138
v -0.002270 0.005000 0.004455
v -0.001498 0.010000 0.002940
v -0.002939 0.005000 0.004045
v -0.001940 0.010000 0.002670
v -0.003536 0.005000 0.003536
v -0.002333 0.010000 0.002333
v -0.004045 0.005000 0.002939
v -0.002670 0.010000 0.001940
v -0.004455 0.005000 0.002270
v -0.002940 0.010000 0.001498
v -0.004755 0.005000 0.001545
v -0.003138 0.010000 0.001020
v -0.004938 0.005000 0.000782
v -0.003259 0.010000 0.000516
v -0.005000 0.005000 0.000000
v -0.003300 0.010000 0.000000
v -0.004938 0.005000 -0.000782
v -0.003259 0.010000 -0.000516
v -0.004755 0.005000 -0.001545
v -0.003138 0.010000 -0.001020
v -0.004455 0.005000 -0.002270
v -0.002940 0.010000 -0.001498
v -0.004045 0.005000 -0.002939
v -0.002670 0.010000 -0.001940
v -0.003536 0.005000 -0.003536
v -0.002333 0.010000 -0.002333
v -0.002939 0.005000 -0.004045
v -0.001940 0.010000 -0.002670
v -0.002270 0.005000 -0.004455
v -0.001498 0.010000 -0.002940
v -0.001545 0.005000 -0.004755
v -0.001020 0.010000 -0.003138
v -0.000782 0.005000 -0.004938
v -0.000516 0.010000 -0.003259
v 0.000000 0.008000 -0.003500
v 0.000000 0.020000 -0.003500
v 0.000457 0.008000 -0.003470
v 0.000457 0.020000 -0.003470
v 0.000906 0.008000 -0.003381
v 0.000906 0.020000 -0.003381
v 0.001339 0.008000 -0.003234
v 0.001339 0.020000 -0.003234
v 0.001750 0.008000 -0.003031
v 0.001750 0.020000 -0.003031
v 0.002131 0.008000 -0.002777
v 0.002131 0.020000 -0.002777
v 0.002475 0.008000 -0.002475
v 0.002475 0.020000 -0.002475
v 0.002777 0.008000 -0.002131
v 0.002777 0.020000 -0.002131
v 0.003031 0.008000 -0.001750
v 0.003031 0.020000 -0.001750
v 0.003234 0.008000 -0.001339
v 0.003234 0.020000 -0.001339
v 0.003381 0.008000 -0.000906
v 0.003381 0.020000 -0.000906
v 0.003470 0.008000 -0.000457
v 0.003470 0.020000 -0.000457
v 0.003500 0.008000 0.000000
v 0.003500 0.020000 0.000000
v 0.003470 0.008000 0.000457
v 0.003470 0.020000 0.000457
v 0.003381 0.008000 0.000906
v 0.003381 0.020000 0.000906
v 0.003234 0.008000 0.001339
v 0.003234 0.020000 0.001339
v 0.003031 0.008000 0.001750
v 0.003031 0.020000 0.001750
v 0.002777 0.008000 0.002131
v 0.002777 0.020000 0.002131
v 0.002475 0.008000 0.002475
v 0.002475 0.020000 0.002475
v 0.002131 0.008000 0.002777
v 0.002131 0.020000 0.002777
v 0.001750 0.008000 0.003031
v 0.001750 0.020000 0.003031
v 0.001339 0.008000 0.003234
v 0.001339 0.020000 0.003234
v 0.000906 0.008000 0.003381
v 0.000906 0.020000 0.003381
v 0.000457 0.008000 0.003470
v 0.000457 0.020000 0.003470
v 0.000000 0.008000 0.003500
v 0.000000 0.020000 0.003500
v -0.000457 0.008000 0.003470
v -0.000457 0.020000 0.003470
v -0.000906 0.008000 0.003381
v -0.000906 0.020000 0.003381
v -0.001339 0.008000 0.003234
v -0.001339 0.020000 0.003234
v -0.001750 0.008000 0.003031
v -0.001750 0.020000 0.003031
v -0.002131 0.008000 0.002777
v -0.002131 0.020000 0.002777
v -0.002475 0.008000 0.002475
v -0.002475 0.020000 0.002475
v -0.002777 0.008000 0.002131
v -0.002777 0.020000 0.002131
v -0.003031 0.008000 0.001750
v -0.003031 0.020000 0.001750
v -0.003234 0.008000 0.001339
v -0.003234 0.020000 0.001339
v -0.003381 0.008000 0.000906
v -0.003381 0.020000 0.000906
v -0.003470 0.008000 0.000457
v -0.003470 0.020000 0.000457
v -0.003500 0.008000 0.000000
v -0.003500 0.020000 0.000000
v -0.003470 0.008000 -0.000457
v -0.003470 0.020000 -0.000457
v -0.003381 0.008000 -0.000906
v -0.003381 0.020000 -0.000906
v -0.003234 0.008000 -0.001339
v -0.003234 0.020000 -0.001339
v -0.003031 0.008000 -0.001750
v -0.003031 0.020000 -0.001750
v -0.002777 0.008000 -0.002131
v -0.002777 0.020000 -0.002131
v -0.002475 0.008000 -0.002475
v -0.002475 0.020000 -0.002475
v -0.002131 0.008000 -0.002777
v -0.002131 0.020000 -0.002777
v -0.001750 0.008000 -0.003031
v -0.001750 0.020000 -0.003031
v -0.001339 0.008000 -0.003234
v -0.001339 0.020000 -0.003234
v -0.000906 0.008000 -0.003381
v -0.000906 0.020000 -0.003381
v -0.000457 0.008000 -0.003470
v -0.000457 0.020000 -0.003470
v 0.000000 0.008000 -0.005000
v 0.000000 0.010000 -0.005000
v 0.000975 0.008000 -0.004904
v 0.000975 0.010000 -0.004904
v 0.001913 0.008000 -0.004619
v 0.001913 0.010000 -0.004619
v 0.002778 0.008000 -0.004157
v 0.002778 0.010000 -0.004157
v 0.003536 0.008000 -0.003536
v 0.003536 0.010000 -0.003536
v 0.004157 0.008000 -0.002778
v 0.004157 0.010000 -0.002778
v 0.004619 0.008000 -0.001913
v 0.004619 0.010000 -0.001913
v 0.004904 0.008000 -0.000975
v 0.004904 0.010000 -0.000975
v 0.005000 0.008000 0.000000
v 0.005000 0.010000 0.000000
v 0.004904 0.008000 0.000975
v 0.004904 0.010000 0.000975
v 0.004619 0.008000 0.001913
v 0.004619 0.010000 0.001913
v 0.004157 0.008000 0.002778
v 0.004157 0.010000 0.002778
v 0.003536 0.008000 0.003536
v 0.003536 0.010000 0.003536
v 0.002778 0.008000 0.004157
v 0.002778 0.010000 0.004157
v 0.001913 0.008000 0.004619
v 0.001913 0.010000 0.004619
v 0.000975 0.008000 0.004904
v 0.000975 0.010000 0.004904
v 0.000000 0.008000 0.005000
v 0.000000 0.010000 0.005000
v -0.000975 0.008000 0.004904
v -0.000975 0.010000 0.004904
v -0.001913 0.008000 0.004619
v -0.001913 0.010000 0.004619
v -0.002778 0.008000 0.004157
v -0.002778 0.010000 0.004157
v -0.003536 0.008000 0.003536
v -0.003536 0.010000 0.003536
v -0.004157 0.008000 0.002778
v -0.004157 0.010000 0.002778
v -0.004619 0.008000 0.001913
v -0.004619 0.010000 0.001913
v -0.004904 0.008000 0.000975
v -0.004904 0.010000 0.000975
v -0.005000 0.008000 0.000000
v -0.005000 0.010000 0.000000
v -0.004904 0.008000 -0.000975
v -0.004904 0.010000 -0.000975
v -0.004619 0.008000 -0.001913
v -0.004619 0.010000 -0.001913
v -0.004157 0.008000 -0.002778
v -0.004157 0.010000 -0.002778
v -0.003536 0.008000 -0.003536
v -0.003536 0.010000 -0.003536
v -0.002778 0.008000 -0.004157
v -0.002778 0.010000 -0.004157
v -0.001913 0.008000 -0.004619
v -0.001913 0.010000 -0.004619
v -0.000975 0.008000 -0.004904
v -0.000975 0.010000 -0.004904
v 0.000000 0.024000 0.000000
v 0.000000 0.023962 -0.000390
v 0.000000 0.023663 -0.001111
v 0.000000 0.023414 -0.001414
v 0.000000 0.022765 -0.001848
v 0.000000 0.022000 -0.002000
v 0.000000 0.021610 -0.001962
v 0.000000 0.020889 -0.001663
v 0.000000 0.020337 -0.001111
v 0.000000 0.020038 -0.000390
v 0.000000 0.020000 0.000000
v 0.000076 0.023962 -0.000383
v 0.000149 0.023848 -0.000751
v 0.000217 0.023663 -0.001090
v 0.000276 0.023414 -0.001387
v 0.000324 0.023111 -0.001631
v 0.000360 0.022765 -0.001812
v 0.000383 0.022390 -0.001924
v 0.000390 0.022000 -0.001962
v 0.000383 0.021610 -0.001924
v 0.000360 0.021235 -0.001812
v 0.000324 0.020889 -0.001631
v 0.000276 0.020586 -0.001387
v 0.000217 0.020337 -0.001090
v 0.000149 0.020152 -0.000751
v 0.000076 0.020038 -0.000383
v 0.000149 0.023962 -0.000360
v 0.000293 0.023848 -0.000707
v 0.000425 0.023663 -0.001027
v 0.000541 0.023414 -0.001307
v 0.000636 0.023111 -0.001536
v 0.000707 0.022765 -0.001707
v 0.000751 0.022390 -0.001812
v 0.000765 0.022000 -0.001848
v 0.000751 0.021610 -0.001812
v 0.000707 0.021235 -0.001707
v 0.000636 0.020889 -0.001536
v 0.000541 0.020586 -0.001307
v 0.000425 0.020337 -0.001027
v 0.000293 0.020152 -0.000707
v 0.000149 0.020038 -0.000360
v 0.000217 0.023962 -0.000324
v 0.000425 0.023848 -0.000636
v 0.000617 0.023663 -0.000924
v 0.000786 0.023414 -0.001176
v 0.000924 0.023111 -0.001383
v 0.001027 0.022765 -0.001536
v 0.001090 0.022390 -0.001631
v 0.001111 0.022000 -0.001663
v 0.001090 0.021610 -0.001631
v 0.001027 0.021235 -0.001536
v 0.000924 0.020889 -0.001383
v 0.000786 0.020586 -0.001176
v 0.000617 0.020337 -0.000924
v 0.000425 0.020152 -0.000636
v 0.000217 0.020038 -0.000324
v 0.000276 0.023962 -0.000276
v 0.000541 0.023848 -0.000541
v 0.000786 0.023663 -0.000786
v 0.001000 0.023414 -0.001000
v 0.001176 0.023111 -0.001176
v 0.001307 0.022765 -0.001307
v 0.001387 0.022390 -0.001387
v 0.001414 0.022000 -0.001414
v 0.001387 0.021610 -0.001387
v 0.001307 0.021235 -0.001307
v 0.001176 0.020889 -0.001176
v 0.001000 0.020586 -0.001000
v 0.000786 0.020337 -0.000786
v 0.000541 0.020152 -0.000541
v 0.000276 0.020038 -0.000276
v 0.000324 0.023962 -0.000217
v 0.000636 0.023848 -0.000425
v 0.000924 0.023663 -0.000617
v 0.001176 0.023414 -0.000786
v 0.001383 0.023111 -0.000924
v 0.001536 0.022765 -0.001027
v 0.001631 0.022390 -0.001090
v 0.001663 0.022000 -0.001111
v 0.001631 0.021610 -0.001090
v 0.001536 0.021235 -0.001027
v 0.001383 0.020889 -0.000924
v 0.001176 0.020586 -0.000786
v 0.000924 0.020337 -0.000617
v 0.000636 0.020152 -0.000425
v 0.000324 0.020038 -0.000217
v 0.000360 0.023962 -0.000149
v 0.000707 0.023848 -0.000293
v 0.001027 0.023663 -0.000425
v 0.001307 0.023414 -0.000541
v 0.001536 0.023111 -0.000636
v 0.001707 0.022765 -0.000707
v 0.001812 0.022390 -0.000751
v 0.001848 0.022000 -0.000765
v 0.001812 0.021610 -0.000751
v 0.001707 0.021235 -0.000707
v 0.001536 0.020889 -0.000636
v 0.001307 0.020586 -0.000541
v 0.001027 0.020337 -0.000425
v 0.000707 0.020152 -0.000293
v 0.000360 0.020038 -0.000149
v 0.000383 0.023962 -0.000076
v 0.000751 0.023848 -0.000149
v 0.001090 0.023663 -0.000217
v 0.001387 0.023414 -0.000276
v 0.001631 0.023111 -0.000324
v 0.001812 0.022765 -0.000360
v 0.001924 0.022390 -0.000383
v 0.001962 0.022000 -0.000390
v 0.001924 0.021610 -0.000383
v 0.001812 0.021235 -0.000360
v 0.001631 0.020889 -0.000324
v 0.001387 0.020586 -0.000276
v 0.001090 0.020337 -0.000217
v 0.000751 0.020152 -0.000149
v 0.000383 0.020038 -0.000076
v 0.000390 0.023962 0.000000
v 0.000765 0.023848 0.000000
v 0.001111 0.023663 0.000000
v 0.001414 0.023414 0.000000
v 0.001663 0.023111 0.000000
v 0.001848 0.022765 0.000000
v 0.001962 0.022390 0.000000
v 0.002000 0.022000 0.000000
v 0.001962 0.021610 0.000000
v 0.001848 0.021235 0.000000
v 0.001663 0.020889 0.000000
v 0.001414 0.020586 0.000000
v 0.001111 0.020337 0.000000
v 0.000765 0.020152 0.000000
v 0.000390 0.020038 0.000000
v 0.000383 0.023962 0.000076
v 0.000751 0.023848 0.000149
v 0.001090 0.023663 0.000217
v 0.001387 0.023414 0.000276
v 0.001631 0.023111 0.000324
v 0.001812 0.022765 0.000360
v 0.001924 0.022390 0.000383
v 0.001962 0.022000 0.000390
v 0.001924 0.021610 0.000383
v 0.001812 0.021235 0.000360
v 0.001631 0.020889 0.000324
v 0.001387 0.020586 0.000276
v 0.001090 0.020337 0.000217
v 0.000751 0.020152 0.000149
v 0.000383 0.020038 0.000076
v 0.000360 0.023962 0.000149
v 0.000707 0.023848 0.000293
v 0.001027 0.023663 0.000425
v 0.001307 0.023414 0.000541
v 0.001536 0.023111 0.000636
v 0.001707 0.022765 0.000707
v 0.001812 0.022390 0.000751
v 0.001848 0.022000 0.000765
v 0.001812 0.021610 0.000751
v 0.001707 0.021235 0.000707
v 0.001536 0.020889 0.000636
v 0.001307 0.020586 0.000541
v 0.001027 0.020337 0.000425
v 0.000707 0.020152 0.000293
v 0.000360 0.020038 0.000149
v 0.000324 0.023962 0.000217
v 0.000636 0.023848 0.000425
v 0.000924 0.023663 0.000617
v 0.001176 0.023414 0.000786
v 0.001383 0.023111 0.000924
v 0.001536 0.022765 0.001027
v 0.001631 0.022390 0.001090
v 0.001663 0.022000 0.001111
v 0.001631 0.021610 0.001090
v 0.001536 0.021235 0.001027
v 0.001383 0.020889 0.000924
v 0.001176 0.020586 0.000786
v 0.000924 0.020337 0.000617
v 0.000636 0.020152 0.000425
v 0.000324 0.020038 0.000217
v 0.000276 0.023962 0.000276
v 0.000541 0.023848 0.000541
v 0.000786 0.023663 0.000786
v 0.001000 0.023414 0.001000
v 0.001176 0.023111 0.001176
v 0.001307 0.022765 0.001307
v 0.001387 0.022390 0.001387
v 0.001414 0.022000 0.001414
v 0.001387 0.021610 0.001387
v 0.001307 0.021235 0.001307
v 0.001176 0.020889 0.001176
v 0.001000 0.020586 0.001000
v 0.000786 0.020337 0.000786
v 0.000541 0.020152 0.000541
v 0.000276 0.020038 0.000276
v 0.000217 0.023962 0.000324
v 0.000425 0.023848 0.000636
v 0.000617 0.023663 0.000924
v 0.000786 0.023414 0.001176
v 0.000924 0.023111 0.001383
v 0.001027 0.022765 0.001536
v 0.001090 0.022390 0.001631
v 0.001111 0.022000 0.001663
v 0.001090 0.021610 0.001631
v 0.001027 0.021235 0.001536
v 0.000924 0.020889 0.001383
v 0.000786 0.020586 0.001176
v 0.000617 0.020337 0.000924
v 0.000425 0.020152 0.000636
v 0.000217 0.020038 0.000324
v 0.000149 0.023962 0.000360
v 0.000293 0.023848 0.000707
v 0.000425 0.023663 0.001027
v 0.000541 0.023414 0.001307
v 0.000636 0.023111 0.001536
v 0.000707 0.022765 0.001707
v 0.000751 0.022390 0.001812
v 0.000765 0.022000 0.001848
v 0.000751 0.021610 0.001812
v 0.000707 0.021235 0.001707
v 0.000636 0.020889 0.001536
v 0.000541 0.020586 0.001307
v 0.000425 0.020337 0.001027
v 0.000293 0.020152 0.000707
v 0.000149 0.020038 0.000360
v 0.000076 0.023962 0.000383
v 0.000149 0.023848 0.000751
v 0.000217 0.023663 0.001090
v 0.000276 0.023414 0.001387
v 0.000324 0.023111 0.001631
v 0.000360 0.022765 0.001812
v 0.000383 0.022390 0.001924
v 0.000390 0.022000 0.001962
v 0.000383 0.021610 0.001924
v 0.000360 0.021235 0.001812
v 0.000324 0.020889 0.001631
v 0.000276 0.020586 0.001387
v 0.000217 0.020337 0.001090
v 0.000149 0.020152 0.000751
v 0.000076 0.020038 0.000383
v -0.000000 0.023962 0.000390
v -0.000000 0.023848 0.000765
v -0.000000 0.023663 0.001111
v 0.000000 0.023414 0.001414
v -0.000000 0.023111 0.001663
v -0.000000 0.022765 0.001848
v -0.000000 0.022390 0.001962
v -0.000000 0.022000 0.002000
v -0.000000 0.021610 0.001962
v -0.000000 0.021235 0.001848
v -0.000000 0.020889 0.001663
v 0.000000 0.020586 0.001414
v -0.000000 0.020337 0.001111
v -0.000000 0.020152 0.000765
v -0.000000 0.020038 0.000390
v -0.000076 0.023962 0.000383
v -0.000149 0.023848 0.000751
v -0.000217 0.023663 0.001090
v -0.000276 0.023414 0.001387
v -0.000324 0.023111 0.001631
v -0.000360 0.022765 0.001812
v -0.000383 0.022390 0.001924
v -0.000390 0.022000 0.001962
v -0.000383 0.021610 0.001924
v -0.000360 0.021235 0.001812
v -0.000324 0.020889 0.001631
v -0.000276 0.020586 0.001387
v -0.000217 0.020337 0.001090
v -0.000149 0.020152 0.000751
v -0.000076 0.020038 0.000383
v -0.000149 0.023962 0.000360
v -0.000293 0.023848 0.000707
v -0.000425 0.023663 0.001027
v -0.000541 0.023414 0.001307
v -0.000636 0.023111 0.001536
v -0.000707 0.022765 0.001707
v -0.000751 0.022390 0.001812
v -0.000765 0.022000 0.001848
v -0.000751 0.021610 0.001812
v -0.000707 0.021235 0.001707
v -0.000636 0.020889 0.001536
v -0.000541 0.020586 0.001307
v -0.000425 0.020337 0.001027
v -0.000293 0.020152 0.000707
v -0.000149 0.020038 0.000360
v -0.000217 0.023962 0.000324
v -0.000425 0.023848 0.000636
v -0.000617 0.023663 0.000924
v -0.000786 0.023414 0.001176
v -0.000924 0.023111 0.001383
v -0.001027 0.022765 0.001536
v -0.001090 0.022390 0.001631
v -0.001111 0.022000 0.001663
v -0.001090 0.021610 0.001631
v -0.001027 0.021235 0.001536
v -0.000924 0.020889 0.001383
v -0.000786 0.020586 0.001176
v -0.000617 0.020337 0.000924
v -0.000425 0.020152 0.000636
v -0.000217 0.020038 0.000324
v -0.000276 0.023962 0.000276
v -0.000541 0.023848 0.000541
v -0.000786 0.023663 0.000786
v -0.001000 0.023414 0.001000
v -0.001176 0.023111 0.001176
v -0.001307 0.022765 0.001307
v -0.001387 0.022390 0.001387
v -0.001414 0.022000 0.001414
v -0.001387 0.021610 0.001387
v -0.001307 0.021235 0.001307
v -0.001176 0.020889 0.001176
v -0.001000 0.020586 0.001000
v -0.000786 0.020337 0.000786
v -0.000541 0.020152 0.000541
v -0.000276 0.020038 0.000276
v -0.000324 0.023962 0.000217
v -0.000636 0.023848 0.000425
v -0.000924 0.023663 0.000617
v -0.001176 0.023414 0.000786
v -0.001383 0.023111 0.000924
v -0.001536 0.022765 0.001027
v -0.001631 0.022390 0.001090
v -0.001663 0.022000 0.001111
v -0.001631 0.021610 0.001090
v -0.001536 0.021235 0.001027
v -0.001383 0.020889 0.000924
v -0.001176 0.020586 0.000786
v -0.000924 0.020337 0.000617
v -0.000636 0.020152 0.000425
v -0.000324 0.020038 0.000217
v -0.000360 0.023962 0.000149
v -0.000707 0.023848 0.000293
v -0.001027 0.023663 0.000425
v -0.001307 0.023414 0.000541
v -0.001536 0.023111 0.000636
v -0.001707 0.022765 0.000707
v -0.001812 0.022390 0.000751
v -0.001848 0.022000 0.000765
v -0.001812 0.021610 0.000751
v -0.001707 0.021235 0.000707
v -0.001536 0.020889 0.000636
v -0.001307 0.020586 0.000541
v -0.001027 0.020337 0.000425
v -0.000707 0.020152 0.000293
v -0.000360 0.020038 0.000149
v -0.000383 0.023962 0.000076
v -0.000751 0.023848 0.000149
v -0.001090 0.023663 0.000217
v -0.001387 0.023414 0.000276
v -0.001631 0.023111 0.000324
v -0.001812 0.022765 0.000360
v -0.001924 0.022390 0.000383
v -0.001962 0.022000 0.000390
v -0.001924 0.021610 0.000383
v -0.001812 0.021235 0.000360
v -0.001631 0.020889 0.000324
v -0.001387 0.020586 0.000276
v -0.001090 0.020337 0.000217
v -0.000751 0.020152 0.000149
v -0.000383 0.020038 0.000076
v -0.000390 0.023962 -0.000000
v -0.000765 0.023848 -0.000000
v -0.001111 0.023663 -0.000000
v -0.001414 0.023414 -0.000000
v -0.001663 0.023111 -0.000000
v -0.001848 0.022765 -0.000000
v -0.001962 0.022390 -0.000000
v -0.002000 0.022000 -0.000000
v -0.001962 0.021610 -0.000000
v -0.001848 0.021235 -0.000000
v -0.001663 0.020889 -0.000000
v -0.001414 0.020586 -0.000000
v -0.001111 0.020337 -0.000000
v -0.000765 0.020152 -0.000000
v -0.000390 0.020038 -0.000000
v -0.000383 0.023962 -0.000076
v -0.000751 0.023848 -0.000149
v -0.001090 0.023663 -0.000217
v -0.001387 0.023414 -0.000276
v -0.001631 0.023111 -0.000324
v -0.001812 0.022765 -0.000360
v -0.001924 0.022390 -0.000383
v -0.001962 0.022000 -0.000390
v -0.001924 0.021610 -0.000383
v -0.001812 0.021235 -0.000360
v -0.001631 0.020889 -0.000324
v -0.001387 0.020586 -0.000276
v -0.001090 0.020337 -0.000217
v -0.000751 0.020152 -0.000149
v -0.000383 0.020038 -0.000076
v -0.000360 0.023962 -0.000149
v -0.000707 0.023848 -0.000293
v -0.001027 0.023663 -0.000425
v -0.001307 0.023414 -0.000541
v -0.001536 0.023111 -0.000636
v -0.001707 0.022765 -0.000707
v -0.001812 0.022390 -0.000751
v -0.001848 0.022000 -0.000765
v -0.001812 0.021610 -0.000751
v -0.001707 0.021235 -0.000707
v -0.001536 0.020889 -0.000636
v -0.001307 0.020586 -0.000541
v -0.001027 0.020337 -0.000425
v -0.000707 0.020152 -0.000293
v -0.000360 0.020038 -0.000149
v -0.000324 0.023962 -0.000217
v -0.000636 0.023848 -0.000425
v -0.000924 0.023663 -0.000617
v -0.001176 0.023414 -0.000786
v -0.001383 0.023111 -0.000924
v -0.001536 0.022765 -0.001027
v -0.001631 0.022390 -0.001090
v -0.001663 0.022000 -0.001111
v -0.001631 0.021610 -0.001090
v -0.001536 0.021235 -0.001027
v -0.001383 0.020889 -0.000924
v -0.001176 0.020586 -0.000786
v -0.000924 0.020337 -0.000617
v -0.000636 0.020152 -0.000425
v -0.000324 0.020038 -0.000217
v -0.000276 0.023962 -0.000276
v -0.000541 0.023848 -0.000541
v -0.000786 0.023663 -0.000786
v -0.001000 0.023414 -0.001000
v -0.001176 0.023111 -0.001176
v -0.001307 0.022765 -0.001307
v -0.001387 0.022390 -0.001387
v -0.001414 0.022000 -0.001414
v -0.001387 0.021610 -0.001387
v -0.001307 0.021235 -0.001307
v -0.001176 0.020889 -0.001176
v -0.001000 0.020586 -0.001000
v -0.000786 0.020337 -0.000786
v -0.000541 0.020152 -0.000541
v -0.000276 0.020038 -0.000276
v -0.000217 0.023962 -0.000324
v -0.000425 0.023848 -0.000636
v -0.000617 0.023663 -0.000924
v -0.000786 0.023414 -0.001176
v -0.000924 0.023111 -0.001383
v -0.001027 0.022765 -0.001536
v -0.001090 0.022390 -0.001631
v -0.001111 0.022000 -0.001663
v -0.001090 0.021610 -0.001631
v -0.001027 0.021235 -0.001536
v -0.000924 0.020889 -0.001383
v -0.000786 0.020586 -0.001176
v -0.000617 0.020337 -0.000924
v -0.000425 0.020152 -0.000636
v -0.000217 0.020038 -0.000324
v -0.000149 0.023962 -0.000360
v -0.000293 0.023848 -0.000707
v -0.000425 0.023663 -0.001027
v -0.000541 0.023414 -0.001307
v -0.000636 0.023111 -0.001536
v -0.000707 0.022765 -0.001707
v -0.000751 0.022390 -0.001812
v -0.000765 0.022000 -0.001848
v -0.000751 0.021610 -0.001812
v -0.000707 0.021235 -0.001707
v -0.000636 0.020889 -0.001536
v -0.000541 0.020586 -0.001307
v -0.000425 0.020337 -0.001027
v -0.000293 0.020152 -0.000707
v -0.000149 0.020038 -0.000360
v -0.000076 0.023962 -0.000383
v -0.000149 0.023848 -0.000751
v -0.000217 0.023663 -0.001090
v -0.000276 0.023414 -0.001387
v -0.000324 0.023111 -0.001631
v -0.000360 0.022765 -0.001812
v -0.000383 0.022390 -0.001924
v -0.000390 0.022000 -0.001962
v -0.000383 0.021610 -0.001924
v -0.000360 0.021235 -0.001812
v -0.000324 0.020889 -0.001631
v -0.000276 0.020586 -0.001387
v -0.000217 0.020337 -0.001090
v -0.000149 0.020152 -0.000751
v -0.000076 0.020038 -0.000383
v 0.000000 0.023848 -0.000765
v 0.000000 0.023111 -0.001663
v 0.000000 0.022390 -0.001962
v 0.000000 0.021235 -0.001848
v 0.000000 0.020586 -0.001414
v 0.000000 0.020152 -0.000765
vn 0.0654 -0.0000 -0.9979
vn 0.1951 -0.0000 -0.9808
vn 0.3214 -0.0000 -0.9469
vn 0.4423 -0.0000 -0.8969
vn 0.5556 -0.0000 -0.8315
vn 0.6593 -0.0000 -0.7518
vn 0.7518 -0.0000 -0.6593
vn 0.8315 -0.0000 -0.5556
vn 0.8969 -0.0000 -0.4423
vn 0.9469 -0.0000 -0.3214
vn 0.9808 -0.0000 -0.1951
vn 0.9979 -0.0000 -0.0654
vn 0.9979 -0.0000 0.0654
vn 0.9808 -0.0000 0.1951
vn 0.9469 -0.0000 0.3214
vn 0.8969 -0.0000 0.4423
vn 0.8315 -0.0000 0.5556
vn 0.7518 -0.0000 0.6593
vn 0.6593 -0.0000 0.7518
vn 0.5556 -0.0000 0.8315
vn 0.4423 -0.0000 0.8969
vn 0.3214 -0.0000 0.9469
vn 0.1951 -0.0000 0.9808
vn 0.0654 -0.0000 0.9979
vn -0.0654 -0.0000 0.9979
vn -0.1951 -0.0000 0.9808
vn -0.3214 -0.0000 0.9469
vn -0.4423 -0.0000 0.8969
vn -0.5556 -0.0000 0.8315
vn -0.6593 -0.0000 0.7518
vn -0.7518 -0.0000 0.6593
vn -0.8315 -0.0000 0.5556
vn -0.8969 -0.0000 0.4423
vn -0.9469 -0.0000 0.3214
vn -0.9808 -0.0000 0.1951
vn -0.9979 -0.0000 0.0654
vn -0.9979 -0.0000 -0.0654
vn -0.9808 -0.0000 -0.1951
vn -0.9469 -0.0000 -0.3214
vn -0.8969 -0.0000 -0.4423
vn -0.8315 -0.0000 -0.5556
vn -0.7518 -0.0000 -0.6593
vn -0.6593 -0.0000 -0.7518
vn -0.5556 -0.0000 -0.8315
vn -0.4423 -0.0000 -0.8969
vn -0.3214 -0.0000 -0.9469
vn -0.0000 1.0000 -0.0000
vn -0.1951 -0.0000 -0.9808
vn -0.0654 -0.0000 -0.9979
vn -0.0000 -1.0000 -0.0000
vn 0.0743 0.3210 -0.9442
vn 0.2211 0.3210 -0.9209
vn 0.3624 0.3210 -0.8750
vn 0.4948 0.3210 -0.8075
vn 0.6151 0.3210 -0.7202
vn 0.7202 0.3210 -0.6151
vn 0.8075 0.3210 -0.4948
vn 0.8750 0.3210 -0.3624
vn 0.9209 0.3210 -0.2211
vn 0.9442 0.3210 -0.0743
vn 0.9442 0.3210 0.0743
vn 0.9209 0.3210 0.2211
vn 0.8750 0.3210 0.3624
vn 0.8075 0.3210 0.4948
vn 0.7202 0.3210 0.6151
vn 0.6151 0.3210 0.7202
vn 0.4948 0.3210 0.8075
vn 0.3624 0.3210 0.8750
vn 0.2211 0.3210 0.9209
vn 0.0743 0.3210 0.9442
vn -0.0743 0.3210 0.9442
vn -0.2211 0.3210 0.9209
vn -0.3624 0.3210 0.8750
vn -0.4948 0.3210 0.8075
vn -0.6151 0.3210 0.7202
vn -0.7202 0.3210 0.6151
vn -0.8075 0.3210 0.4948
vn -0.8750 0.3210 0.3624
vn -0.9209 0.3210 0.2211
vn -0.9442 0.3210 0.0743
vn -0.9442 0.3210 -0.0743
vn -0.9209 0.3210 -0.2211
vn -0.8750 0.3210 -0.3624
vn -0.8075 0.3210 -0.4948
vn -0.7202 0.3210 -0.6151
vn -0.6151 0.3210 -0.7202
vn -0.4948 0.3210 -0.8075
vn -0.3624 0.3210 -0.8750
vn -0.2211 0.3210 -0.9209
vn -0.0743 0.3210 -0.9442
vn 0.0980 -0.0000 -0.9952
vn 0.2903 -0.0000 -0.9569
vn 0.4714 -0.0000 -0.8819
vn 0.6344 -0.0000 -0.7730
vn 0.7730 -0.0000 -0.6344
vn 0.8819 -0.0000 -0.4714
vn 0.9569 -0.0000 -0.2903
vn 0.9952 -0.0000 -0.0980
vn 0.9952 -0.0000 0.0980
vn 0.9569 -0.0000 0.2903
vn 0.8819 -0.0000 0.4714
vn 0.7730 -0.0000 0.6344
vn 0.6344 -0.0000 0.7730
vn 0.4714 -0.0000 0.8819
vn 0.2903 -0.0000 0.9569
vn 0.0980 -0.0000 0.9952
vn -0.0980 -0.0000 0.9952
vn -0.2903 -0.0000 0.9569
vn -0.4714 -0.0000 0.8819
vn -0.6344 -0.0000 0.7730
vn -0.7730 -0.0000 0.6344
vn -0.8819 -0.0000 0.4714
vn -0.9569 -0.0000 0.2903
vn -0.9952 -0.0000 0.0980
vn -0.9952 -0.0000 -0.0980
vn -0.9569 -0.0000 -0.2903
vn -0.8819 -0.0000 -0.4714
vn -0.7730 -0.0000 -0.6344
vn -0.6344 -0.0000 -0.7730
vn -0.4714 -0.0000 -0.8819
vn -0.2903 -0.0000 -0.9569
vn -0.0980 -0.0000 -0.9952
vn 0.0624 0.7715 -0.6332
vn 0.0759 -0.6326 -0.7708
vn 0.0759 0.6326 -0.7708
vn 0.0624 -0.7715 -0.6332
vn 0.0865 0.4696 -0.8786
vn 0.0464 -0.8810 -0.4709
vn 0.0938 0.2890 -0.9527
vn 0.0286 -0.9565 -0.2902
vn 0.0975 0.0976 -0.9904
vn 0.0096 0.9951 -0.0980
vn 0.0096 -0.9951 -0.0980
vn 0.0975 -0.0975 -0.9904
vn 0.0286 0.9565 -0.2902
vn 0.0938 -0.2890 -0.9527
vn 0.0464 0.8810 -0.4709
vn 0.0865 -0.4696 -0.8786
vn 0.1374 0.8810 -0.4528
vn 0.2563 -0.4696 -0.8448
vn 0.1847 0.7715 -0.6088
vn 0.2248 -0.6326 -0.7412
vn 0.2248 0.6326 -0.7412
vn 0.1847 -0.7715 -0.6088
vn 0.2563 0.4696 -0.8448
vn 0.1373 -0.8810 -0.4528
vn 0.2779 0.2890 -0.9161
vn 0.0846 -0.9565 -0.2790
vn 0.2889 0.0975 -0.9524
vn 0.0286 0.9951 -0.0942
vn 0.0286 -0.9951 -0.0942
vn 0.2889 -0.0975 -0.9524
vn 0.0846 0.9566 -0.2790
vn 0.2779 -0.2890 -0.9161
vn 0.4513 0.2890 -0.8443
vn 0.1374 -0.9565 -0.2571
vn 0.4691 0.0975 -0.8777
vn 0.0464 0.9951 -0.0869
vn 0.0464 -0.9951 -0.0869
vn 0.4691 -0.0975 -0.8777
vn 0.1374 0.9565 -0.2571
vn 0.4513 -0.2890 -0.8443
vn 0.2231 0.8810 -0.4173
vn 0.4162 -0.4696 -0.7786
vn 0.2999 0.7715 -0.5611
vn 0.3651 -0.6326 -0.6831
vn 0.3651 0.6326 -0.6831
vn 0.2999 -0.7715 -0.5611
vn 0.4162 0.4696 -0.7786
vn 0.2231 -0.8810 -0.4173
vn 0.5601 -0.4696 -0.6825
vn 0.4036 0.7715 -0.4918
vn 0.4913 -0.6326 -0.5987
vn 0.4913 0.6326 -0.5987
vn 0.4036 -0.7715 -0.4918
vn 0.5601 0.4696 -0.6825
vn 0.3002 -0.8810 -0.3658
vn 0.6073 0.2890 -0.7400
vn 0.1850 -0.9565 -0.2254
vn 0.6314 0.0975 -0.7693
vn 0.0625 0.9951 -0.0761
vn 0.0625 -0.9951 -0.0761
vn 0.6314 -0.0975 -0.7693
vn 0.1850 0.9565 -0.2254
vn 0.6073 -0.2890 -0.7400
vn 0.3002 0.8810 -0.3658
vn 0.2254 -0.9566 -0.1850
vn 0.7693 0.0975 -0.6314
vn 0.0761 0.9951 -0.0625
vn 0.0761 -0.9951 -0.0625
vn 0.7693 -0.0975 -0.6314
vn 0.2254 0.9565 -0.1850
vn 0.7400 -0.2890 -0.6073
vn 0.3658 0.8810 -0.3002
vn 0.6825 -0.4696 -0.5601
vn 0.4918 0.7715 -0.4036
vn 0.5987 -0.6326 -0.4913
vn 0.5987 0.6326 -0.4913
vn 0.4918 -0.7715 -0.4036
vn 0.6825 0.4696 -0.5601
vn 0.3658 -0.8810 -0.3002
vn 0.7400 0.2890 -0.6073
vn 0.5611 0.7715 -0.2999
vn 0.6831 -0.6326 -0.3651
vn 0.6831 0.6326 -0.3651
vn 0.5611 -0.7715 -0.2999
vn 0.7786 0.4696 -0.4162
vn 0.4173 -0.8810 -0.2230
vn 0.8443 0.2890 -0.4513
vn 0.2571 -0.9566 -0.1374
vn 0.8777 0.0975 -0.4691
vn 0.0869 0.9951 -0.0464
vn 0.0869 -0.9951 -0.0464
vn 0.8777 -0.0975 -0.4691
vn 0.2571 0.9565 -0.1374
vn 0.8443 -0.2890 -0.4513
vn 0.4173 0.8810 -0.2230
vn 0.7786 -0.4696 -0.4162
vn 0.9524 0.0975 -0.2889
vn 0.0943 0.9951 -0.0286
vn 0.0942 -0.9951 -0.0286
vn 0.9524 -0.0975 -0.2889
vn 0.2790 0.9566 -0.0846
vn 0.9161 -0.2890 -0.2779
vn 0.4528 0.8810 -0.1374
vn 0.8448 -0.4696 -0.2563
vn 0.6088 0.7715 -0.1847
vn 0.7412 -0.6326 -0.2248
vn 0.7412 0.6326 -0.2248
vn 0.6088 -0.7715 -0.1847
vn 0.8448 0.4696 -0.2563
vn 0.4528 -0.8810 -0.1374
vn 0.9161 0.2890 -0.2779
vn 0.2790 -0.9565 -0.0846
vn 0.7708 -0.6326 -0.0759
vn 0.7708 0.6326 -0.0759
vn 0.6332 -0.7715 -0.0624
vn 0.8786 0.4696 -0.0865
vn 0.4709 -0.8810 -0.0464
vn 0.9527 0.2890 -0.0938
vn 0.2902 -0.9565 -0.0286
vn 0.9904 0.0975 -0.0975
vn 0.0980 0.9951 -0.0097
vn 0.0980 -0.9951 -0.0097
vn 0.9904 -0.0975 -0.0975
vn 0.2902 0.9566 -0.0286
vn 0.9527 -0.2890 -0.0938
vn 0.4709 0.8810 -0.0464
vn 0.8786 -0.4696 -0.0865
vn 0.6332 0.7715 -0.0624
vn 0.0980 -0.9951 0.0097
vn 0.9904 -0.0975 0.0975
vn 0.2902 0.9565 0.0286
vn 0.9527 -0.2890 0.0938
vn 0.4709 0.8810 0.0464
vn 0.8786 -0.4696 0.0865
vn 0.6332 0.7715 0.0624
vn 0.7708 -0.6326 0.0759
vn 0.7708 0.6326 0.0759
vn 0.6332 -0.7715 0.0624
vn 0.8786 0.4696 0.0865
vn 0.4709 -0.8810 0.0464
vn 0.9527 0.2890 0.0938
vn 0.2902 -0.9565 0.0286
vn 0.9904 0.0976 0.0975
vn 0.0980 0.9951 0.0097
vn 0.6088 -0.7715 0.1847
vn 0.8448 0.4696 0.2563
vn 0.4528 -0.8810 0.1374
vn 0.9161 0.2890 0.2779
vn 0.2790 -0.9566 0.0846
vn 0.9524 0.0976 0.2889
vn 0.0943 0.9951 0.0286
vn 0.0942 -0.9951 0.0286
vn 0.9524 -0.0976 0.2889
vn 0.2790 0.9565 0.0846
vn 0.9161 -0.2890 0.2779
vn 0.4528 0.8810 0.1374
vn 0.8448 -0.4696 0.2563
vn 0.6088 0.7715 0.1847
vn 0.7412 -0.6326 0.2248
vn 0.7412 0.6326 0.2248
vn 0.2571 0.9565 0.1374
vn 0.8443 -0.2890 0.4513
vn 0.4173 0.8810 0.2230
vn 0.7786 -0.4696 0.4162
vn 0.5611 0.7715 0.2999
vn 0.6831 -0.6326 0.3651
vn 0.6831 0.6326 0.3651
vn 0.5611 -0.7715 0.2999
vn 0.7786 0.4696 0.4162
vn 0.4173 -0.8810 0.2230
vn 0.8443 0.2890 0.4513
vn 0.2571 -0.9565 0.1374
vn 0.8777 0.0976 0.4691
vn 0.0868 0.9951 0.0464
vn 0.0869 -0.9951 0.0464
vn 0.8777 -0.0976 0.4691
vn 0.6825 0.4696 0.5601
vn 0.3658 -0.8810 0.3002
vn 0.7400 0.2890 0.6073
vn 0.2254 -0.9566 0.1850
vn 0.7693 0.0975 0.6314
vn 0.0761 0.9951 0.0625
vn 0.0761 -0.9951 0.0625
vn 0.7693 -0.0976 0.6314
vn 0.2254 0.9565 0.1850
vn 0.7400 -0.2890 0.6073
vn 0.3658 0.8810 0.3002
vn 0.6825 -0.4696 0.5601
vn 0.4918 0.7715 0.4036
vn 0.5987 -0.6326 0.4913
vn 0.5987 0.6326 0.4913
vn 0.4918 -0.7715 0.4036
vn 0.6073 -0.2890 0.7400
vn 0.3002 0.8810 0.3658
vn 0.5601 -0.4696 0.6825
vn 0.4036 0.7715 0.4918
vn 0.4913 -0.6326 0.5987
vn 0.4913 0.6326 0.5987
vn 0.4036 -0.7715 0.4918
vn 0.5601 0.4696 0.6825
vn 0.3002 -0.8810 0.3658
vn 0.6073 0.2890 0.7400
vn 0.1850 -0.9566 0.2254
vn 0.6314 0.0976 0.7693
vn 0.0625 0.9951 0.0761
vn 0.0625 -0.9951 0.0761
vn 0.6314 -0.0976 0.7693
vn 0.1850 0.9565 0.2254
vn 0.2231 -0.8810 0.4173
vn 0.4513 0.2890 0.8443
vn 0.1375 -0.9565 0.2571
vn 0.4691 0.0976 0.8777
vn 0.0464 0.9951 0.0869
vn 0.0464 -0.9951 0.0869
vn 0.4691 -0.0976 0.8777
vn 0.1374 0.9565 0.2571
vn 0.4513 -0.2890 0.8443
vn 0.2230 0.8810 0.4173
vn 0.4162 -0.4696 0.7786
vn 0.2999 0.7715 0.5611
vn 0.3651 -0.6326 0.6831
vn 0.3651 0.6326 0.6831
vn 0.2999 -0.7715 0.5611
vn 0.4162 0.4696 0.7786
vn 0.1374 0.8810 0.4528
vn 0.2563 -0.4696 0.8448
vn 0.1847 0.7715 0.6088
vn 0.2248 -0.6326 0.7412
vn 0.2248 0.6326 0.7412
vn 0.1847 -0.7715 0.6088
vn 0.2563 0.4696 0.8448
vn 0.1374 -0.8810 0.4528
vn 0.2779 0.2890 0.9161
vn 0.0846 -0.9566 0.2790
vn 0.2889 0.0975 0.9524
vn 0.0286 0.9951 0.0942
vn 0.0286 -0.9951 0.0942
vn 0.2889 -0.0975 0.9524
vn 0.0846 0.9566 0.2790
vn 0.2779 -0.2890 0.9161
vn 0.0938 0.2890 0.9527
vn 0.0286 -0.9565 0.2902
vn 0.0975 0.0975 0.9904
vn 0.0096 0.9951 0.0980
vn 0.0097 -0.9951 0.0980
vn 0.0975 -0.0975 0.9904
vn 0.0286 0.9565 0.2902
vn 0.0938 -0.2890 0.9527
vn 0.0464 0.8810 0.4709
vn 0.0865 -0.4696 0.8786
vn 0.0624 0.7715 0.6332
vn 0.0759 -0.6326 0.7708
vn 0.0759 0.6326 0.7708
vn 0.0624 -0.7715 0.6332
vn 0.0865 0.4696 0.8786
vn 0.0464 -0.8810 0.4709
vn -0.0865 -0.4696 0.8786
vn -0.0624 0.7715 0.6332
vn -0.0759 -0.6326 0.7708
vn -0.0759 0.6326 0.7708
vn -0.0624 -0.7715 0.6332
vn -0.0865 0.4696 0.8786
vn -0.0464 -0.8810 0.4709
vn -0.0938 0.2890 0.9527
vn -0.0286 -0.9565 0.2902
vn -0.0975 0.0975 0.9904
vn -0.0097 0.9951 0.0980
vn -0.0097 -0.9951 0.0980
vn -0.0975 -0.0975 0.9904
vn -0.0286 0.9565 0.2902
vn -0.0938 -0.2890 0.9527
vn -0.0464 0.8810 0.4709
vn -0.0846 -0.9565 0.2790
vn -0.2889 0.0976 0.9524
vn -0.0285 0.9951 0.0942
vn -0.0286 -0.9951 0.0942
vn -0.2889 -0.0976 0.9524
vn -0.0846 0.9566 0.2790
vn -0.2779 -0.2890 0.9161
vn -0.1373 0.8810 0.4528
vn -0.2563 -0.4696 0.8448
vn -0.1847 0.7715 0.6088
vn -0.2248 -0.6326 0.7412
vn -0.2248 0.6326 0.7412
vn -0.1847 -0.7715 0.6088
vn -0.2563 0.4696 0.8448
vn -0.1373 -0.8810 0.4528
vn -0.2779 0.2890 0.9161
vn -0.3651 -0.6326 0.6831
vn -0.3651 0.6326 0.6831
vn -0.2999 -0.7715 0.5611
vn -0.4162 0.4696 0.7786
vn -0.2230 -0.8810 0.4173
vn -0.4513 0.2890 0.8443
vn -0.1375 -0.9565 0.2571
vn -0.4691 0.0976 0.8777
vn -0.0464 0.9951 0.0869
vn -0.0464 -0.9951 0.0869
vn -0.4691 -0.0975 0.8777
vn -0.1374 0.9566 0.2571
vn -0.4513 -0.2890 0.8443
vn -0.2231 0.8810 0.4173
vn -0.4162 -0.4696 0.7786
vn -0.2999 0.7715 0.5611
vn -0.0625 0.9951 0.0761
vn -0.0625 -0.9951 0.0761
vn -0.6314 -0.0976 0.7693
vn -0.1850 0.9566 0.2254
vn -0.6073 -0.2890 0.7400
vn -0.3002 0.8810 0.3658
vn -0.5601 -0.4696 0.6825
vn -0.4036 0.7715 0.4918
vn -0.4913 -0.6326 0.5987
vn -0.4913 0.6326 0.5987
vn -0.4036 -0.7715 0.4918
vn -0.5601 0.4696 0.6825
vn -0.3002 -0.8810 0.3658
vn -0.6073 0.2890 0.7400
vn -0.1850 -0.9565 0.2254
vn -0.6314 0.0975 0.7693
vn -0.5987 0.6326 0.4913
vn -0.4918 -0.7715 0.4036
vn -0.6825 0.4696 0.5601
vn -0.3658 -0.8810 0.3002
vn -0.7400 0.2890 0.6073
vn -0.2254 -0.9565 0.1850
vn -0.7693 0.0975 0.6314
vn -0.0761 0.9951 0.0625
vn -0.0761 -0.9951 0.0625
vn -0.7693 -0.0976 0.6314
vn -0.2254 0.9565 0.1850
vn -0.7400 -0.2890 0.6073
vn -0.3658 0.8810 0.3002
vn -0.6825 -0.4696 0.5601
vn -0.4918 0.7715 0.4036
vn -0.5987 -0.6326 0.4913
vn -0.8777 -0.0975 0.4691
vn -0.2571 0.9566 0.1374
vn -0.8443 -0.2890 0.4513
vn -0.4173 0.8810 0.2230
vn -0.7786 -0.4696 0.4162
vn -0.5611 0.7715 0.2999
vn -0.6831 -0.6326 0.3651
vn -0.6831 0.6326 0.3651
vn -0.5611 -0.7715 0.2999
vn -0.7786 0.4696 0.4162
vn -0.4173 -0.8810 0.2230
vn -0.8443 0.2890 0.4513
vn -0.2571 -0.9566 0.1374
vn -0.8777 0.0976 0.4691
vn -0.0869 0.9951 0.0464
vn -0.0869 -0.9951 0.0464
vn -0.6088 -0.7715 0.1847
vn -0.8448 0.4696 0.2563
vn -0.4528 -0.8810 0.1374
vn -0.9161 0.2890 0.2779
vn -0.2790 -0.9565 0.0846
vn -0.9524 0.0975 0.2889
vn -0.0943 0.9951 0.0286
vn -0.0942 -0.9951 0.0286
vn -0.9524 -0.0976 0.2889
vn -0.2790 0.9565 0.0846
vn -0.9161 -0.2890 0.2779
vn -0.4528 0.8810 0.1374
vn -0.8448 -0.4696 0.2563
vn -0.6088 0.7715 0.1847
vn -0.7412 -0.6326 0.2248
vn -0.7412 0.6326 0.2248
vn -0.2902 0.9565 0.0286
vn -0.9527 -0.2890 0.0938
vn -0.4709 0.8810 0.0464
vn -0.8786 -0.4696 0.0865
vn -0.6332 0.7715 0.0624
vn -0.7708 -0.6326 0.0759
vn -0.7708 0.6326 0.0759
vn -0.6332 -0.7715 0.0624
vn -0.8786 0.4696 0.0865
vn -0.4709 -0.8810 0.0464
vn -0.9527 0.2890 0.0938
vn -0.2902 -0.9566 0.0286
vn -0.9904 0.0975 0.0975
vn -0.0980 0.9951 0.0097
vn -0.0980 -0.9951 0.0097
vn -0.9904 -0.0976 0.0975
vn -0.8786 0.4696 -0.0865
vn -0.4709 -0.8810 -0.0464
vn -0.9527 0.2890 -0.0938
vn -0.2902 -0.9565 -0.0286
vn -0.9904 0.0976 -0.0976
vn -0.0980 0.9951 -0.0097
vn -0.0980 -0.9951 -0.0097
vn -0.9904 -0.0976 -0.0976
vn -0.2902 0.9565 -0.0286
vn -0.9527 -0.2890 -0.0938
vn -0.4709 0.8810 -0.0464
vn -0.8786 -0.4696 -0.0865
vn -0.6332 0.7715 -0.0624
vn -0.7708 -0.6326 -0.0759
vn -0.7708 0.6326 -0.0759
vn -0.6332 -0.7715 -0.0624
vn -0.9161 -0.2890 -0.2779
vn -0.4528 0.8810 -0.1374
vn -0.8448 -0.4696 -0.2563
vn -0.6088 0.7715 -0.1847
vn -0.7412 -0.6326 -0.2248
vn -0.7412 0.6326 -0.2248
vn -0.6088 -0.7715 -0.1847
vn -0.8448 0.4696 -0.2563
vn -0.4528 -0.8810 -0.1374
vn -0.9161 0.2890 -0.2779
vn -0.2790 -0.9565 -0.0846
vn -0.9524 0.0976 -0.2889
vn -0.0942 0.9951 -0.0286
vn -0.0942 -0.9951 -0.0286
vn -0.9524 -0.0976 -0.2889
vn -0.2790 0.9565 -0.0846
vn -0.4173 -0.8810 -0.2230
vn -0.8443 0.2890 -0.4513
vn -0.2571 -0.9566 -0.1374
vn -0.8777 0.0976 -0.4691
vn -0.0868 0.9951 -0.0464
vn -0.0869 -0.9951 -0.0464
vn -0.8777 -0.0976 -0.4691
vn -0.2571 0.9566 -0.1374
vn -0.8443 -0.2890 -0.4513
vn -0.4173 0.8810 -0.2230
vn -0.7786 -0.4696 -0.4162
vn -0.5611 0.7715 -0.2999
vn -0.6831 -0.6326 -0.3651
vn -0.6831 0.6326 -0.3651
vn -0.5611 -0.7715 -0.2999
vn -0.7786 0.4696 -0.4162
vn -0.6825 -0.4696 -0.5601
vn -0.4918 0.7715 -0.4036
vn -0.5987 -0.6326 -0.4913
vn -0.5987 0.6326 -0.4913
vn -0.4918 -0.7715 -0.4036
vn -0.6825 0.4696 -0.5601
vn -0.3658 -0.8810 -0.3002
vn -0.7400 0.2890 -0.6073
vn -0.2254 -0.9565 -0.1850
vn -0.7693 0.0976 -0.6314
vn -0.0761 0.9951 -0.0625
vn -0.0761 -0.9951 -0.0625
vn -0.7693 -0.0976 -0.6314
vn -0.2254 0.9565 -0.1850
vn -0.7400 -0.2890 -0.6073
vn -0.3658 0.8810 -0.3002
vn -0.1850 -0.9565 -0.2254
vn -0.6314 0.0976 -0.7693
vn -0.0625 0.9951 -0.0761
vn -0.0625 -0.9951 -0.0761
vn -0.6314 -0.0976 -0.7693
vn -0.1850 0.9565 -0.2254
vn -0.6073 -0.2890 -0.7400
vn -0.3002 0.8810 -0.3658
vn -0.5601 -0.4696 -0.6825
vn -0.4036 0.7715 -0.4918
vn -0.4913 -0.6326 -0.5987
vn -0.4913 0.6326 -0.5987
vn -0.4036 -0.7715 -0.4918
vn -0.5601 0.4696 -0.6825
vn -0.3002 -0.8810 -0.3658
vn -0.6073 0.2890 -0.7400
vn -0.2999 0.7715 -0.5611
vn -0.3651 -0.6326 -0.6831
vn -0.3651 0.6326 -0.6831
vn -0.2999 -0.7715 -0.5611
vn -0.4162 0.4696 -0.7786
vn -0.2231 -0.8810 -0.4173
vn -0.4513 0.2890 -0.8443
vn -0.1374 -0.9566 -0.2571
vn -0.4691 0.0976 -0.8777
vn -0.0464 0.9951 -0.0869
vn -0.0464 -0.9951 -0.0869
vn -0.4691 -0.0976 -0.8777
vn -0.1374 0.9566 -0.2571
vn -0.4513 -0.2890 -0.8443
vn -0.2230 0.8810 -0.4173
vn -0.4162 -0.4696 -0.7786
vn -0.2889 0.0976 -0.9524
vn -0.0286 0.9951 -0.0942
vn -0.0286 -0.9951 -0.0942
vn -0.2889 -0.0976 -0.9524
vn -0.0846 0.9566 -0.2790
vn -0.2779 -0.2890 -0.9161
vn -0.1374 0.8810 -0.4528
vn -0.2563 -0.4696 -0.8448
vn -0.1847 0.7715 -0.6088
vn -0.2248 -0.6326 -0.7412
vn -0.2248 0.6326 -0.7412
vn -0.1847 -0.7715 -0.6088
vn -0.2563 0.4696 -0.8448
vn -0.1373 -0.8810 -0.4528
vn -0.2779 0.2890 -0.9161
vn -0.0846 -0.9565 -0.2790
vn -0.0759 -0.6326 -0.7708
vn -0.0759 0.6326 -0.7708
vn -0.0624 -0.7715 -0.6332
vn -0.0865 0.4696 -0.8786
vn -0.0464 -0.8810 -0.4709
vn -0.0938 0.2890 -0.9527
vn -0.0286 -0.9565 -0.2902
vn -0.0976 0.0976 -0.9904
vn -0.0096 0.9951 -0.0980
vn -0.0096 -0.9951 -0.0980
vn -0.0976 -0.0975 -0.9904
vn -0.0286 0.9565 -0.2902
vn -0.0938 -0.2890 -0.9527
vn -0.0464 0.8810 -0.4709
vn -0.0865 -0.4696 -0.8786
vn -0.0624 0.7715 -0.6332
vt 1.000000 0.500000
vt 1.000000 1.000000
vt 0.979167 1.000000
vt 0.979167 0.500000
vt 0.958333 1.000000
vt 0.958333 0.500000
vt 0.937500 1.000000
vt 0.937500 0.500000
vt 0.916667 1.000000
vt 0.916667 0.500000
vt 0.895833 1.000000
vt 0.895833 0.500000
vt 0.875000 1.000000
vt 0.875000 0.500000
vt 0.854167 1.000000
vt 0.854167 0.500000
vt 0.833333 1.000000
vt 0.833333 0.500000
vt 0.812500 1.000000
vt 0.812500 0.500000
vt 0.791667 1.000000
vt 0.791667 0.500000
vt 0.770834 1.000000
vt 0.770834 0.500000
vt 0.750000 1.000000
vt 0.750000 0.500000
vt 0.729167 1.000000
vt 0.729167 0.500000
vt 0.708334 1.000000
vt 0.708334 0.500000
vt 0.687500 1.000000
vt 0.687500 0.500000
vt 0.666667 1.000000
vt 0.666667 0.500000
vt 0.645834 1.000000
vt 0.645834 0.500000
vt 0.625000 1.000000
vt 0.625000 0.500000
vt 0.604167 1.000000
vt 0.604167 0.500000
vt 0.583334 1.000000
vt 0.583334 0.500000
vt 0.562500 1.000000
vt 0.562500 0.500000
vt 0.541667 1.000000
vt 0.541667 0.500000
vt 0.520834 1.000000
vt 0.520834 0.500000
vt 0.500000 1.000000
vt 0.500000 0.500000
vt 0.479167 1.000000
vt 0.479167 0.500000
vt 0.458334 1.000000
vt 0.458334 0.500000
vt 0.437500 1.000000
vt 0.437500 0.500000
vt 0.416667 1.000000
vt 0.416667 0.500000
vt 0.395834 1.000000
vt 0.395834 0.500000
vt 0.375000 1.000000
vt 0.375000 0.500000
vt 0.354167 1.000000
vt 0.354167 0.500000
vt 0.333334 1.000000
vt 0.333334 0.500000
vt 0.312500 1.000000
vt 0.312500 0.500000
vt 0.291667 1.000000
vt 0.291667 0.500000
vt 0.270834 1.000000
vt 0.270834 0.500000
vt 0.250000 1.000000
vt 0.250000 0.500000
vt 0.229167 1.000000
vt 0.229167 0.500000
vt 0.208334 1.000000
vt 0.208334 0.500000
vt 0.187500 1.000000
vt 0.187500 0.500000
vt 0.166667 1.000000
vt 0.166667 0.500000
vt 0.145834 1.000000
vt 0.145834 0.500000
vt 0.125000 1.000000
vt 0.125000 0.500000
vt 0.104167 1.000000
vt 0.104167 0.500000
vt 0.083334 1.000000
vt 0.083334 0.500000
vt 0.062500 1.000000
vt 0.062500 0.500000
vt 0.041667 1.000000
vt 0.041667 0.500000
vt 0.281326 0.487947
vt 0.250000 0.490000
vt 0.218674 0.487947
vt 0.187883 0.481822
vt 0.158156 0.471731
vt 0.130000 0.457846
vt 0.103897 0.440405
vt 0.080294 0.419706
vt 0.059595 0.396103
vt 0.042154 0.370000
vt 0.028269 0.341844
vt 0.018178 0.312117
vt 0.012053 0.281326
vt 0.010000 0.250000
vt 0.012053 0.218674
vt 0.018178 0.187883
vt 0.028269 0.158156
vt 0.042154 0.130000
vt 0.059595 0.103897
vt 0.080294 0.080294
vt 0.103897 0.059595
vt 0.130000 0.042154
vt 0.158156 0.028269
vt 0.187883 0.018178
vt 0.218674 0.012053
vt 0.250000 0.010000
vt 0.281326 0.012053
vt 0.312117 0.018178
vt 0.341844 0.028269
vt 0.370000 0.042154
vt 0.396103 0.059595
vt 0.419706 0.080294
vt 0.440405 0.103897
vt 0.457846 0.130000
vt 0.471731 0.158156
vt 0.481822 0.187883
vt 0.487947 0.218674
vt 0.490000 0.250000
vt 0.487947 0.281326
vt 0.481822 0.312117
vt 0.471731 0.341844
vt 0.457846 0.370000
vt 0.440405 0.396103
vt 0.419706 0.419706
vt 0.396103 0.440405
vt 0.370000 0.457846
vt 0.341844 0.471731
vt 0.312117 0.481822
vt 0.020834 1.000000
vt 0.020834 0.500000
vt 0.000000 1.000000
vt 0.000000 0.500000
vt 0.750000 0.490000
vt 0.781326 0.487947
vt 0.812117 0.481822
vt 0.841844 0.471731
vt 0.870000 0.457846
vt 0.896103 0.440405
vt 0.919706 0.419706
vt 0.940405 0.396103
vt 0.957846 0.370000
vt 0.971731 0.341844
vt 0.981822 0.312117
vt 0.987947 0.281326
vt 0.990000 0.250000
vt 0.987947 0.218674
vt 0.981822 0.187883
vt 0.971731 0.158156
vt 0.957846 0.130000
vt 0.940405 0.103897
vt 0.919706 0.080294
vt 0.896103 0.059595
vt 0.870000 0.042154
vt 0.841844 0.028269
vt 0.812117 0.018178
vt 0.781326 0.012053
vt 0.750000 0.010000
vt 0.718674 0.012053
vt 0.687883 0.018178
vt 0.658156 0.028269
vt 0.630000 0.042154
vt 0.603897 0.059595
vt 0.580294 0.080294
vt 0.559595 0.103897
vt 0.542154 0.130000
vt 0.528269 0.158156
vt 0.518178 0.187883
vt 0.512053 0.218674
vt 0.510000 0.250000
vt 0.512053 0.281326
vt 0.518178 0.312117
vt 0.528269 0.341844
vt 0.542154 0.370000
vt 0.559595 0.396103
vt 0.580294 0.419706
vt 0.603897 0.440405
vt 0.630000 0.457846
vt 0.658156 0.471731
vt 0.687883 0.481822
vt 0.718674 0.487947
vt 0.975000 1.000000
vt 0.975000 0.500000
vt 0.950000 1.000000
vt 0.950000 0.500000
vt 0.925000 1.000000
vt 0.925000 0.500000
vt 0.900000 1.000000
vt 0.900000 0.500000
vt 0.850000 1.000000
vt 0.850000 0.500000
vt 0.825000 1.000000
vt 0.825000 0.500000
vt 0.800000 1.000000
vt 0.800000 0.500000
vt 0.775000 1.000000
vt 0.775000 0.500000
vt 0.725000 1.000000
vt 0.725000 0.500000
vt 0.700000 1.000000
vt 0.700000 0.500000
vt 0.675000 1.000000
vt 0.675000 0.500000
vt 0.650000 1.000000
vt 0.650000 0.500000
vt 0.600000 1.000000
vt 0.600000 0.500000
vt 0.575000 1.000000
vt 0.575000 0.500000
vt 0.550000 1.000000
vt 0.550000 0.500000
vt 0.525000 1.000000
vt 0.525000 0.500000
vt 0.475000 1.000000
vt 0.475000 0.500000
vt 0.450000 1.000000
vt 0.450000 0.500000
vt 0.425000 1.000000
vt 0.425000 0.500000
vt 0.400000 1.000000
vt 0.400000 0.500000
vt 0.375000 1.000000
vt 0.375000 0.500000
vt 0.350000 1.000000
vt 0.350000 0.500000
vt 0.325000 1.000000
vt 0.325000 0.500000
vt 0.300000 1.000000
vt 0.300000 0.500000
vt 0.275000 1.000000
vt 0.275000 0.500000
vt 0.250000 1.000000
vt 0.250000 0.500000
vt 0.225000 1.000000
vt 0.225000 0.500000
vt 0.200000 1.000000
vt 0.200000 0.500000
vt 0.175000 1.000000
vt 0.175000 0.500000
vt 0.150000 1.000000
vt 0.150000 0.500000
vt 0.100000 1.000000
vt 0.100000 0.500000
vt 0.075000 1.000000
vt 0.075000 0.500000
vt 0.050000 1.000000
vt 0.050000 0.500000
vt 0.287544 0.487045
vt 0.212456 0.487045
vt 0.175836 0.478254
vt 0.141042 0.463842
vt 0.108932 0.444164
vt 0.080294 0.419706
vt 0.055836 0.391068
vt 0.036158 0.358958
vt 0.021746 0.324164
vt 0.012955 0.287544
vt 0.012955 0.212456
vt 0.021746 0.175836
vt 0.036158 0.141042
vt 0.055836 0.108932
vt 0.080294 0.080294
vt 0.108932 0.055836
vt 0.141042 0.036158
vt 0.175836 0.021746
vt 0.212456 0.012955
vt 0.287544 0.012955
vt 0.324164 0.021746
vt 0.358958 0.036158
vt 0.391068 0.055836
vt 0.419706 0.080294
vt 0.444164 0.108932
vt 0.463842 0.141042
vt 0.478254 0.175836
vt 0.487045 0.212456
vt 0.487045 0.287544
vt 0.478254 0.324164
vt 0.463842 0.358958
vt 0.444164 0.391068
vt 0.391068 0.444164
vt 0.358958 0.463842
vt 0.324164 0.478254
vt 0.025000 1.000000
vt 0.025000 0.500000
vt 0.000000 1.000000
vt 0.000000 0.500000
vt 0.787544 0.487045
vt 0.824164 0.478254
vt 0.858958 0.463842
vt 0.891068 0.444164
vt 0.944164 0.391068
vt 0.963842 0.358958
vt 0.978254 0.324164
vt 0.987045 0.287544
vt 0.987045 0.212456
vt 0.978254 0.175836
vt 0.963842 0.141042
vt 0.944164 0.108932
vt 0.891068 0.055836
vt 0.858958 0.036158
vt 0.824164 0.021746
vt 0.787544 0.012955
vt 0.712456 0.012955
vt 0.675836 0.021746
vt 0.641042 0.036158
vt 0.608932 0.055836
vt 0.555836 0.108932
vt 0.536158 0.141042
vt 0.521746 0.175836
vt 0.512955 0.212456
vt 0.512955 0.287544
vt 0.521746 0.324164
vt 0.536158 0.358958
vt 0.555836 0.391068
vt 0.608932 0.444164
vt 0.641042 0.463842
vt 0.675836 0.478254
vt 0.712456 0.487045
vt 0.968750 1.000000
vt 0.968750 0.500000
vt 0.937500 1.000000
vt 0.937500 0.500000
vt 0.906250 1.000000
vt 0.906250 0.500000
vt 0.875000 1.000000
vt 0.875000 0.500000
vt 0.843750 1.000000
vt 0.843750 0.500000
vt 0.812500 1.000000
vt 0.812500 0.500000
vt 0.781250 1.000000
vt 0.781250 0.500000
vt 0.750000 1.000000
vt 0.750000 0.500000
vt 0.718750 1.000000
vt 0.718750 0.500000
vt 0.687500 1.000000
vt 0.687500 0.500000
vt 0.656250 1.000000
vt 0.656250 0.500000
vt 0.625000 1.000000
vt 0.625000 0.500000
vt 0.593750 1.000000
vt 0.593750 0.500000
vt 0.562500 1.000000
vt 0.562500 0.500000
vt 0.531250 1.000000
vt 0.531250 0.500000
vt 0.500000 1.000000
vt 0.500000 0.500000
vt 0.468750 1.000000
vt 0.468750 0.500000
vt 0.437500 1.000000
vt 0.437500 0.500000
vt 0.406250 1.000000
vt 0.406250 0.500000
vt 0.375000 1.000000
vt 0.375000 0.500000
vt 0.343750 1.000000
vt 0.343750 0.500000
vt 0.312500 1.000000
vt 0.312500 0.500000
vt 0.281250 1.000000
vt 0.281250 0.500000
vt 0.250000 1.000000
vt 0.250000 0.500000
vt 0.218750 1.000000
vt 0.218750 0.500000
vt 0.187500 1.000000
vt 0.187500 0.500000
vt 0.156250 1.000000
vt 0.156250 0.500000
vt 0.125000 1.000000
vt 0.125000 0.500000
vt 0.093750 1.000000
vt 0.093750 0.500000
vt 0.062500 1.000000
vt 0.062500 0.500000
vt 0.296822 0.485388
vt 0.203178 0.485388
vt 0.116663 0.449553
vt 0.050447 0.383337
vt 0.028269 0.341844
vt 0.014612 0.296822
vt 0.014612 0.203178
vt 0.028269 0.158156
vt 0.050447 0.116663
vt 0.116663 0.050447
vt 0.158156 0.028269
vt 0.203178 0.014612
vt 0.296822 0.014612
vt 0.341844 0.028269
vt 0.383337 0.050447
vt 0.449553 0.116663
vt 0.485388 0.203178
vt 0.485388 0.296822
vt 0.449553 0.383337
vt 0.383337 0.449553
vt 0.031250 1.000000
vt 0.031250 0.500000
vt 0.000000 1.000000
vt 0.000000 0.500000
vt 0.796822 0.485388
vt 0.883337 0.449553
vt 0.949553 0.383337
vt 0.985388 0.296822
vt 0.985388 0.203178
vt 0.949553 0.116663
vt 0.883337 0.050447
vt 0.841844 0.028269
vt 0.796822 0.014612
vt 0.703178 0.014612
vt 0.658156 0.028269
vt 0.616663 0.050447
vt 0.550447 0.116663
vt 0.514612 0.203178
vt 0.514612 0.296822
vt 0.550447 0.383337
vt 0.616663 0.449553
vt 0.703178 0.485388
vt 0.750000 0.750000
vt 0.750000 0.812500
vt 0.718750 0.812500
vt 0.718750 0.750000
vt 0.750000 0.250000
vt 0.750000 0.312500
vt 0.718750 0.312500
vt 0.718750 0.250000
vt 0.750000 0.687500
vt 0.718750 0.687500
vt 0.750000 0.187500
vt 0.718750 0.187500
vt 0.750000 0.625000
vt 0.718750 0.625000
vt 0.750000 0.125000
vt 0.718750 0.125000
vt 0.750000 0.562500
vt 0.718750 0.562500
vt 0.750000 0.062500
vt 0.718750 0.062500
vt 0.750000 0.937500
vt 0.734375 1.000000
vt 0.718750 0.937500
vt 0.734375 0.000000
vt 0.750000 0.437500
vt 0.718750 0.437500
vt 0.750000 0.875000
vt 0.718750 0.875000
vt 0.750000 0.375000
vt 0.718750 0.375000
vt 0.687500 0.875000
vt 0.687500 0.812500
vt 0.687500 0.375000
vt 0.687500 0.312500
vt 0.687500 0.750000
vt 0.687500 0.250000
vt 0.687500 0.687500
vt 0.687500 0.187500
vt 0.687500 0.625000
vt 0.687500 0.125000
vt 0.687500 0.562500
vt 0.687500 0.062500
vt 0.703125 1.000000
vt 0.687500 0.937500
vt 0.703125 0.000000
vt 0.687500 0.437500
vt 0.656250 0.625000
vt 0.656250 0.562500
vt 0.656250 0.125000
vt 0.656250 0.062500
vt 0.671875 1.000000
vt 0.656250 0.937500
vt 0.671875 0.000000
vt 0.656250 0.437500
vt 0.656250 0.875000
vt 0.656250 0.375000
vt 0.656250 0.812500
vt 0.656250 0.312500
vt 0.656250 0.750000
vt 0.656250 0.250000
vt 0.656250 0.687500
vt 0.656250 0.187500
vt 0.625000 0.375000
vt 0.625000 0.312500
vt 0.625000 0.812500
vt 0.625000 0.750000
vt 0.625000 0.250000
vt 0.625000 0.687500
vt 0.625000 0.187500
vt 0.625000 0.625000
vt 0.625000 0.125000
vt 0.625000 0.562500
vt 0.625000 0.062500
vt 0.640625 1.000000
vt 0.625000 0.937500
vt 0.640625 0.000000
vt 0.625000 0.437500
vt 0.625000 0.875000
vt 0.593750 0.125000
vt 0.593750 0.062500
vt 0.593750 0.562500
vt 0.609375 1.000000
vt 0.593750 0.937500
vt 0.609375 0.000000
vt 0.593750 0.437500
vt 0.593750 0.875000
vt 0.593750 0.375000
vt 0.593750 0.812500
vt 0.593750 0.312500
vt 0.593750 0.750000
vt 0.593750 0.250000
vt 0.593750 0.687500
vt 0.593750 0.187500
vt 0.593750 0.625000
vt 0.562500 0.812500
vt 0.562500 0.750000
vt 0.562500 0.312500
vt 0.562500 0.250000
vt 0.562500 0.687500
vt 0.562500 0.187500
vt 0.562500 0.625000
vt 0.562500 0.125000
vt 0.562500 0.562500
vt 0.562500 0.062500
vt 0.578125 1.000000
vt 0.562500 0.937500
vt 0.578125 0.000000
vt 0.562500 0.437500
vt 0.562500 0.875000
vt 0.562500 0.375000
vt 0.531250 0.562500
vt 0.546875 1.000000
vt 0.531250 0.937500
vt 0.546875 0.000000
vt 0.531250 0.062500
vt 0.531250 0.437500
vt 0.531250 0.875000
vt 0.531250 0.375000
vt 0.531250 0.812500
vt 0.531250 0.312500
vt 0.531250 0.750000
vt 0.531250 0.250000
vt 0.531250 0.687500
vt 0.531250 0.187500
vt 0.531250 0.625000
vt 0.531250 0.125000
vt 0.500000 0.312500
vt 0.500000 0.250000
vt 0.500000 0.750000
vt 0.500000 0.687500
vt 0.500000 0.187500
vt 0.500000 0.625000
vt 0.500000 0.125000
vt 0.500000 0.562500
vt 0.500000 0.062500
vt 0.500000 0.500000
vt 0.515625 1.000000
vt 0.500000 0.937500
vt 0.515625 0.000000
vt 0.500000 0.437500
vt 0.500000 0.875000
vt 0.500000 0.375000
vt 0.500000 0.812500
vt 0.484375 0.000000
vt 0.468750 0.062500
vt 0.468750 0.437500
vt 0.468750 0.937500
vt 0.468750 0.875000
vt 0.468750 0.375000
vt 0.468750 0.812500
vt 0.468750 0.312500
vt 0.468750 0.750000
vt 0.468750 0.250000
vt 0.468750 0.687500
vt 0.468750 0.187500
vt 0.468750 0.625000
vt 0.468750 0.125000
vt 0.468750 0.562500
vt 0.484375 1.000000
vt 0.437500 0.250000
vt 0.437500 0.187500
vt 0.437500 0.687500
vt 0.437500 0.625000
vt 0.437500 0.125000
vt 0.437500 0.562500
vt 0.437500 0.062500
vt 0.437500 0.500000
vt 0.453125 1.000000
vt 0.437500 0.937500
vt 0.453125 0.000000
vt 0.437500 0.437500
vt 0.437500 0.875000
vt 0.437500 0.375000
vt 0.437500 0.812500
vt 0.437500 0.312500
vt 0.437500 0.750000
vt 0.406250 0.937500
vt 0.406250 0.875000
vt 0.406250 0.437500
vt 0.406250 0.375000
vt 0.406250 0.812500
vt 0.406250 0.312500
vt 0.406250 0.750000
vt 0.406250 0.250000
vt 0.406250 0.687500
vt 0.406250 0.187500
vt 0.406250 0.625000
vt 0.406250 0.125000
vt 0.406250 0.562500
vt 0.406250 0.062500
vt 0.421875 1.000000
vt 0.421875 0.000000
vt 0.375000 0.687500
vt 0.375000 0.625000
vt 0.375000 0.187500
vt 0.375000 0.125000
vt 0.375000 0.562500
vt 0.375000 0.062500
vt 0.390625 1.000000
vt 0.375000 0.937500
vt 0.390625 0.000000
vt 0.375000 0.437500
vt 0.375000 0.875000
vt 0.375000 0.375000
vt 0.375000 0.812500
vt 0.375000 0.312500
vt 0.375000 0.750000
vt 0.375000 0.250000
vt 0.343750 0.437500
vt 0.343750 0.375000
vt 0.343750 0.875000
vt 0.343750 0.812500
vt 0.343750 0.312500
vt 0.343750 0.750000
vt 0.343750 0.250000
vt 0.343750 0.687500
vt 0.343750 0.187500
vt 0.343750 0.625000
vt 0.343750 0.125000
vt 0.343750 0.562500
vt 0.343750 0.062500
vt 0.359375 1.000000
vt 0.343750 0.937500
vt 0.359375 0.000000
vt 0.312500 0.187500
vt 0.312500 0.125000
vt 0.312500 0.625000
vt 0.312500 0.562500
vt 0.312500 0.062500
vt 0.328125 1.000000
vt 0.312500 0.937500
vt 0.328125 0.000000
vt 0.312500 0.437500
vt 0.312500 0.875000
vt 0.312500 0.375000
vt 0.312500 0.812500
vt 0.312500 0.312500
vt 0.312500 0.750000
vt 0.312500 0.250000
vt 0.312500 0.687500
vt 0.281250 0.875000
vt 0.281250 0.812500
vt 0.281250 0.375000
vt 0.281250 0.312500
vt 0.281250 0.750000
vt 0.281250 0.250000
vt 0.281250 0.687500
vt 0.281250 0.187500
vt 0.281250 0.625000
vt 0.281250 0.125000
vt 0.281250 0.562500
vt 0.281250 0.062500
vt 0.296875 1.000000
vt 0.281250 0.937500
vt 0.296875 0.000000
vt 0.281250 0.437500
vt 0.250000 0.625000
vt 0.250000 0.562500
vt 0.250000 0.125000
vt 0.250000 0.062500
vt 0.250000 0.500000
vt 0.265625 1.000000
vt 0.250000 0.937500
vt 0.265625 0.000000
vt 0.250000 0.437500
vt 0.250000 0.875000
vt 0.250000 0.375000
vt 0.250000 0.812500
vt 0.250000 0.312500
vt 0.250000 0.750000
vt 0.250000 0.250000
vt 0.250000 0.687500
vt 0.250000 0.187500
vt 0.218750 0.375000
vt 0.218750 0.312500
vt 0.218750 0.812500
vt 0.218750 0.750000
vt 0.218750 0.250000
vt 0.218750 0.687500
vt 0.218750 0.187500
vt 0.218750 0.625000
vt 0.218750 0.125000
vt 0.218750 0.562500
vt 0.218750 0.062500
vt 0.234375 1.000000
vt 0.218750 0.937500
vt 0.234375 0.000000
vt 0.218750 0.437500
vt 0.218750 0.875000
vt 0.187500 0.125000
vt 0.187500 0.062500
vt 0.187500 0.562500
vt 0.203125 1.000000
vt 0.187500 0.937500
vt 0.203125 0.000000
vt 0.187500 0.437500
vt 0.187500 0.875000
vt 0.187500 0.375000
vt 0.187500 0.812500
vt 0.187500 0.312500
vt 0.187500 0.750000
vt 0.187500 0.250000
vt 0.187500 0.687500
vt 0.187500 0.187500
vt 0.187500 0.625000
vt 0.156250 0.312500
vt 0.156250 0.250000
vt 0.156250 0.750000
vt 0.156250 0.687500
vt 0.156250 0.187500
vt 0.156250 0.625000
vt 0.156250 0.125000
vt 0.156250 0.562500
vt 0.156250 0.062500
vt 0.156250 0.500000
vt 0.171875 1.000000
vt 0.156250 0.937500
vt 0.171875 0.000000
vt 0.156250 0.437500
vt 0.156250 0.875000
vt 0.156250 0.375000
vt 0.156250 0.812500
vt 0.140625 1.000000
vt 0.125000 0.937500
vt 0.140625 0.000000
vt 0.125000 0.062500
vt 0.125000 0.500000
vt 0.125000 0.437500
vt 0.125000 0.875000
vt 0.125000 0.375000
vt 0.125000 0.812500
vt 0.125000 0.312500
vt 0.125000 0.750000
vt 0.125000 0.250000
vt 0.125000 0.687500
vt 0.125000 0.187500
vt 0.125000 0.625000
vt 0.125000 0.125000
vt 0.125000 0.562500
vt 0.093750 0.750000
vt 0.093750 0.687500
vt 0.093750 0.250000
vt 0.093750 0.187500
vt 0.093750 0.625000
vt 0.093750 0.125000
vt 0.093750 0.562500
vt 0.093750 0.062500
vt 0.109375 1.000000
vt 0.093750 0.937500
vt 0.109375 0.000000
vt 0.093750 0.437500
vt 0.093750 0.875000
vt 0.093750 0.375000
vt 0.093750 0.812500
vt 0.093750 0.312500
vt 0.062500 0.437500
vt 0.062500 0.937500
vt 0.062500 0.875000
vt 0.062500 0.375000
vt 0.062500 0.812500
vt 0.062500 0.312500
vt 0.062500 0.750000
vt 0.062500 0.250000
vt 0.062500 0.687500
vt 0.062500 0.187500
vt 0.062500 0.625000
vt 0.062500 0.125000
vt 0.062500 0.562500
vt 0.062500 0.062500
vt 0.078125 1.000000
vt 0.078125 0.000000
vt 0.031250 0.250000
vt 0.031250 0.187500
vt 0.031250 0.687500
vt 0.031250 0.625000
vt 0.031250 0.125000
vt 0.031250 0.562500
vt 0.031250 0.062500
vt 0.031250 0.500000
vt 0.046875 1.000000
vt 0.031250 0.937500
vt 0.046875 0.000000
vt 0.031250 0.437500
vt 0.031250 0.875000
vt 0.031250 0.375000
vt 0.031250 0.812500
vt 0.031250 0.312500
vt 0.031250 0.750000
vt 0.000000 0.937500
vt 0.000000 0.875000
vt 0.000000 0.437500
vt 0.000000 0.375000
vt 0.000000 0.812500
vt 0.000000 0.312500
vt 0.000000 0.750000
vt 0.000000 0.250000
vt 0.000000 0.687500
vt 0.000000 0.187500
vt 0.000000 0.625000
vt 0.000000 0.125000
vt 0.000000 0.562500
vt 0.000000 0.062500
vt 0.015625 1.000000
vt 0.015625 0.000000
vt 1.000000 0.625000
vt 1.000000 0.687500
vt 0.968750 0.687500
vt 0.968750 0.625000
vt 1.000000 0.125000
vt 1.000000 0.187500
vt 0.968750 0.187500
vt 0.968750 0.125000
vt 1.000000 0.562500
vt 0.968750 0.562500
vt 1.000000 0.062500
vt 0.968750 0.062500
vt 0.968750 0.500000
vt 1.000000 0.937500
vt 0.984375 1.000000
vt 0.968750 0.937500
vt 0.984375 0.000000
vt 1.000000 0.437500
vt 0.968750 0.437500
vt 1.000000 0.875000
vt 0.968750 0.875000
vt 1.000000 0.375000
vt 0.968750 0.375000
vt 1.000000 0.812500
vt 0.968750 0.812500
vt 1.000000 0.312500
vt 0.968750 0.312500
vt 1.000000 0.750000
vt 0.968750 0.750000
vt 1.000000 0.250000
vt 0.968750 0.250000
vt 0.937500 0.437500
vt 0.937500 0.375000
vt 0.937500 0.875000
vt 0.937500 0.812500
vt 0.937500 0.312500
vt 0.937500 0.750000
vt 0.937500 0.250000
vt 0.937500 0.687500
vt 0.937500 0.187500
vt 0.937500 0.625000
vt 0.937500 0.125000
vt 0.937500 0.562500
vt 0.937500 0.062500
vt 0.953125 1.000000
vt 0.937500 0.937500
vt 0.953125 0.000000
vt 0.906250 0.187500
vt 0.906250 0.125000
vt 0.906250 0.625000
vt 0.906250 0.562500
vt 0.906250 0.062500
vt 0.921875 1.000000
vt 0.906250 0.937500
vt 0.921875 0.000000
vt 0.906250 0.437500
vt 0.906250 0.875000
vt 0.906250 0.375000
vt 0.906250 0.812500
vt 0.906250 0.312500
vt 0.906250 0.750000
vt 0.906250 0.250000
vt 0.906250 0.687500
vt 0.875000 0.375000
vt 0.875000 0.312500
vt 0.875000 0.812500
vt 0.875000 0.750000
vt 0.875000 0.250000
vt 0.875000 0.687500
vt 0.875000 0.187500
vt 0.875000 0.625000
vt 0.875000 0.125000
vt 0.875000 0.562500
vt 0.875000 0.062500
vt 0.875000 0.500000
vt 0.890625 1.000000
vt 0.875000 0.937500
vt 0.890625 0.000000
vt 0.875000 0.437500
vt 0.875000 0.875000
vt 0.843750 0.125000
vt 0.843750 0.062500
vt 0.843750 0.562500
vt 0.843750 0.500000
vt 0.859375 1.000000
vt 0.843750 0.937500
vt 0.859375 0.000000
vt 0.843750 0.437500
vt 0.843750 0.875000
vt 0.843750 0.375000
vt 0.843750 0.812500
vt 0.843750 0.312500
vt 0.843750 0.750000
vt 0.843750 0.250000
vt 0.843750 0.687500
vt 0.843750 0.187500
vt 0.843750 0.625000
vt 0.812500 0.812500
vt 0.812500 0.750000
vt 0.812500 0.312500
vt 0.812500 0.250000
vt 0.812500 0.687500
vt 0.812500 0.187500
vt 0.812500 0.625000
vt 0.812500 0.125000
vt 0.812500 0.562500
vt 0.812500 0.062500
vt 0.812500 0.500000
vt 0.828125 1.000000
vt 0.812500 0.937500
vt 0.828125 0.000000
vt 0.812500 0.437500
vt 0.812500 0.875000
vt 0.812500 0.375000
vt 0.781250 0.562500
vt 0.781250 0.500000
vt 0.796875 1.000000
vt 0.781250 0.937500
vt 0.796875 0.000000
vt 0.781250 0.062500
vt 0.781250 0.437500
vt 0.781250 0.875000
vt 0.781250 0.375000
vt 0.781250 0.812500
vt 0.781250 0.312500
vt 0.781250 0.750000
vt 0.781250 0.250000
vt 0.781250 0.687500
vt 0.781250 0.187500
vt 0.781250 0.625000
vt 0.781250 0.125000
vt 0.765625 1.000000
vt 0.765625 0.000000
s 0
usemtl piece_white
f 1/1/1 2/2/1 4/3/1 3/4/1
f 3/4/2 4/3/2 6/5/2 5/6/2
f 5/6/3 6/5/3 8/7/3 7/8/3
f 7/8/4 8/7/4 10/9/4 9/10/4
f 9/10/5 10/9/5 12/11/5 11/12/5
f 11/12/6 12/11/6 14/13/6 13/14/6
f 13/14/7 14/13/7 16/15/7 15/16/7
f 15/16/8 16/15/8 18/17/8 17/18/8
f 17/18/9 18/17/9 20/19/9 19/20/9
f 19/20/10 20/19/10 22/21/10 21/22/10
f 21/22/11 22/21/11 24/23/11 23/24/11
f 23/24/12 24/23/12 26/25/12 25/26/12
f 25/26/13 26/25/13 28/27/13 27/28/13
f 27/28/14 28/27/14 30/29/14 29/30/14
f 29/30/15 30/29/15 32/31/15 31/32/15
f 31/32/16 32/31/16 34/33/16 33/34/16
f 33/34/17 34/33/17 36/35/17 35/36/17
f 35/36/18 36/35/18 38/37/18 37/38/18
f 37/38/19 38/37/19 40/39/19 39/40/19
f 39/40/20 40/39/20 42/41/20 41/42/20
f 41/42/21 42/41/21 44/43/21 43/44/21
f 43/44/22 44/43/22 46/45/22 45/46/22
f 45/46/23 46/45/23 48/47/23 47/48/23
f 47/48/24 48/47/24 50/49/24 49/50/24
f 49/50/25 50/49/25 52/51/25 51/52/25
f 51/52/26 52/51/26 54/53/26 53/54/26
f 53/54/27 54/53/27 56/55/27 55/56/27
f 55/56/28 56/55/28 58/57/28 57/58/28
f 57/58/29 58/57/29 60/59/29 59/60/29
f 59/60/30 60/59/30 62/61/30 61/62/30
f 61/62/31 62/61/31 64/63/31 63/64/31
f 63/64/32 64/63/32 66/65/32 65/66/32
f 65/66/33 66/65/33 68/67/33 67/68/33
f 67/68/34 68/67/34 70/69/34 69/70/34
f 69/70/35 70/69/35 72/71/35 71/72/35
f 71/72/36 72/71/36 74/73/36 73/74/36
f 73/74/37 74/73/37 76/75/37 75/76/37
f 75/76/38 76/75/38 78/77/38 77/78/38
f 77/78/39 78/77/39 80/79/39 79/80/39
f 79/80/40 80/79/40 82/81/40 81/82/40
f 81/82/41 82/81/41 84/83/41 83/84/41
f 83/84/42 84/83/42 86/85/42 85/86/42
f 85/86/43 86/85/43 88/87/43 87/88/43
f 87/88/44 88/87/44 90/89/44 89/90/44
f 89/90/45 90/89/45 92/91/45 91/92/45
f 91/92/46 92/91/46 94/93/46 93/94/46
f 4/95/47 2/96/47 96/97/47 94/98/47 92/99/47 90/100/47 88/101/47 86/102/47 84/103/47 82/104/47 80/105/47 78/106/47 76/107/47 74/108/47 72/109/47 70/110/47 68/111/47 66/112/47 64/113/47 62/114/47 60/115/47 58/116/47 56/117/47 54/118/47 52/119/47 50/120/47 48/121/47 46/122/47 44/123/47 42/124/47 40/125/47 38/126/47 36/127/47 34/128/47 32/129/47 30/130/47 28/131/47 26/132/47 24/133/47 22/134/47 20/135/47 18/136/47 16/137/47 14/138/47 12/139/47 10/140/47 8/141/47 6/142/47
f 93/94/48 94/93/48 96/143/48 95/144/48
f 95/144/49 96/143/49 2/145/49 1/146/49
f 1/147/50 3/148/50 5/149/50 7/150/50 9/151/50 11/152/50 13/153/50 15/154/50 17/155/50 19/156/50 21/157/50 23/158/50 25/159/50 27/160/50 29/161/50 31/162/50 33/163/50 35/164/50 37/165/50 39/166/50 41/167/50 43/168/50 45/169/50 47/170/50 49/171/50 51/172/50 53/173/50 55/174/50 57/175/50 59/176/50 61/177/50 63/178/50 65/179/50 67/180/50 69/181/50 71/182/50 73/183/50 75/184/50 77/185/50 79/186/50 81/187/50 83/188/50 85/189/50 87/190/50 89/191/50 91/192/50 93/193/50 95/194/50
f 97/1/51 98/2/51 100/195/51 99/196/51
f 99/196/52 100/195/52 102/197/52 101/198/52
f 101/198/53 102/197/53 104/199/53 103/200/53
f 103/200/54 104/199/54 106/201/54 105/202/54
f 105/202/55 106/201/55 108/13/55 107/14/55
f 107/14/56 108/13/56 110/203/56 109/204/56
f 109/204/57 110/203/57 112/205/57 111/206/57
f 111/206/58 112/205/58 114/207/58 113/208/58
f 113/208/59 114/207/59 116/209/59 115/210/59
f 115/210/60 116/209/60 118/25/60 117/26/60
f 117/26/61 118/25/61 120/211/61 119/212/61
f 119/212/62 120/211/62 122/213/62 121/214/62
f 121/214/63 122/213/63 124/215/63 123/216/63
f 123/216/64 124/215/64 126/217/64 125/218/64
f 125/218/65 126/217/65 128/37/65 127/38/65
f 127/38/66 128/37/66 130/219/66 129/220/66
f 129/220/67 130/219/67 132/221/67 131/222/67
f 131/222/68 132/221/68 134/223/68 133/224/68
f 133/224/69 134/223/69 136/225/69 135/226/69
f 135/226/70 136/225/70 138/49/70 137/50/70
f 137/50/71 138/49/71 140/227/71 139/228/71
f 139/228/72 140/227/72 142/229/72 141/230/72
f 141/230/73 142/229/73 144/231/73 143/232/73
f 143/232/74 144/231/74 146/233/74 145/234/74
f 145/234/75 146/233/75 148/235/75 147/236/75
f 147/236/76 148/235/76 150/237/76 149/238/76
f 149/238/77 150/237/77 152/239/77 151/240/77
f 151/240/78 152/239/78 154/241/78 153/242/78
f 153/242/79 154/241/79 156/243/79 155/244/79
f 155/244/80 156/243/80 158/245/80 157/246/80
f 157/246/81 158/245/81 160/247/81 159/248/81
f 159/248/82 160/247/82 162/249/82 161/250/82
f 161/250/83 162/249/83 164/251/83 163/252/83
f 163/252/84 164/251/84 166/253/84 165/254/84
f 165/254/85 166/253/85 168/85/85 167/86/85
f 167/86/86 168/85/86 170/255/86 169/256/86
f 169/256/87 170/255/87 172/257/87 171/258/87
f 171/258/88 172/257/88 174/259/88 173/260/88
f 100/261/47 98/96/47 176/262/47 174/263/47 172/264/47 170/265/47 168/266/47 166/267/47 164/268/47 162/269/47 160/270/47 158/108/47 156/271/47 154/272/47 152/273/47 150/274/47 148/275/47 146/276/47 144/277/47 142/278/47 140/279/47 138/120/47 136/280/47 134/281/47 132/282/47 130/283/47 128/284/47 126/285/47 124/286/47 122/287/47 120/288/47 118/132/47 116/289/47 114/290/47 112/291/47 110/292/47 108/138/47 106/293/47 104/294/47 102/295/47
f 173/260/89 174/259/89 176/296/89 175/297/89
f 175/297/90 176/296/90 98/298/90 97/299/90
f 97/147/50 99/300/50 101/301/50 103/302/50 105/303/50 107/153/50 109/304/50 111/305/50 113/306/50 115/307/50 117/159/50 119/308/50 121/309/50 123/310/50 125/311/50 127/165/50 129/312/50 131/313/50 133/314/50 135/315/50 137/171/50 139/316/50 141/317/50 143/318/50 145/319/50 147/177/50 149/320/50 151/321/50 153/322/50 155/323/50 157/183/50 159/324/50 161/325/50 163/326/50 165/327/50 167/189/50 169/328/50 171/329/50 173/330/50 175/331/50
f 177/1/1 178/2/1 180/3/1 179/4/1
f 179/4/2 180/3/2 182/5/2 181/6/2
f 181/6/3 182/5/3 184/7/3 183/8/3
f 183/8/4 184/7/4 186/9/4 185/10/4
f 185/10/5 186/9/5 188/11/5 187/12/5
f 187/12/6 188/11/6 190/13/6 189/14/6
f 189/14/7 190/13/7 192/15/7 191/16/7
f 191/16/8 192/15/8 194/17/8 193/18/8
f 193/18/9 194/17/9 196/19/9 195/20/9
f 195/20/10 196/19/10 198/21/10 197/22/10
f 197/22/11 198/21/11 200/23/11 199/24/11
f 199/24/12 200/23/12 202/25/12 201/26/12
f 201/26/13 202/25/13 204/27/13 203/28/13
f 203/28/14 204/27/14 206/29/14 205/30/14
f 205/30/15 206/29/15 208/31/15 207/32/15
f 207/32/16 208/31/16 210/33/16 209/34/16
f 209/34/17 210/33/17 212/35/17 211/36/17
f 211/36/18 212/35/18 214/37/18 213/38/18
f 213/38/19 214/37/19 216/39/19 215/40/19
f 215/40/20 216/39/20 218/41/20 217/42/20
f 217/42/21 218/41/21 220/43/21 219/44/21
f 219/44/22 220/43/22 222/45/22 221/46/22
f 221/46/23 222/45/23 224/47/23 223/48/23
f 223/48/24 224/47/24 226/49/24 225/50/24
f 225/50/25 226/49/25 228/51/25 227/52/25
f 227/52/26 228/51/26 230/53/26 229/54/26
f 229/54/27 230/53/27 232/55/27 231/56/27
f 231/56/28 232/55/28 234/57/28 233/58/28
f 233/58/29 234/57/29 236/59/29 235/60/29
f 235/60/30 236/59/30 238/61/30 237/62/30
f 237/62/31 238/61/31 240/63/31 239/64/31
f 239/64/32 240/63/32 242/65/32 241/66/32
f 241/66/33 242/65/33 244/67/33 243/68/33
f 243/68/34 244/67/34 246/69/34 245/70/34
f 245/70/35 246/69/35 248/71/35 247/72/35
f 247/72/36 248/71/36 250/73/36 249/74/36
f 249/74/37 250/73/37 252/75/37 251/76/37
f 251/76/38 252/75/38 254/77/38 253/78/38
f 253/78/39 254/77/39 256/79/39 255/80/39
f 255/80/40 256/79/40 258/81/40 257/82/40
f 257/82/41 258/81/41 260/83/41 259/84/41
f 259/84/42 260/83/42 262/85/42 261/86/42
f 261/86/43 262/85/43 264/87/43 263/88/43
f 263/88/44 264/87/44 266/89/44 265/90/44
f 265/90/45 266/89/45 268/91/45 267/92/45
f 267/92/46 268/91/46 270/93/46 269/94/46
f 180/95/47 178/96/47 272/97/47 270/98/47 268/99/47 266/100/47 264/101/47 262/102/47 260/103/47 258/104/47 256/105/47 254/106/47 252/107/47 250/108/47 248/109/47 246/110/47 244/111/47 242/112/47 240/113/47 238/114/47 236/115/47 234/116/47 232/117/47 230/118/47 228/119/47 226/120/47 224/121/47 222/122/47 220/123/47 218/124/47 216/125/47 214/126/47 212/127/47 210/128/47 208/129/47 206/130/47 204/131/47 202/132/47 200/133/47 198/134/47 196/135/47 194/136/47 192/137/47 190/138/47 188/139/47 186/140/47 184/141/47 182/142/47
f 269/94/48 270/93/48 272/143/48 271/144/48
f 271/144/49 272/143/49 178/145/49 177/146/49
f 177/147/50 179/148/50 181/149/50 183/150/50 185/151/50 187/152/50 189/153/50 191/154/50 193/155/50 195/156/50 197/157/50 199/158/50 201/159/50 203/160/50 205/161/50 207/162/50 209/163/50 211/164/50 213/165/50 215/166/50 217/167/50 219/168/50 221/169/50 223/170/50 225/171/50 227/172/50 229/173/50 231/174/50 233/175/50 235/176/50 237/177/50 239/178/50 241/179/50 243/180/50 245/181/50 247/182/50 249/183/50 251/184/50 253/185/50 255/186/50 257/187/50 259/188/50 261/189/50 263/190/50 265/191/50 267/192/50 269/193/50 271/194/50
f 273/1/91 274/2/91 276/332/91 275/333/91
f 275/333/92 276/332/92 278/334/92 277/335/92
f 277/335/93 278/334/93 280/336/93 279/337/93
f 279/337/94 280/336/94 282/338/94 281/339/94
f 281/339/95 282/338/95 284/340/95 283/341/95
f 283/341/96 284/340/96 286/342/96 285/343/96
f 285/343/97 286/342/97 288/344/97 287/345/97
f 287/345/98 288/344/98 290/346/98 289/347/98
f 289/347/99 290/346/99 292/348/99 291/349/99
f 291/349/100 292/348/100 294/350/100 293/351/100
f 293/351/101 294/350/101 296/352/101 295/353/101
f 295/353/102 296/352/102 298/354/102 297/355/102
f 297/355/103 298/354/103 300/356/103 299/357/103
f 299/357/104 300/356/104 302/358/104 301/359/104
f 301/359/105 302/358/105 304/360/105 303/361/105
f 303/361/106 304/360/106 306/362/106 305/363/106
f 305/363/107 306/362/107 308/364/107 307/365/107
f 307/365/108 308/364/108 310/366/108 309/367/108
f 309/367/109 310/366/109 312/368/109 311/369/109
f 311/369/110 312/368/110 314/370/110 313/371/110
f 313/371/111 314/370/111 316/372/111 315/373/111
f 315/373/112 316/372/112 318/374/112 317/375/112
f 317/375/113 318/374/113 320/376/113 319/377/113
f 319/377/114 320/376/114 322/378/114 321/379/114
f 321/379/115 322/378/115 324/380/115 323/381/115
f 323/381/116 324/380/116 326/382/116 325/383/116
f 325/383/117 326/382/117 328/384/117 327/385/117
f 327/385/118 328/384/118 330/386/118 329/387/118
f 329/387/119 330/386/119 332/388/119 331/389/119
f 331/389/120 332/388/120 334/390/120 333/391/120
f 276/392/47 274/96/47 336/393/47 334/99/47 332/394/47 330/102/47 328/395/47 326/396/47 324/397/47 322/108/47 320/398/47 318/399/47 316/400/47 314/114/47 312/401/47 310/402/47 308/403/47 306/120/47 304/404/47 302/405/47 300/406/47 298/126/47 296/407/47 294/129/47 292/408/47 290/132/47 288/409/47 286/135/47 284/410/47 282/138/47 280/411/47 278/141/47
f 333/391/121 334/390/121 336/412/121 335/413/121
f 335/413/122 336/412/122 274/414/122 273/415/122
f 273/147/50 275/416/50 277/150/50 279/417/50 281/153/50 283/418/50 285/156/50 287/419/50 289/159/50 291/420/50 293/162/50 295/421/50 297/165/50 299/422/50 301/423/50 303/424/50 305/171/50 307/425/50 309/426/50 311/427/50 313/177/50 315/428/50 317/180/50 319/429/50 321/183/50 323/430/50 325/186/50 327/431/50 329/189/50 331/432/50 333/192/50 335/433/50
f 340/434/123 339/435/123 350/436/123 351/437/123
f 817/438/124 344/439/124 358/440/124 359/441/124
f 814/442/125 340/434/125 351/437/125 352/443/125
f 345/444/126 817/438/126 359/441/126 360/445/126
f 341/446/127 814/442/127 352/443/127 353/447/127
f 818/448/128 345/444/128 360/445/128 361/449/128
f 815/450/129 341/446/129 353/447/129 354/451/129
f 346/452/130 818/448/130 361/449/130 362/453/130
f 342/347/131 815/450/131 354/451/131 355/349/131
f 338/454/132 337/455/132 348/456/132
f 347/457/133 346/452/133 362/453/133
f 343/458/134 342/347/134 355/349/134 356/459/134
f 813/460/135 338/454/135 348/456/135 349/461/135
f 816/462/136 343/458/136 356/459/136 357/463/136
f 339/435/137 813/460/137 349/461/137 350/436/137
f 344/439/138 816/462/138 357/463/138 358/440/138
f 350/436/139 349/461/139 364/464/139 365/465/139
f 358/440/140 357/463/140 372/466/140 373/467/140
f 351/437/141 350/436/141 365/465/141 366/468/141
f 359/441/142 358/440/142 373/467/142 374/469/142
f 352/443/143 351/437/143 366/468/143 367/470/143
f 360/445/144 359/441/144 374/469/144 375/471/144
f 353/447/145 352/443/145 367/470/145 368/472/145
f 361/449/146 360/445/146 375/471/146 376/473/146
f 354/451/147 353/447/147 368/472/147 369/474/147
f 362/453/148 361/449/148 376/473/148 377/475/148
f 355/349/149 354/451/149 369/474/149 370/351/149
f 348/456/150 337/476/150 363/477/150
f 347/478/151 362/453/151 377/475/151
f 356/459/152 355/349/152 370/351/152 371/479/152
f 349/461/153 348/456/153 363/477/153 364/464/153
f 357/463/154 356/459/154 371/479/154 372/466/154
f 369/474/155 368/472/155 383/480/155 384/481/155
f 377/475/156 376/473/156 391/482/156 392/483/156
f 370/351/157 369/474/157 384/481/157 385/353/157
f 363/477/158 337/484/158 378/485/158
f 347/486/159 377/475/159 392/483/159
f 371/479/160 370/351/160 385/353/160 386/487/160
f 364/464/161 363/477/161 378/485/161 379/488/161
f 372/466/162 371/479/162 386/487/162 387/489/162
f 365/465/163 364/464/163 379/488/163 380/490/163
f 373/467/164 372/466/164 387/489/164 388/491/164
f 366/468/165 365/465/165 380/490/165 381/492/165
f 374/469/166 373/467/166 388/491/166 389/493/166
f 367/470/167 366/468/167 381/492/167 382/494/167
f 375/471/168 374/469/168 389/493/168 390/495/168
f 368/472/169 367/470/169 382/494/169 383/480/169
f 376/473/170 375/471/170 390/495/170 391/482/170
f 388/491/171 387/489/171 402/496/171 403/497/171
f 381/492/172 380/490/172 395/498/172 396/499/172
f 389/493/173 388/491/173 403/497/173 404/500/173
f 382/494/174 381/492/174 396/499/174 397/501/174
f 390/495/175 389/493/175 404/500/175 405/502/175
f 383/480/176 382/494/176 397/501/176 398/503/176
f 391/482/177 390/495/177 405/502/177 406/504/177
f 384/481/178 383/480/178 398/503/178 399/505/178
f 392/483/179 391/482/179 406/504/179 407/506/179
f 385/353/180 384/481/180 399/505/180 400/355/180
f 378/485/181 337/507/181 393/508/181
f 347/509/182 392/483/182 407/506/182
f 386/487/183 385/353/183 400/355/183 401/510/183
f 379/488/184 378/485/184 393/508/184 394/511/184
f 387/489/185 386/487/185 401/510/185 402/496/185
f 380/490/186 379/488/186 394/511/186 395/498/186
f 407/506/187 406/504/187 421/512/187 422/513/187
f 400/355/188 399/505/188 414/514/188 415/357/188
f 393/508/189 337/515/189 408/516/189
f 347/517/190 407/506/190 422/513/190
f 401/510/191 400/355/191 415/357/191 416/518/191
f 394/511/192 393/508/192 408/516/192 409/519/192
f 402/496/193 401/510/193 416/518/193 417/520/193
f 395/498/194 394/511/194 409/519/194 410/521/194
f 403/497/195 402/496/195 417/520/195 418/522/195
f 396/499/196 395/498/196 410/521/196 411/523/196
f 404/500/197 403/497/197 418/522/197 419/524/197
f 397/501/198 396/499/198 411/523/198 412/525/198
f 405/502/199 404/500/199 419/524/199 420/526/199
f 398/503/200 397/501/200 412/525/200 413/527/200
f 406/504/201 405/502/201 420/526/201 421/512/201
f 399/505/202 398/503/202 413/527/202 414/514/202
f 411/523/203 410/521/203 425/528/203 426/529/203
f 419/524/204 418/522/204 433/530/204 434/531/204
f 412/525/205 411/523/205 426/529/205 427/532/205
f 420/526/206 419/524/206 434/531/206 435/533/206
f 413/527/207 412/525/207 427/532/207 428/534/207
f 421/512/208 420/526/208 435/533/208 436/535/208
f 414/514/209 413/527/209 428/534/209 429/536/209
f 422/513/210 421/512/210 436/535/210 437/537/210
f 415/357/211 414/514/211 429/536/211 430/359/211
f 408/516/212 337/538/212 423/539/212
f 347/540/213 422/513/213 437/537/213
f 416/518/214 415/357/214 430/359/214 431/541/214
f 409/519/215 408/516/215 423/539/215 424/542/215
f 417/520/216 416/518/216 431/541/216 432/543/216
f 410/521/217 409/519/217 424/542/217 425/528/217
f 418/522/218 417/520/218 432/543/218 433/530/218
f 430/359/219 429/536/219 444/544/219 445/361/219
f 423/539/220 337/545/220 438/546/220
f 347/547/221 437/537/221 452/548/221
f 431/541/222 430/359/222 445/361/222 446/549/222
f 424/542/223 423/539/223 438/546/223 439/550/223
f 432/543/224 431/541/224 446/549/224 447/551/224
f 425/528/225 424/542/225 439/550/225 440/552/225
f 433/530/226 432/543/226 447/551/226 448/553/226
f 426/529/227 425/528/227 440/552/227 441/554/227
f 434/531/228 433/530/228 448/553/228 449/555/228
f 427/532/229 426/529/229 441/554/229 442/556/229
f 435/533/230 434/531/230 449/555/230 450/557/230
f 428/534/231 427/532/231 442/556/231 443/558/231
f 436/535/232 435/533/232 450/557/232 451/559/232
f 429/536/233 428/534/233 443/558/233 444/544/233
f 437/537/234 436/535/234 451/559/234 452/548/234
f 449/555/235 448/553/235 463/560/235 464/561/235
f 442/556/236 441/554/236 456/562/236 457/563/236
f 450/557/237 449/555/237 464/561/237 465/564/237
f 443/558/238 442/556/238 457/563/238 458/565/238
f 451/559/239 450/557/239 465/564/239 466/566/239
f 444/544/240 443/558/240 458/565/240 459/567/240
f 452/548/241 451/559/241 466/566/241 467/568/241
f 445/361/242 444/544/242 459/567/242 460/569/242
f 438/546/243 337/570/243 453/571/243
f 347/572/244 452/548/244 467/568/244
f 446/549/245 445/361/245 460/569/245 461/573/245
f 439/550/246 438/546/246 453/571/246 454/574/246
f 447/551/247 446/549/247 461/573/247 462/575/247
f 440/552/248 439/550/248 454/574/248 455/576/248
f 448/553/249 447/551/249 462/575/249 463/560/249
f 441/554/250 440/552/250 455/576/250 456/562/250
f 347/577/251 467/568/251 482/578/251
f 461/573/252 460/569/252 475/365/252 476/579/252
f 454/574/253 453/571/253 468/580/253 469/581/253
f 462/575/254 461/573/254 476/579/254 477/582/254
f 455/576/255 454/574/255 469/581/255 470/583/255
f 463/560/256 462/575/256 477/582/256 478/584/256
f 456/562/257 455/576/257 470/583/257 471/585/257
f 464/561/258 463/560/258 478/584/258 479/586/258
f 457/563/259 456/562/259 471/585/259 472/587/259
f 465/564/260 464/561/260 479/586/260 480/588/260
f 458/565/261 457/563/261 472/587/261 473/589/261
f 466/566/262 465/564/262 480/588/262 481/590/262
f 459/567/263 458/565/263 473/589/263 474/591/263
f 467/568/264 466/566/264 481/590/264 482/578/264
f 460/569/265 459/567/265 474/591/265 475/365/265
f 453/571/266 337/592/266 468/580/266
f 480/588/267 479/586/267 494/593/267 495/594/267
f 473/589/268 472/587/268 487/595/268 488/596/268
f 481/590/269 480/588/269 495/594/269 496/597/269
f 474/591/270 473/589/270 488/596/270 489/598/270
f 482/578/271 481/590/271 496/597/271 497/599/271
f 475/365/272 474/591/272 489/598/272 490/600/272
f 468/580/273 337/601/273 483/602/273
f 347/603/274 482/578/274 497/599/274
f 476/579/275 475/365/275 490/600/275 491/604/275
f 469/581/276 468/580/276 483/602/276 484/605/276
f 477/582/277 476/579/277 491/604/277 492/606/277
f 470/583/278 469/581/278 484/605/278 485/607/278
f 478/584/279 477/582/279 492/606/279 493/608/279
f 471/585/280 470/583/280 485/607/280 486/609/280
f 479/586/281 478/584/281 493/608/281 494/593/281
f 472/587/282 471/585/282 486/609/282 487/595/282
f 484/605/283 483/602/283 498/610/283 499/611/283
f 492/606/284 491/604/284 506/612/284 507/613/284
f 485/607/285 484/605/285 499/611/285 500/614/285
f 493/608/286 492/606/286 507/613/286 508/615/286
f 486/609/287 485/607/287 500/614/287 501/616/287
f 494/593/288 493/608/288 508/615/288 509/617/288
f 487/595/289 486/609/289 501/616/289 502/618/289
f 495/594/290 494/593/290 509/617/290 510/619/290
f 488/596/291 487/595/291 502/618/291 503/620/291
f 496/597/292 495/594/292 510/619/292 511/621/292
f 489/598/293 488/596/293 503/620/293 504/622/293
f 497/599/294 496/597/294 511/621/294 512/623/294
f 490/600/295 489/598/295 504/622/295 505/369/295
f 483/602/296 337/624/296 498/610/296
f 347/625/297 497/599/297 512/623/297
f 491/604/298 490/600/298 505/369/298 506/612/298
f 503/620/299 502/618/299 517/626/299 518/627/299
f 511/621/300 510/619/300 525/628/300 526/629/300
f 504/622/301 503/620/301 518/627/301 519/630/301
f 512/623/302 511/621/302 526/629/302 527/631/302
f 505/369/303 504/622/303 519/630/303 520/371/303
f 498/610/304 337/632/304 513/633/304
f 347/634/305 512/623/305 527/631/305
f 506/612/306 505/369/306 520/371/306 521/635/306
f 499/611/307 498/610/307 513/633/307 514/636/307
f 507/613/308 506/612/308 521/635/308 522/637/308
f 500/614/309 499/611/309 514/636/309 515/638/309
f 508/615/310 507/613/310 522/637/310 523/639/310
f 501/616/311 500/614/311 515/638/311 516/640/311
f 509/617/312 508/615/312 523/639/312 524/641/312
f 502/618/313 501/616/313 516/640/313 517/626/313
f 510/619/314 509/617/314 524/641/314 525/628/314
f 522/637/315 521/635/315 536/642/315 537/643/315
f 515/638/316 514/636/316 529/644/316 530/645/316
f 523/639/317 522/637/317 537/643/317 538/646/317
f 516/640/318 515/638/318 530/645/318 531/647/318
f 524/641/319 523/639/319 538/646/319 539/648/319
f 517/626/320 516/640/320 531/647/320 532/649/320
f 525/628/321 524/641/321 539/648/321 540/650/321
f 518/627/322 517/626/322 532/649/322 533/651/322
f 526/629/323 525/628/323 540/650/323 541/652/323
f 519/630/324 518/627/324 533/651/324 534/653/324
f 527/631/325 526/629/325 541/652/325 542/654/325
f 520/371/326 519/630/326 534/653/326 535/373/326
f 513/633/327 337/655/327 528/656/327
f 347/657/328 527/631/328 542/654/328
f 521/635/329 520/371/329 535/373/329 536/642/329
f 514/636/330 513/633/330 528/656/330 529/644/330
f 541/652/331 540/650/331 555/658/331 556/659/331
f 534/653/332 533/651/332 548/660/332 549/661/332
f 542/654/333 541/652/333 556/659/333 557/662/333
f 535/373/334 534/653/334 549/661/334 550/375/334
f 528/656/335 337/663/335 543/664/335
f 347/665/336 542/654/336 557/662/336
f 536/642/337 535/373/337 550/375/337 551/666/337
f 529/644/338 528/656/338 543/664/338 544/667/338
f 537/643/339 536/642/339 551/666/339 552/668/339
f 530/645/340 529/644/340 544/667/340 545/669/340
f 538/646/341 537/643/341 552/668/341 553/670/341
f 531/647/342 530/645/342 545/669/342 546/671/342
f 539/648/343 538/646/343 553/670/343 554/672/343
f 532/649/344 531/647/344 546/671/344 547/673/344
f 540/650/345 539/648/345 554/672/345 555/658/345
f 533/651/346 532/649/346 547/673/346 548/660/346
f 545/669/347 544/667/347 559/674/347 560/675/347
f 553/670/348 552/668/348 567/676/348 568/677/348
f 546/671/349 545/669/349 560/675/349 561/678/349
f 554/672/350 553/670/350 568/677/350 569/679/350
f 547/673/351 546/671/351 561/678/351 562/680/351
f 555/658/352 554/672/352 569/679/352 570/681/352
f 548/660/353 547/673/353 562/680/353 563/682/353
f 556/659/354 555/658/354 570/681/354 571/683/354
f 549/661/355 548/660/355 563/682/355 564/684/355
f 557/662/356 556/659/356 571/683/356 572/685/356
f 550/375/357 549/661/357 564/684/357 565/377/357
f 543/664/358 337/686/358 558/687/358
f 347/688/359 557/662/359 572/685/359
f 551/666/360 550/375/360 565/377/360 566/689/360
f 544/667/361 543/664/361 558/687/361 559/674/361
f 552/668/362 551/666/362 566/689/362 567/676/362
f 564/684/363 563/682/363 578/690/363 579/691/363
f 572/685/364 571/683/364 586/692/364 587/693/364
f 565/377/365 564/684/365 579/691/365 580/694/365
f 558/687/366 337/695/366 573/696/366
f 347/697/367 572/685/367 587/693/367
f 566/689/368 565/377/368 580/694/368 581/698/368
f 559/674/369 558/687/369 573/696/369 574/699/369
f 567/676/370 566/689/370 581/698/370 582/700/370
f 560/675/371 559/674/371 574/699/371 575/701/371
f 568/677/372 567/676/372 582/700/372 583/702/372
f 561/678/373 560/675/373 575/701/373 576/703/373
f 569/679/374 568/677/374 583/702/374 584/704/374
f 562/680/375 561/678/375 576/703/375 577/705/375
f 570/681/376 569/679/376 584/704/376 585/706/376
f 563/682/377 562/680/377 577/705/377 578/690/377
f 571/683/378 570/681/378 585/706/378 586/692/378
f 583/702/379 582/700/379 597/707/379 598/708/379
f 576/703/380 575/701/380 590/709/380 591/710/380
f 584/704/381 583/702/381 598/708/381 599/711/381
f 577/705/382 576/703/382 591/710/382 592/712/382
f 585/706/383 584/704/383 599/711/383 600/713/383
f 578/690/384 577/705/384 592/712/384 593/714/384
f 586/692/385 585/706/385 600/713/385 601/715/385
f 579/691/386 578/690/386 593/714/386 594/716/386
f 587/693/387 586/692/387 601/715/387 602/717/387
f 580/694/388 579/691/388 594/716/388 595/381/388
f 573/696/389 337/718/389 588/719/389
f 347/720/390 587/693/390 602/717/390
f 581/698/391 580/694/391 595/381/391 596/721/391
f 574/699/392 573/696/392 588/719/392 589/722/392
f 582/700/393 581/698/393 596/721/393 597/707/393
f 575/701/394 574/699/394 589/722/394 590/709/394
f 602/717/395 601/715/395 616/723/395 617/724/395
f 595/381/396 594/716/396 609/725/396 610/383/396
f 588/719/397 337/726/397 603/727/397
f 347/728/398 602/717/398 617/724/398
f 596/721/399 595/381/399 610/383/399 611/729/399
f 589/722/400 588/719/400 603/727/400 604/730/400
f 597/707/401 596/721/401 611/729/401 612/731/401
f 590/709/402 589/722/402 604/730/402 605/732/402
f 598/708/403 597/707/403 612/731/403 613/733/403
f 591/710/404 590/709/404 605/732/404 606/734/404
f 599/711/405 598/708/405 613/733/405 614/735/405
f 592/712/406 591/710/406 606/734/406 607/736/406
f 600/713/407 599/711/407 614/735/407 615/737/407
f 593/714/408 592/712/408 607/736/408 608/738/408
f 601/715/409 600/713/409 615/737/409 616/723/409
f 594/716/410 593/714/410 608/738/410 609/725/410
f 614/735/411 613/733/411 628/739/411 629/740/411
f 607/736/412 606/734/412 621/741/412 622/742/412
f 615/737/413 614/735/413 629/740/413 630/743/413
f 608/738/414 607/736/414 622/742/414 623/744/414
f 616/723/415 615/737/415 630/743/415 631/745/415
f 609/725/416 608/738/416 623/744/416 624/746/416
f 617/724/417 616/723/417 631/745/417 632/747/417
f 610/383/418 609/725/418 624/746/418 625/748/418
f 603/727/419 337/749/419 618/750/419
f 347/751/420 617/724/420 632/747/420
f 611/729/421 610/383/421 625/748/421 626/752/421
f 604/730/422 603/727/422 618/750/422 619/753/422
f 612/731/423 611/729/423 626/752/423 627/754/423
f 605/732/424 604/730/424 619/753/424 620/755/424
f 613/733/425 612/731/425 627/754/425 628/739/425
f 606/734/426 605/732/426 620/755/426 621/741/426
f 618/750/427 337/756/427 633/757/427
f 347/758/428 632/747/428 647/759/428
f 626/752/429 625/748/429 640/760/429 641/761/429
f 619/753/430 618/750/430 633/757/430 634/762/430
f 627/754/431 626/752/431 641/761/431 642/763/431
f 620/755/432 619/753/432 634/762/432 635/764/432
f 628/739/433 627/754/433 642/763/433 643/765/433
f 621/741/434 620/755/434 635/764/434 636/766/434
f 629/740/435 628/739/435 643/765/435 644/767/435
f 622/742/436 621/741/436 636/766/436 637/768/436
f 630/743/437 629/740/437 644/767/437 645/769/437
f 623/744/438 622/742/438 637/768/438 638/770/438
f 631/745/439 630/743/439 645/769/439 646/771/439
f 624/746/440 623/744/440 638/770/440 639/772/440
f 632/747/441 631/745/441 646/771/441 647/759/441
f 625/748/442 624/746/442 639/772/442 640/760/442
f 637/768/443 636/766/443 651/773/443 652/774/443
f 645/769/444 644/767/444 659/775/444 660/776/444
f 638/770/445 637/768/445 652/774/445 653/777/445
f 646/771/446 645/769/446 660/776/446 661/778/446
f 639/772/447 638/770/447 653/777/447 654/779/447
f 647/759/448 646/771/448 661/778/448 662/780/448
f 640/760/449 639/772/449 654/779/449 655/389/449
f 633/757/450 337/781/450 648/782/450
f 347/783/451 647/759/451 662/780/451
f 641/761/452 640/760/452 655/389/452 656/784/452
f 634/762/453 633/757/453 648/782/453 649/785/453
f 642/763/454 641/761/454 656/784/454 657/786/454
f 635/764/455 634/762/455 649/785/455 650/787/455
f 643/765/456 642/763/456 657/786/456 658/788/456
f 636/766/457 635/764/457 650/787/457 651/773/457
f 644/767/458 643/765/458 658/788/458 659/775/458
f 656/784/459 655/389/459 670/391/459 671/789/459
f 649/785/460 648/782/460 663/790/460 664/791/460
f 657/786/461 656/784/461 671/789/461 672/792/461
f 650/787/462 649/785/462 664/791/462 665/793/462
f 658/788/463 657/786/463 672/792/463 673/794/463
f 651/773/464 650/787/464 665/793/464 666/795/464
f 659/775/465 658/788/465 673/794/465 674/796/465
f 652/774/466 651/773/466 666/795/466 667/797/466
f 660/776/467 659/775/467 674/796/467 675/798/467
f 653/777/468 652/774/468 667/797/468 668/799/468
f 661/778/469 660/776/469 675/798/469 676/800/469
f 654/779/470 653/777/470 668/799/470 669/801/470
f 662/780/471 661/778/471 676/800/471 677/802/471
f 655/389/472 654/779/472 669/801/472 670/391/472
f 648/782/473 337/803/473 663/790/473
f 347/804/474 662/780/474 677/802/474
f 675/798/475 674/796/475 689/805/475 690/806/475
f 668/799/476 667/797/476 682/807/476 683/808/476
f 676/800/477 675/798/477 690/806/477 691/809/477
f 669/801/478 668/799/478 683/808/478 684/810/478
f 677/802/479 676/800/479 691/809/479 692/811/479
f 670/391/480 669/801/480 684/810/480 685/812/480
f 663/790/481 337/813/481 678/814/481
f 347/815/482 677/802/482 692/811/482
f 671/789/483 670/391/483 685/812/483 686/816/483
f 664/791/484 663/790/484 678/814/484 679/817/484
f 672/792/485 671/789/485 686/816/485 687/818/485
f 665/793/486 664/791/486 679/817/486 680/819/486
f 673/794/487 672/792/487 687/818/487 688/820/487
f 666/795/488 665/793/488 680/819/488 681/821/488
f 674/796/489 673/794/489 688/820/489 689/805/489
f 667/797/490 666/795/490 681/821/490 682/807/490
f 679/817/491 678/814/491 693/822/491 694/823/491
f 687/818/492 686/816/492 701/824/492 702/825/492
f 680/819/493 679/817/493 694/823/493 695/826/493
f 688/820/494 687/818/494 702/825/494 703/827/494
f 681/821/495 680/819/495 695/826/495 696/828/495
f 689/805/496 688/820/496 703/827/496 704/829/496
f 682/807/497 681/821/497 696/828/497 697/830/497
f 690/806/498 689/805/498 704/829/498 705/831/498
f 683/808/499 682/807/499 697/830/499 698/832/499
f 691/809/500 690/806/500 705/831/500 706/833/500
f 684/810/501 683/808/501 698/832/501 699/834/501
f 692/811/502 691/809/502 706/833/502 707/835/502
f 685/812/503 684/810/503 699/834/503 700/415/503
f 678/814/504 337/836/504 693/822/504
f 347/837/505 692/811/505 707/835/505
f 686/816/506 685/812/506 700/415/506 701/824/506
f 698/838/507 697/839/507 712/840/507 713/841/507
f 706/842/508 705/843/508 720/844/508 721/845/508
f 699/846/509 698/838/509 713/841/509 714/847/509
f 707/848/510 706/842/510 721/845/510 722/849/510
f 700/1/511 699/846/511 714/847/511 715/850/511
f 693/851/512 337/852/512 708/853/512
f 347/854/513 707/848/513 722/849/513
f 701/855/514 700/1/514 715/850/514 716/856/514
f 694/857/515 693/851/515 708/853/515 709/858/515
f 702/859/516 701/855/516 716/856/516 717/860/516
f 695/861/517 694/857/517 709/858/517 710/862/517
f 703/863/518 702/859/518 717/860/518 718/864/518
f 696/865/519 695/861/519 710/862/519 711/866/519
f 704/867/520 703/863/520 718/864/520 719/868/520
f 697/839/521 696/865/521 711/866/521 712/840/521
f 705/843/522 704/867/522 719/868/522 720/844/522
f 717/860/523 716/856/523 731/869/523 732/870/523
f 710/862/524 709/858/524 724/871/524 725/872/524
f 718/864/525 717/860/525 732/870/525 733/873/525
f 711/866/526 710/862/526 725/872/526 726/874/526
f 719/868/527 718/864/527 733/873/527 734/875/527
f 712/840/528 711/866/528 726/874/528 727/876/528
f 720/844/529 719/868/529 734/875/529 735/877/529
f 713/841/530 712/840/530 727/876/530 728/878/530
f 721/845/531 720/844/531 735/877/531 736/879/531
f 714/847/532 713/841/532 728/878/532 729/880/532
f 722/849/533 721/845/533 736/879/533 737/881/533
f 715/850/534 714/847/534 729/880/534 730/335/534
f 708/853/535 337/882/535 723/883/535
f 347/884/536 722/849/536 737/881/536
f 716/856/537 715/850/537 730/335/537 731/869/537
f 709/858/538 708/853/538 723/883/538 724/871/538
f 736/879/539 735/877/539 750/885/539 751/886/539
f 729/880/540 728/878/540 743/887/540 744/888/540
f 737/881/541 736/879/541 751/886/541 752/889/541
f 730/335/542 729/880/542 744/888/542 745/337/542
f 723/883/543 337/890/543 738/891/543
f 347/892/544 737/881/544 752/889/544
f 731/869/545 730/335/545 745/337/545 746/893/545
f 724/871/546 723/883/546 738/891/546 739/894/546
f 732/870/547 731/869/547 746/893/547 747/895/547
f 725/872/548 724/871/548 739/894/548 740/896/548
f 733/873/549 732/870/549 747/895/549 748/897/549
f 726/874/550 725/872/550 740/896/550 741/898/550
f 734/875/551 733/873/551 748/897/551 749/899/551
f 727/876/552 726/874/552 741/898/552 742/900/552
f 735/877/553 734/875/553 749/899/553 750/885/553
f 728/878/554 727/876/554 742/900/554 743/887/554
f 748/897/555 747/895/555 762/901/555 763/902/555
f 741/898/556 740/896/556 755/903/556 756/904/556
f 749/899/557 748/897/557 763/902/557 764/905/557
f 742/900/558 741/898/558 756/904/558 757/906/558
f 750/885/559 749/899/559 764/905/559 765/907/559
f 743/887/560 742/900/560 757/906/560 758/908/560
f 751/886/561 750/885/561 765/907/561 766/909/561
f 744/888/562 743/887/562 758/908/562 759/910/562
f 752/889/563 751/886/563 766/909/563 767/911/563
f 745/337/564 744/888/564 759/910/564 760/912/564
f 738/891/565 337/913/565 753/914/565
f 347/915/566 752/889/566 767/911/566
f 746/893/567 745/337/567 760/912/567 761/916/567
f 739/894/568 738/891/568 753/914/568 754/917/568
f 747/895/569 746/893/569 761/916/569 762/901/569
f 740/896/570 739/894/570 754/917/570 755/903/570
f 767/911/571 766/909/571 781/918/571 782/919/571
f 760/912/572 759/910/572 774/920/572 775/921/572
f 753/914/573 337/922/573 768/923/573
f 347/924/574 767/911/574 782/919/574
f 761/916/575 760/912/575 775/921/575 776/925/575
f 754/917/576 753/914/576 768/923/576 769/926/576
f 762/901/577 761/916/577 776/925/577 777/927/577
f 755/903/578 754/917/578 769/926/578 770/928/578
f 763/902/579 762/901/579 777/927/579 778/929/579
f 756/904/580 755/903/580 770/928/580 771/930/580
f 764/905/581 763/902/581 778/929/581 779/931/581
f 757/906/582 756/904/582 771/930/582 772/932/582
f 765/907/583 764/905/583 779/931/583 780/933/583
f 758/908/584 757/906/584 772/932/584 773/934/584
f 766/909/585 765/907/585 780/933/585 781/918/585
f 759/910/586 758/908/586 773/934/586 774/920/586
f 771/930/587 770/928/587 785/935/587 786/936/587
f 779/931/588 778/929/588 793/937/588 794/938/588
f 772/932/589 771/930/589 786/936/589 787/939/589
f 780/933/590 779/931/590 794/938/590 795/940/590
f 773/934/591 772/932/591 787/939/591 788/941/591
f 781/918/592 780/933/592 795/940/592 796/942/592
f 774/920/593 773/934/593 788/941/593 789/943/593
f 782/919/594 781/918/594 796/942/594 797/944/594
f 775/921/595 774/920/595 789/943/595 790/945/595
f 768/923/596 337/946/596 783/947/596
f 347/948/597 782/919/597 797/944/597
f 776/925/598 775/921/598 790/945/598 791/949/598
f 769/926/599 768/923/599 783/947/599 784/950/599
f 777/927/600 776/925/600 791/949/600 792/951/600
f 770/928/601 769/926/601 784/950/601 785/935/601
f 778/929/602 777/927/602 792/951/602 793/937/602
f 790/945/603 789/943/603 804/952/603 805/953/603
f 783/947/604 337/954/604 798/955/604
f 347/956/605 797/944/605 812/957/605
f 791/949/606 790/945/606 805/953/606 806/958/606
f 784/950/607 783/947/607 798/955/607 799/959/607
f 792/951/608 791/949/608 806/958/608 807/960/608
f 785/935/609 784/950/609 799/959/609 800/961/609
f 793/937/610 792/951/610 807/960/610 808/962/610
f 786/936/611 785/935/611 800/961/611 801/963/611
f 794/938/612 793/937/612 808/962/612 809/964/612
f 787/939/613 786/936/613 801/963/613 802/965/613
f 795/940/614 794/938/614 809/964/614 810/966/614
f 788/941/615 787/939/615 802/965/615 803/967/615
f 796/942/616 795/940/616 810/966/616 811/968/616
f 789/943/617 788/941/617 803/967/617 804/952/617
f 797/944/618 796/942/618 811/968/618 812/957/618
f 809/964/619 808/962/619 344/439/619 817/438/619
f 802/965/620 801/963/620 340/434/620 814/442/620
f 810/966/621 809/964/621 817/438/621 345/444/621
f 803/967/622 802/965/622 814/442/622 341/446/622
f 811/968/623 810/966/623 345/444/623 818/448/623
f 804/952/624 803/967/624 341/446/624 815/450/624
f 812/957/625 811/968/625 818/448/625 346/452/625
f 805/953/626 804/952/626 815/450/626 342/347/626
f 798/955/627 337/969/627 338/454/627
f 347/970/628 812/957/628 346/452/628
f 806/958/629 805/953/629 342/347/629 343/458/629
f 799/959/630 798/955/630 338/454/630 813/460/630
f 807/960/631 806/958/631 343/458/631 816/462/631
f 800/961/632 799/959/632 813/460/632 339/435/632
f 808/962/633 807/960/633 816/462/633 344/439/633
f 801/963/634 800/961/634 339/435/634 340/434/634
